#N canvas 0 0 450 300 10;
#X obj 70 210 inlet~;
#X obj 130 210 inlet~;
#X obj 10 210 inlet;
#X obj 190 210 r \$0-read;
#X obj 190 240 faust-control \$0;
#X obj 190 270 s \$0-write;
#X obj 10 270 r \$0-in;
#X obj 10 300 amp~;
#X obj 10 330 s \$0-out;
#X obj 70 360 outlet~;
#X obj 130 360 outlet~;
#X obj 10 360 outlet;
#X connect 2 0 4 0;
#X connect 3 0 4 0;
#X connect 4 0 5 0;
#X connect 7 0 8 0;
#X connect 2 0 11 0;
#X connect 6 0 7 0;
#X connect 0 0 7 1;
#X connect 1 0 7 2;
#X connect 7 1 9 0;
#X connect 7 2 10 0;
#X obj 10 30 nbx 5 14 -20 20 0 0 \$0-amp/0-amp/1-tone/bass \$0-amp/0-amp/1-tone/bass bass 0 -6 0 10 -262144 -1 -1 256;
#X obj 85 30 nbx 5 14 -20 20 0 0 \$0-amp/0-amp/1-tone/treble \$0-amp/0-amp/1-tone/treble treble 0 -6 0 10 -262144 -1 -1 256;
#X obj 160 30 nbx 5 14 -96 96 0 0 \$0-amp/0-amp/2-gain/gain \$0-amp/0-amp/2-gain/gain gain 0 -6 0 10 -262144 -1 -1 256;
#X obj 10 60 hsl 128 15 -1 1 0 0 \$0-amp/3-balance/balance \$0-amp/3-balance/balance balance -2 -6 0 10 -262144 -1 -1 0 1;
#X obj 160 60 nbx 5 14 -1 1 0 0 \$0-amp/3-balance/balance \$0-amp/3-balance/balance empty 0 -6 0 10 -262144 -1 -1 256;
#X obj 10 90 hsl 128 15 -96 10 0 0 \$0-amp/4-meter/left \$0-amp/4-meter/left left -2 -6 0 10 -233017 -1 -1 0 1;
#X obj 160 90 nbx 5 14 -96 10 0 0 \$0-amp/4-meter/left \$0-amp/4-meter/left empty 0 -6 0 10 -233017 -1 -1 256;
#X obj 10 120 hsl 128 15 -96 10 0 0 \$0-amp/4-meter/right \$0-amp/4-meter/right right -2 -6 0 10 -233017 -1 -1 0 1;
#X obj 160 120 nbx 5 14 -96 10 0 0 \$0-amp/4-meter/right \$0-amp/4-meter/right empty 0 -6 0 10 -233017 -1 -1 256;
#X obj 197 3 bng 15 250 50 1 \$0-init \$0-ignore empty 0 -6 0 10 -262144 -1 -1;
#X obj 217 3 tgl 15 1 \$0-active \$0-active empty 0 -6 0 10 -262144 -1 -1 1 1;
#X obj 450 10 r \$0-init;
#X obj 698 10 s \$0-in;
#X obj 822 10 s \$0-read;
#X obj 946 10 r \$0-write;
#X msg 450 30 1;
#X obj 450 50 s \$0-active;
#X connect 27 0 28 0;
#X obj 698 30 r \$0-active;
#X msg 698 50 active \$1;
#X connect 29 0 30 0;
#X connect 30 0 24 0;
#X obj 946 30 route active;
#X obj 946 50 s \$0-active;
#X connect 26 0 31 0;
#X connect 31 0 32 0;
#X msg 450 70 0;
#X obj 450 90 s \$0-amp/0-amp/1-tone/bass;
#X connect 23 0 33 0;
#X connect 33 0 34 0;
#X obj 698 70 r \$0-amp/0-amp/1-tone/bass;
#X msg 698 90 /amp/0-amp/1-tone/bass \$1;
#X connect 35 0 36 0;
#X connect 36 0 24 0;
#X obj 946 70 route /amp/0-amp/1-tone/bass;
#X obj 946 90 s \$0-amp/0-amp/1-tone/bass;
#X connect 31 1 37 0;
#X connect 37 0 38 0;
#X msg 450 110 0;
#X obj 450 130 s \$0-amp/0-amp/1-tone/treble;
#X connect 23 0 39 0;
#X connect 39 0 40 0;
#X obj 698 110 r \$0-amp/0-amp/1-tone/treble;
#X msg 698 130 /amp/0-amp/1-tone/treble \$1;
#X connect 41 0 42 0;
#X connect 42 0 24 0;
#X obj 946 110 route /amp/0-amp/1-tone/treble;
#X obj 946 130 s \$0-amp/0-amp/1-tone/treble;
#X connect 37 1 43 0;
#X connect 43 0 44 0;
#X msg 450 150 0;
#X obj 450 170 s \$0-amp/0-amp/2-gain/gain;
#X connect 23 0 45 0;
#X connect 45 0 46 0;
#X obj 698 150 r \$0-amp/0-amp/2-gain/gain;
#X msg 698 170 /amp/0-amp/2-gain/gain \$1;
#X connect 47 0 48 0;
#X connect 48 0 24 0;
#X obj 946 150 route /amp/0-amp/2-gain/gain;
#X obj 946 170 s \$0-amp/0-amp/2-gain/gain;
#X connect 43 1 49 0;
#X connect 49 0 50 0;
#X msg 450 190 0;
#X obj 450 210 s \$0-amp/3-balance/balance;
#X connect 23 0 51 0;
#X connect 51 0 52 0;
#X obj 698 190 r \$0-amp/3-balance/balance;
#X msg 698 210 /amp/3-balance/balance \$1;
#X connect 53 0 54 0;
#X connect 54 0 24 0;
#X obj 946 190 route /amp/3-balance/balance;
#X obj 946 210 s \$0-amp/3-balance/balance;
#X connect 49 1 55 0;
#X connect 55 0 56 0;
#X msg 450 230 0;
#X obj 450 250 s \$0-amp/4-meter/left;
#X connect 23 0 57 0;
#X connect 57 0 58 0;
#X obj 698 230 faust-timer \$0;
#X msg 698 250 /amp/4-meter/left;
#X connect 59 0 60 0;
#X connect 60 0 25 0;
#X obj 946 230 route /amp/4-meter/left;
#X obj 946 250 s \$0-amp/4-meter/left;
#X connect 55 1 61 0;
#X connect 61 0 62 0;
#X msg 450 270 0;
#X obj 450 290 s \$0-amp/4-meter/right;
#X connect 23 0 63 0;
#X connect 63 0 64 0;
#X obj 698 270 faust-timer \$0;
#X msg 698 290 /amp/4-meter/right;
#X connect 65 0 66 0;
#X connect 66 0 25 0;
#X obj 946 270 route /amp/4-meter/right;
#X obj 946 290 s \$0-amp/4-meter/right;
#X connect 61 1 67 0;
#X connect 67 0 68 0;
#X coords 0 -1 1 1 235 140 1 0 0;
#X text 0 160 Generated Mon Sep 22 11:26:05 2014 by faust2pd v2.9. See http://faust.grame.fr and http://purelang.bitbucket.org.;
