#N canvas 0 0 450 300 10;
#X obj 10 330 inlet;
#X obj 130 330 inlet;
#X obj 190 330 r \$0-read;
#X obj 130 360 r \$0-all;
#X obj 190 360 faust-control \$0;
#X obj 190 390 s \$0-write;
#X obj 130 390 r \$0-in;
#X obj 130 660 s \$0-out;
#X obj 10 420 faust-gate 1;
#X obj 130 420 chimes~;
#X obj 10 450 faust-gate 2;
#X obj 130 450 chimes~;
#X obj 10 480 faust-gate 3;
#X obj 130 480 chimes~;
#X obj 10 510 faust-gate 4;
#X obj 130 510 chimes~;
#X obj 10 540 faust-gate 5;
#X obj 130 540 chimes~;
#X obj 10 570 faust-gate 6;
#X obj 130 570 chimes~;
#X obj 10 600 faust-gate 7;
#X obj 130 600 chimes~;
#X obj 10 630 faust-gate 8;
#X obj 130 630 chimes~;
#X obj 130 690 outlet~;
#X obj 190 690 outlet~;
#X obj 10 690 outlet;
#X connect 1 0 4 0;
#X connect 2 0 4 0;
#X connect 4 0 5 0;
#X connect 1 0 26 0;
#X connect 6 0 9 0;
#X connect 9 0 7 0;
#X connect 0 0 8 0;
#X connect 8 0 9 0;
#X connect 3 0 9 0;
#X connect 0 0 10 0;
#X connect 10 0 11 0;
#X connect 3 0 11 0;
#X connect 0 0 12 0;
#X connect 12 0 13 0;
#X connect 3 0 13 0;
#X connect 0 0 14 0;
#X connect 14 0 15 0;
#X connect 3 0 15 0;
#X connect 0 0 16 0;
#X connect 16 0 17 0;
#X connect 3 0 17 0;
#X connect 0 0 18 0;
#X connect 18 0 19 0;
#X connect 3 0 19 0;
#X connect 0 0 20 0;
#X connect 20 0 21 0;
#X connect 3 0 21 0;
#X connect 0 0 22 0;
#X connect 22 0 23 0;
#X connect 3 0 23 0;
#X connect 9 1 24 0;
#X connect 9 2 25 0;
#X connect 11 1 24 0;
#X connect 11 2 25 0;
#X connect 13 1 24 0;
#X connect 13 2 25 0;
#X connect 15 1 24 0;
#X connect 15 2 25 0;
#X connect 17 1 24 0;
#X connect 17 2 25 0;
#X connect 19 1 24 0;
#X connect 19 2 25 0;
#X connect 21 1 24 0;
#X connect 21 2 25 0;
#X connect 23 1 24 0;
#X connect 23 2 25 0;
#X obj 10 30 nbx 5 14 0 1 0 0 \$0-chimes/1-excitator/decay \$0-chimes/1-excitator/decay decay 0 -6 0 10 -262144 -1 -1 256;
#X obj 10 60 nbx 5 14 0 1 0 0 \$0-chimes/2-resonator-0/amplitude0 \$0-chimes/2-resonator-0/amplitude0 amplitude0 0 -6 0 10 -262144 -1 -1 256;
#X obj 85 60 nbx 5 14 0 10 0 0 \$0-chimes/2-resonator-0/decay0 \$0-chimes/2-resonator-0/decay0 decay0 0 -6 0 10 -262144 -1 -1 256;
#X obj 160 60 nbx 5 14 0 50 0 0 \$0-chimes/2-resonator-0/harmonic0 \$0-chimes/2-resonator-0/harmonic0 harmonic0 0 -6 0 10 -262144 -1 -1 256;
#X obj 235 60 nbx 5 14 0 1 0 0 \$0-chimes/2-resonator-0/rq0 \$0-chimes/2-resonator-0/rq0 rq0 0 -6 0 10 -262144 -1 -1 256;
#X obj 10 90 nbx 5 14 0 1 0 0 \$0-chimes/2-resonator-1/amplitude1 \$0-chimes/2-resonator-1/amplitude1 amplitude1 0 -6 0 10 -262144 -1 -1 256;
#X obj 85 90 nbx 5 14 0 10 0 0 \$0-chimes/2-resonator-1/decay1 \$0-chimes/2-resonator-1/decay1 decay1 0 -6 0 10 -262144 -1 -1 256;
#X obj 160 90 nbx 5 14 0 50 0 0 \$0-chimes/2-resonator-1/harmonic1 \$0-chimes/2-resonator-1/harmonic1 harmonic1 0 -6 0 10 -262144 -1 -1 256;
#X obj 235 90 nbx 5 14 0 1 0 0 \$0-chimes/2-resonator-1/rq1 \$0-chimes/2-resonator-1/rq1 rq1 0 -6 0 10 -262144 -1 -1 256;
#X obj 10 120 nbx 5 14 0 1 0 0 \$0-chimes/2-resonator-2/amplitude2 \$0-chimes/2-resonator-2/amplitude2 amplitude2 0 -6 0 10 -262144 -1 -1 256;
#X obj 85 120 nbx 5 14 0 10 0 0 \$0-chimes/2-resonator-2/decay2 \$0-chimes/2-resonator-2/decay2 decay2 0 -6 0 10 -262144 -1 -1 256;
#X obj 160 120 nbx 5 14 0 50 0 0 \$0-chimes/2-resonator-2/harmonic2 \$0-chimes/2-resonator-2/harmonic2 harmonic2 0 -6 0 10 -262144 -1 -1 256;
#X obj 235 120 nbx 5 14 0 1 0 0 \$0-chimes/2-resonator-2/rq2 \$0-chimes/2-resonator-2/rq2 rq2 0 -6 0 10 -262144 -1 -1 256;
#X obj 10 150 nbx 5 14 0 1 0 0 \$0-chimes/2-resonator-3/amplitude3 \$0-chimes/2-resonator-3/amplitude3 amplitude3 0 -6 0 10 -262144 -1 -1 256;
#X obj 85 150 nbx 5 14 0 10 0 0 \$0-chimes/2-resonator-3/decay3 \$0-chimes/2-resonator-3/decay3 decay3 0 -6 0 10 -262144 -1 -1 256;
#X obj 160 150 nbx 5 14 0 50 0 0 \$0-chimes/2-resonator-3/harmonic3 \$0-chimes/2-resonator-3/harmonic3 harmonic3 0 -6 0 10 -262144 -1 -1 256;
#X obj 235 150 nbx 5 14 0 1 0 0 \$0-chimes/2-resonator-3/rq3 \$0-chimes/2-resonator-3/rq3 rq3 0 -6 0 10 -262144 -1 -1 256;
#X obj 10 180 nbx 5 14 0 1 0 0 \$0-chimes/2-resonator-4/amplitude4 \$0-chimes/2-resonator-4/amplitude4 amplitude4 0 -6 0 10 -262144 -1 -1 256;
#X obj 85 180 nbx 5 14 0 10 0 0 \$0-chimes/2-resonator-4/decay4 \$0-chimes/2-resonator-4/decay4 decay4 0 -6 0 10 -262144 -1 -1 256;
#X obj 160 180 nbx 5 14 0 50 0 0 \$0-chimes/2-resonator-4/harmonic4 \$0-chimes/2-resonator-4/harmonic4 harmonic4 0 -6 0 10 -262144 -1 -1 256;
#X obj 235 180 nbx 5 14 0 1 0 0 \$0-chimes/2-resonator-4/rq4 \$0-chimes/2-resonator-4/rq4 rq4 0 -6 0 10 -262144 -1 -1 256;
#X obj 10 210 hsl 128 15 0 1 0 0 \$0-chimes/3-master/pan \$0-chimes/3-master/pan pan -2 -6 0 10 -262144 -1 -1 0 1;
#X obj 160 210 nbx 5 14 0 1 0 0 \$0-chimes/3-master/pan \$0-chimes/3-master/pan empty 0 -6 0 10 -262144 -1 -1 256;
#X obj 10 240 hsl 128 15 0 10 0 0 \$0-chimes/3-master/vol \$0-chimes/3-master/vol vol -2 -6 0 10 -262144 -1 -1 0 1;
#X obj 160 240 nbx 5 14 0 10 0 0 \$0-chimes/3-master/vol \$0-chimes/3-master/vol empty 0 -6 0 10 -262144 -1 -1 256;
#X obj 272 3 bng 15 250 50 1 \$0-init \$0-ignore empty 0 -6 0 10 -262144 -1 -1;
#X obj 292 3 tgl 15 1 \$0-active \$0-active empty 0 -6 0 10 -262144 -1 -1 1 1;
#X obj 450 10 r \$0-init;
#X obj 762 10 s \$0-all;
#X obj 918 10 s \$0-read;
#X obj 1074 10 r \$0-write;
#X msg 450 30 1;
#X obj 450 50 s \$0-active;
#X connect 58 0 59 0;
#X obj 762 30 r \$0-active;
#X msg 762 50 active \$1;
#X connect 60 0 61 0;
#X connect 61 0 55 0;
#X obj 1074 30 route active;
#X obj 1074 50 s \$0-active;
#X connect 57 0 62 0;
#X connect 62 0 63 0;
#X msg 450 70 0.01;
#X obj 450 90 s \$0-chimes/1-excitator/decay;
#X connect 54 0 64 0;
#X connect 64 0 65 0;
#X obj 762 70 r \$0-chimes/1-excitator/decay;
#X msg 762 90 /chimes/1-excitator/decay \$1;
#X connect 66 0 67 0;
#X connect 67 0 55 0;
#X obj 1074 70 route /chimes/1-excitator/decay;
#X obj 1074 90 s \$0-chimes/1-excitator/decay;
#X connect 62 1 68 0;
#X connect 68 0 69 0;
#X msg 450 110 0.167;
#X obj 450 130 s \$0-chimes/2-resonator-0/amplitude0;
#X connect 54 0 70 0;
#X connect 70 0 71 0;
#X obj 762 110 r \$0-chimes/2-resonator-0/amplitude0;
#X msg 762 130 /chimes/2-resonator-0/amplitude0 \$1;
#X connect 72 0 73 0;
#X connect 73 0 55 0;
#X obj 1074 110 route /chimes/2-resonator-0/amplitude0;
#X obj 1074 130 s \$0-chimes/2-resonator-0/amplitude0;
#X connect 68 1 74 0;
#X connect 74 0 75 0;
#X msg 450 150 3.693;
#X obj 450 170 s \$0-chimes/2-resonator-0/decay0;
#X connect 54 0 76 0;
#X connect 76 0 77 0;
#X obj 762 150 r \$0-chimes/2-resonator-0/decay0;
#X msg 762 170 /chimes/2-resonator-0/decay0 \$1;
#X connect 78 0 79 0;
#X connect 79 0 55 0;
#X obj 1074 150 route /chimes/2-resonator-0/decay0;
#X obj 1074 170 s \$0-chimes/2-resonator-0/decay0;
#X connect 74 1 80 0;
#X connect 80 0 81 0;
#X msg 450 190 1;
#X obj 450 210 s \$0-chimes/2-resonator-0/harmonic0;
#X connect 54 0 82 0;
#X connect 82 0 83 0;
#X obj 762 190 r \$0-chimes/2-resonator-0/harmonic0;
#X msg 762 210 /chimes/2-resonator-0/harmonic0 \$1;
#X connect 84 0 85 0;
#X connect 85 0 55 0;
#X obj 1074 190 route /chimes/2-resonator-0/harmonic0;
#X obj 1074 210 s \$0-chimes/2-resonator-0/harmonic0;
#X connect 80 1 86 0;
#X connect 86 0 87 0;
#X msg 450 230 0.002;
#X obj 450 250 s \$0-chimes/2-resonator-0/rq0;
#X connect 54 0 88 0;
#X connect 88 0 89 0;
#X obj 762 230 r \$0-chimes/2-resonator-0/rq0;
#X msg 762 250 /chimes/2-resonator-0/rq0 \$1;
#X connect 90 0 91 0;
#X connect 91 0 55 0;
#X obj 1074 230 route /chimes/2-resonator-0/rq0;
#X obj 1074 250 s \$0-chimes/2-resonator-0/rq0;
#X connect 86 1 92 0;
#X connect 92 0 93 0;
#X msg 450 270 0.083;
#X obj 450 290 s \$0-chimes/2-resonator-1/amplitude1;
#X connect 54 0 94 0;
#X connect 94 0 95 0;
#X obj 762 270 r \$0-chimes/2-resonator-1/amplitude1;
#X msg 762 290 /chimes/2-resonator-1/amplitude1 \$1;
#X connect 96 0 97 0;
#X connect 97 0 55 0;
#X obj 1074 270 route /chimes/2-resonator-1/amplitude1;
#X obj 1074 290 s \$0-chimes/2-resonator-1/amplitude1;
#X connect 92 1 98 0;
#X connect 98 0 99 0;
#X msg 450 310 2.248;
#X obj 450 330 s \$0-chimes/2-resonator-1/decay1;
#X connect 54 0 100 0;
#X connect 100 0 101 0;
#X obj 762 310 r \$0-chimes/2-resonator-1/decay1;
#X msg 762 330 /chimes/2-resonator-1/decay1 \$1;
#X connect 102 0 103 0;
#X connect 103 0 55 0;
#X obj 1074 310 route /chimes/2-resonator-1/decay1;
#X obj 1074 330 s \$0-chimes/2-resonator-1/decay1;
#X connect 98 1 104 0;
#X connect 104 0 105 0;
#X msg 450 350 3.007;
#X obj 450 370 s \$0-chimes/2-resonator-1/harmonic1;
#X connect 54 0 106 0;
#X connect 106 0 107 0;
#X obj 762 350 r \$0-chimes/2-resonator-1/harmonic1;
#X msg 762 370 /chimes/2-resonator-1/harmonic1 \$1;
#X connect 108 0 109 0;
#X connect 109 0 55 0;
#X obj 1074 350 route /chimes/2-resonator-1/harmonic1;
#X obj 1074 370 s \$0-chimes/2-resonator-1/harmonic1;
#X connect 104 1 110 0;
#X connect 110 0 111 0;
#X msg 450 390 0.002;
#X obj 450 410 s \$0-chimes/2-resonator-1/rq1;
#X connect 54 0 112 0;
#X connect 112 0 113 0;
#X obj 762 390 r \$0-chimes/2-resonator-1/rq1;
#X msg 762 410 /chimes/2-resonator-1/rq1 \$1;
#X connect 114 0 115 0;
#X connect 115 0 55 0;
#X obj 1074 390 route /chimes/2-resonator-1/rq1;
#X obj 1074 410 s \$0-chimes/2-resonator-1/rq1;
#X connect 110 1 116 0;
#X connect 116 0 117 0;
#X msg 450 430 0.087;
#X obj 450 450 s \$0-chimes/2-resonator-2/amplitude2;
#X connect 54 0 118 0;
#X connect 118 0 119 0;
#X obj 762 430 r \$0-chimes/2-resonator-2/amplitude2;
#X msg 762 450 /chimes/2-resonator-2/amplitude2 \$1;
#X connect 120 0 121 0;
#X connect 121 0 55 0;
#X obj 1074 430 route /chimes/2-resonator-2/amplitude2;
#X obj 1074 450 s \$0-chimes/2-resonator-2/amplitude2;
#X connect 116 1 122 0;
#X connect 122 0 123 0;
#X msg 450 470 2.828;
#X obj 450 490 s \$0-chimes/2-resonator-2/decay2;
#X connect 54 0 124 0;
#X connect 124 0 125 0;
#X obj 762 470 r \$0-chimes/2-resonator-2/decay2;
#X msg 762 490 /chimes/2-resonator-2/decay2 \$1;
#X connect 126 0 127 0;
#X connect 127 0 55 0;
#X obj 1074 470 route /chimes/2-resonator-2/decay2;
#X obj 1074 490 s \$0-chimes/2-resonator-2/decay2;
#X connect 122 1 128 0;
#X connect 128 0 129 0;
#X msg 450 510 4.968;
#X obj 450 530 s \$0-chimes/2-resonator-2/harmonic2;
#X connect 54 0 130 0;
#X connect 130 0 131 0;
#X obj 762 510 r \$0-chimes/2-resonator-2/harmonic2;
#X msg 762 530 /chimes/2-resonator-2/harmonic2 \$1;
#X connect 132 0 133 0;
#X connect 133 0 55 0;
#X obj 1074 510 route /chimes/2-resonator-2/harmonic2;
#X obj 1074 530 s \$0-chimes/2-resonator-2/harmonic2;
#X connect 128 1 134 0;
#X connect 134 0 135 0;
#X msg 450 550 0.002;
#X obj 450 570 s \$0-chimes/2-resonator-2/rq2;
#X connect 54 0 136 0;
#X connect 136 0 137 0;
#X obj 762 550 r \$0-chimes/2-resonator-2/rq2;
#X msg 762 570 /chimes/2-resonator-2/rq2 \$1;
#X connect 138 0 139 0;
#X connect 139 0 55 0;
#X obj 1074 550 route /chimes/2-resonator-2/rq2;
#X obj 1074 570 s \$0-chimes/2-resonator-2/rq2;
#X connect 134 1 140 0;
#X connect 140 0 141 0;
#X msg 450 590 0.053;
#X obj 450 610 s \$0-chimes/2-resonator-3/amplitude3;
#X connect 54 0 142 0;
#X connect 142 0 143 0;
#X obj 762 590 r \$0-chimes/2-resonator-3/amplitude3;
#X msg 762 610 /chimes/2-resonator-3/amplitude3 \$1;
#X connect 144 0 145 0;
#X connect 145 0 55 0;
#X obj 1074 590 route /chimes/2-resonator-3/amplitude3;
#X obj 1074 610 s \$0-chimes/2-resonator-3/amplitude3;
#X connect 140 1 146 0;
#X connect 146 0 147 0;
#X msg 450 630 3.364;
#X obj 450 650 s \$0-chimes/2-resonator-3/decay3;
#X connect 54 0 148 0;
#X connect 148 0 149 0;
#X obj 762 630 r \$0-chimes/2-resonator-3/decay3;
#X msg 762 650 /chimes/2-resonator-3/decay3 \$1;
#X connect 150 0 151 0;
#X connect 151 0 55 0;
#X obj 1074 630 route /chimes/2-resonator-3/decay3;
#X obj 1074 650 s \$0-chimes/2-resonator-3/decay3;
#X connect 146 1 152 0;
#X connect 152 0 153 0;
#X msg 450 670 8.994;
#X obj 450 690 s \$0-chimes/2-resonator-3/harmonic3;
#X connect 54 0 154 0;
#X connect 154 0 155 0;
#X obj 762 670 r \$0-chimes/2-resonator-3/harmonic3;
#X msg 762 690 /chimes/2-resonator-3/harmonic3 \$1;
#X connect 156 0 157 0;
#X connect 157 0 55 0;
#X obj 1074 670 route /chimes/2-resonator-3/harmonic3;
#X obj 1074 690 s \$0-chimes/2-resonator-3/harmonic3;
#X connect 152 1 158 0;
#X connect 158 0 159 0;
#X msg 450 710 0.002;
#X obj 450 730 s \$0-chimes/2-resonator-3/rq3;
#X connect 54 0 160 0;
#X connect 160 0 161 0;
#X obj 762 710 r \$0-chimes/2-resonator-3/rq3;
#X msg 762 730 /chimes/2-resonator-3/rq3 \$1;
#X connect 162 0 163 0;
#X connect 163 0 55 0;
#X obj 1074 710 route /chimes/2-resonator-3/rq3;
#X obj 1074 730 s \$0-chimes/2-resonator-3/rq3;
#X connect 158 1 164 0;
#X connect 164 0 165 0;
#X msg 450 750 0.053;
#X obj 450 770 s \$0-chimes/2-resonator-4/amplitude4;
#X connect 54 0 166 0;
#X connect 166 0 167 0;
#X obj 762 750 r \$0-chimes/2-resonator-4/amplitude4;
#X msg 762 770 /chimes/2-resonator-4/amplitude4 \$1;
#X connect 168 0 169 0;
#X connect 169 0 55 0;
#X obj 1074 750 route /chimes/2-resonator-4/amplitude4;
#X obj 1074 770 s \$0-chimes/2-resonator-4/amplitude4;
#X connect 164 1 170 0;
#X connect 170 0 171 0;
#X msg 450 790 2.488;
#X obj 450 810 s \$0-chimes/2-resonator-4/decay4;
#X connect 54 0 172 0;
#X connect 172 0 173 0;
#X obj 762 790 r \$0-chimes/2-resonator-4/decay4;
#X msg 762 810 /chimes/2-resonator-4/decay4 \$1;
#X connect 174 0 175 0;
#X connect 175 0 55 0;
#X obj 1074 790 route /chimes/2-resonator-4/decay4;
#X obj 1074 810 s \$0-chimes/2-resonator-4/decay4;
#X connect 170 1 176 0;
#X connect 176 0 177 0;
#X msg 450 830 12.006;
#X obj 450 850 s \$0-chimes/2-resonator-4/harmonic4;
#X connect 54 0 178 0;
#X connect 178 0 179 0;
#X obj 762 830 r \$0-chimes/2-resonator-4/harmonic4;
#X msg 762 850 /chimes/2-resonator-4/harmonic4 \$1;
#X connect 180 0 181 0;
#X connect 181 0 55 0;
#X obj 1074 830 route /chimes/2-resonator-4/harmonic4;
#X obj 1074 850 s \$0-chimes/2-resonator-4/harmonic4;
#X connect 176 1 182 0;
#X connect 182 0 183 0;
#X msg 450 870 0.002;
#X obj 450 890 s \$0-chimes/2-resonator-4/rq4;
#X connect 54 0 184 0;
#X connect 184 0 185 0;
#X obj 762 870 r \$0-chimes/2-resonator-4/rq4;
#X msg 762 890 /chimes/2-resonator-4/rq4 \$1;
#X connect 186 0 187 0;
#X connect 187 0 55 0;
#X obj 1074 870 route /chimes/2-resonator-4/rq4;
#X obj 1074 890 s \$0-chimes/2-resonator-4/rq4;
#X connect 182 1 188 0;
#X connect 188 0 189 0;
#X msg 450 910 0.5;
#X obj 450 930 s \$0-chimes/3-master/pan;
#X connect 54 0 190 0;
#X connect 190 0 191 0;
#X obj 762 910 r \$0-chimes/3-master/pan;
#X msg 762 930 /chimes/3-master/pan \$1;
#X connect 192 0 193 0;
#X connect 193 0 55 0;
#X obj 1074 910 route /chimes/3-master/pan;
#X obj 1074 930 s \$0-chimes/3-master/pan;
#X connect 188 1 194 0;
#X connect 194 0 195 0;
#X msg 450 950 0.5;
#X obj 450 970 s \$0-chimes/3-master/vol;
#X connect 54 0 196 0;
#X connect 196 0 197 0;
#X obj 762 950 r \$0-chimes/3-master/vol;
#X msg 762 970 /chimes/3-master/vol \$1;
#X connect 198 0 199 0;
#X connect 199 0 55 0;
#X obj 1074 950 route /chimes/3-master/vol;
#X obj 1074 970 s \$0-chimes/3-master/vol;
#X connect 194 1 200 0;
#X connect 200 0 201 0;
#X coords 0 -1 1 1 310 260 1 0 0;
#X text 0 280 Generated Mon Sep 22 11:26:05 2014 by faust2pd v2.9. See http://faust.grame.fr and http://purelang.bitbucket.org.;
