#N canvas 0 0 450 300 10;
#X obj 70 240 inlet~;
#X obj 130 240 inlet~;
#X obj 10 240 inlet;
#X obj 190 240 r \$0-read;
#X obj 190 270 faust-control \$0;
#X obj 190 300 s \$0-write;
#X obj 10 300 r \$0-in;
#X obj 10 330 compressor~;
#X obj 10 360 s \$0-out;
#X obj 70 390 outlet~;
#X obj 130 390 outlet~;
#X obj 10 390 outlet;
#X connect 2 0 4 0;
#X connect 3 0 4 0;
#X connect 4 0 5 0;
#X connect 7 0 8 0;
#X connect 2 0 11 0;
#X connect 6 0 7 0;
#X connect 0 0 7 1;
#X connect 1 0 7 2;
#X connect 7 1 9 0;
#X connect 7 2 10 0;
#X obj 10 30 nbx 5 14 0 20 0 0 \$0-compressor/1-compression/knee \$0-compressor/1-compression/knee knee 0 -6 0 10 -262144 -1 -1 256;
#X obj 85 30 nbx 5 14 1 20 0 0 \$0-compressor/1-compression/ratio \$0-compressor/1-compression/ratio ratio 0 -6 0 10 -262144 -1 -1 256;
#X obj 160 30 nbx 5 14 -96 10 0 0 \$0-compressor/1-compression/threshold \$0-compressor/1-compression/threshold threshold 0 -6 0 10 -262144 -1 -1 256;
#X obj 10 60 hsl 128 15 0 1 0 0 \$0-compressor/2-envelop/attack \$0-compressor/2-envelop/attack attack -2 -6 0 10 -262144 -1 -1 0 1;
#X obj 160 60 nbx 5 14 0 1 0 0 \$0-compressor/2-envelop/attack \$0-compressor/2-envelop/attack empty 0 -6 0 10 -262144 -1 -1 256;
#X obj 10 90 hsl 128 15 0 10 0 0 \$0-compressor/2-envelop/release \$0-compressor/2-envelop/release release -2 -6 0 10 -262144 -1 -1 0 1;
#X obj 160 90 nbx 5 14 0 10 0 0 \$0-compressor/2-envelop/release \$0-compressor/2-envelop/release empty 0 -6 0 10 -262144 -1 -1 256;
#X obj 10 120 hsl 128 15 -96 0 0 0 \$0-compressor/3-gain/gain \$0-compressor/3-gain/gain gain -2 -6 0 10 -233017 -1 -1 0 1;
#X obj 160 120 nbx 5 14 -96 0 0 0 \$0-compressor/3-gain/gain \$0-compressor/3-gain/gain empty 0 -6 0 10 -233017 -1 -1 256;
#X obj 10 150 hsl 128 15 -96 96 0 0 \$0-compressor/3-gain/makeup-gain \$0-compressor/3-gain/makeup-gain makeup-gain -2 -6 0 10 -262144 -1 -1 0 1;
#X obj 160 150 nbx 5 14 -96 96 0 0 \$0-compressor/3-gain/makeup-gain \$0-compressor/3-gain/makeup-gain empty 0 -6 0 10 -262144 -1 -1 256;
#X obj 197 3 bng 15 250 50 1 \$0-init \$0-ignore empty 0 -6 0 10 -262144 -1 -1;
#X obj 217 3 tgl 15 1 \$0-active \$0-active empty 0 -6 0 10 -262144 -1 -1 1 1;
#X obj 450 10 r \$0-init;
#X obj 786 10 s \$0-in;
#X obj 954 10 s \$0-read;
#X obj 1122 10 r \$0-write;
#X msg 450 30 1;
#X obj 450 50 s \$0-active;
#X connect 29 0 30 0;
#X obj 786 30 r \$0-active;
#X msg 786 50 active \$1;
#X connect 31 0 32 0;
#X connect 32 0 26 0;
#X obj 1122 30 route active;
#X obj 1122 50 s \$0-active;
#X connect 28 0 33 0;
#X connect 33 0 34 0;
#X msg 450 70 3;
#X obj 450 90 s \$0-compressor/1-compression/knee;
#X connect 25 0 35 0;
#X connect 35 0 36 0;
#X obj 786 70 r \$0-compressor/1-compression/knee;
#X msg 786 90 /compressor/1-compression/knee \$1;
#X connect 37 0 38 0;
#X connect 38 0 26 0;
#X obj 1122 70 route /compressor/1-compression/knee;
#X obj 1122 90 s \$0-compressor/1-compression/knee;
#X connect 33 1 39 0;
#X connect 39 0 40 0;
#X msg 450 110 2;
#X obj 450 130 s \$0-compressor/1-compression/ratio;
#X connect 25 0 41 0;
#X connect 41 0 42 0;
#X obj 786 110 r \$0-compressor/1-compression/ratio;
#X msg 786 130 /compressor/1-compression/ratio \$1;
#X connect 43 0 44 0;
#X connect 44 0 26 0;
#X obj 1122 110 route /compressor/1-compression/ratio;
#X obj 1122 130 s \$0-compressor/1-compression/ratio;
#X connect 39 1 45 0;
#X connect 45 0 46 0;
#X msg 450 150 -20;
#X obj 450 170 s \$0-compressor/1-compression/threshold;
#X connect 25 0 47 0;
#X connect 47 0 48 0;
#X obj 786 150 r \$0-compressor/1-compression/threshold;
#X msg 786 170 /compressor/1-compression/threshold \$1;
#X connect 49 0 50 0;
#X connect 50 0 26 0;
#X obj 1122 150 route /compressor/1-compression/threshold;
#X obj 1122 170 s \$0-compressor/1-compression/threshold;
#X connect 45 1 51 0;
#X connect 51 0 52 0;
#X msg 450 190 0.002;
#X obj 450 210 s \$0-compressor/2-envelop/attack;
#X connect 25 0 53 0;
#X connect 53 0 54 0;
#X obj 786 190 r \$0-compressor/2-envelop/attack;
#X msg 786 210 /compressor/2-envelop/attack \$1;
#X connect 55 0 56 0;
#X connect 56 0 26 0;
#X obj 1122 190 route /compressor/2-envelop/attack;
#X obj 1122 210 s \$0-compressor/2-envelop/attack;
#X connect 51 1 57 0;
#X connect 57 0 58 0;
#X msg 450 230 0.5;
#X obj 450 250 s \$0-compressor/2-envelop/release;
#X connect 25 0 59 0;
#X connect 59 0 60 0;
#X obj 786 230 r \$0-compressor/2-envelop/release;
#X msg 786 250 /compressor/2-envelop/release \$1;
#X connect 61 0 62 0;
#X connect 62 0 26 0;
#X obj 1122 230 route /compressor/2-envelop/release;
#X obj 1122 250 s \$0-compressor/2-envelop/release;
#X connect 57 1 63 0;
#X connect 63 0 64 0;
#X msg 450 270 0;
#X obj 450 290 s \$0-compressor/3-gain/gain;
#X connect 25 0 65 0;
#X connect 65 0 66 0;
#X obj 786 270 faust-timer \$0;
#X msg 786 290 /compressor/3-gain/gain;
#X connect 67 0 68 0;
#X connect 68 0 27 0;
#X obj 1122 270 route /compressor/3-gain/gain;
#X obj 1122 290 s \$0-compressor/3-gain/gain;
#X connect 63 1 69 0;
#X connect 69 0 70 0;
#X msg 450 310 0;
#X obj 450 330 s \$0-compressor/3-gain/makeup-gain;
#X connect 25 0 71 0;
#X connect 71 0 72 0;
#X obj 786 310 r \$0-compressor/3-gain/makeup-gain;
#X msg 786 330 /compressor/3-gain/makeup-gain \$1;
#X connect 73 0 74 0;
#X connect 74 0 26 0;
#X obj 1122 310 route /compressor/3-gain/makeup-gain;
#X obj 1122 330 s \$0-compressor/3-gain/makeup-gain;
#X connect 69 1 75 0;
#X connect 75 0 76 0;
#X coords 0 -1 1 1 235 170 1 0 0;
#X text 0 190 Generated Mon Sep 22 11:26:05 2014 by faust2pd v2.9. See http://faust.grame.fr and http://purelang.bitbucket.org.;
