#N canvas 0 0 450 300 10;
#X obj 70 210 inlet~;
#X obj 130 210 inlet~;
#X obj 10 210 inlet;
#X obj 190 210 r \$0-read;
#X obj 190 240 faust-control \$0;
#X obj 190 270 s \$0-write;
#X obj 10 270 r \$0-in;
#X obj 10 300 echo~;
#X obj 10 330 s \$0-out;
#X obj 70 360 outlet~;
#X obj 130 360 outlet~;
#X obj 10 360 outlet;
#X connect 2 0 4 0;
#X connect 3 0 4 0;
#X connect 4 0 5 0;
#X connect 7 0 8 0;
#X connect 2 0 11 0;
#X connect 6 0 7 0;
#X connect 0 0 7 1;
#X connect 1 0 7 2;
#X connect 7 1 9 0;
#X connect 7 2 10 0;
#X obj 10 30 hsl 128 15 0 5 0 0 \$0-echo/delay \$0-echo/delay delay -2 -6 0 10 -262144 -1 -1 0 1;
#X obj 160 30 nbx 5 14 0 5 0 0 \$0-echo/delay \$0-echo/delay empty 0 -6 0 10 -262144 -1 -1 256;
#X obj 10 60 hsl 128 15 0 1 0 0 \$0-echo/feedback \$0-echo/feedback feedback -2 -6 0 10 -262144 -1 -1 0 1;
#X obj 160 60 nbx 5 14 0 1 0 0 \$0-echo/feedback \$0-echo/feedback empty 0 -6 0 10 -262144 -1 -1 256;
#X obj 10 90 hsl 128 15 0 1 0 0 \$0-echo/level \$0-echo/level level -2 -6 0 10 -262144 -1 -1 0 1;
#X obj 160 90 nbx 5 14 0 1 0 0 \$0-echo/level \$0-echo/level empty 0 -6 0 10 -262144 -1 -1 256;
#X obj 10 120 hsl 128 15 0 1 0 0 \$0-echo/stereo \$0-echo/stereo stereo -2 -6 0 10 -262144 -1 -1 0 1;
#X obj 160 120 nbx 5 14 0 1 0 0 \$0-echo/stereo \$0-echo/stereo empty 0 -6 0 10 -262144 -1 -1 256;
#X obj 197 3 bng 15 250 50 1 \$0-init \$0-ignore empty 0 -6 0 10 -262144 -1 -1;
#X obj 217 3 tgl 15 1 \$0-active \$0-active empty 0 -6 0 10 -262144 -1 -1 1 1;
#X obj 450 10 r \$0-init;
#X obj 618 10 s \$0-in;
#X obj 702 10 s \$0-read;
#X obj 786 10 r \$0-write;
#X msg 450 30 1;
#X obj 450 50 s \$0-active;
#X connect 26 0 27 0;
#X obj 618 30 r \$0-active;
#X msg 618 50 active \$1;
#X connect 28 0 29 0;
#X connect 29 0 23 0;
#X obj 786 30 route active;
#X obj 786 50 s \$0-active;
#X connect 25 0 30 0;
#X connect 30 0 31 0;
#X msg 450 70 0.04;
#X obj 450 90 s \$0-echo/delay;
#X connect 22 0 32 0;
#X connect 32 0 33 0;
#X obj 618 70 r \$0-echo/delay;
#X msg 618 90 /echo/delay \$1;
#X connect 34 0 35 0;
#X connect 35 0 23 0;
#X obj 786 70 route /echo/delay;
#X obj 786 90 s \$0-echo/delay;
#X connect 30 1 36 0;
#X connect 36 0 37 0;
#X msg 450 110 0;
#X obj 450 130 s \$0-echo/feedback;
#X connect 22 0 38 0;
#X connect 38 0 39 0;
#X obj 618 110 r \$0-echo/feedback;
#X msg 618 130 /echo/feedback \$1;
#X connect 40 0 41 0;
#X connect 41 0 23 0;
#X obj 786 110 route /echo/feedback;
#X obj 786 130 s \$0-echo/feedback;
#X connect 36 1 42 0;
#X connect 42 0 43 0;
#X msg 450 150 1;
#X obj 450 170 s \$0-echo/level;
#X connect 22 0 44 0;
#X connect 44 0 45 0;
#X obj 618 150 r \$0-echo/level;
#X msg 618 170 /echo/level \$1;
#X connect 46 0 47 0;
#X connect 47 0 23 0;
#X obj 786 150 route /echo/level;
#X obj 786 170 s \$0-echo/level;
#X connect 42 1 48 0;
#X connect 48 0 49 0;
#X msg 450 190 1;
#X obj 450 210 s \$0-echo/stereo;
#X connect 22 0 50 0;
#X connect 50 0 51 0;
#X obj 618 190 r \$0-echo/stereo;
#X msg 618 210 /echo/stereo \$1;
#X connect 52 0 53 0;
#X connect 53 0 23 0;
#X obj 786 190 route /echo/stereo;
#X obj 786 210 s \$0-echo/stereo;
#X connect 48 1 54 0;
#X connect 54 0 55 0;
#X coords 0 -1 1 1 235 140 1 0 0;
#X text 0 160 Generated Mon Sep 22 11:26:05 2014 by faust2pd v2.9. See http://faust.grame.fr and http://purelang.bitbucket.org.;
