#N canvas 0 0 450 300 10;
#X obj 70 270 inlet~;
#X obj 130 270 inlet~;
#X obj 10 270 inlet;
#X obj 190 270 r \$0-read;
#X obj 190 300 faust-control \$0;
#X obj 190 330 s \$0-write;
#X obj 10 330 r \$0-in;
#X obj 10 360 flanger~;
#X obj 10 390 s \$0-out;
#X obj 70 420 outlet~;
#X obj 130 420 outlet~;
#X obj 10 420 outlet;
#X connect 2 0 4 0;
#X connect 3 0 4 0;
#X connect 4 0 5 0;
#X connect 7 0 8 0;
#X connect 2 0 11 0;
#X connect 6 0 7 0;
#X connect 0 0 7 1;
#X connect 1 0 7 2;
#X connect 7 1 9 0;
#X connect 7 2 10 0;
#X obj 10 30 hsl 128 15 0 0.04 0 0 \$0-flanger/delay \$0-flanger/delay delay -2 -6 0 10 -262144 -1 -1 0 1;
#X obj 160 30 nbx 5 14 0 0.04 0 0 \$0-flanger/delay \$0-flanger/delay empty 0 -6 0 10 -262144 -1 -1 256;
#X obj 10 60 hsl 128 15 0 1 0 0 \$0-flanger/depth \$0-flanger/depth depth -2 -6 0 10 -262144 -1 -1 0 1;
#X obj 160 60 nbx 5 14 0 1 0 0 \$0-flanger/depth \$0-flanger/depth empty 0 -6 0 10 -262144 -1 -1 256;
#X obj 10 90 hsl 128 15 0 1 0 0 \$0-flanger/feedback \$0-flanger/feedback feedback -2 -6 0 10 -262144 -1 -1 0 1;
#X obj 160 90 nbx 5 14 0 1 0 0 \$0-flanger/feedback \$0-flanger/feedback empty 0 -6 0 10 -262144 -1 -1 256;
#X obj 10 120 hsl 128 15 0 10 0 0 \$0-flanger/freq \$0-flanger/freq freq -2 -6 0 10 -262144 -1 -1 0 1;
#X obj 160 120 nbx 5 14 0 10 0 0 \$0-flanger/freq \$0-flanger/freq empty 0 -6 0 10 -262144 -1 -1 256;
#X obj 10 150 hsl 128 15 0 1 0 0 \$0-flanger/level \$0-flanger/level level -2 -6 0 10 -262144 -1 -1 0 1;
#X obj 160 150 nbx 5 14 0 1 0 0 \$0-flanger/level \$0-flanger/level empty 0 -6 0 10 -262144 -1 -1 256;
#X obj 10 180 hsl 128 15 0 1 0 0 \$0-flanger/stereo \$0-flanger/stereo stereo -2 -6 0 10 -262144 -1 -1 0 1;
#X obj 160 180 nbx 5 14 0 1 0 0 \$0-flanger/stereo \$0-flanger/stereo empty 0 -6 0 10 -262144 -1 -1 256;
#X obj 197 3 bng 15 250 50 1 \$0-init \$0-ignore empty 0 -6 0 10 -262144 -1 -1;
#X obj 217 3 tgl 15 1 \$0-active \$0-active empty 0 -6 0 10 -262144 -1 -1 1 1;
#X obj 450 10 r \$0-init;
#X obj 642 10 s \$0-in;
#X obj 738 10 s \$0-read;
#X obj 834 10 r \$0-write;
#X msg 450 30 1;
#X obj 450 50 s \$0-active;
#X connect 30 0 31 0;
#X obj 642 30 r \$0-active;
#X msg 642 50 active \$1;
#X connect 32 0 33 0;
#X connect 33 0 27 0;
#X obj 834 30 route active;
#X obj 834 50 s \$0-active;
#X connect 29 0 34 0;
#X connect 34 0 35 0;
#X msg 450 70 0.002;
#X obj 450 90 s \$0-flanger/delay;
#X connect 26 0 36 0;
#X connect 36 0 37 0;
#X obj 642 70 r \$0-flanger/delay;
#X msg 642 90 /flanger/delay \$1;
#X connect 38 0 39 0;
#X connect 39 0 27 0;
#X obj 834 70 route /flanger/delay;
#X obj 834 90 s \$0-flanger/delay;
#X connect 34 1 40 0;
#X connect 40 0 41 0;
#X msg 450 110 0.5;
#X obj 450 130 s \$0-flanger/depth;
#X connect 26 0 42 0;
#X connect 42 0 43 0;
#X obj 642 110 r \$0-flanger/depth;
#X msg 642 130 /flanger/depth \$1;
#X connect 44 0 45 0;
#X connect 45 0 27 0;
#X obj 834 110 route /flanger/depth;
#X obj 834 130 s \$0-flanger/depth;
#X connect 40 1 46 0;
#X connect 46 0 47 0;
#X msg 450 150 0.1;
#X obj 450 170 s \$0-flanger/feedback;
#X connect 26 0 48 0;
#X connect 48 0 49 0;
#X obj 642 150 r \$0-flanger/feedback;
#X msg 642 170 /flanger/feedback \$1;
#X connect 50 0 51 0;
#X connect 51 0 27 0;
#X obj 834 150 route /flanger/feedback;
#X obj 834 170 s \$0-flanger/feedback;
#X connect 46 1 52 0;
#X connect 52 0 53 0;
#X msg 450 190 2;
#X obj 450 210 s \$0-flanger/freq;
#X connect 26 0 54 0;
#X connect 54 0 55 0;
#X obj 642 190 r \$0-flanger/freq;
#X msg 642 210 /flanger/freq \$1;
#X connect 56 0 57 0;
#X connect 57 0 27 0;
#X obj 834 190 route /flanger/freq;
#X obj 834 210 s \$0-flanger/freq;
#X connect 52 1 58 0;
#X connect 58 0 59 0;
#X msg 450 230 1;
#X obj 450 250 s \$0-flanger/level;
#X connect 26 0 60 0;
#X connect 60 0 61 0;
#X obj 642 230 r \$0-flanger/level;
#X msg 642 250 /flanger/level \$1;
#X connect 62 0 63 0;
#X connect 63 0 27 0;
#X obj 834 230 route /flanger/level;
#X obj 834 250 s \$0-flanger/level;
#X connect 58 1 64 0;
#X connect 64 0 65 0;
#X msg 450 270 1;
#X obj 450 290 s \$0-flanger/stereo;
#X connect 26 0 66 0;
#X connect 66 0 67 0;
#X obj 642 270 r \$0-flanger/stereo;
#X msg 642 290 /flanger/stereo \$1;
#X connect 68 0 69 0;
#X connect 69 0 27 0;
#X obj 834 270 route /flanger/stereo;
#X obj 834 290 s \$0-flanger/stereo;
#X connect 64 1 70 0;
#X connect 70 0 71 0;
#X coords 0 -1 1 1 235 200 1 0 0;
#X text 0 220 Generated Mon Sep 22 11:26:05 2014 by faust2pd v2.9. See http://faust.grame.fr and http://purelang.bitbucket.org.;
