#N canvas 0 0 450 300 10;
#X obj 70 150 inlet~;
#X obj 130 150 inlet~;
#X obj 10 150 inlet;
#X obj 190 150 r \$0-read;
#X obj 190 180 faust-control \$0;
#X obj 190 210 s \$0-write;
#X obj 10 210 r \$0-in;
#X obj 10 240 fuzz~;
#X obj 10 270 s \$0-out;
#X obj 70 300 outlet~;
#X obj 130 300 outlet~;
#X obj 10 300 outlet;
#X connect 2 0 4 0;
#X connect 3 0 4 0;
#X connect 4 0 5 0;
#X connect 7 0 8 0;
#X connect 2 0 11 0;
#X connect 6 0 7 0;
#X connect 0 0 7 1;
#X connect 1 0 7 2;
#X connect 7 1 9 0;
#X connect 7 2 10 0;
#X obj 10 30 hsl 128 15 0 100 0 0 \$0-dist/distortion \$0-dist/distortion distortion -2 -6 0 10 -262144 -1 -1 0 1;
#X obj 160 30 nbx 5 14 0 100 0 0 \$0-dist/distortion \$0-dist/distortion empty 0 -6 0 10 -262144 -1 -1 256;
#X obj 10 60 hsl 128 15 -96 96 0 0 \$0-dist/gain \$0-dist/gain gain -2 -6 0 10 -262144 -1 -1 0 1;
#X obj 160 60 nbx 5 14 -96 96 0 0 \$0-dist/gain \$0-dist/gain empty 0 -6 0 10 -262144 -1 -1 256;
#X obj 197 3 bng 15 250 50 1 \$0-init \$0-ignore empty 0 -6 0 10 -262144 -1 -1;
#X obj 217 3 tgl 15 1 \$0-active \$0-active empty 0 -6 0 10 -262144 -1 -1 1 1;
#X obj 450 10 r \$0-init;
#X obj 634 10 s \$0-in;
#X obj 726 10 s \$0-read;
#X obj 818 10 r \$0-write;
#X msg 450 30 1;
#X obj 450 50 s \$0-active;
#X connect 22 0 23 0;
#X obj 634 30 r \$0-active;
#X msg 634 50 active \$1;
#X connect 24 0 25 0;
#X connect 25 0 19 0;
#X obj 818 30 route active;
#X obj 818 50 s \$0-active;
#X connect 21 0 26 0;
#X connect 26 0 27 0;
#X msg 450 70 12;
#X obj 450 90 s \$0-dist/distortion;
#X connect 18 0 28 0;
#X connect 28 0 29 0;
#X obj 634 70 r \$0-dist/distortion;
#X msg 634 90 /dist/distortion \$1;
#X connect 30 0 31 0;
#X connect 31 0 19 0;
#X obj 818 70 route /dist/distortion;
#X obj 818 90 s \$0-dist/distortion;
#X connect 26 1 32 0;
#X connect 32 0 33 0;
#X msg 450 110 3;
#X obj 450 130 s \$0-dist/gain;
#X connect 18 0 34 0;
#X connect 34 0 35 0;
#X obj 634 110 r \$0-dist/gain;
#X msg 634 130 /dist/gain \$1;
#X connect 36 0 37 0;
#X connect 37 0 19 0;
#X obj 818 110 route /dist/gain;
#X obj 818 130 s \$0-dist/gain;
#X connect 32 1 38 0;
#X connect 38 0 39 0;
#X coords 0 -1 1 1 235 80 1 0 0;
#X text 0 100 Generated Mon Sep 22 11:26:05 2014 by faust2pd v2.9. See http://faust.grame.fr and http://purelang.bitbucket.org.;
