#N canvas 0 0 450 300 10;
#X obj 10 330 inlet;
#X obj 130 330 inlet;
#X obj 190 330 r \$0-read;
#X obj 130 360 r \$0-all;
#X obj 190 360 faust-control \$0;
#X obj 190 390 s \$0-write;
#X obj 130 390 r \$0-in;
#X obj 130 660 s \$0-out;
#X obj 10 420 faust-gate 1;
#X obj 130 420 karplusplus~;
#X obj 10 450 faust-gate 2;
#X obj 130 450 karplusplus~;
#X obj 10 480 faust-gate 3;
#X obj 130 480 karplusplus~;
#X obj 10 510 faust-gate 4;
#X obj 130 510 karplusplus~;
#X obj 10 540 faust-gate 5;
#X obj 130 540 karplusplus~;
#X obj 10 570 faust-gate 6;
#X obj 130 570 karplusplus~;
#X obj 10 600 faust-gate 7;
#X obj 130 600 karplusplus~;
#X obj 10 630 faust-gate 8;
#X obj 130 630 karplusplus~;
#X obj 130 690 outlet~;
#X obj 190 690 outlet~;
#X obj 10 690 outlet;
#X connect 1 0 4 0;
#X connect 2 0 4 0;
#X connect 4 0 5 0;
#X connect 1 0 26 0;
#X connect 6 0 9 0;
#X connect 9 0 7 0;
#X connect 0 0 8 0;
#X connect 8 0 9 0;
#X connect 3 0 9 0;
#X connect 0 0 10 0;
#X connect 10 0 11 0;
#X connect 3 0 11 0;
#X connect 0 0 12 0;
#X connect 12 0 13 0;
#X connect 3 0 13 0;
#X connect 0 0 14 0;
#X connect 14 0 15 0;
#X connect 3 0 15 0;
#X connect 0 0 16 0;
#X connect 16 0 17 0;
#X connect 3 0 17 0;
#X connect 0 0 18 0;
#X connect 18 0 19 0;
#X connect 3 0 19 0;
#X connect 0 0 20 0;
#X connect 20 0 21 0;
#X connect 3 0 21 0;
#X connect 0 0 22 0;
#X connect 22 0 23 0;
#X connect 3 0 23 0;
#X connect 9 1 24 0;
#X connect 9 2 25 0;
#X connect 11 1 24 0;
#X connect 11 2 25 0;
#X connect 13 1 24 0;
#X connect 13 2 25 0;
#X connect 15 1 24 0;
#X connect 15 2 25 0;
#X connect 17 1 24 0;
#X connect 17 2 25 0;
#X connect 19 1 24 0;
#X connect 19 2 25 0;
#X connect 21 1 24 0;
#X connect 21 2 25 0;
#X connect 23 1 24 0;
#X connect 23 2 25 0;
#X obj 10 30 hsl 128 15 1 1024 0 0 \$0-karplusplus/1-excitator/samples \$0-karplusplus/1-excitator/samples samples -2 -6 0 10 -262144 -1 -1 0 1;
#X obj 160 30 nbx 5 14 1 1024 0 0 \$0-karplusplus/1-excitator/samples \$0-karplusplus/1-excitator/samples empty 0 -6 0 10 -262144 -1 -1 256;
#X obj 10 60 hsl 128 15 0 10 0 0 \$0-karplusplus/2-resonator/decay-time \$0-karplusplus/2-resonator/decay-time decay-time -2 -6 0 10 -262144 -1 -1 0 1;
#X obj 160 60 nbx 5 14 0 10 0 0 \$0-karplusplus/2-resonator/decay-time \$0-karplusplus/2-resonator/decay-time empty 0 -6 0 10 -262144 -1 -1 256;
#X obj 10 90 hsl 128 15 0 50 0 0 \$0-karplusplus/3-fuzz/drive \$0-karplusplus/3-fuzz/drive drive -2 -6 0 10 -262144 -1 -1 0 1;
#X obj 160 90 nbx 5 14 0 50 0 0 \$0-karplusplus/3-fuzz/drive \$0-karplusplus/3-fuzz/drive empty 0 -6 0 10 -262144 -1 -1 256;
#X obj 10 120 hsl 128 15 0 10 0 0 \$0-karplusplus/3-fuzz/level \$0-karplusplus/3-fuzz/level level -2 -6 0 10 -262144 -1 -1 0 1;
#X obj 160 120 nbx 5 14 0 10 0 0 \$0-karplusplus/3-fuzz/level \$0-karplusplus/3-fuzz/level empty 0 -6 0 10 -262144 -1 -1 256;
#X obj 10 150 hsl 128 15 0 20 0 0 \$0-karplusplus/3-fuzz/res \$0-karplusplus/3-fuzz/res res -2 -6 0 10 -262144 -1 -1 0 1;
#X obj 160 150 nbx 5 14 0 20 0 0 \$0-karplusplus/3-fuzz/res \$0-karplusplus/3-fuzz/res empty 0 -6 0 10 -262144 -1 -1 256;
#X obj 10 180 hsl 128 15 1 20 0 0 \$0-karplusplus/3-fuzz/tone \$0-karplusplus/3-fuzz/tone tone -2 -6 0 10 -262144 -1 -1 0 1;
#X obj 160 180 nbx 5 14 1 20 0 0 \$0-karplusplus/3-fuzz/tone \$0-karplusplus/3-fuzz/tone empty 0 -6 0 10 -262144 -1 -1 256;
#X obj 10 210 hsl 128 15 0 1 0 0 \$0-karplusplus/4-master/pan \$0-karplusplus/4-master/pan pan -2 -6 0 10 -262144 -1 -1 0 1;
#X obj 160 210 nbx 5 14 0 1 0 0 \$0-karplusplus/4-master/pan \$0-karplusplus/4-master/pan empty 0 -6 0 10 -262144 -1 -1 256;
#X obj 10 240 hsl 128 15 0 10 0 0 \$0-karplusplus/4-master/vol \$0-karplusplus/4-master/vol vol -2 -6 0 10 -262144 -1 -1 0 1;
#X obj 160 240 nbx 5 14 0 10 0 0 \$0-karplusplus/4-master/vol \$0-karplusplus/4-master/vol empty 0 -6 0 10 -262144 -1 -1 256;
#X obj 197 3 bng 15 250 50 1 \$0-init \$0-ignore empty 0 -6 0 10 -262144 -1 -1;
#X obj 217 3 tgl 15 1 \$0-active \$0-active empty 0 -6 0 10 -262144 -1 -1 1 1;
#X obj 450 10 r \$0-init;
#X obj 786 10 s \$0-all;
#X obj 954 10 s \$0-read;
#X obj 1122 10 r \$0-write;
#X msg 450 30 1;
#X obj 450 50 s \$0-active;
#X connect 49 0 50 0;
#X obj 786 30 r \$0-active;
#X msg 786 50 active \$1;
#X connect 51 0 52 0;
#X connect 52 0 46 0;
#X obj 1122 30 route active;
#X obj 1122 50 s \$0-active;
#X connect 48 0 53 0;
#X connect 53 0 54 0;
#X msg 450 70 512;
#X obj 450 90 s \$0-karplusplus/1-excitator/samples;
#X connect 45 0 55 0;
#X connect 55 0 56 0;
#X obj 786 70 r \$0-karplusplus/1-excitator/samples;
#X msg 786 90 /karplusplus/1-excitator/samples \$1;
#X connect 57 0 58 0;
#X connect 58 0 46 0;
#X obj 1122 70 route /karplusplus/1-excitator/samples;
#X obj 1122 90 s \$0-karplusplus/1-excitator/samples;
#X connect 53 1 59 0;
#X connect 59 0 60 0;
#X msg 450 110 4;
#X obj 450 130 s \$0-karplusplus/2-resonator/decay-time;
#X connect 45 0 61 0;
#X connect 61 0 62 0;
#X obj 786 110 r \$0-karplusplus/2-resonator/decay-time;
#X msg 786 130 /karplusplus/2-resonator/decay-time \$1;
#X connect 63 0 64 0;
#X connect 64 0 46 0;
#X obj 1122 110 route /karplusplus/2-resonator/decay-time;
#X obj 1122 130 s \$0-karplusplus/2-resonator/decay-time;
#X connect 59 1 65 0;
#X connect 65 0 66 0;
#X msg 450 150 0;
#X obj 450 170 s \$0-karplusplus/3-fuzz/drive;
#X connect 45 0 67 0;
#X connect 67 0 68 0;
#X obj 786 150 r \$0-karplusplus/3-fuzz/drive;
#X msg 786 170 /karplusplus/3-fuzz/drive \$1;
#X connect 69 0 70 0;
#X connect 70 0 46 0;
#X obj 1122 150 route /karplusplus/3-fuzz/drive;
#X obj 1122 170 s \$0-karplusplus/3-fuzz/drive;
#X connect 65 1 71 0;
#X connect 71 0 72 0;
#X msg 450 190 1;
#X obj 450 210 s \$0-karplusplus/3-fuzz/level;
#X connect 45 0 73 0;
#X connect 73 0 74 0;
#X obj 786 190 r \$0-karplusplus/3-fuzz/level;
#X msg 786 210 /karplusplus/3-fuzz/level \$1;
#X connect 75 0 76 0;
#X connect 76 0 46 0;
#X obj 1122 190 route /karplusplus/3-fuzz/level;
#X obj 1122 210 s \$0-karplusplus/3-fuzz/level;
#X connect 71 1 77 0;
#X connect 77 0 78 0;
#X msg 450 230 0;
#X obj 450 250 s \$0-karplusplus/3-fuzz/res;
#X connect 45 0 79 0;
#X connect 79 0 80 0;
#X obj 786 230 r \$0-karplusplus/3-fuzz/res;
#X msg 786 250 /karplusplus/3-fuzz/res \$1;
#X connect 81 0 82 0;
#X connect 82 0 46 0;
#X obj 1122 230 route /karplusplus/3-fuzz/res;
#X obj 1122 250 s \$0-karplusplus/3-fuzz/res;
#X connect 77 1 83 0;
#X connect 83 0 84 0;
#X msg 450 270 20;
#X obj 450 290 s \$0-karplusplus/3-fuzz/tone;
#X connect 45 0 85 0;
#X connect 85 0 86 0;
#X obj 786 270 r \$0-karplusplus/3-fuzz/tone;
#X msg 786 290 /karplusplus/3-fuzz/tone \$1;
#X connect 87 0 88 0;
#X connect 88 0 46 0;
#X obj 1122 270 route /karplusplus/3-fuzz/tone;
#X obj 1122 290 s \$0-karplusplus/3-fuzz/tone;
#X connect 83 1 89 0;
#X connect 89 0 90 0;
#X msg 450 310 0.5;
#X obj 450 330 s \$0-karplusplus/4-master/pan;
#X connect 45 0 91 0;
#X connect 91 0 92 0;
#X obj 786 310 r \$0-karplusplus/4-master/pan;
#X msg 786 330 /karplusplus/4-master/pan \$1;
#X connect 93 0 94 0;
#X connect 94 0 46 0;
#X obj 1122 310 route /karplusplus/4-master/pan;
#X obj 1122 330 s \$0-karplusplus/4-master/pan;
#X connect 89 1 95 0;
#X connect 95 0 96 0;
#X msg 450 350 0.3;
#X obj 450 370 s \$0-karplusplus/4-master/vol;
#X connect 45 0 97 0;
#X connect 97 0 98 0;
#X obj 786 350 r \$0-karplusplus/4-master/vol;
#X msg 786 370 /karplusplus/4-master/vol \$1;
#X connect 99 0 100 0;
#X connect 100 0 46 0;
#X obj 1122 350 route /karplusplus/4-master/vol;
#X obj 1122 370 s \$0-karplusplus/4-master/vol;
#X connect 95 1 101 0;
#X connect 101 0 102 0;
#X coords 0 -1 1 1 235 260 1 0 0;
#X text 0 280 Generated Mon Sep 22 11:26:05 2014 by faust2pd v2.9. See http://faust.grame.fr and http://purelang.bitbucket.org.;
