#N canvas 0 0 450 300 10;
#X obj 10 240 inlet;
#X obj 130 240 inlet;
#X obj 190 240 r \$0-read;
#X obj 130 270 r \$0-all;
#X obj 190 270 faust-control \$0;
#X obj 190 300 s \$0-write;
#X obj 130 300 r \$0-in;
#X obj 130 570 s \$0-out;
#X obj 10 330 faust-gate 1;
#X obj 130 330 karplus~;
#X obj 10 360 faust-gate 2;
#X obj 130 360 karplus~;
#X obj 10 390 faust-gate 3;
#X obj 130 390 karplus~;
#X obj 10 420 faust-gate 4;
#X obj 130 420 karplus~;
#X obj 10 450 faust-gate 5;
#X obj 130 450 karplus~;
#X obj 10 480 faust-gate 6;
#X obj 130 480 karplus~;
#X obj 10 510 faust-gate 7;
#X obj 130 510 karplus~;
#X obj 10 540 faust-gate 8;
#X obj 130 540 karplus~;
#X obj 130 600 outlet~;
#X obj 190 600 outlet~;
#X obj 10 600 outlet;
#X connect 1 0 4 0;
#X connect 2 0 4 0;
#X connect 4 0 5 0;
#X connect 1 0 26 0;
#X connect 6 0 9 0;
#X connect 9 0 7 0;
#X connect 0 0 8 0;
#X connect 8 0 9 0;
#X connect 3 0 9 0;
#X connect 0 0 10 0;
#X connect 10 0 11 0;
#X connect 3 0 11 0;
#X connect 0 0 12 0;
#X connect 12 0 13 0;
#X connect 3 0 13 0;
#X connect 0 0 14 0;
#X connect 14 0 15 0;
#X connect 3 0 15 0;
#X connect 0 0 16 0;
#X connect 16 0 17 0;
#X connect 3 0 17 0;
#X connect 0 0 18 0;
#X connect 18 0 19 0;
#X connect 3 0 19 0;
#X connect 0 0 20 0;
#X connect 20 0 21 0;
#X connect 3 0 21 0;
#X connect 0 0 22 0;
#X connect 22 0 23 0;
#X connect 3 0 23 0;
#X connect 9 1 24 0;
#X connect 9 2 25 0;
#X connect 11 1 24 0;
#X connect 11 2 25 0;
#X connect 13 1 24 0;
#X connect 13 2 25 0;
#X connect 15 1 24 0;
#X connect 15 2 25 0;
#X connect 17 1 24 0;
#X connect 17 2 25 0;
#X connect 19 1 24 0;
#X connect 19 2 25 0;
#X connect 21 1 24 0;
#X connect 21 2 25 0;
#X connect 23 1 24 0;
#X connect 23 2 25 0;
#X obj 10 30 hsl 128 15 1 1024 0 0 \$0-karplus/1-excitator/samples \$0-karplus/1-excitator/samples samples -2 -6 0 10 -262144 -1 -1 0 1;
#X obj 160 30 nbx 5 14 1 1024 0 0 \$0-karplus/1-excitator/samples \$0-karplus/1-excitator/samples empty 0 -6 0 10 -262144 -1 -1 256;
#X obj 10 60 hsl 128 15 0 10 0 0 \$0-karplus/2-resonator/decay-time \$0-karplus/2-resonator/decay-time decay-time -2 -6 0 10 -262144 -1 -1 0 1;
#X obj 160 60 nbx 5 14 0 10 0 0 \$0-karplus/2-resonator/decay-time \$0-karplus/2-resonator/decay-time empty 0 -6 0 10 -262144 -1 -1 256;
#X obj 10 90 hsl 128 15 -2 2 0 0 \$0-karplus/2-resonator/pitch-bend \$0-karplus/2-resonator/pitch-bend pitch-bend -2 -6 0 10 -262144 -1 -1 0 1;
#X obj 160 90 nbx 5 14 -2 2 0 0 \$0-karplus/2-resonator/pitch-bend \$0-karplus/2-resonator/pitch-bend empty 0 -6 0 10 -262144 -1 -1 256;
#X obj 10 120 hsl 128 15 -1 1 0 0 \$0-karplus/3-master/pan \$0-karplus/3-master/pan pan -2 -6 0 10 -262144 -1 -1 0 1;
#X obj 160 120 nbx 5 14 -1 1 0 0 \$0-karplus/3-master/pan \$0-karplus/3-master/pan empty 0 -6 0 10 -262144 -1 -1 256;
#X obj 10 150 hsl 128 15 -96 96 0 0 \$0-karplus/3-master/vol \$0-karplus/3-master/vol vol -2 -6 0 10 -262144 -1 -1 0 1;
#X obj 160 150 nbx 5 14 -96 96 0 0 \$0-karplus/3-master/vol \$0-karplus/3-master/vol empty 0 -6 0 10 -262144 -1 -1 256;
#X obj 197 3 bng 15 250 50 1 \$0-init \$0-ignore empty 0 -6 0 10 -262144 -1 -1;
#X obj 217 3 tgl 15 1 \$0-active \$0-active empty 0 -6 0 10 -262144 -1 -1 1 1;
#X obj 450 10 r \$0-init;
#X obj 754 10 s \$0-all;
#X obj 906 10 s \$0-read;
#X obj 1058 10 r \$0-write;
#X msg 450 30 1;
#X obj 450 50 s \$0-active;
#X connect 43 0 44 0;
#X obj 754 30 r \$0-active;
#X msg 754 50 active \$1;
#X connect 45 0 46 0;
#X connect 46 0 40 0;
#X obj 1058 30 route active;
#X obj 1058 50 s \$0-active;
#X connect 42 0 47 0;
#X connect 47 0 48 0;
#X msg 450 70 512;
#X obj 450 90 s \$0-karplus/1-excitator/samples;
#X connect 39 0 49 0;
#X connect 49 0 50 0;
#X obj 754 70 r \$0-karplus/1-excitator/samples;
#X msg 754 90 /karplus/1-excitator/samples \$1;
#X connect 51 0 52 0;
#X connect 52 0 40 0;
#X obj 1058 70 route /karplus/1-excitator/samples;
#X obj 1058 90 s \$0-karplus/1-excitator/samples;
#X connect 47 1 53 0;
#X connect 53 0 54 0;
#X msg 450 110 4;
#X obj 450 130 s \$0-karplus/2-resonator/decay-time;
#X connect 39 0 55 0;
#X connect 55 0 56 0;
#X obj 754 110 r \$0-karplus/2-resonator/decay-time;
#X msg 754 130 /karplus/2-resonator/decay-time \$1;
#X connect 57 0 58 0;
#X connect 58 0 40 0;
#X obj 1058 110 route /karplus/2-resonator/decay-time;
#X obj 1058 130 s \$0-karplus/2-resonator/decay-time;
#X connect 53 1 59 0;
#X connect 59 0 60 0;
#X msg 450 150 0;
#X obj 450 170 s \$0-karplus/2-resonator/pitch-bend;
#X connect 39 0 61 0;
#X connect 61 0 62 0;
#X obj 754 150 r \$0-karplus/2-resonator/pitch-bend;
#X msg 754 170 /karplus/2-resonator/pitch-bend \$1;
#X connect 63 0 64 0;
#X connect 64 0 40 0;
#X obj 1058 150 route /karplus/2-resonator/pitch-bend;
#X obj 1058 170 s \$0-karplus/2-resonator/pitch-bend;
#X connect 59 1 65 0;
#X connect 65 0 66 0;
#X msg 450 190 0;
#X obj 450 210 s \$0-karplus/3-master/pan;
#X connect 39 0 67 0;
#X connect 67 0 68 0;
#X obj 754 190 r \$0-karplus/3-master/pan;
#X msg 754 210 /karplus/3-master/pan \$1;
#X connect 69 0 70 0;
#X connect 70 0 40 0;
#X obj 1058 190 route /karplus/3-master/pan;
#X obj 1058 210 s \$0-karplus/3-master/pan;
#X connect 65 1 71 0;
#X connect 71 0 72 0;
#X msg 450 230 -10;
#X obj 450 250 s \$0-karplus/3-master/vol;
#X connect 39 0 73 0;
#X connect 73 0 74 0;
#X obj 754 230 r \$0-karplus/3-master/vol;
#X msg 754 250 /karplus/3-master/vol \$1;
#X connect 75 0 76 0;
#X connect 76 0 40 0;
#X obj 1058 230 route /karplus/3-master/vol;
#X obj 1058 250 s \$0-karplus/3-master/vol;
#X connect 71 1 77 0;
#X connect 77 0 78 0;
#X coords 0 -1 1 1 235 170 1 0 0;
#X text 0 190 Generated Mon Sep 22 11:26:05 2014 by faust2pd v2.9. See http://faust.grame.fr and http://purelang.bitbucket.org.;
