#N canvas 0 0 450 300 10;
#X obj 10 360 inlet;
#X obj 130 360 inlet;
#X obj 190 360 r \$0-read;
#X obj 130 390 r \$0-all;
#X obj 190 390 faust-control \$0;
#X obj 190 420 s \$0-write;
#X obj 130 420 r \$0-in;
#X obj 130 690 s \$0-out;
#X obj 10 450 faust-gate 1;
#X obj 130 450 organ~;
#X obj 10 480 faust-gate 2;
#X obj 130 480 organ~;
#X obj 10 510 faust-gate 3;
#X obj 130 510 organ~;
#X obj 10 540 faust-gate 4;
#X obj 130 540 organ~;
#X obj 10 570 faust-gate 5;
#X obj 130 570 organ~;
#X obj 10 600 faust-gate 6;
#X obj 130 600 organ~;
#X obj 10 630 faust-gate 7;
#X obj 130 630 organ~;
#X obj 10 660 faust-gate 8;
#X obj 130 660 organ~;
#X obj 130 720 outlet~;
#X obj 190 720 outlet~;
#X obj 10 720 outlet;
#X connect 1 0 4 0;
#X connect 2 0 4 0;
#X connect 4 0 5 0;
#X connect 1 0 26 0;
#X connect 6 0 9 0;
#X connect 9 0 7 0;
#X connect 0 0 8 0;
#X connect 8 0 9 0;
#X connect 3 0 9 0;
#X connect 0 0 10 0;
#X connect 10 0 11 0;
#X connect 3 0 11 0;
#X connect 0 0 12 0;
#X connect 12 0 13 0;
#X connect 3 0 13 0;
#X connect 0 0 14 0;
#X connect 14 0 15 0;
#X connect 3 0 15 0;
#X connect 0 0 16 0;
#X connect 16 0 17 0;
#X connect 3 0 17 0;
#X connect 0 0 18 0;
#X connect 18 0 19 0;
#X connect 3 0 19 0;
#X connect 0 0 20 0;
#X connect 20 0 21 0;
#X connect 3 0 21 0;
#X connect 0 0 22 0;
#X connect 22 0 23 0;
#X connect 3 0 23 0;
#X connect 9 1 24 0;
#X connect 9 2 25 0;
#X connect 11 1 24 0;
#X connect 11 2 25 0;
#X connect 13 1 24 0;
#X connect 13 2 25 0;
#X connect 15 1 24 0;
#X connect 15 2 25 0;
#X connect 17 1 24 0;
#X connect 17 2 25 0;
#X connect 19 1 24 0;
#X connect 19 2 25 0;
#X connect 21 1 24 0;
#X connect 21 2 25 0;
#X connect 23 1 24 0;
#X connect 23 2 25 0;
#X obj 10 30 hsl 128 15 0 1 0 0 \$0-organ/1-adsr/attack \$0-organ/1-adsr/attack attack -2 -6 0 10 -262144 -1 -1 0 1;
#X obj 160 30 nbx 5 14 0 1 0 0 \$0-organ/1-adsr/attack \$0-organ/1-adsr/attack empty 0 -6 0 10 -262144 -1 -1 256;
#X obj 10 60 hsl 128 15 0 1 0 0 \$0-organ/1-adsr/decay \$0-organ/1-adsr/decay decay -2 -6 0 10 -262144 -1 -1 0 1;
#X obj 160 60 nbx 5 14 0 1 0 0 \$0-organ/1-adsr/decay \$0-organ/1-adsr/decay empty 0 -6 0 10 -262144 -1 -1 256;
#X obj 10 90 hsl 128 15 0 1 0 0 \$0-organ/1-adsr/release \$0-organ/1-adsr/release release -2 -6 0 10 -262144 -1 -1 0 1;
#X obj 160 90 nbx 5 14 0 1 0 0 \$0-organ/1-adsr/release \$0-organ/1-adsr/release empty 0 -6 0 10 -262144 -1 -1 256;
#X obj 10 120 hsl 128 15 0 1 0 0 \$0-organ/1-adsr/sustain \$0-organ/1-adsr/sustain sustain -2 -6 0 10 -262144 -1 -1 0 1;
#X obj 160 120 nbx 5 14 0 1 0 0 \$0-organ/1-adsr/sustain \$0-organ/1-adsr/sustain empty 0 -6 0 10 -262144 -1 -1 256;
#X obj 10 150 hsl 128 15 0 1 0 0 \$0-organ/2-master/pan \$0-organ/2-master/pan pan -2 -6 0 10 -262144 -1 -1 0 1;
#X obj 160 150 nbx 5 14 0 1 0 0 \$0-organ/2-master/pan \$0-organ/2-master/pan empty 0 -6 0 10 -262144 -1 -1 256;
#X obj 10 180 hsl 128 15 0 10 0 0 \$0-organ/2-master/vol \$0-organ/2-master/vol vol -2 -6 0 10 -262144 -1 -1 0 1;
#X obj 160 180 nbx 5 14 0 10 0 0 \$0-organ/2-master/vol \$0-organ/2-master/vol empty 0 -6 0 10 -262144 -1 -1 256;
#X obj 10 210 hsl 128 15 0 3 0 0 \$0-organ/amp1 \$0-organ/amp1 amp1 -2 -6 0 10 -262144 -1 -1 0 1;
#X obj 160 210 nbx 5 14 0 3 0 0 \$0-organ/amp1 \$0-organ/amp1 empty 0 -6 0 10 -262144 -1 -1 256;
#X obj 10 240 hsl 128 15 0 3 0 0 \$0-organ/amp2 \$0-organ/amp2 amp2 -2 -6 0 10 -262144 -1 -1 0 1;
#X obj 160 240 nbx 5 14 0 3 0 0 \$0-organ/amp2 \$0-organ/amp2 empty 0 -6 0 10 -262144 -1 -1 256;
#X obj 10 270 hsl 128 15 0 3 0 0 \$0-organ/amp3 \$0-organ/amp3 amp3 -2 -6 0 10 -262144 -1 -1 0 1;
#X obj 160 270 nbx 5 14 0 3 0 0 \$0-organ/amp3 \$0-organ/amp3 empty 0 -6 0 10 -262144 -1 -1 256;
#X obj 197 3 bng 15 250 50 1 \$0-init \$0-ignore empty 0 -6 0 10 -262144 -1 -1;
#X obj 217 3 tgl 15 1 \$0-active \$0-active empty 0 -6 0 10 -262144 -1 -1 1 1;
#X obj 450 10 r \$0-init;
#X obj 674 10 s \$0-all;
#X obj 786 10 s \$0-read;
#X obj 898 10 r \$0-write;
#X msg 450 30 1;
#X obj 450 50 s \$0-active;
#X connect 51 0 52 0;
#X obj 674 30 r \$0-active;
#X msg 674 50 active \$1;
#X connect 53 0 54 0;
#X connect 54 0 48 0;
#X obj 898 30 route active;
#X obj 898 50 s \$0-active;
#X connect 50 0 55 0;
#X connect 55 0 56 0;
#X msg 450 70 0.01;
#X obj 450 90 s \$0-organ/1-adsr/attack;
#X connect 47 0 57 0;
#X connect 57 0 58 0;
#X obj 674 70 r \$0-organ/1-adsr/attack;
#X msg 674 90 /organ/1-adsr/attack \$1;
#X connect 59 0 60 0;
#X connect 60 0 48 0;
#X obj 898 70 route /organ/1-adsr/attack;
#X obj 898 90 s \$0-organ/1-adsr/attack;
#X connect 55 1 61 0;
#X connect 61 0 62 0;
#X msg 450 110 0.3;
#X obj 450 130 s \$0-organ/1-adsr/decay;
#X connect 47 0 63 0;
#X connect 63 0 64 0;
#X obj 674 110 r \$0-organ/1-adsr/decay;
#X msg 674 130 /organ/1-adsr/decay \$1;
#X connect 65 0 66 0;
#X connect 66 0 48 0;
#X obj 898 110 route /organ/1-adsr/decay;
#X obj 898 130 s \$0-organ/1-adsr/decay;
#X connect 61 1 67 0;
#X connect 67 0 68 0;
#X msg 450 150 0.2;
#X obj 450 170 s \$0-organ/1-adsr/release;
#X connect 47 0 69 0;
#X connect 69 0 70 0;
#X obj 674 150 r \$0-organ/1-adsr/release;
#X msg 674 170 /organ/1-adsr/release \$1;
#X connect 71 0 72 0;
#X connect 72 0 48 0;
#X obj 898 150 route /organ/1-adsr/release;
#X obj 898 170 s \$0-organ/1-adsr/release;
#X connect 67 1 73 0;
#X connect 73 0 74 0;
#X msg 450 190 0.5;
#X obj 450 210 s \$0-organ/1-adsr/sustain;
#X connect 47 0 75 0;
#X connect 75 0 76 0;
#X obj 674 190 r \$0-organ/1-adsr/sustain;
#X msg 674 210 /organ/1-adsr/sustain \$1;
#X connect 77 0 78 0;
#X connect 78 0 48 0;
#X obj 898 190 route /organ/1-adsr/sustain;
#X obj 898 210 s \$0-organ/1-adsr/sustain;
#X connect 73 1 79 0;
#X connect 79 0 80 0;
#X msg 450 230 0.5;
#X obj 450 250 s \$0-organ/2-master/pan;
#X connect 47 0 81 0;
#X connect 81 0 82 0;
#X obj 674 230 r \$0-organ/2-master/pan;
#X msg 674 250 /organ/2-master/pan \$1;
#X connect 83 0 84 0;
#X connect 84 0 48 0;
#X obj 898 230 route /organ/2-master/pan;
#X obj 898 250 s \$0-organ/2-master/pan;
#X connect 79 1 85 0;
#X connect 85 0 86 0;
#X msg 450 270 0.3;
#X obj 450 290 s \$0-organ/2-master/vol;
#X connect 47 0 87 0;
#X connect 87 0 88 0;
#X obj 674 270 r \$0-organ/2-master/vol;
#X msg 674 290 /organ/2-master/vol \$1;
#X connect 89 0 90 0;
#X connect 90 0 48 0;
#X obj 898 270 route /organ/2-master/vol;
#X obj 898 290 s \$0-organ/2-master/vol;
#X connect 85 1 91 0;
#X connect 91 0 92 0;
#X msg 450 310 1;
#X obj 450 330 s \$0-organ/amp1;
#X connect 47 0 93 0;
#X connect 93 0 94 0;
#X obj 674 310 r \$0-organ/amp1;
#X msg 674 330 /organ/amp1 \$1;
#X connect 95 0 96 0;
#X connect 96 0 48 0;
#X obj 898 310 route /organ/amp1;
#X obj 898 330 s \$0-organ/amp1;
#X connect 91 1 97 0;
#X connect 97 0 98 0;
#X msg 450 350 0.5;
#X obj 450 370 s \$0-organ/amp2;
#X connect 47 0 99 0;
#X connect 99 0 100 0;
#X obj 674 350 r \$0-organ/amp2;
#X msg 674 370 /organ/amp2 \$1;
#X connect 101 0 102 0;
#X connect 102 0 48 0;
#X obj 898 350 route /organ/amp2;
#X obj 898 370 s \$0-organ/amp2;
#X connect 97 1 103 0;
#X connect 103 0 104 0;
#X msg 450 390 0.25;
#X obj 450 410 s \$0-organ/amp3;
#X connect 47 0 105 0;
#X connect 105 0 106 0;
#X obj 674 390 r \$0-organ/amp3;
#X msg 674 410 /organ/amp3 \$1;
#X connect 107 0 108 0;
#X connect 108 0 48 0;
#X obj 898 390 route /organ/amp3;
#X obj 898 410 s \$0-organ/amp3;
#X connect 103 1 109 0;
#X connect 109 0 110 0;
#X coords 0 -1 1 1 235 290 1 0 0;
#X text 0 310 Generated Mon Sep 22 11:26:05 2014 by faust2pd v2.9. See http://faust.grame.fr and http://purelang.bitbucket.org.;
