#N canvas 0 0 450 300 10;
#X obj 10 270 inlet;
#X obj 130 270 inlet;
#X obj 190 270 r \$0-read;
#X obj 130 300 r \$0-all;
#X obj 190 300 faust-control \$0;
#X obj 190 330 s \$0-write;
#X obj 130 330 r \$0-in;
#X obj 130 600 s \$0-out;
#X obj 10 360 faust-gate 1;
#X obj 130 360 phasemod~;
#X obj 10 390 faust-gate 2;
#X obj 130 390 phasemod~;
#X obj 10 420 faust-gate 3;
#X obj 130 420 phasemod~;
#X obj 10 450 faust-gate 4;
#X obj 130 450 phasemod~;
#X obj 10 480 faust-gate 5;
#X obj 130 480 phasemod~;
#X obj 10 510 faust-gate 6;
#X obj 130 510 phasemod~;
#X obj 10 540 faust-gate 7;
#X obj 130 540 phasemod~;
#X obj 10 570 faust-gate 8;
#X obj 130 570 phasemod~;
#X obj 130 630 outlet~;
#X obj 190 630 outlet~;
#X obj 10 630 outlet;
#X connect 1 0 4 0;
#X connect 2 0 4 0;
#X connect 4 0 5 0;
#X connect 1 0 26 0;
#X connect 6 0 9 0;
#X connect 9 0 7 0;
#X connect 0 0 8 0;
#X connect 8 0 9 0;
#X connect 3 0 9 0;
#X connect 0 0 10 0;
#X connect 10 0 11 0;
#X connect 3 0 11 0;
#X connect 0 0 12 0;
#X connect 12 0 13 0;
#X connect 3 0 13 0;
#X connect 0 0 14 0;
#X connect 14 0 15 0;
#X connect 3 0 15 0;
#X connect 0 0 16 0;
#X connect 16 0 17 0;
#X connect 3 0 17 0;
#X connect 0 0 18 0;
#X connect 18 0 19 0;
#X connect 3 0 19 0;
#X connect 0 0 20 0;
#X connect 20 0 21 0;
#X connect 3 0 21 0;
#X connect 0 0 22 0;
#X connect 22 0 23 0;
#X connect 3 0 23 0;
#X connect 9 1 24 0;
#X connect 9 2 25 0;
#X connect 11 1 24 0;
#X connect 11 2 25 0;
#X connect 13 1 24 0;
#X connect 13 2 25 0;
#X connect 15 1 24 0;
#X connect 15 2 25 0;
#X connect 17 1 24 0;
#X connect 17 2 25 0;
#X connect 19 1 24 0;
#X connect 19 2 25 0;
#X connect 21 1 24 0;
#X connect 21 2 25 0;
#X connect 23 1 24 0;
#X connect 23 2 25 0;
#X obj 10 30 hsl 128 15 0 1 0 0 \$0-phasemod/1-adsr/attack \$0-phasemod/1-adsr/attack attack -2 -6 0 10 -262144 -1 -1 0 1;
#X obj 160 30 nbx 5 14 0 1 0 0 \$0-phasemod/1-adsr/attack \$0-phasemod/1-adsr/attack empty 0 -6 0 10 -262144 -1 -1 256;
#X obj 10 60 hsl 128 15 0 1 0 0 \$0-phasemod/1-adsr/decay \$0-phasemod/1-adsr/decay decay -2 -6 0 10 -262144 -1 -1 0 1;
#X obj 160 60 nbx 5 14 0 1 0 0 \$0-phasemod/1-adsr/decay \$0-phasemod/1-adsr/decay empty 0 -6 0 10 -262144 -1 -1 256;
#X obj 10 90 hsl 128 15 0 1 0 0 \$0-phasemod/1-adsr/release \$0-phasemod/1-adsr/release release -2 -6 0 10 -262144 -1 -1 0 1;
#X obj 160 90 nbx 5 14 0 1 0 0 \$0-phasemod/1-adsr/release \$0-phasemod/1-adsr/release empty 0 -6 0 10 -262144 -1 -1 256;
#X obj 10 120 hsl 128 15 0 1 0 0 \$0-phasemod/1-adsr/sustain \$0-phasemod/1-adsr/sustain sustain -2 -6 0 10 -262144 -1 -1 0 1;
#X obj 160 120 nbx 5 14 0 1 0 0 \$0-phasemod/1-adsr/sustain \$0-phasemod/1-adsr/sustain empty 0 -6 0 10 -262144 -1 -1 256;
#X obj 10 150 hsl 128 15 0 1 0 0 \$0-phasemod/2-master/pan \$0-phasemod/2-master/pan pan -2 -6 0 10 -262144 -1 -1 0 1;
#X obj 160 150 nbx 5 14 0 1 0 0 \$0-phasemod/2-master/pan \$0-phasemod/2-master/pan empty 0 -6 0 10 -262144 -1 -1 256;
#X obj 10 180 hsl 128 15 0 10 0 0 \$0-phasemod/2-master/vol \$0-phasemod/2-master/vol vol -2 -6 0 10 -262144 -1 -1 0 1;
#X obj 160 180 nbx 5 14 0 10 0 0 \$0-phasemod/2-master/vol \$0-phasemod/2-master/vol empty 0 -6 0 10 -262144 -1 -1 256;
#X obj 197 3 bng 15 250 50 1 \$0-init \$0-ignore empty 0 -6 0 10 -262144 -1 -1;
#X obj 217 3 tgl 15 1 \$0-active \$0-active empty 0 -6 0 10 -262144 -1 -1 1 1;
#X obj 450 10 r \$0-init;
#X obj 698 10 s \$0-all;
#X obj 822 10 s \$0-read;
#X obj 946 10 r \$0-write;
#X msg 450 30 1;
#X obj 450 50 s \$0-active;
#X connect 45 0 46 0;
#X obj 698 30 r \$0-active;
#X msg 698 50 active \$1;
#X connect 47 0 48 0;
#X connect 48 0 42 0;
#X obj 946 30 route active;
#X obj 946 50 s \$0-active;
#X connect 44 0 49 0;
#X connect 49 0 50 0;
#X msg 450 70 0.01;
#X obj 450 90 s \$0-phasemod/1-adsr/attack;
#X connect 41 0 51 0;
#X connect 51 0 52 0;
#X obj 698 70 r \$0-phasemod/1-adsr/attack;
#X msg 698 90 /phasemod/1-adsr/attack \$1;
#X connect 53 0 54 0;
#X connect 54 0 42 0;
#X obj 946 70 route /phasemod/1-adsr/attack;
#X obj 946 90 s \$0-phasemod/1-adsr/attack;
#X connect 49 1 55 0;
#X connect 55 0 56 0;
#X msg 450 110 0.3;
#X obj 450 130 s \$0-phasemod/1-adsr/decay;
#X connect 41 0 57 0;
#X connect 57 0 58 0;
#X obj 698 110 r \$0-phasemod/1-adsr/decay;
#X msg 698 130 /phasemod/1-adsr/decay \$1;
#X connect 59 0 60 0;
#X connect 60 0 42 0;
#X obj 946 110 route /phasemod/1-adsr/decay;
#X obj 946 130 s \$0-phasemod/1-adsr/decay;
#X connect 55 1 61 0;
#X connect 61 0 62 0;
#X msg 450 150 0.2;
#X obj 450 170 s \$0-phasemod/1-adsr/release;
#X connect 41 0 63 0;
#X connect 63 0 64 0;
#X obj 698 150 r \$0-phasemod/1-adsr/release;
#X msg 698 170 /phasemod/1-adsr/release \$1;
#X connect 65 0 66 0;
#X connect 66 0 42 0;
#X obj 946 150 route /phasemod/1-adsr/release;
#X obj 946 170 s \$0-phasemod/1-adsr/release;
#X connect 61 1 67 0;
#X connect 67 0 68 0;
#X msg 450 190 0.5;
#X obj 450 210 s \$0-phasemod/1-adsr/sustain;
#X connect 41 0 69 0;
#X connect 69 0 70 0;
#X obj 698 190 r \$0-phasemod/1-adsr/sustain;
#X msg 698 210 /phasemod/1-adsr/sustain \$1;
#X connect 71 0 72 0;
#X connect 72 0 42 0;
#X obj 946 190 route /phasemod/1-adsr/sustain;
#X obj 946 210 s \$0-phasemod/1-adsr/sustain;
#X connect 67 1 73 0;
#X connect 73 0 74 0;
#X msg 450 230 0.5;
#X obj 450 250 s \$0-phasemod/2-master/pan;
#X connect 41 0 75 0;
#X connect 75 0 76 0;
#X obj 698 230 r \$0-phasemod/2-master/pan;
#X msg 698 250 /phasemod/2-master/pan \$1;
#X connect 77 0 78 0;
#X connect 78 0 42 0;
#X obj 946 230 route /phasemod/2-master/pan;
#X obj 946 250 s \$0-phasemod/2-master/pan;
#X connect 73 1 79 0;
#X connect 79 0 80 0;
#X msg 450 270 0.3;
#X obj 450 290 s \$0-phasemod/2-master/vol;
#X connect 41 0 81 0;
#X connect 81 0 82 0;
#X obj 698 270 r \$0-phasemod/2-master/vol;
#X msg 698 290 /phasemod/2-master/vol \$1;
#X connect 83 0 84 0;
#X connect 84 0 42 0;
#X obj 946 270 route /phasemod/2-master/vol;
#X obj 946 290 s \$0-phasemod/2-master/vol;
#X connect 79 1 85 0;
#X connect 85 0 86 0;
#X coords 0 -1 1 1 235 200 1 0 0;
#X text 0 220 Generated Mon Sep 22 11:26:05 2014 by faust2pd v2.9. See http://faust.grame.fr and http://purelang.bitbucket.org.;
