#N canvas 86 452 512 359 10;
#X obj 54 222 env~;
#X obj 54 245 - 100;
#X obj 158 222 env~;
#X obj 158 245 - 100;
#X obj 100 204 dac~;
#X obj 55 174 inlet~;
#X obj 158 173 inlet~;
#X obj 217 4 tgl 15 0 dsp-toggle dsp-toggle empty 0 -6 0 8 -262144
-1 -1 1 1;
#X msg 211 203 \; pd dsp \$1;
#X obj 314 172 loadbang;
#X msg 314 199 1;
#X text 251 12 Stereo audio output + VU meter.;
#X obj 53 29 vu 15 120 \$0-L empty -1 -8 0 8 -66577 -1 1 0;
#X obj 141 29 vu 15 120 \$0-R empty -1 -8 0 8 -66577 -1 1 0;
#X obj 54 273 s \$0-L;
#X obj 158 273 s \$0-R;
#X obj 211 172 r dsp-toggle;
#X obj 314 225 s dsp-toggle;
#X obj 3 173 inlet;
#X connect 0 0 1 0;
#X connect 1 0 14 0;
#X connect 2 0 3 0;
#X connect 3 0 15 0;
#X connect 5 0 0 0;
#X connect 5 0 4 0;
#X connect 6 0 2 0;
#X connect 6 0 4 1;
#X connect 9 0 10 0;
#X connect 10 0 17 0;
#X connect 16 0 8 0;
#X coords 0 -1 1 1 235 160 1 0 0;
