#N canvas 0 0 450 300 10;
#X obj 70 330 inlet~;
#X obj 10 330 inlet;
#X obj 130 330 r \$0-read;
#X obj 130 360 faust-control \$0;
#X obj 130 390 s \$0-write;
#X obj 10 390 r \$0-in;
#X obj 10 420 bandfilter~;
#X obj 10 450 s \$0-out;
#X obj 70 480 outlet~;
#X obj 10 480 outlet;
#X connect 1 0 3 0;
#X connect 2 0 3 0;
#X connect 3 0 4 0;
#X connect 6 0 7 0;
#X connect 1 0 9 0;
#X connect 5 0 6 0;
#X connect 0 0 6 1;
#X connect 6 1 8 0;
#X obj 10 30 nbx 5 14 0.1 100 0 0 \$0-Bandfilter/Q-factor \$0-Bandfilter/Q-factor Q-factor 0 -6 0 10 -262144 -1 -1 256;
#X obj 10 60 nbx 5 14 20 20000 0 0 \$0-Bandfilter/freq-Hz \$0-Bandfilter/freq-Hz freq-Hz 0 -6 0 10 -262144 -1 -1 256;
#X obj 10 90 vsl 15 128 -50 50 0 0 \$0-Bandfilter/gain-dB \$0-Bandfilter/gain-dB gain-dB 0 -8 0 10 -262144 -1 -1 0 1;
#X obj 10 230 nbx 5 14 -50 50 0 0 \$0-Bandfilter/gain-dB \$0-Bandfilter/gain-dB empty 0 -6 0 10 -262144 -1 -1 256;
#X obj 47 3 bng 15 250 50 1 \$0-init \$0-ignore empty 0 -6 0 10 -262144 -1 -1;
#X obj 67 3 tgl 15 1 \$0-active \$0-active empty 0 -6 0 10 -262144 -1 -1 1 1;
#X obj 450 10 r \$0-init;
#X obj 666 10 s \$0-in;
#X obj 774 10 s \$0-read;
#X obj 882 10 r \$0-write;
#X msg 450 30 1;
#X obj 450 50 s \$0-active;
#X connect 20 0 21 0;
#X obj 666 30 r \$0-active;
#X msg 666 50 active \$1;
#X connect 22 0 23 0;
#X connect 23 0 17 0;
#X obj 882 30 route active;
#X obj 882 50 s \$0-active;
#X connect 19 0 24 0;
#X connect 24 0 25 0;
#X msg 450 70 50;
#X obj 450 90 s \$0-Bandfilter/Q-factor;
#X connect 16 0 26 0;
#X connect 26 0 27 0;
#X obj 666 70 r \$0-Bandfilter/Q-factor;
#X msg 666 90 /Bandfilter/Q-factor \$1;
#X connect 28 0 29 0;
#X connect 29 0 17 0;
#X obj 882 70 route /Bandfilter/Q-factor;
#X obj 882 90 s \$0-Bandfilter/Q-factor;
#X connect 24 1 30 0;
#X connect 30 0 31 0;
#X msg 450 110 1000;
#X obj 450 130 s \$0-Bandfilter/freq-Hz;
#X connect 16 0 32 0;
#X connect 32 0 33 0;
#X obj 666 110 r \$0-Bandfilter/freq-Hz;
#X msg 666 130 /Bandfilter/freq-Hz \$1;
#X connect 34 0 35 0;
#X connect 35 0 17 0;
#X obj 882 110 route /Bandfilter/freq-Hz;
#X obj 882 130 s \$0-Bandfilter/freq-Hz;
#X connect 30 1 36 0;
#X connect 36 0 37 0;
#X msg 450 150 0;
#X obj 450 170 s \$0-Bandfilter/gain-dB;
#X connect 16 0 38 0;
#X connect 38 0 39 0;
#X obj 666 150 r \$0-Bandfilter/gain-dB;
#X msg 666 170 /Bandfilter/gain-dB \$1;
#X connect 40 0 41 0;
#X connect 41 0 17 0;
#X obj 882 150 route /Bandfilter/gain-dB;
#X obj 882 170 s \$0-Bandfilter/gain-dB;
#X connect 36 1 42 0;
#X connect 42 0 43 0;
#X coords 0 -1 1 1 85 260 1 0 0;
#X text 0 280 Generated Mon Sep 22 11:25:59 2014 by faust2pd v2.9. See http://faust.grame.fr and http://purelang.bitbucket.org.;
