#N canvas 0 0 450 300 10;
#X obj 70 150 inlet~;
#X obj 10 150 inlet;
#X obj 130 150 r \$0-read;
#X obj 130 180 faust-control \$0;
#X obj 130 210 s \$0-write;
#X obj 10 210 r \$0-in;
#X obj 10 240 capture~;
#X obj 10 270 s \$0-out;
#X obj 70 300 outlet~;
#X obj 10 300 outlet;
#X connect 1 0 3 0;
#X connect 2 0 3 0;
#X connect 3 0 4 0;
#X connect 6 0 7 0;
#X connect 1 0 9 0;
#X connect 5 0 6 0;
#X connect 0 0 6 1;
#X connect 6 1 8 0;
#X obj 10 30 tgl 15 0 \$0-Audio-Capture/Capture \$0-Audio-Capture/Capture Capture 0 -6 0 10 -262144 -1 -1 0 1;
#X obj 10 60 hsl 128 15 -96 4 0 0 \$0-Audio-Capture/level-db \$0-Audio-Capture/level-db level-db -2 -6 0 10 -262144 -1 -1 0 1;
#X obj 160 60 nbx 5 14 -96 4 0 0 \$0-Audio-Capture/level-db \$0-Audio-Capture/level-db empty 0 -6 0 10 -262144 -1 -1 256;
#X obj 197 3 bng 15 250 50 1 \$0-init \$0-ignore empty 0 -6 0 10 -262144 -1 -1;
#X obj 217 3 tgl 15 1 \$0-active \$0-active empty 0 -6 0 10 -262144 -1 -1 1 1;
#X obj 450 10 r \$0-init;
#X obj 690 10 s \$0-in;
#X obj 810 10 s \$0-read;
#X obj 930 10 r \$0-write;
#X msg 450 30 1;
#X obj 450 50 s \$0-active;
#X connect 19 0 20 0;
#X obj 690 30 r \$0-active;
#X msg 690 50 active \$1;
#X connect 21 0 22 0;
#X connect 22 0 16 0;
#X obj 930 30 route active;
#X obj 930 50 s \$0-active;
#X connect 18 0 23 0;
#X connect 23 0 24 0;
#X msg 450 70 0;
#X obj 450 90 s \$0-Audio-Capture/Capture;
#X connect 15 0 25 0;
#X connect 25 0 26 0;
#X obj 690 70 r \$0-Audio-Capture/Capture;
#X msg 690 90 /Audio-Capture/Capture \$1;
#X connect 27 0 28 0;
#X connect 28 0 16 0;
#X obj 930 70 route /Audio-Capture/Capture;
#X obj 930 90 s \$0-Audio-Capture/Capture;
#X connect 23 1 29 0;
#X connect 29 0 30 0;
#X msg 450 110 0;
#X obj 450 130 s \$0-Audio-Capture/level-db;
#X connect 15 0 31 0;
#X connect 31 0 32 0;
#X obj 690 110 r \$0-Audio-Capture/level-db;
#X msg 690 130 /Audio-Capture/level-db \$1;
#X connect 33 0 34 0;
#X connect 34 0 16 0;
#X obj 930 110 route /Audio-Capture/level-db;
#X obj 930 130 s \$0-Audio-Capture/level-db;
#X connect 29 1 35 0;
#X connect 35 0 36 0;
#X coords 0 -1 1 1 235 80 1 0 0;
#X text 0 100 Generated Mon Sep 22 11:26:00 2014 by faust2pd v2.9. See http://faust.grame.fr and http://purelang.bitbucket.org.;
