#N canvas 0 0 450 300 10;
#X obj 70 150 inlet~;
#X obj 10 150 inlet;
#X obj 130 150 r \$0-read;
#X obj 130 180 faust-control \$0;
#X obj 130 210 s \$0-write;
#X obj 10 210 r \$0-in;
#X obj 10 240 echo~;
#X obj 10 270 s \$0-out;
#X obj 70 300 outlet~;
#X obj 10 300 outlet;
#X connect 1 0 3 0;
#X connect 2 0 3 0;
#X connect 3 0 4 0;
#X connect 6 0 7 0;
#X connect 1 0 9 0;
#X connect 5 0 6 0;
#X connect 0 0 6 1;
#X connect 6 1 8 0;
#X obj 10 30 hsl 128 15 0 100 0 0 \$0-echo-simple/echo-1000/feedback \$0-echo-simple/echo-1000/feedback feedback -2 -6 0 10 -262144 -1 -1 0 1;
#X obj 160 30 nbx 5 14 0 100 0 0 \$0-echo-simple/echo-1000/feedback \$0-echo-simple/echo-1000/feedback empty 0 -6 0 10 -262144 -1 -1 256;
#X obj 10 60 hsl 128 15 0 1000 0 0 \$0-echo-simple/echo-1000/millisecond \$0-echo-simple/echo-1000/millisecond millisecond -2 -6 0 10 -262144 -1 -1 0 1;
#X obj 160 60 nbx 5 14 0 1000 0 0 \$0-echo-simple/echo-1000/millisecond \$0-echo-simple/echo-1000/millisecond empty 0 -6 0 10 -262144 -1 -1 256;
#X obj 197 3 bng 15 250 50 1 \$0-init \$0-ignore empty 0 -6 0 10 -262144 -1 -1;
#X obj 217 3 tgl 15 1 \$0-active \$0-active empty 0 -6 0 10 -262144 -1 -1 1 1;
#X obj 450 10 r \$0-init;
#X obj 778 10 s \$0-in;
#X obj 942 10 s \$0-read;
#X obj 1106 10 r \$0-write;
#X msg 450 30 1;
#X obj 450 50 s \$0-active;
#X connect 20 0 21 0;
#X obj 778 30 r \$0-active;
#X msg 778 50 active \$1;
#X connect 22 0 23 0;
#X connect 23 0 17 0;
#X obj 1106 30 route active;
#X obj 1106 50 s \$0-active;
#X connect 19 0 24 0;
#X connect 24 0 25 0;
#X msg 450 70 0;
#X obj 450 90 s \$0-echo-simple/echo-1000/feedback;
#X connect 16 0 26 0;
#X connect 26 0 27 0;
#X obj 778 70 r \$0-echo-simple/echo-1000/feedback;
#X msg 778 90 /echo-simple/echo-1000/feedback \$1;
#X connect 28 0 29 0;
#X connect 29 0 17 0;
#X obj 1106 70 route /echo-simple/echo-1000/feedback;
#X obj 1106 90 s \$0-echo-simple/echo-1000/feedback;
#X connect 24 1 30 0;
#X connect 30 0 31 0;
#X msg 450 110 0;
#X obj 450 130 s \$0-echo-simple/echo-1000/millisecond;
#X connect 16 0 32 0;
#X connect 32 0 33 0;
#X obj 778 110 r \$0-echo-simple/echo-1000/millisecond;
#X msg 778 130 /echo-simple/echo-1000/millisecond \$1;
#X connect 34 0 35 0;
#X connect 35 0 17 0;
#X obj 1106 110 route /echo-simple/echo-1000/millisecond;
#X obj 1106 130 s \$0-echo-simple/echo-1000/millisecond;
#X connect 30 1 36 0;
#X connect 36 0 37 0;
#X coords 0 -1 1 1 235 80 1 0 0;
#X text 0 100 Generated Mon Sep 22 11:26:00 2014 by faust2pd v2.9. See http://faust.grame.fr and http://purelang.bitbucket.org.;
