#N canvas 0 0 450 300 10;
#X obj 10 240 inlet;
#X obj 130 240 r \$0-read;
#X obj 130 270 faust-control \$0;
#X obj 130 300 s \$0-write;
#X obj 10 300 r \$0-in;
#X obj 10 330 envelop~;
#X obj 10 360 s \$0-out;
#X obj 70 390 outlet~;
#X obj 10 390 outlet;
#X connect 0 0 2 0;
#X connect 1 0 2 0;
#X connect 2 0 3 0;
#X connect 5 0 6 0;
#X connect 0 0 8 0;
#X connect 4 0 5 0;
#X connect 5 1 7 0;
#X obj 10 30 nbx 5 14 1 1000 0 0 \$0-envelop/1-attack-ms \$0-envelop/1-attack-ms 1-attack-ms 0 -6 0 10 -262144 -1 -1 256;
#X obj 10 60 nbx 5 14 1 100 0 0 \$0-envelop/2-decay-speed \$0-envelop/2-decay-speed 2-decay-speed 0 -6 0 10 -262144 -1 -1 256;
#X obj 10 90 nbx 5 14 1 100 0 0 \$0-envelop/3-sustain-pcent \$0-envelop/3-sustain-pcent 3-sustain-pcent 0 -6 0 10 -262144 -1 -1 256;
#X obj 10 120 nbx 5 14 1 100 0 0 \$0-envelop/4-release-speed \$0-envelop/4-release-speed 4-release-speed 0 -6 0 10 -262144 -1 -1 256;
#X obj 10 150 bng 15 250 50 0 \$0-envelop/play \$0-envelop/play play 0 -6 0 10 -262144 -1 -1;
#X obj 47 3 bng 15 250 50 1 \$0-init \$0-ignore empty 0 -6 0 10 -262144 -1 -1;
#X obj 67 3 tgl 15 1 \$0-active \$0-active empty 0 -6 0 10 -262144 -1 -1 1 1;
#X obj 450 10 r \$0-init;
#X obj 698 10 s \$0-in;
#X obj 822 10 s \$0-read;
#X obj 946 10 r \$0-write;
#X msg 450 30 1;
#X obj 450 50 s \$0-active;
#X connect 20 0 21 0;
#X obj 698 30 r \$0-active;
#X msg 698 50 active \$1;
#X connect 22 0 23 0;
#X connect 23 0 17 0;
#X obj 946 30 route active;
#X obj 946 50 s \$0-active;
#X connect 19 0 24 0;
#X connect 24 0 25 0;
#X msg 450 70 20;
#X obj 450 90 s \$0-envelop/1-attack-ms;
#X connect 16 0 26 0;
#X connect 26 0 27 0;
#X obj 698 70 r \$0-envelop/1-attack-ms;
#X msg 698 90 /envelop/1-attack-ms \$1;
#X connect 28 0 29 0;
#X connect 29 0 17 0;
#X obj 946 70 route /envelop/1-attack-ms;
#X obj 946 90 s \$0-envelop/1-attack-ms;
#X connect 24 1 30 0;
#X connect 30 0 31 0;
#X msg 450 110 2;
#X obj 450 130 s \$0-envelop/2-decay-speed;
#X connect 16 0 32 0;
#X connect 32 0 33 0;
#X obj 698 110 r \$0-envelop/2-decay-speed;
#X msg 698 130 /envelop/2-decay-speed \$1;
#X connect 34 0 35 0;
#X connect 35 0 17 0;
#X obj 946 110 route /envelop/2-decay-speed;
#X obj 946 130 s \$0-envelop/2-decay-speed;
#X connect 30 1 36 0;
#X connect 36 0 37 0;
#X msg 450 150 10;
#X obj 450 170 s \$0-envelop/3-sustain-pcent;
#X connect 16 0 38 0;
#X connect 38 0 39 0;
#X obj 698 150 r \$0-envelop/3-sustain-pcent;
#X msg 698 170 /envelop/3-sustain-pcent \$1;
#X connect 40 0 41 0;
#X connect 41 0 17 0;
#X obj 946 150 route /envelop/3-sustain-pcent;
#X obj 946 170 s \$0-envelop/3-sustain-pcent;
#X connect 36 1 42 0;
#X connect 42 0 43 0;
#X msg 450 190 10;
#X obj 450 210 s \$0-envelop/4-release-speed;
#X connect 16 0 44 0;
#X connect 44 0 45 0;
#X obj 698 190 r \$0-envelop/4-release-speed;
#X msg 698 210 /envelop/4-release-speed \$1;
#X connect 46 0 47 0;
#X connect 47 0 17 0;
#X obj 946 190 route /envelop/4-release-speed;
#X obj 946 210 s \$0-envelop/4-release-speed;
#X connect 42 1 48 0;
#X connect 48 0 49 0;
#X msg 450 230 0;
#X obj 450 250 faust-s \$0-envelop/play;
#X connect 16 0 50 0;
#X connect 50 0 51 0;
#X obj 698 230 r \$0-envelop/play;
#X obj 698 250 faust-r /envelop/play;
#X connect 52 0 53 0;
#X connect 53 0 17 0;
#X obj 946 230 route /envelop/play;
#X obj 946 250 faust-s \$0-envelop/play;
#X connect 48 1 54 0;
#X connect 54 0 55 0;
#X coords 0 -1 1 1 85 170 1 0 0;
#X text 0 190 Generated Mon Sep 22 11:26:00 2014 by faust2pd v2.9. See http://faust.grame.fr and http://purelang.bitbucket.org.;
