#N canvas 0 0 450 300 10;
#X obj 70 180 inlet~;
#X obj 130 180 inlet~;
#X obj 10 180 inlet;
#X obj 190 180 r \$0-read;
#X obj 190 210 faust-control \$0;
#X obj 190 240 s \$0-write;
#X obj 10 240 r \$0-in;
#X obj 10 270 freeverb~;
#X obj 10 300 s \$0-out;
#X obj 70 330 outlet~;
#X obj 130 330 outlet~;
#X obj 10 330 outlet;
#X connect 2 0 4 0;
#X connect 3 0 4 0;
#X connect 4 0 5 0;
#X connect 7 0 8 0;
#X connect 2 0 11 0;
#X connect 6 0 7 0;
#X connect 0 0 7 1;
#X connect 1 0 7 2;
#X connect 7 1 9 0;
#X connect 7 2 10 0;
#X obj 10 30 hsl 128 15 0 1 0 0 \$0-Freeverb/Damp \$0-Freeverb/Damp Damp -2 -6 0 10 -262144 -1 -1 0 1;
#X obj 160 30 nbx 5 14 0 1 0 0 \$0-Freeverb/Damp \$0-Freeverb/Damp empty 0 -6 0 10 -262144 -1 -1 256;
#X obj 10 60 hsl 128 15 0 1 0 0 \$0-Freeverb/RoomSize \$0-Freeverb/RoomSize RoomSize -2 -6 0 10 -262144 -1 -1 0 1;
#X obj 160 60 nbx 5 14 0 1 0 0 \$0-Freeverb/RoomSize \$0-Freeverb/RoomSize empty 0 -6 0 10 -262144 -1 -1 256;
#X obj 10 90 hsl 128 15 0 1 0 0 \$0-Freeverb/Wet \$0-Freeverb/Wet Wet -2 -6 0 10 -262144 -1 -1 0 1;
#X obj 160 90 nbx 5 14 0 1 0 0 \$0-Freeverb/Wet \$0-Freeverb/Wet empty 0 -6 0 10 -262144 -1 -1 256;
#X obj 197 3 bng 15 250 50 1 \$0-init \$0-ignore empty 0 -6 0 10 -262144 -1 -1;
#X obj 217 3 tgl 15 1 \$0-active \$0-active empty 0 -6 0 10 -262144 -1 -1 1 1;
#X obj 450 10 r \$0-init;
#X obj 650 10 s \$0-in;
#X obj 750 10 s \$0-read;
#X obj 850 10 r \$0-write;
#X msg 450 30 1;
#X obj 450 50 s \$0-active;
#X connect 24 0 25 0;
#X obj 650 30 r \$0-active;
#X msg 650 50 active \$1;
#X connect 26 0 27 0;
#X connect 27 0 21 0;
#X obj 850 30 route active;
#X obj 850 50 s \$0-active;
#X connect 23 0 28 0;
#X connect 28 0 29 0;
#X msg 450 70 0.5;
#X obj 450 90 s \$0-Freeverb/Damp;
#X connect 20 0 30 0;
#X connect 30 0 31 0;
#X obj 650 70 r \$0-Freeverb/Damp;
#X msg 650 90 /Freeverb/Damp \$1;
#X connect 32 0 33 0;
#X connect 33 0 21 0;
#X obj 850 70 route /Freeverb/Damp;
#X obj 850 90 s \$0-Freeverb/Damp;
#X connect 28 1 34 0;
#X connect 34 0 35 0;
#X msg 450 110 0.5;
#X obj 450 130 s \$0-Freeverb/RoomSize;
#X connect 20 0 36 0;
#X connect 36 0 37 0;
#X obj 650 110 r \$0-Freeverb/RoomSize;
#X msg 650 130 /Freeverb/RoomSize \$1;
#X connect 38 0 39 0;
#X connect 39 0 21 0;
#X obj 850 110 route /Freeverb/RoomSize;
#X obj 850 130 s \$0-Freeverb/RoomSize;
#X connect 34 1 40 0;
#X connect 40 0 41 0;
#X msg 450 150 0.3333;
#X obj 450 170 s \$0-Freeverb/Wet;
#X connect 20 0 42 0;
#X connect 42 0 43 0;
#X obj 650 150 r \$0-Freeverb/Wet;
#X msg 650 170 /Freeverb/Wet \$1;
#X connect 44 0 45 0;
#X connect 45 0 21 0;
#X obj 850 150 route /Freeverb/Wet;
#X obj 850 170 s \$0-Freeverb/Wet;
#X connect 40 1 46 0;
#X connect 46 0 47 0;
#X coords 0 -1 1 1 235 110 1 0 0;
#X text 0 130 Generated Mon Sep 22 11:25:59 2014 by faust2pd v2.9. See http://faust.grame.fr and http://purelang.bitbucket.org.;
