#N canvas 0 0 450 300 10;
#X obj 10 330 inlet;
#X obj 130 330 r \$0-read;
#X obj 130 360 faust-control \$0;
#X obj 130 390 s \$0-write;
#X obj 10 390 r \$0-in;
#X obj 10 420 karplus32~;
#X obj 10 450 s \$0-out;
#X obj 70 480 outlet~;
#X obj 130 480 outlet~;
#X obj 10 480 outlet;
#X connect 0 0 2 0;
#X connect 1 0 2 0;
#X connect 2 0 3 0;
#X connect 5 0 6 0;
#X connect 0 0 9 0;
#X connect 4 0 5 0;
#X connect 5 1 7 0;
#X connect 5 2 8 0;
#X obj 10 30 hsl 128 15 2 512 0 0 \$0-karplus32/excitator/excitation-samples \$0-karplus32/excitator/excitation-samples excitation-samples -2 -6 0 10 -262144 -1 -1 0 1;
#X obj 160 30 nbx 5 14 2 512 0 0 \$0-karplus32/excitator/excitation-samples \$0-karplus32/excitator/excitation-samples empty 0 -6 0 10 -262144 -1 -1 256;
#X obj 10 60 bng 15 250 50 0 \$0-karplus32/excitator/play \$0-karplus32/excitator/play play 0 -6 0 10 -262144 -1 -1;
#X obj 10 90 hsl 128 15 0 1 0 0 \$0-karplus32/noise-generator/level \$0-karplus32/noise-generator/level level -2 -6 0 10 -262144 -1 -1 0 1;
#X obj 160 90 nbx 5 14 0 1 0 0 \$0-karplus32/noise-generator/level \$0-karplus32/noise-generator/level empty 0 -6 0 10 -262144 -1 -1 256;
#X obj 10 120 hsl 128 15 0 1 0 0 \$0-karplus32/output-volume \$0-karplus32/output-volume output-volume -2 -6 0 10 -262144 -1 -1 0 1;
#X obj 160 120 nbx 5 14 0 1 0 0 \$0-karplus32/output-volume \$0-karplus32/output-volume empty 0 -6 0 10 -262144 -1 -1 256;
#X obj 10 150 hsl 128 15 0 1 0 0 \$0-karplus32/resonator-x32/attenuation \$0-karplus32/resonator-x32/attenuation attenuation -2 -6 0 10 -262144 -1 -1 0 1;
#X obj 160 150 nbx 5 14 0 1 0 0 \$0-karplus32/resonator-x32/attenuation \$0-karplus32/resonator-x32/attenuation empty 0 -6 0 10 -262144 -1 -1 256;
#X obj 10 180 hsl 128 15 0 512 0 0 \$0-karplus32/resonator-x32/detune \$0-karplus32/resonator-x32/detune detune -2 -6 0 10 -262144 -1 -1 0 1;
#X obj 160 180 nbx 5 14 0 512 0 0 \$0-karplus32/resonator-x32/detune \$0-karplus32/resonator-x32/detune empty 0 -6 0 10 -262144 -1 -1 256;
#X obj 10 210 hsl 128 15 2 512 0 0 \$0-karplus32/resonator-x32/duration-samples \$0-karplus32/resonator-x32/duration-samples duration-samples -2 -6 0 10 -262144 -1 -1 0 1;
#X obj 160 210 nbx 5 14 2 512 0 0 \$0-karplus32/resonator-x32/duration-samples \$0-karplus32/resonator-x32/duration-samples empty 0 -6 0 10 -262144 -1 -1 256;
#X obj 10 240 hsl 128 15 0 32 0 0 \$0-karplus32/resonator-x32/polyphony \$0-karplus32/resonator-x32/polyphony polyphony -2 -6 0 10 -262144 -1 -1 0 1;
#X obj 160 240 nbx 5 14 0 32 0 0 \$0-karplus32/resonator-x32/polyphony \$0-karplus32/resonator-x32/polyphony empty 0 -6 0 10 -262144 -1 -1 256;
#X obj 197 3 bng 15 250 50 1 \$0-init \$0-ignore empty 0 -6 0 10 -262144 -1 -1;
#X obj 217 3 tgl 15 1 \$0-active \$0-active empty 0 -6 0 10 -262144 -1 -1 1 1;
#X obj 450 10 r \$0-init;
#X obj 834 10 s \$0-in;
#X obj 1026 10 s \$0-read;
#X obj 1218 10 r \$0-write;
#X msg 450 30 1;
#X obj 450 50 s \$0-active;
#X connect 31 0 32 0;
#X obj 834 30 r \$0-active;
#X msg 834 50 active \$1;
#X connect 33 0 34 0;
#X connect 34 0 28 0;
#X obj 1218 30 route active;
#X obj 1218 50 s \$0-active;
#X connect 30 0 35 0;
#X connect 35 0 36 0;
#X msg 450 70 128;
#X obj 450 90 s \$0-karplus32/excitator/excitation-samples;
#X connect 27 0 37 0;
#X connect 37 0 38 0;
#X obj 834 70 r \$0-karplus32/excitator/excitation-samples;
#X msg 834 90 /karplus32/excitator/excitation-samples \$1;
#X connect 39 0 40 0;
#X connect 40 0 28 0;
#X obj 1218 70 route /karplus32/excitator/excitation-samples;
#X obj 1218 90 s \$0-karplus32/excitator/excitation-samples;
#X connect 35 1 41 0;
#X connect 41 0 42 0;
#X msg 450 110 0;
#X obj 450 130 faust-s \$0-karplus32/excitator/play;
#X connect 27 0 43 0;
#X connect 43 0 44 0;
#X obj 834 110 r \$0-karplus32/excitator/play;
#X obj 834 130 faust-r /karplus32/excitator/play;
#X connect 45 0 46 0;
#X connect 46 0 28 0;
#X obj 1218 110 route /karplus32/excitator/play;
#X obj 1218 130 faust-s \$0-karplus32/excitator/play;
#X connect 41 1 47 0;
#X connect 47 0 48 0;
#X msg 450 150 0.5;
#X obj 450 170 s \$0-karplus32/noise-generator/level;
#X connect 27 0 49 0;
#X connect 49 0 50 0;
#X obj 834 150 r \$0-karplus32/noise-generator/level;
#X msg 834 170 /karplus32/noise-generator/level \$1;
#X connect 51 0 52 0;
#X connect 52 0 28 0;
#X obj 1218 150 route /karplus32/noise-generator/level;
#X obj 1218 170 s \$0-karplus32/noise-generator/level;
#X connect 47 1 53 0;
#X connect 53 0 54 0;
#X msg 450 190 0.5;
#X obj 450 210 s \$0-karplus32/output-volume;
#X connect 27 0 55 0;
#X connect 55 0 56 0;
#X obj 834 190 r \$0-karplus32/output-volume;
#X msg 834 210 /karplus32/output-volume \$1;
#X connect 57 0 58 0;
#X connect 58 0 28 0;
#X obj 1218 190 route /karplus32/output-volume;
#X obj 1218 210 s \$0-karplus32/output-volume;
#X connect 53 1 59 0;
#X connect 59 0 60 0;
#X msg 450 230 0.1;
#X obj 450 250 s \$0-karplus32/resonator-x32/attenuation;
#X connect 27 0 61 0;
#X connect 61 0 62 0;
#X obj 834 230 r \$0-karplus32/resonator-x32/attenuation;
#X msg 834 250 /karplus32/resonator-x32/attenuation \$1;
#X connect 63 0 64 0;
#X connect 64 0 28 0;
#X obj 1218 230 route /karplus32/resonator-x32/attenuation;
#X obj 1218 250 s \$0-karplus32/resonator-x32/attenuation;
#X connect 59 1 65 0;
#X connect 65 0 66 0;
#X msg 450 270 32;
#X obj 450 290 s \$0-karplus32/resonator-x32/detune;
#X connect 27 0 67 0;
#X connect 67 0 68 0;
#X obj 834 270 r \$0-karplus32/resonator-x32/detune;
#X msg 834 290 /karplus32/resonator-x32/detune \$1;
#X connect 69 0 70 0;
#X connect 70 0 28 0;
#X obj 1218 270 route /karplus32/resonator-x32/detune;
#X obj 1218 290 s \$0-karplus32/resonator-x32/detune;
#X connect 65 1 71 0;
#X connect 71 0 72 0;
#X msg 450 310 128;
#X obj 450 330 s \$0-karplus32/resonator-x32/duration-samples;
#X connect 27 0 73 0;
#X connect 73 0 74 0;
#X obj 834 310 r \$0-karplus32/resonator-x32/duration-samples;
#X msg 834 330 /karplus32/resonator-x32/duration-samples \$1;
#X connect 75 0 76 0;
#X connect 76 0 28 0;
#X obj 1218 310 route /karplus32/resonator-x32/duration-samples;
#X obj 1218 330 s \$0-karplus32/resonator-x32/duration-samples;
#X connect 71 1 77 0;
#X connect 77 0 78 0;
#X msg 450 350 1;
#X obj 450 370 s \$0-karplus32/resonator-x32/polyphony;
#X connect 27 0 79 0;
#X connect 79 0 80 0;
#X obj 834 350 r \$0-karplus32/resonator-x32/polyphony;
#X msg 834 370 /karplus32/resonator-x32/polyphony \$1;
#X connect 81 0 82 0;
#X connect 82 0 28 0;
#X obj 1218 350 route /karplus32/resonator-x32/polyphony;
#X obj 1218 370 s \$0-karplus32/resonator-x32/polyphony;
#X connect 77 1 83 0;
#X connect 83 0 84 0;
#X coords 0 -1 1 1 235 260 1 0 0;
#X text 0 280 Generated Mon Sep 22 11:25:59 2014 by faust2pd v2.9. See http://faust.grame.fr and http://purelang.bitbucket.org.;
