#N canvas 0 0 450 300 10;
#X obj 10 240 inlet;
#X obj 130 240 r \$0-read;
#X obj 130 270 faust-control \$0;
#X obj 130 300 s \$0-write;
#X obj 10 300 r \$0-in;
#X obj 10 330 karplus~;
#X obj 10 360 s \$0-out;
#X obj 70 390 outlet~;
#X obj 10 390 outlet;
#X connect 0 0 2 0;
#X connect 1 0 2 0;
#X connect 2 0 3 0;
#X connect 5 0 6 0;
#X connect 0 0 8 0;
#X connect 4 0 5 0;
#X connect 5 1 7 0;
#X obj 10 30 hsl 128 15 2 512 0 0 \$0-karplus/excitator/excitation-samples \$0-karplus/excitator/excitation-samples excitation-samples -2 -6 0 10 -262144 -1 -1 0 1;
#X obj 160 30 nbx 5 14 2 512 0 0 \$0-karplus/excitator/excitation-samples \$0-karplus/excitator/excitation-samples empty 0 -6 0 10 -262144 -1 -1 256;
#X obj 10 60 bng 15 250 50 0 \$0-karplus/excitator/play \$0-karplus/excitator/play play 0 -6 0 10 -262144 -1 -1;
#X obj 10 90 hsl 128 15 0 1 0 0 \$0-karplus/level \$0-karplus/level level -2 -6 0 10 -262144 -1 -1 0 1;
#X obj 160 90 nbx 5 14 0 1 0 0 \$0-karplus/level \$0-karplus/level empty 0 -6 0 10 -262144 -1 -1 256;
#X obj 10 120 hsl 128 15 0 1 0 0 \$0-karplus/resonator/attenuation \$0-karplus/resonator/attenuation attenuation -2 -6 0 10 -262144 -1 -1 0 1;
#X obj 160 120 nbx 5 14 0 1 0 0 \$0-karplus/resonator/attenuation \$0-karplus/resonator/attenuation empty 0 -6 0 10 -262144 -1 -1 256;
#X obj 10 150 hsl 128 15 2 512 0 0 \$0-karplus/resonator/duration-samples \$0-karplus/resonator/duration-samples duration-samples -2 -6 0 10 -262144 -1 -1 0 1;
#X obj 160 150 nbx 5 14 2 512 0 0 \$0-karplus/resonator/duration-samples \$0-karplus/resonator/duration-samples empty 0 -6 0 10 -262144 -1 -1 256;
#X obj 197 3 bng 15 250 50 1 \$0-init \$0-ignore empty 0 -6 0 10 -262144 -1 -1;
#X obj 217 3 tgl 15 1 \$0-active \$0-active empty 0 -6 0 10 -262144 -1 -1 1 1;
#X obj 450 10 r \$0-init;
#X obj 802 10 s \$0-in;
#X obj 978 10 s \$0-read;
#X obj 1154 10 r \$0-write;
#X msg 450 30 1;
#X obj 450 50 s \$0-active;
#X connect 24 0 25 0;
#X obj 802 30 r \$0-active;
#X msg 802 50 active \$1;
#X connect 26 0 27 0;
#X connect 27 0 21 0;
#X obj 1154 30 route active;
#X obj 1154 50 s \$0-active;
#X connect 23 0 28 0;
#X connect 28 0 29 0;
#X msg 450 70 128;
#X obj 450 90 s \$0-karplus/excitator/excitation-samples;
#X connect 20 0 30 0;
#X connect 30 0 31 0;
#X obj 802 70 r \$0-karplus/excitator/excitation-samples;
#X msg 802 90 /karplus/excitator/excitation-samples \$1;
#X connect 32 0 33 0;
#X connect 33 0 21 0;
#X obj 1154 70 route /karplus/excitator/excitation-samples;
#X obj 1154 90 s \$0-karplus/excitator/excitation-samples;
#X connect 28 1 34 0;
#X connect 34 0 35 0;
#X msg 450 110 0;
#X obj 450 130 faust-s \$0-karplus/excitator/play;
#X connect 20 0 36 0;
#X connect 36 0 37 0;
#X obj 802 110 r \$0-karplus/excitator/play;
#X obj 802 130 faust-r /karplus/excitator/play;
#X connect 38 0 39 0;
#X connect 39 0 21 0;
#X obj 1154 110 route /karplus/excitator/play;
#X obj 1154 130 faust-s \$0-karplus/excitator/play;
#X connect 34 1 40 0;
#X connect 40 0 41 0;
#X msg 450 150 0.5;
#X obj 450 170 s \$0-karplus/level;
#X connect 20 0 42 0;
#X connect 42 0 43 0;
#X obj 802 150 r \$0-karplus/level;
#X msg 802 170 /karplus/level \$1;
#X connect 44 0 45 0;
#X connect 45 0 21 0;
#X obj 1154 150 route /karplus/level;
#X obj 1154 170 s \$0-karplus/level;
#X connect 40 1 46 0;
#X connect 46 0 47 0;
#X msg 450 190 0.1;
#X obj 450 210 s \$0-karplus/resonator/attenuation;
#X connect 20 0 48 0;
#X connect 48 0 49 0;
#X obj 802 190 r \$0-karplus/resonator/attenuation;
#X msg 802 210 /karplus/resonator/attenuation \$1;
#X connect 50 0 51 0;
#X connect 51 0 21 0;
#X obj 1154 190 route /karplus/resonator/attenuation;
#X obj 1154 210 s \$0-karplus/resonator/attenuation;
#X connect 46 1 52 0;
#X connect 52 0 53 0;
#X msg 450 230 128;
#X obj 450 250 s \$0-karplus/resonator/duration-samples;
#X connect 20 0 54 0;
#X connect 54 0 55 0;
#X obj 802 230 r \$0-karplus/resonator/duration-samples;
#X msg 802 250 /karplus/resonator/duration-samples \$1;
#X connect 56 0 57 0;
#X connect 57 0 21 0;
#X obj 1154 230 route /karplus/resonator/duration-samples;
#X obj 1154 250 s \$0-karplus/resonator/duration-samples;
#X connect 52 1 58 0;
#X connect 58 0 59 0;
#X coords 0 -1 1 1 235 170 1 0 0;
#X text 0 190 Generated Mon Sep 22 11:25:58 2014 by faust2pd v2.9. See http://faust.grame.fr and http://purelang.bitbucket.org.;
