#N canvas 0 0 450 300 10;
#X obj 70 300 inlet~;
#X obj 10 300 inlet;
#X obj 130 300 r \$0-read;
#X obj 130 330 faust-control \$0;
#X obj 130 360 s \$0-write;
#X obj 10 360 r \$0-in;
#X obj 10 390 lfboost~;
#X obj 10 420 s \$0-out;
#X obj 70 450 outlet~;
#X obj 10 450 outlet;
#X connect 1 0 3 0;
#X connect 2 0 3 0;
#X connect 3 0 4 0;
#X connect 6 0 7 0;
#X connect 1 0 9 0;
#X connect 5 0 6 0;
#X connect 0 0 6 1;
#X connect 6 1 8 0;
#X obj 10 30 nbx 5 14 20 150 0 0 \$0-lowboost/freq-Hz \$0-lowboost/freq-Hz freq-Hz 0 -6 0 10 -262144 -1 -1 256;
#X obj 10 60 vsl 15 128 -20 20 0 0 \$0-lowboost/gain-dB \$0-lowboost/gain-dB gain-dB 0 -8 0 10 -262144 -1 -1 0 1;
#X obj 10 200 nbx 5 14 -20 20 0 0 \$0-lowboost/gain-dB \$0-lowboost/gain-dB empty 0 -6 0 10 -262144 -1 -1 256;
#X obj 47 3 bng 15 250 50 1 \$0-init \$0-ignore empty 0 -6 0 10 -262144 -1 -1;
#X obj 67 3 tgl 15 1 \$0-active \$0-active empty 0 -6 0 10 -262144 -1 -1 1 1;
#X obj 450 10 r \$0-init;
#X obj 642 10 s \$0-in;
#X obj 738 10 s \$0-read;
#X obj 834 10 r \$0-write;
#X msg 450 30 1;
#X obj 450 50 s \$0-active;
#X connect 19 0 20 0;
#X obj 642 30 r \$0-active;
#X msg 642 50 active \$1;
#X connect 21 0 22 0;
#X connect 22 0 16 0;
#X obj 834 30 route active;
#X obj 834 50 s \$0-active;
#X connect 18 0 23 0;
#X connect 23 0 24 0;
#X msg 450 70 100;
#X obj 450 90 s \$0-lowboost/freq-Hz;
#X connect 15 0 25 0;
#X connect 25 0 26 0;
#X obj 642 70 r \$0-lowboost/freq-Hz;
#X msg 642 90 /lowboost/freq-Hz \$1;
#X connect 27 0 28 0;
#X connect 28 0 16 0;
#X obj 834 70 route /lowboost/freq-Hz;
#X obj 834 90 s \$0-lowboost/freq-Hz;
#X connect 23 1 29 0;
#X connect 29 0 30 0;
#X msg 450 110 0;
#X obj 450 130 s \$0-lowboost/gain-dB;
#X connect 15 0 31 0;
#X connect 31 0 32 0;
#X obj 642 110 r \$0-lowboost/gain-dB;
#X msg 642 130 /lowboost/gain-dB \$1;
#X connect 33 0 34 0;
#X connect 34 0 16 0;
#X obj 834 110 route /lowboost/gain-dB;
#X obj 834 130 s \$0-lowboost/gain-dB;
#X connect 29 1 35 0;
#X connect 35 0 36 0;
#X coords 0 -1 1 1 85 230 1 0 0;
#X text 0 250 Generated Mon Sep 22 11:25:59 2014 by faust2pd v2.9. See http://faust.grame.fr and http://purelang.bitbucket.org.;
