#N canvas 0 0 450 300 10;
#X obj 70 150 inlet~;
#X obj 10 150 inlet;
#X obj 130 150 r \$0-read;
#X obj 130 180 faust-control \$0;
#X obj 130 210 s \$0-write;
#X obj 10 210 r \$0-in;
#X obj 10 240 lowcut~;
#X obj 10 270 s \$0-out;
#X obj 70 300 outlet~;
#X obj 10 300 outlet;
#X connect 1 0 3 0;
#X connect 2 0 3 0;
#X connect 3 0 4 0;
#X connect 6 0 7 0;
#X connect 1 0 9 0;
#X connect 5 0 6 0;
#X connect 0 0 6 1;
#X connect 6 1 8 0;
#X obj 10 30 hsl 128 15 -96 10 0 0 \$0-low-freq-shelving-cut/attenuation-db \$0-low-freq-shelving-cut/attenuation-db attenuation-db -2 -6 0 10 -262144 -1 -1 0 1;
#X obj 160 30 nbx 5 14 -96 10 0 0 \$0-low-freq-shelving-cut/attenuation-db \$0-low-freq-shelving-cut/attenuation-db empty 0 -6 0 10 -262144 -1 -1 256;
#X obj 10 60 hsl 128 15 20 20000 0 0 \$0-low-freq-shelving-cut/freq \$0-low-freq-shelving-cut/freq freq -2 -6 0 10 -262144 -1 -1 0 1;
#X obj 160 60 nbx 5 14 20 20000 0 0 \$0-low-freq-shelving-cut/freq \$0-low-freq-shelving-cut/freq empty 0 -6 0 10 -262144 -1 -1 256;
#X obj 197 3 bng 15 250 50 1 \$0-init \$0-ignore empty 0 -6 0 10 -262144 -1 -1;
#X obj 217 3 tgl 15 1 \$0-active \$0-active empty 0 -6 0 10 -262144 -1 -1 1 1;
#X obj 450 10 r \$0-init;
#X obj 802 10 s \$0-in;
#X obj 978 10 s \$0-read;
#X obj 1154 10 r \$0-write;
#X msg 450 30 1;
#X obj 450 50 s \$0-active;
#X connect 20 0 21 0;
#X obj 802 30 r \$0-active;
#X msg 802 50 active \$1;
#X connect 22 0 23 0;
#X connect 23 0 17 0;
#X obj 1154 30 route active;
#X obj 1154 50 s \$0-active;
#X connect 19 0 24 0;
#X connect 24 0 25 0;
#X msg 450 70 0;
#X obj 450 90 s \$0-low-freq-shelving-cut/attenuation-db;
#X connect 16 0 26 0;
#X connect 26 0 27 0;
#X obj 802 70 r \$0-low-freq-shelving-cut/attenuation-db;
#X msg 802 90 /low-freq-shelving-cut/attenuation-db \$1;
#X connect 28 0 29 0;
#X connect 29 0 17 0;
#X obj 1154 70 route /low-freq-shelving-cut/attenuation-db;
#X obj 1154 90 s \$0-low-freq-shelving-cut/attenuation-db;
#X connect 24 1 30 0;
#X connect 30 0 31 0;
#X msg 450 110 1000;
#X obj 450 130 s \$0-low-freq-shelving-cut/freq;
#X connect 16 0 32 0;
#X connect 32 0 33 0;
#X obj 802 110 r \$0-low-freq-shelving-cut/freq;
#X msg 802 130 /low-freq-shelving-cut/freq \$1;
#X connect 34 0 35 0;
#X connect 35 0 17 0;
#X obj 1154 110 route /low-freq-shelving-cut/freq;
#X obj 1154 130 s \$0-low-freq-shelving-cut/freq;
#X connect 30 1 36 0;
#X connect 36 0 37 0;
#X coords 0 -1 1 1 235 80 1 0 0;
#X text 0 100 Generated Mon Sep 22 11:25:59 2014 by faust2pd v2.9. See http://faust.grame.fr and http://purelang.bitbucket.org.;
