#N canvas 0 0 450 300 10;
#X obj 70 270 inlet~;
#X obj 130 270 inlet~;
#X obj 190 270 inlet~;
#X obj 250 270 inlet~;
#X obj 310 270 inlet~;
#X obj 370 270 inlet~;
#X obj 430 270 inlet~;
#X obj 490 270 inlet~;
#X obj 10 270 inlet;
#X obj 550 270 r \$0-read;
#X obj 550 300 faust-control \$0;
#X obj 550 330 s \$0-write;
#X obj 10 330 r \$0-in;
#X obj 10 360 matrix~;
#X obj 10 390 s \$0-out;
#X obj 70 420 outlet~;
#X obj 130 420 outlet~;
#X obj 190 420 outlet~;
#X obj 250 420 outlet~;
#X obj 310 420 outlet~;
#X obj 370 420 outlet~;
#X obj 430 420 outlet~;
#X obj 490 420 outlet~;
#X obj 10 420 outlet;
#X connect 8 0 10 0;
#X connect 9 0 10 0;
#X connect 10 0 11 0;
#X connect 13 0 14 0;
#X connect 8 0 23 0;
#X connect 12 0 13 0;
#X connect 0 0 13 1;
#X connect 1 0 13 2;
#X connect 2 0 13 3;
#X connect 3 0 13 4;
#X connect 4 0 13 5;
#X connect 5 0 13 6;
#X connect 6 0 13 7;
#X connect 7 0 13 8;
#X connect 13 1 15 0;
#X connect 13 2 16 0;
#X connect 13 3 17 0;
#X connect 13 4 18 0;
#X connect 13 5 19 0;
#X connect 13 6 20 0;
#X connect 13 7 21 0;
#X connect 13 8 22 0;
#X obj 10 30 vsl 15 128 -96 4 0 0 \$0-Matrix-8-x-8/Output-0/Input-0 \$0-Matrix-8-x-8/Output-0/Input-0 Input-0 0 -8 0 10 -262144 -1 -1 0 1;
#X obj 10 170 nbx 5 14 -96 4 0 0 \$0-Matrix-8-x-8/Output-0/Input-0 \$0-Matrix-8-x-8/Output-0/Input-0 empty 0 -6 0 10 -262144 -1 -1 256;
#X obj 85 30 vsl 15 128 -96 4 0 0 \$0-Matrix-8-x-8/Output-0/Input-1 \$0-Matrix-8-x-8/Output-0/Input-1 Input-1 0 -8 0 10 -262144 -1 -1 0 1;
#X obj 85 170 nbx 5 14 -96 4 0 0 \$0-Matrix-8-x-8/Output-0/Input-1 \$0-Matrix-8-x-8/Output-0/Input-1 empty 0 -6 0 10 -262144 -1 -1 256;
#X obj 160 30 vsl 15 128 -96 4 0 0 \$0-Matrix-8-x-8/Output-0/Input-2 \$0-Matrix-8-x-8/Output-0/Input-2 Input-2 0 -8 0 10 -262144 -1 -1 0 1;
#X obj 160 170 nbx 5 14 -96 4 0 0 \$0-Matrix-8-x-8/Output-0/Input-2 \$0-Matrix-8-x-8/Output-0/Input-2 empty 0 -6 0 10 -262144 -1 -1 256;
#X obj 235 30 vsl 15 128 -96 4 0 0 \$0-Matrix-8-x-8/Output-0/Input-3 \$0-Matrix-8-x-8/Output-0/Input-3 Input-3 0 -8 0 10 -262144 -1 -1 0 1;
#X obj 235 170 nbx 5 14 -96 4 0 0 \$0-Matrix-8-x-8/Output-0/Input-3 \$0-Matrix-8-x-8/Output-0/Input-3 empty 0 -6 0 10 -262144 -1 -1 256;
#X obj 310 30 vsl 15 128 -96 4 0 0 \$0-Matrix-8-x-8/Output-0/Input-4 \$0-Matrix-8-x-8/Output-0/Input-4 Input-4 0 -8 0 10 -262144 -1 -1 0 1;
#X obj 310 170 nbx 5 14 -96 4 0 0 \$0-Matrix-8-x-8/Output-0/Input-4 \$0-Matrix-8-x-8/Output-0/Input-4 empty 0 -6 0 10 -262144 -1 -1 256;
#X obj 385 30 vsl 15 128 -96 4 0 0 \$0-Matrix-8-x-8/Output-0/Input-5 \$0-Matrix-8-x-8/Output-0/Input-5 Input-5 0 -8 0 10 -262144 -1 -1 0 1;
#X obj 385 170 nbx 5 14 -96 4 0 0 \$0-Matrix-8-x-8/Output-0/Input-5 \$0-Matrix-8-x-8/Output-0/Input-5 empty 0 -6 0 10 -262144 -1 -1 256;
#X obj 460 30 vsl 15 128 -96 4 0 0 \$0-Matrix-8-x-8/Output-0/Input-6 \$0-Matrix-8-x-8/Output-0/Input-6 Input-6 0 -8 0 10 -262144 -1 -1 0 1;
#X obj 460 170 nbx 5 14 -96 4 0 0 \$0-Matrix-8-x-8/Output-0/Input-6 \$0-Matrix-8-x-8/Output-0/Input-6 empty 0 -6 0 10 -262144 -1 -1 256;
#X obj 535 30 vsl 15 128 -96 4 0 0 \$0-Matrix-8-x-8/Output-0/Input-7 \$0-Matrix-8-x-8/Output-0/Input-7 Input-7 0 -8 0 10 -262144 -1 -1 0 1;
#X obj 535 170 nbx 5 14 -96 4 0 0 \$0-Matrix-8-x-8/Output-0/Input-7 \$0-Matrix-8-x-8/Output-0/Input-7 empty 0 -6 0 10 -262144 -1 -1 256;
#X obj 610 30 vsl 15 128 -96 4 0 0 \$0-Matrix-8-x-8/Output-1/Input-0 \$0-Matrix-8-x-8/Output-1/Input-0 Input-0 0 -8 0 10 -262144 -1 -1 0 1;
#X obj 610 170 nbx 5 14 -96 4 0 0 \$0-Matrix-8-x-8/Output-1/Input-0 \$0-Matrix-8-x-8/Output-1/Input-0 empty 0 -6 0 10 -262144 -1 -1 256;
#X obj 685 30 vsl 15 128 -96 4 0 0 \$0-Matrix-8-x-8/Output-1/Input-1 \$0-Matrix-8-x-8/Output-1/Input-1 Input-1 0 -8 0 10 -262144 -1 -1 0 1;
#X obj 685 170 nbx 5 14 -96 4 0 0 \$0-Matrix-8-x-8/Output-1/Input-1 \$0-Matrix-8-x-8/Output-1/Input-1 empty 0 -6 0 10 -262144 -1 -1 256;
#X obj 760 30 vsl 15 128 -96 4 0 0 \$0-Matrix-8-x-8/Output-1/Input-2 \$0-Matrix-8-x-8/Output-1/Input-2 Input-2 0 -8 0 10 -262144 -1 -1 0 1;
#X obj 760 170 nbx 5 14 -96 4 0 0 \$0-Matrix-8-x-8/Output-1/Input-2 \$0-Matrix-8-x-8/Output-1/Input-2 empty 0 -6 0 10 -262144 -1 -1 256;
#X obj 835 30 vsl 15 128 -96 4 0 0 \$0-Matrix-8-x-8/Output-1/Input-3 \$0-Matrix-8-x-8/Output-1/Input-3 Input-3 0 -8 0 10 -262144 -1 -1 0 1;
#X obj 835 170 nbx 5 14 -96 4 0 0 \$0-Matrix-8-x-8/Output-1/Input-3 \$0-Matrix-8-x-8/Output-1/Input-3 empty 0 -6 0 10 -262144 -1 -1 256;
#X obj 910 30 vsl 15 128 -96 4 0 0 \$0-Matrix-8-x-8/Output-1/Input-4 \$0-Matrix-8-x-8/Output-1/Input-4 Input-4 0 -8 0 10 -262144 -1 -1 0 1;
#X obj 910 170 nbx 5 14 -96 4 0 0 \$0-Matrix-8-x-8/Output-1/Input-4 \$0-Matrix-8-x-8/Output-1/Input-4 empty 0 -6 0 10 -262144 -1 -1 256;
#X obj 985 30 vsl 15 128 -96 4 0 0 \$0-Matrix-8-x-8/Output-1/Input-5 \$0-Matrix-8-x-8/Output-1/Input-5 Input-5 0 -8 0 10 -262144 -1 -1 0 1;
#X obj 985 170 nbx 5 14 -96 4 0 0 \$0-Matrix-8-x-8/Output-1/Input-5 \$0-Matrix-8-x-8/Output-1/Input-5 empty 0 -6 0 10 -262144 -1 -1 256;
#X obj 1060 30 vsl 15 128 -96 4 0 0 \$0-Matrix-8-x-8/Output-1/Input-6 \$0-Matrix-8-x-8/Output-1/Input-6 Input-6 0 -8 0 10 -262144 -1 -1 0 1;
#X obj 1060 170 nbx 5 14 -96 4 0 0 \$0-Matrix-8-x-8/Output-1/Input-6 \$0-Matrix-8-x-8/Output-1/Input-6 empty 0 -6 0 10 -262144 -1 -1 256;
#X obj 1135 30 vsl 15 128 -96 4 0 0 \$0-Matrix-8-x-8/Output-1/Input-7 \$0-Matrix-8-x-8/Output-1/Input-7 Input-7 0 -8 0 10 -262144 -1 -1 0 1;
#X obj 1135 170 nbx 5 14 -96 4 0 0 \$0-Matrix-8-x-8/Output-1/Input-7 \$0-Matrix-8-x-8/Output-1/Input-7 empty 0 -6 0 10 -262144 -1 -1 256;
#X obj 1210 30 vsl 15 128 -96 4 0 0 \$0-Matrix-8-x-8/Output-2/Input-0 \$0-Matrix-8-x-8/Output-2/Input-0 Input-0 0 -8 0 10 -262144 -1 -1 0 1;
#X obj 1210 170 nbx 5 14 -96 4 0 0 \$0-Matrix-8-x-8/Output-2/Input-0 \$0-Matrix-8-x-8/Output-2/Input-0 empty 0 -6 0 10 -262144 -1 -1 256;
#X obj 1285 30 vsl 15 128 -96 4 0 0 \$0-Matrix-8-x-8/Output-2/Input-1 \$0-Matrix-8-x-8/Output-2/Input-1 Input-1 0 -8 0 10 -262144 -1 -1 0 1;
#X obj 1285 170 nbx 5 14 -96 4 0 0 \$0-Matrix-8-x-8/Output-2/Input-1 \$0-Matrix-8-x-8/Output-2/Input-1 empty 0 -6 0 10 -262144 -1 -1 256;
#X obj 1360 30 vsl 15 128 -96 4 0 0 \$0-Matrix-8-x-8/Output-2/Input-2 \$0-Matrix-8-x-8/Output-2/Input-2 Input-2 0 -8 0 10 -262144 -1 -1 0 1;
#X obj 1360 170 nbx 5 14 -96 4 0 0 \$0-Matrix-8-x-8/Output-2/Input-2 \$0-Matrix-8-x-8/Output-2/Input-2 empty 0 -6 0 10 -262144 -1 -1 256;
#X obj 1435 30 vsl 15 128 -96 4 0 0 \$0-Matrix-8-x-8/Output-2/Input-3 \$0-Matrix-8-x-8/Output-2/Input-3 Input-3 0 -8 0 10 -262144 -1 -1 0 1;
#X obj 1435 170 nbx 5 14 -96 4 0 0 \$0-Matrix-8-x-8/Output-2/Input-3 \$0-Matrix-8-x-8/Output-2/Input-3 empty 0 -6 0 10 -262144 -1 -1 256;
#X obj 1510 30 vsl 15 128 -96 4 0 0 \$0-Matrix-8-x-8/Output-2/Input-4 \$0-Matrix-8-x-8/Output-2/Input-4 Input-4 0 -8 0 10 -262144 -1 -1 0 1;
#X obj 1510 170 nbx 5 14 -96 4 0 0 \$0-Matrix-8-x-8/Output-2/Input-4 \$0-Matrix-8-x-8/Output-2/Input-4 empty 0 -6 0 10 -262144 -1 -1 256;
#X obj 1585 30 vsl 15 128 -96 4 0 0 \$0-Matrix-8-x-8/Output-2/Input-5 \$0-Matrix-8-x-8/Output-2/Input-5 Input-5 0 -8 0 10 -262144 -1 -1 0 1;
#X obj 1585 170 nbx 5 14 -96 4 0 0 \$0-Matrix-8-x-8/Output-2/Input-5 \$0-Matrix-8-x-8/Output-2/Input-5 empty 0 -6 0 10 -262144 -1 -1 256;
#X obj 1660 30 vsl 15 128 -96 4 0 0 \$0-Matrix-8-x-8/Output-2/Input-6 \$0-Matrix-8-x-8/Output-2/Input-6 Input-6 0 -8 0 10 -262144 -1 -1 0 1;
#X obj 1660 170 nbx 5 14 -96 4 0 0 \$0-Matrix-8-x-8/Output-2/Input-6 \$0-Matrix-8-x-8/Output-2/Input-6 empty 0 -6 0 10 -262144 -1 -1 256;
#X obj 1735 30 vsl 15 128 -96 4 0 0 \$0-Matrix-8-x-8/Output-2/Input-7 \$0-Matrix-8-x-8/Output-2/Input-7 Input-7 0 -8 0 10 -262144 -1 -1 0 1;
#X obj 1735 170 nbx 5 14 -96 4 0 0 \$0-Matrix-8-x-8/Output-2/Input-7 \$0-Matrix-8-x-8/Output-2/Input-7 empty 0 -6 0 10 -262144 -1 -1 256;
#X obj 1810 30 vsl 15 128 -96 4 0 0 \$0-Matrix-8-x-8/Output-3/Input-0 \$0-Matrix-8-x-8/Output-3/Input-0 Input-0 0 -8 0 10 -262144 -1 -1 0 1;
#X obj 1810 170 nbx 5 14 -96 4 0 0 \$0-Matrix-8-x-8/Output-3/Input-0 \$0-Matrix-8-x-8/Output-3/Input-0 empty 0 -6 0 10 -262144 -1 -1 256;
#X obj 1885 30 vsl 15 128 -96 4 0 0 \$0-Matrix-8-x-8/Output-3/Input-1 \$0-Matrix-8-x-8/Output-3/Input-1 Input-1 0 -8 0 10 -262144 -1 -1 0 1;
#X obj 1885 170 nbx 5 14 -96 4 0 0 \$0-Matrix-8-x-8/Output-3/Input-1 \$0-Matrix-8-x-8/Output-3/Input-1 empty 0 -6 0 10 -262144 -1 -1 256;
#X obj 1960 30 vsl 15 128 -96 4 0 0 \$0-Matrix-8-x-8/Output-3/Input-2 \$0-Matrix-8-x-8/Output-3/Input-2 Input-2 0 -8 0 10 -262144 -1 -1 0 1;
#X obj 1960 170 nbx 5 14 -96 4 0 0 \$0-Matrix-8-x-8/Output-3/Input-2 \$0-Matrix-8-x-8/Output-3/Input-2 empty 0 -6 0 10 -262144 -1 -1 256;
#X obj 2035 30 vsl 15 128 -96 4 0 0 \$0-Matrix-8-x-8/Output-3/Input-3 \$0-Matrix-8-x-8/Output-3/Input-3 Input-3 0 -8 0 10 -262144 -1 -1 0 1;
#X obj 2035 170 nbx 5 14 -96 4 0 0 \$0-Matrix-8-x-8/Output-3/Input-3 \$0-Matrix-8-x-8/Output-3/Input-3 empty 0 -6 0 10 -262144 -1 -1 256;
#X obj 2110 30 vsl 15 128 -96 4 0 0 \$0-Matrix-8-x-8/Output-3/Input-4 \$0-Matrix-8-x-8/Output-3/Input-4 Input-4 0 -8 0 10 -262144 -1 -1 0 1;
#X obj 2110 170 nbx 5 14 -96 4 0 0 \$0-Matrix-8-x-8/Output-3/Input-4 \$0-Matrix-8-x-8/Output-3/Input-4 empty 0 -6 0 10 -262144 -1 -1 256;
#X obj 2185 30 vsl 15 128 -96 4 0 0 \$0-Matrix-8-x-8/Output-3/Input-5 \$0-Matrix-8-x-8/Output-3/Input-5 Input-5 0 -8 0 10 -262144 -1 -1 0 1;
#X obj 2185 170 nbx 5 14 -96 4 0 0 \$0-Matrix-8-x-8/Output-3/Input-5 \$0-Matrix-8-x-8/Output-3/Input-5 empty 0 -6 0 10 -262144 -1 -1 256;
#X obj 2260 30 vsl 15 128 -96 4 0 0 \$0-Matrix-8-x-8/Output-3/Input-6 \$0-Matrix-8-x-8/Output-3/Input-6 Input-6 0 -8 0 10 -262144 -1 -1 0 1;
#X obj 2260 170 nbx 5 14 -96 4 0 0 \$0-Matrix-8-x-8/Output-3/Input-6 \$0-Matrix-8-x-8/Output-3/Input-6 empty 0 -6 0 10 -262144 -1 -1 256;
#X obj 2335 30 vsl 15 128 -96 4 0 0 \$0-Matrix-8-x-8/Output-3/Input-7 \$0-Matrix-8-x-8/Output-3/Input-7 Input-7 0 -8 0 10 -262144 -1 -1 0 1;
#X obj 2335 170 nbx 5 14 -96 4 0 0 \$0-Matrix-8-x-8/Output-3/Input-7 \$0-Matrix-8-x-8/Output-3/Input-7 empty 0 -6 0 10 -262144 -1 -1 256;
#X obj 2410 30 vsl 15 128 -96 4 0 0 \$0-Matrix-8-x-8/Output-4/Input-0 \$0-Matrix-8-x-8/Output-4/Input-0 Input-0 0 -8 0 10 -262144 -1 -1 0 1;
#X obj 2410 170 nbx 5 14 -96 4 0 0 \$0-Matrix-8-x-8/Output-4/Input-0 \$0-Matrix-8-x-8/Output-4/Input-0 empty 0 -6 0 10 -262144 -1 -1 256;
#X obj 2485 30 vsl 15 128 -96 4 0 0 \$0-Matrix-8-x-8/Output-4/Input-1 \$0-Matrix-8-x-8/Output-4/Input-1 Input-1 0 -8 0 10 -262144 -1 -1 0 1;
#X obj 2485 170 nbx 5 14 -96 4 0 0 \$0-Matrix-8-x-8/Output-4/Input-1 \$0-Matrix-8-x-8/Output-4/Input-1 empty 0 -6 0 10 -262144 -1 -1 256;
#X obj 2560 30 vsl 15 128 -96 4 0 0 \$0-Matrix-8-x-8/Output-4/Input-2 \$0-Matrix-8-x-8/Output-4/Input-2 Input-2 0 -8 0 10 -262144 -1 -1 0 1;
#X obj 2560 170 nbx 5 14 -96 4 0 0 \$0-Matrix-8-x-8/Output-4/Input-2 \$0-Matrix-8-x-8/Output-4/Input-2 empty 0 -6 0 10 -262144 -1 -1 256;
#X obj 2635 30 vsl 15 128 -96 4 0 0 \$0-Matrix-8-x-8/Output-4/Input-3 \$0-Matrix-8-x-8/Output-4/Input-3 Input-3 0 -8 0 10 -262144 -1 -1 0 1;
#X obj 2635 170 nbx 5 14 -96 4 0 0 \$0-Matrix-8-x-8/Output-4/Input-3 \$0-Matrix-8-x-8/Output-4/Input-3 empty 0 -6 0 10 -262144 -1 -1 256;
#X obj 2710 30 vsl 15 128 -96 4 0 0 \$0-Matrix-8-x-8/Output-4/Input-4 \$0-Matrix-8-x-8/Output-4/Input-4 Input-4 0 -8 0 10 -262144 -1 -1 0 1;
#X obj 2710 170 nbx 5 14 -96 4 0 0 \$0-Matrix-8-x-8/Output-4/Input-4 \$0-Matrix-8-x-8/Output-4/Input-4 empty 0 -6 0 10 -262144 -1 -1 256;
#X obj 2785 30 vsl 15 128 -96 4 0 0 \$0-Matrix-8-x-8/Output-4/Input-5 \$0-Matrix-8-x-8/Output-4/Input-5 Input-5 0 -8 0 10 -262144 -1 -1 0 1;
#X obj 2785 170 nbx 5 14 -96 4 0 0 \$0-Matrix-8-x-8/Output-4/Input-5 \$0-Matrix-8-x-8/Output-4/Input-5 empty 0 -6 0 10 -262144 -1 -1 256;
#X obj 2860 30 vsl 15 128 -96 4 0 0 \$0-Matrix-8-x-8/Output-4/Input-6 \$0-Matrix-8-x-8/Output-4/Input-6 Input-6 0 -8 0 10 -262144 -1 -1 0 1;
#X obj 2860 170 nbx 5 14 -96 4 0 0 \$0-Matrix-8-x-8/Output-4/Input-6 \$0-Matrix-8-x-8/Output-4/Input-6 empty 0 -6 0 10 -262144 -1 -1 256;
#X obj 2935 30 vsl 15 128 -96 4 0 0 \$0-Matrix-8-x-8/Output-4/Input-7 \$0-Matrix-8-x-8/Output-4/Input-7 Input-7 0 -8 0 10 -262144 -1 -1 0 1;
#X obj 2935 170 nbx 5 14 -96 4 0 0 \$0-Matrix-8-x-8/Output-4/Input-7 \$0-Matrix-8-x-8/Output-4/Input-7 empty 0 -6 0 10 -262144 -1 -1 256;
#X obj 3010 30 vsl 15 128 -96 4 0 0 \$0-Matrix-8-x-8/Output-5/Input-0 \$0-Matrix-8-x-8/Output-5/Input-0 Input-0 0 -8 0 10 -262144 -1 -1 0 1;
#X obj 3010 170 nbx 5 14 -96 4 0 0 \$0-Matrix-8-x-8/Output-5/Input-0 \$0-Matrix-8-x-8/Output-5/Input-0 empty 0 -6 0 10 -262144 -1 -1 256;
#X obj 3085 30 vsl 15 128 -96 4 0 0 \$0-Matrix-8-x-8/Output-5/Input-1 \$0-Matrix-8-x-8/Output-5/Input-1 Input-1 0 -8 0 10 -262144 -1 -1 0 1;
#X obj 3085 170 nbx 5 14 -96 4 0 0 \$0-Matrix-8-x-8/Output-5/Input-1 \$0-Matrix-8-x-8/Output-5/Input-1 empty 0 -6 0 10 -262144 -1 -1 256;
#X obj 3160 30 vsl 15 128 -96 4 0 0 \$0-Matrix-8-x-8/Output-5/Input-2 \$0-Matrix-8-x-8/Output-5/Input-2 Input-2 0 -8 0 10 -262144 -1 -1 0 1;
#X obj 3160 170 nbx 5 14 -96 4 0 0 \$0-Matrix-8-x-8/Output-5/Input-2 \$0-Matrix-8-x-8/Output-5/Input-2 empty 0 -6 0 10 -262144 -1 -1 256;
#X obj 3235 30 vsl 15 128 -96 4 0 0 \$0-Matrix-8-x-8/Output-5/Input-3 \$0-Matrix-8-x-8/Output-5/Input-3 Input-3 0 -8 0 10 -262144 -1 -1 0 1;
#X obj 3235 170 nbx 5 14 -96 4 0 0 \$0-Matrix-8-x-8/Output-5/Input-3 \$0-Matrix-8-x-8/Output-5/Input-3 empty 0 -6 0 10 -262144 -1 -1 256;
#X obj 3310 30 vsl 15 128 -96 4 0 0 \$0-Matrix-8-x-8/Output-5/Input-4 \$0-Matrix-8-x-8/Output-5/Input-4 Input-4 0 -8 0 10 -262144 -1 -1 0 1;
#X obj 3310 170 nbx 5 14 -96 4 0 0 \$0-Matrix-8-x-8/Output-5/Input-4 \$0-Matrix-8-x-8/Output-5/Input-4 empty 0 -6 0 10 -262144 -1 -1 256;
#X obj 3385 30 vsl 15 128 -96 4 0 0 \$0-Matrix-8-x-8/Output-5/Input-5 \$0-Matrix-8-x-8/Output-5/Input-5 Input-5 0 -8 0 10 -262144 -1 -1 0 1;
#X obj 3385 170 nbx 5 14 -96 4 0 0 \$0-Matrix-8-x-8/Output-5/Input-5 \$0-Matrix-8-x-8/Output-5/Input-5 empty 0 -6 0 10 -262144 -1 -1 256;
#X obj 3460 30 vsl 15 128 -96 4 0 0 \$0-Matrix-8-x-8/Output-5/Input-6 \$0-Matrix-8-x-8/Output-5/Input-6 Input-6 0 -8 0 10 -262144 -1 -1 0 1;
#X obj 3460 170 nbx 5 14 -96 4 0 0 \$0-Matrix-8-x-8/Output-5/Input-6 \$0-Matrix-8-x-8/Output-5/Input-6 empty 0 -6 0 10 -262144 -1 -1 256;
#X obj 3535 30 vsl 15 128 -96 4 0 0 \$0-Matrix-8-x-8/Output-5/Input-7 \$0-Matrix-8-x-8/Output-5/Input-7 Input-7 0 -8 0 10 -262144 -1 -1 0 1;
#X obj 3535 170 nbx 5 14 -96 4 0 0 \$0-Matrix-8-x-8/Output-5/Input-7 \$0-Matrix-8-x-8/Output-5/Input-7 empty 0 -6 0 10 -262144 -1 -1 256;
#X obj 3610 30 vsl 15 128 -96 4 0 0 \$0-Matrix-8-x-8/Output-6/Input-0 \$0-Matrix-8-x-8/Output-6/Input-0 Input-0 0 -8 0 10 -262144 -1 -1 0 1;
#X obj 3610 170 nbx 5 14 -96 4 0 0 \$0-Matrix-8-x-8/Output-6/Input-0 \$0-Matrix-8-x-8/Output-6/Input-0 empty 0 -6 0 10 -262144 -1 -1 256;
#X obj 3685 30 vsl 15 128 -96 4 0 0 \$0-Matrix-8-x-8/Output-6/Input-1 \$0-Matrix-8-x-8/Output-6/Input-1 Input-1 0 -8 0 10 -262144 -1 -1 0 1;
#X obj 3685 170 nbx 5 14 -96 4 0 0 \$0-Matrix-8-x-8/Output-6/Input-1 \$0-Matrix-8-x-8/Output-6/Input-1 empty 0 -6 0 10 -262144 -1 -1 256;
#X obj 3760 30 vsl 15 128 -96 4 0 0 \$0-Matrix-8-x-8/Output-6/Input-2 \$0-Matrix-8-x-8/Output-6/Input-2 Input-2 0 -8 0 10 -262144 -1 -1 0 1;
#X obj 3760 170 nbx 5 14 -96 4 0 0 \$0-Matrix-8-x-8/Output-6/Input-2 \$0-Matrix-8-x-8/Output-6/Input-2 empty 0 -6 0 10 -262144 -1 -1 256;
#X obj 3835 30 vsl 15 128 -96 4 0 0 \$0-Matrix-8-x-8/Output-6/Input-3 \$0-Matrix-8-x-8/Output-6/Input-3 Input-3 0 -8 0 10 -262144 -1 -1 0 1;
#X obj 3835 170 nbx 5 14 -96 4 0 0 \$0-Matrix-8-x-8/Output-6/Input-3 \$0-Matrix-8-x-8/Output-6/Input-3 empty 0 -6 0 10 -262144 -1 -1 256;
#X obj 3910 30 vsl 15 128 -96 4 0 0 \$0-Matrix-8-x-8/Output-6/Input-4 \$0-Matrix-8-x-8/Output-6/Input-4 Input-4 0 -8 0 10 -262144 -1 -1 0 1;
#X obj 3910 170 nbx 5 14 -96 4 0 0 \$0-Matrix-8-x-8/Output-6/Input-4 \$0-Matrix-8-x-8/Output-6/Input-4 empty 0 -6 0 10 -262144 -1 -1 256;
#X obj 3985 30 vsl 15 128 -96 4 0 0 \$0-Matrix-8-x-8/Output-6/Input-5 \$0-Matrix-8-x-8/Output-6/Input-5 Input-5 0 -8 0 10 -262144 -1 -1 0 1;
#X obj 3985 170 nbx 5 14 -96 4 0 0 \$0-Matrix-8-x-8/Output-6/Input-5 \$0-Matrix-8-x-8/Output-6/Input-5 empty 0 -6 0 10 -262144 -1 -1 256;
#X obj 4060 30 vsl 15 128 -96 4 0 0 \$0-Matrix-8-x-8/Output-6/Input-6 \$0-Matrix-8-x-8/Output-6/Input-6 Input-6 0 -8 0 10 -262144 -1 -1 0 1;
#X obj 4060 170 nbx 5 14 -96 4 0 0 \$0-Matrix-8-x-8/Output-6/Input-6 \$0-Matrix-8-x-8/Output-6/Input-6 empty 0 -6 0 10 -262144 -1 -1 256;
#X obj 4135 30 vsl 15 128 -96 4 0 0 \$0-Matrix-8-x-8/Output-6/Input-7 \$0-Matrix-8-x-8/Output-6/Input-7 Input-7 0 -8 0 10 -262144 -1 -1 0 1;
#X obj 4135 170 nbx 5 14 -96 4 0 0 \$0-Matrix-8-x-8/Output-6/Input-7 \$0-Matrix-8-x-8/Output-6/Input-7 empty 0 -6 0 10 -262144 -1 -1 256;
#X obj 4210 30 vsl 15 128 -96 4 0 0 \$0-Matrix-8-x-8/Output-7/Input-0 \$0-Matrix-8-x-8/Output-7/Input-0 Input-0 0 -8 0 10 -262144 -1 -1 0 1;
#X obj 4210 170 nbx 5 14 -96 4 0 0 \$0-Matrix-8-x-8/Output-7/Input-0 \$0-Matrix-8-x-8/Output-7/Input-0 empty 0 -6 0 10 -262144 -1 -1 256;
#X obj 4285 30 vsl 15 128 -96 4 0 0 \$0-Matrix-8-x-8/Output-7/Input-1 \$0-Matrix-8-x-8/Output-7/Input-1 Input-1 0 -8 0 10 -262144 -1 -1 0 1;
#X obj 4285 170 nbx 5 14 -96 4 0 0 \$0-Matrix-8-x-8/Output-7/Input-1 \$0-Matrix-8-x-8/Output-7/Input-1 empty 0 -6 0 10 -262144 -1 -1 256;
#X obj 4360 30 vsl 15 128 -96 4 0 0 \$0-Matrix-8-x-8/Output-7/Input-2 \$0-Matrix-8-x-8/Output-7/Input-2 Input-2 0 -8 0 10 -262144 -1 -1 0 1;
#X obj 4360 170 nbx 5 14 -96 4 0 0 \$0-Matrix-8-x-8/Output-7/Input-2 \$0-Matrix-8-x-8/Output-7/Input-2 empty 0 -6 0 10 -262144 -1 -1 256;
#X obj 4435 30 vsl 15 128 -96 4 0 0 \$0-Matrix-8-x-8/Output-7/Input-3 \$0-Matrix-8-x-8/Output-7/Input-3 Input-3 0 -8 0 10 -262144 -1 -1 0 1;
#X obj 4435 170 nbx 5 14 -96 4 0 0 \$0-Matrix-8-x-8/Output-7/Input-3 \$0-Matrix-8-x-8/Output-7/Input-3 empty 0 -6 0 10 -262144 -1 -1 256;
#X obj 4510 30 vsl 15 128 -96 4 0 0 \$0-Matrix-8-x-8/Output-7/Input-4 \$0-Matrix-8-x-8/Output-7/Input-4 Input-4 0 -8 0 10 -262144 -1 -1 0 1;
#X obj 4510 170 nbx 5 14 -96 4 0 0 \$0-Matrix-8-x-8/Output-7/Input-4 \$0-Matrix-8-x-8/Output-7/Input-4 empty 0 -6 0 10 -262144 -1 -1 256;
#X obj 4585 30 vsl 15 128 -96 4 0 0 \$0-Matrix-8-x-8/Output-7/Input-5 \$0-Matrix-8-x-8/Output-7/Input-5 Input-5 0 -8 0 10 -262144 -1 -1 0 1;
#X obj 4585 170 nbx 5 14 -96 4 0 0 \$0-Matrix-8-x-8/Output-7/Input-5 \$0-Matrix-8-x-8/Output-7/Input-5 empty 0 -6 0 10 -262144 -1 -1 256;
#X obj 4660 30 vsl 15 128 -96 4 0 0 \$0-Matrix-8-x-8/Output-7/Input-6 \$0-Matrix-8-x-8/Output-7/Input-6 Input-6 0 -8 0 10 -262144 -1 -1 0 1;
#X obj 4660 170 nbx 5 14 -96 4 0 0 \$0-Matrix-8-x-8/Output-7/Input-6 \$0-Matrix-8-x-8/Output-7/Input-6 empty 0 -6 0 10 -262144 -1 -1 256;
#X obj 4735 30 vsl 15 128 -96 4 0 0 \$0-Matrix-8-x-8/Output-7/Input-7 \$0-Matrix-8-x-8/Output-7/Input-7 Input-7 0 -8 0 10 -262144 -1 -1 0 1;
#X obj 4735 170 nbx 5 14 -96 4 0 0 \$0-Matrix-8-x-8/Output-7/Input-7 \$0-Matrix-8-x-8/Output-7/Input-7 empty 0 -6 0 10 -262144 -1 -1 256;
#X obj 4772 3 bng 15 250 50 1 \$0-init \$0-ignore empty 0 -6 0 10 -262144 -1 -1;
#X obj 4792 3 tgl 15 1 \$0-active \$0-active empty 0 -6 0 10 -262144 -1 -1 1 1;
#X obj 4840 10 r \$0-init;
#X obj 5136 10 s \$0-in;
#X obj 5284 10 s \$0-read;
#X obj 5432 10 r \$0-write;
#X msg 4840 30 1;
#X obj 4840 50 s \$0-active;
#X connect 158 0 159 0;
#X obj 5136 30 r \$0-active;
#X msg 5136 50 active \$1;
#X connect 160 0 161 0;
#X connect 161 0 155 0;
#X obj 5432 30 route active;
#X obj 5432 50 s \$0-active;
#X connect 157 0 162 0;
#X connect 162 0 163 0;
#X msg 4840 70 -10;
#X obj 4840 90 s \$0-Matrix-8-x-8/Output-0/Input-0;
#X connect 154 0 164 0;
#X connect 164 0 165 0;
#X obj 5136 70 r \$0-Matrix-8-x-8/Output-0/Input-0;
#X msg 5136 90 /Matrix-8-x-8/Output-0/Input-0 \$1;
#X connect 166 0 167 0;
#X connect 167 0 155 0;
#X obj 5432 70 route /Matrix-8-x-8/Output-0/Input-0;
#X obj 5432 90 s \$0-Matrix-8-x-8/Output-0/Input-0;
#X connect 162 1 168 0;
#X connect 168 0 169 0;
#X msg 4840 110 -10;
#X obj 4840 130 s \$0-Matrix-8-x-8/Output-0/Input-1;
#X connect 154 0 170 0;
#X connect 170 0 171 0;
#X obj 5136 110 r \$0-Matrix-8-x-8/Output-0/Input-1;
#X msg 5136 130 /Matrix-8-x-8/Output-0/Input-1 \$1;
#X connect 172 0 173 0;
#X connect 173 0 155 0;
#X obj 5432 110 route /Matrix-8-x-8/Output-0/Input-1;
#X obj 5432 130 s \$0-Matrix-8-x-8/Output-0/Input-1;
#X connect 168 1 174 0;
#X connect 174 0 175 0;
#X msg 4840 150 -10;
#X obj 4840 170 s \$0-Matrix-8-x-8/Output-0/Input-2;
#X connect 154 0 176 0;
#X connect 176 0 177 0;
#X obj 5136 150 r \$0-Matrix-8-x-8/Output-0/Input-2;
#X msg 5136 170 /Matrix-8-x-8/Output-0/Input-2 \$1;
#X connect 178 0 179 0;
#X connect 179 0 155 0;
#X obj 5432 150 route /Matrix-8-x-8/Output-0/Input-2;
#X obj 5432 170 s \$0-Matrix-8-x-8/Output-0/Input-2;
#X connect 174 1 180 0;
#X connect 180 0 181 0;
#X msg 4840 190 -10;
#X obj 4840 210 s \$0-Matrix-8-x-8/Output-0/Input-3;
#X connect 154 0 182 0;
#X connect 182 0 183 0;
#X obj 5136 190 r \$0-Matrix-8-x-8/Output-0/Input-3;
#X msg 5136 210 /Matrix-8-x-8/Output-0/Input-3 \$1;
#X connect 184 0 185 0;
#X connect 185 0 155 0;
#X obj 5432 190 route /Matrix-8-x-8/Output-0/Input-3;
#X obj 5432 210 s \$0-Matrix-8-x-8/Output-0/Input-3;
#X connect 180 1 186 0;
#X connect 186 0 187 0;
#X msg 4840 230 -10;
#X obj 4840 250 s \$0-Matrix-8-x-8/Output-0/Input-4;
#X connect 154 0 188 0;
#X connect 188 0 189 0;
#X obj 5136 230 r \$0-Matrix-8-x-8/Output-0/Input-4;
#X msg 5136 250 /Matrix-8-x-8/Output-0/Input-4 \$1;
#X connect 190 0 191 0;
#X connect 191 0 155 0;
#X obj 5432 230 route /Matrix-8-x-8/Output-0/Input-4;
#X obj 5432 250 s \$0-Matrix-8-x-8/Output-0/Input-4;
#X connect 186 1 192 0;
#X connect 192 0 193 0;
#X msg 4840 270 -10;
#X obj 4840 290 s \$0-Matrix-8-x-8/Output-0/Input-5;
#X connect 154 0 194 0;
#X connect 194 0 195 0;
#X obj 5136 270 r \$0-Matrix-8-x-8/Output-0/Input-5;
#X msg 5136 290 /Matrix-8-x-8/Output-0/Input-5 \$1;
#X connect 196 0 197 0;
#X connect 197 0 155 0;
#X obj 5432 270 route /Matrix-8-x-8/Output-0/Input-5;
#X obj 5432 290 s \$0-Matrix-8-x-8/Output-0/Input-5;
#X connect 192 1 198 0;
#X connect 198 0 199 0;
#X msg 4840 310 -10;
#X obj 4840 330 s \$0-Matrix-8-x-8/Output-0/Input-6;
#X connect 154 0 200 0;
#X connect 200 0 201 0;
#X obj 5136 310 r \$0-Matrix-8-x-8/Output-0/Input-6;
#X msg 5136 330 /Matrix-8-x-8/Output-0/Input-6 \$1;
#X connect 202 0 203 0;
#X connect 203 0 155 0;
#X obj 5432 310 route /Matrix-8-x-8/Output-0/Input-6;
#X obj 5432 330 s \$0-Matrix-8-x-8/Output-0/Input-6;
#X connect 198 1 204 0;
#X connect 204 0 205 0;
#X msg 4840 350 -10;
#X obj 4840 370 s \$0-Matrix-8-x-8/Output-0/Input-7;
#X connect 154 0 206 0;
#X connect 206 0 207 0;
#X obj 5136 350 r \$0-Matrix-8-x-8/Output-0/Input-7;
#X msg 5136 370 /Matrix-8-x-8/Output-0/Input-7 \$1;
#X connect 208 0 209 0;
#X connect 209 0 155 0;
#X obj 5432 350 route /Matrix-8-x-8/Output-0/Input-7;
#X obj 5432 370 s \$0-Matrix-8-x-8/Output-0/Input-7;
#X connect 204 1 210 0;
#X connect 210 0 211 0;
#X msg 4840 390 -10;
#X obj 4840 410 s \$0-Matrix-8-x-8/Output-1/Input-0;
#X connect 154 0 212 0;
#X connect 212 0 213 0;
#X obj 5136 390 r \$0-Matrix-8-x-8/Output-1/Input-0;
#X msg 5136 410 /Matrix-8-x-8/Output-1/Input-0 \$1;
#X connect 214 0 215 0;
#X connect 215 0 155 0;
#X obj 5432 390 route /Matrix-8-x-8/Output-1/Input-0;
#X obj 5432 410 s \$0-Matrix-8-x-8/Output-1/Input-0;
#X connect 210 1 216 0;
#X connect 216 0 217 0;
#X msg 4840 430 -10;
#X obj 4840 450 s \$0-Matrix-8-x-8/Output-1/Input-1;
#X connect 154 0 218 0;
#X connect 218 0 219 0;
#X obj 5136 430 r \$0-Matrix-8-x-8/Output-1/Input-1;
#X msg 5136 450 /Matrix-8-x-8/Output-1/Input-1 \$1;
#X connect 220 0 221 0;
#X connect 221 0 155 0;
#X obj 5432 430 route /Matrix-8-x-8/Output-1/Input-1;
#X obj 5432 450 s \$0-Matrix-8-x-8/Output-1/Input-1;
#X connect 216 1 222 0;
#X connect 222 0 223 0;
#X msg 4840 470 -10;
#X obj 4840 490 s \$0-Matrix-8-x-8/Output-1/Input-2;
#X connect 154 0 224 0;
#X connect 224 0 225 0;
#X obj 5136 470 r \$0-Matrix-8-x-8/Output-1/Input-2;
#X msg 5136 490 /Matrix-8-x-8/Output-1/Input-2 \$1;
#X connect 226 0 227 0;
#X connect 227 0 155 0;
#X obj 5432 470 route /Matrix-8-x-8/Output-1/Input-2;
#X obj 5432 490 s \$0-Matrix-8-x-8/Output-1/Input-2;
#X connect 222 1 228 0;
#X connect 228 0 229 0;
#X msg 4840 510 -10;
#X obj 4840 530 s \$0-Matrix-8-x-8/Output-1/Input-3;
#X connect 154 0 230 0;
#X connect 230 0 231 0;
#X obj 5136 510 r \$0-Matrix-8-x-8/Output-1/Input-3;
#X msg 5136 530 /Matrix-8-x-8/Output-1/Input-3 \$1;
#X connect 232 0 233 0;
#X connect 233 0 155 0;
#X obj 5432 510 route /Matrix-8-x-8/Output-1/Input-3;
#X obj 5432 530 s \$0-Matrix-8-x-8/Output-1/Input-3;
#X connect 228 1 234 0;
#X connect 234 0 235 0;
#X msg 4840 550 -10;
#X obj 4840 570 s \$0-Matrix-8-x-8/Output-1/Input-4;
#X connect 154 0 236 0;
#X connect 236 0 237 0;
#X obj 5136 550 r \$0-Matrix-8-x-8/Output-1/Input-4;
#X msg 5136 570 /Matrix-8-x-8/Output-1/Input-4 \$1;
#X connect 238 0 239 0;
#X connect 239 0 155 0;
#X obj 5432 550 route /Matrix-8-x-8/Output-1/Input-4;
#X obj 5432 570 s \$0-Matrix-8-x-8/Output-1/Input-4;
#X connect 234 1 240 0;
#X connect 240 0 241 0;
#X msg 4840 590 -10;
#X obj 4840 610 s \$0-Matrix-8-x-8/Output-1/Input-5;
#X connect 154 0 242 0;
#X connect 242 0 243 0;
#X obj 5136 590 r \$0-Matrix-8-x-8/Output-1/Input-5;
#X msg 5136 610 /Matrix-8-x-8/Output-1/Input-5 \$1;
#X connect 244 0 245 0;
#X connect 245 0 155 0;
#X obj 5432 590 route /Matrix-8-x-8/Output-1/Input-5;
#X obj 5432 610 s \$0-Matrix-8-x-8/Output-1/Input-5;
#X connect 240 1 246 0;
#X connect 246 0 247 0;
#X msg 4840 630 -10;
#X obj 4840 650 s \$0-Matrix-8-x-8/Output-1/Input-6;
#X connect 154 0 248 0;
#X connect 248 0 249 0;
#X obj 5136 630 r \$0-Matrix-8-x-8/Output-1/Input-6;
#X msg 5136 650 /Matrix-8-x-8/Output-1/Input-6 \$1;
#X connect 250 0 251 0;
#X connect 251 0 155 0;
#X obj 5432 630 route /Matrix-8-x-8/Output-1/Input-6;
#X obj 5432 650 s \$0-Matrix-8-x-8/Output-1/Input-6;
#X connect 246 1 252 0;
#X connect 252 0 253 0;
#X msg 4840 670 -10;
#X obj 4840 690 s \$0-Matrix-8-x-8/Output-1/Input-7;
#X connect 154 0 254 0;
#X connect 254 0 255 0;
#X obj 5136 670 r \$0-Matrix-8-x-8/Output-1/Input-7;
#X msg 5136 690 /Matrix-8-x-8/Output-1/Input-7 \$1;
#X connect 256 0 257 0;
#X connect 257 0 155 0;
#X obj 5432 670 route /Matrix-8-x-8/Output-1/Input-7;
#X obj 5432 690 s \$0-Matrix-8-x-8/Output-1/Input-7;
#X connect 252 1 258 0;
#X connect 258 0 259 0;
#X msg 4840 710 -10;
#X obj 4840 730 s \$0-Matrix-8-x-8/Output-2/Input-0;
#X connect 154 0 260 0;
#X connect 260 0 261 0;
#X obj 5136 710 r \$0-Matrix-8-x-8/Output-2/Input-0;
#X msg 5136 730 /Matrix-8-x-8/Output-2/Input-0 \$1;
#X connect 262 0 263 0;
#X connect 263 0 155 0;
#X obj 5432 710 route /Matrix-8-x-8/Output-2/Input-0;
#X obj 5432 730 s \$0-Matrix-8-x-8/Output-2/Input-0;
#X connect 258 1 264 0;
#X connect 264 0 265 0;
#X msg 4840 750 -10;
#X obj 4840 770 s \$0-Matrix-8-x-8/Output-2/Input-1;
#X connect 154 0 266 0;
#X connect 266 0 267 0;
#X obj 5136 750 r \$0-Matrix-8-x-8/Output-2/Input-1;
#X msg 5136 770 /Matrix-8-x-8/Output-2/Input-1 \$1;
#X connect 268 0 269 0;
#X connect 269 0 155 0;
#X obj 5432 750 route /Matrix-8-x-8/Output-2/Input-1;
#X obj 5432 770 s \$0-Matrix-8-x-8/Output-2/Input-1;
#X connect 264 1 270 0;
#X connect 270 0 271 0;
#X msg 4840 790 -10;
#X obj 4840 810 s \$0-Matrix-8-x-8/Output-2/Input-2;
#X connect 154 0 272 0;
#X connect 272 0 273 0;
#X obj 5136 790 r \$0-Matrix-8-x-8/Output-2/Input-2;
#X msg 5136 810 /Matrix-8-x-8/Output-2/Input-2 \$1;
#X connect 274 0 275 0;
#X connect 275 0 155 0;
#X obj 5432 790 route /Matrix-8-x-8/Output-2/Input-2;
#X obj 5432 810 s \$0-Matrix-8-x-8/Output-2/Input-2;
#X connect 270 1 276 0;
#X connect 276 0 277 0;
#X msg 4840 830 -10;
#X obj 4840 850 s \$0-Matrix-8-x-8/Output-2/Input-3;
#X connect 154 0 278 0;
#X connect 278 0 279 0;
#X obj 5136 830 r \$0-Matrix-8-x-8/Output-2/Input-3;
#X msg 5136 850 /Matrix-8-x-8/Output-2/Input-3 \$1;
#X connect 280 0 281 0;
#X connect 281 0 155 0;
#X obj 5432 830 route /Matrix-8-x-8/Output-2/Input-3;
#X obj 5432 850 s \$0-Matrix-8-x-8/Output-2/Input-3;
#X connect 276 1 282 0;
#X connect 282 0 283 0;
#X msg 4840 870 -10;
#X obj 4840 890 s \$0-Matrix-8-x-8/Output-2/Input-4;
#X connect 154 0 284 0;
#X connect 284 0 285 0;
#X obj 5136 870 r \$0-Matrix-8-x-8/Output-2/Input-4;
#X msg 5136 890 /Matrix-8-x-8/Output-2/Input-4 \$1;
#X connect 286 0 287 0;
#X connect 287 0 155 0;
#X obj 5432 870 route /Matrix-8-x-8/Output-2/Input-4;
#X obj 5432 890 s \$0-Matrix-8-x-8/Output-2/Input-4;
#X connect 282 1 288 0;
#X connect 288 0 289 0;
#X msg 4840 910 -10;
#X obj 4840 930 s \$0-Matrix-8-x-8/Output-2/Input-5;
#X connect 154 0 290 0;
#X connect 290 0 291 0;
#X obj 5136 910 r \$0-Matrix-8-x-8/Output-2/Input-5;
#X msg 5136 930 /Matrix-8-x-8/Output-2/Input-5 \$1;
#X connect 292 0 293 0;
#X connect 293 0 155 0;
#X obj 5432 910 route /Matrix-8-x-8/Output-2/Input-5;
#X obj 5432 930 s \$0-Matrix-8-x-8/Output-2/Input-5;
#X connect 288 1 294 0;
#X connect 294 0 295 0;
#X msg 4840 950 -10;
#X obj 4840 970 s \$0-Matrix-8-x-8/Output-2/Input-6;
#X connect 154 0 296 0;
#X connect 296 0 297 0;
#X obj 5136 950 r \$0-Matrix-8-x-8/Output-2/Input-6;
#X msg 5136 970 /Matrix-8-x-8/Output-2/Input-6 \$1;
#X connect 298 0 299 0;
#X connect 299 0 155 0;
#X obj 5432 950 route /Matrix-8-x-8/Output-2/Input-6;
#X obj 5432 970 s \$0-Matrix-8-x-8/Output-2/Input-6;
#X connect 294 1 300 0;
#X connect 300 0 301 0;
#X msg 4840 990 -10;
#X obj 4840 1010 s \$0-Matrix-8-x-8/Output-2/Input-7;
#X connect 154 0 302 0;
#X connect 302 0 303 0;
#X obj 5136 990 r \$0-Matrix-8-x-8/Output-2/Input-7;
#X msg 5136 1010 /Matrix-8-x-8/Output-2/Input-7 \$1;
#X connect 304 0 305 0;
#X connect 305 0 155 0;
#X obj 5432 990 route /Matrix-8-x-8/Output-2/Input-7;
#X obj 5432 1010 s \$0-Matrix-8-x-8/Output-2/Input-7;
#X connect 300 1 306 0;
#X connect 306 0 307 0;
#X msg 4840 1030 -10;
#X obj 4840 1050 s \$0-Matrix-8-x-8/Output-3/Input-0;
#X connect 154 0 308 0;
#X connect 308 0 309 0;
#X obj 5136 1030 r \$0-Matrix-8-x-8/Output-3/Input-0;
#X msg 5136 1050 /Matrix-8-x-8/Output-3/Input-0 \$1;
#X connect 310 0 311 0;
#X connect 311 0 155 0;
#X obj 5432 1030 route /Matrix-8-x-8/Output-3/Input-0;
#X obj 5432 1050 s \$0-Matrix-8-x-8/Output-3/Input-0;
#X connect 306 1 312 0;
#X connect 312 0 313 0;
#X msg 4840 1070 -10;
#X obj 4840 1090 s \$0-Matrix-8-x-8/Output-3/Input-1;
#X connect 154 0 314 0;
#X connect 314 0 315 0;
#X obj 5136 1070 r \$0-Matrix-8-x-8/Output-3/Input-1;
#X msg 5136 1090 /Matrix-8-x-8/Output-3/Input-1 \$1;
#X connect 316 0 317 0;
#X connect 317 0 155 0;
#X obj 5432 1070 route /Matrix-8-x-8/Output-3/Input-1;
#X obj 5432 1090 s \$0-Matrix-8-x-8/Output-3/Input-1;
#X connect 312 1 318 0;
#X connect 318 0 319 0;
#X msg 4840 1110 -10;
#X obj 4840 1130 s \$0-Matrix-8-x-8/Output-3/Input-2;
#X connect 154 0 320 0;
#X connect 320 0 321 0;
#X obj 5136 1110 r \$0-Matrix-8-x-8/Output-3/Input-2;
#X msg 5136 1130 /Matrix-8-x-8/Output-3/Input-2 \$1;
#X connect 322 0 323 0;
#X connect 323 0 155 0;
#X obj 5432 1110 route /Matrix-8-x-8/Output-3/Input-2;
#X obj 5432 1130 s \$0-Matrix-8-x-8/Output-3/Input-2;
#X connect 318 1 324 0;
#X connect 324 0 325 0;
#X msg 4840 1150 -10;
#X obj 4840 1170 s \$0-Matrix-8-x-8/Output-3/Input-3;
#X connect 154 0 326 0;
#X connect 326 0 327 0;
#X obj 5136 1150 r \$0-Matrix-8-x-8/Output-3/Input-3;
#X msg 5136 1170 /Matrix-8-x-8/Output-3/Input-3 \$1;
#X connect 328 0 329 0;
#X connect 329 0 155 0;
#X obj 5432 1150 route /Matrix-8-x-8/Output-3/Input-3;
#X obj 5432 1170 s \$0-Matrix-8-x-8/Output-3/Input-3;
#X connect 324 1 330 0;
#X connect 330 0 331 0;
#X msg 4840 1190 -10;
#X obj 4840 1210 s \$0-Matrix-8-x-8/Output-3/Input-4;
#X connect 154 0 332 0;
#X connect 332 0 333 0;
#X obj 5136 1190 r \$0-Matrix-8-x-8/Output-3/Input-4;
#X msg 5136 1210 /Matrix-8-x-8/Output-3/Input-4 \$1;
#X connect 334 0 335 0;
#X connect 335 0 155 0;
#X obj 5432 1190 route /Matrix-8-x-8/Output-3/Input-4;
#X obj 5432 1210 s \$0-Matrix-8-x-8/Output-3/Input-4;
#X connect 330 1 336 0;
#X connect 336 0 337 0;
#X msg 4840 1230 -10;
#X obj 4840 1250 s \$0-Matrix-8-x-8/Output-3/Input-5;
#X connect 154 0 338 0;
#X connect 338 0 339 0;
#X obj 5136 1230 r \$0-Matrix-8-x-8/Output-3/Input-5;
#X msg 5136 1250 /Matrix-8-x-8/Output-3/Input-5 \$1;
#X connect 340 0 341 0;
#X connect 341 0 155 0;
#X obj 5432 1230 route /Matrix-8-x-8/Output-3/Input-5;
#X obj 5432 1250 s \$0-Matrix-8-x-8/Output-3/Input-5;
#X connect 336 1 342 0;
#X connect 342 0 343 0;
#X msg 4840 1270 -10;
#X obj 4840 1290 s \$0-Matrix-8-x-8/Output-3/Input-6;
#X connect 154 0 344 0;
#X connect 344 0 345 0;
#X obj 5136 1270 r \$0-Matrix-8-x-8/Output-3/Input-6;
#X msg 5136 1290 /Matrix-8-x-8/Output-3/Input-6 \$1;
#X connect 346 0 347 0;
#X connect 347 0 155 0;
#X obj 5432 1270 route /Matrix-8-x-8/Output-3/Input-6;
#X obj 5432 1290 s \$0-Matrix-8-x-8/Output-3/Input-6;
#X connect 342 1 348 0;
#X connect 348 0 349 0;
#X msg 4840 1310 -10;
#X obj 4840 1330 s \$0-Matrix-8-x-8/Output-3/Input-7;
#X connect 154 0 350 0;
#X connect 350 0 351 0;
#X obj 5136 1310 r \$0-Matrix-8-x-8/Output-3/Input-7;
#X msg 5136 1330 /Matrix-8-x-8/Output-3/Input-7 \$1;
#X connect 352 0 353 0;
#X connect 353 0 155 0;
#X obj 5432 1310 route /Matrix-8-x-8/Output-3/Input-7;
#X obj 5432 1330 s \$0-Matrix-8-x-8/Output-3/Input-7;
#X connect 348 1 354 0;
#X connect 354 0 355 0;
#X msg 4840 1350 -10;
#X obj 4840 1370 s \$0-Matrix-8-x-8/Output-4/Input-0;
#X connect 154 0 356 0;
#X connect 356 0 357 0;
#X obj 5136 1350 r \$0-Matrix-8-x-8/Output-4/Input-0;
#X msg 5136 1370 /Matrix-8-x-8/Output-4/Input-0 \$1;
#X connect 358 0 359 0;
#X connect 359 0 155 0;
#X obj 5432 1350 route /Matrix-8-x-8/Output-4/Input-0;
#X obj 5432 1370 s \$0-Matrix-8-x-8/Output-4/Input-0;
#X connect 354 1 360 0;
#X connect 360 0 361 0;
#X msg 4840 1390 -10;
#X obj 4840 1410 s \$0-Matrix-8-x-8/Output-4/Input-1;
#X connect 154 0 362 0;
#X connect 362 0 363 0;
#X obj 5136 1390 r \$0-Matrix-8-x-8/Output-4/Input-1;
#X msg 5136 1410 /Matrix-8-x-8/Output-4/Input-1 \$1;
#X connect 364 0 365 0;
#X connect 365 0 155 0;
#X obj 5432 1390 route /Matrix-8-x-8/Output-4/Input-1;
#X obj 5432 1410 s \$0-Matrix-8-x-8/Output-4/Input-1;
#X connect 360 1 366 0;
#X connect 366 0 367 0;
#X msg 4840 1430 -10;
#X obj 4840 1450 s \$0-Matrix-8-x-8/Output-4/Input-2;
#X connect 154 0 368 0;
#X connect 368 0 369 0;
#X obj 5136 1430 r \$0-Matrix-8-x-8/Output-4/Input-2;
#X msg 5136 1450 /Matrix-8-x-8/Output-4/Input-2 \$1;
#X connect 370 0 371 0;
#X connect 371 0 155 0;
#X obj 5432 1430 route /Matrix-8-x-8/Output-4/Input-2;
#X obj 5432 1450 s \$0-Matrix-8-x-8/Output-4/Input-2;
#X connect 366 1 372 0;
#X connect 372 0 373 0;
#X msg 4840 1470 -10;
#X obj 4840 1490 s \$0-Matrix-8-x-8/Output-4/Input-3;
#X connect 154 0 374 0;
#X connect 374 0 375 0;
#X obj 5136 1470 r \$0-Matrix-8-x-8/Output-4/Input-3;
#X msg 5136 1490 /Matrix-8-x-8/Output-4/Input-3 \$1;
#X connect 376 0 377 0;
#X connect 377 0 155 0;
#X obj 5432 1470 route /Matrix-8-x-8/Output-4/Input-3;
#X obj 5432 1490 s \$0-Matrix-8-x-8/Output-4/Input-3;
#X connect 372 1 378 0;
#X connect 378 0 379 0;
#X msg 4840 1510 -10;
#X obj 4840 1530 s \$0-Matrix-8-x-8/Output-4/Input-4;
#X connect 154 0 380 0;
#X connect 380 0 381 0;
#X obj 5136 1510 r \$0-Matrix-8-x-8/Output-4/Input-4;
#X msg 5136 1530 /Matrix-8-x-8/Output-4/Input-4 \$1;
#X connect 382 0 383 0;
#X connect 383 0 155 0;
#X obj 5432 1510 route /Matrix-8-x-8/Output-4/Input-4;
#X obj 5432 1530 s \$0-Matrix-8-x-8/Output-4/Input-4;
#X connect 378 1 384 0;
#X connect 384 0 385 0;
#X msg 4840 1550 -10;
#X obj 4840 1570 s \$0-Matrix-8-x-8/Output-4/Input-5;
#X connect 154 0 386 0;
#X connect 386 0 387 0;
#X obj 5136 1550 r \$0-Matrix-8-x-8/Output-4/Input-5;
#X msg 5136 1570 /Matrix-8-x-8/Output-4/Input-5 \$1;
#X connect 388 0 389 0;
#X connect 389 0 155 0;
#X obj 5432 1550 route /Matrix-8-x-8/Output-4/Input-5;
#X obj 5432 1570 s \$0-Matrix-8-x-8/Output-4/Input-5;
#X connect 384 1 390 0;
#X connect 390 0 391 0;
#X msg 4840 1590 -10;
#X obj 4840 1610 s \$0-Matrix-8-x-8/Output-4/Input-6;
#X connect 154 0 392 0;
#X connect 392 0 393 0;
#X obj 5136 1590 r \$0-Matrix-8-x-8/Output-4/Input-6;
#X msg 5136 1610 /Matrix-8-x-8/Output-4/Input-6 \$1;
#X connect 394 0 395 0;
#X connect 395 0 155 0;
#X obj 5432 1590 route /Matrix-8-x-8/Output-4/Input-6;
#X obj 5432 1610 s \$0-Matrix-8-x-8/Output-4/Input-6;
#X connect 390 1 396 0;
#X connect 396 0 397 0;
#X msg 4840 1630 -10;
#X obj 4840 1650 s \$0-Matrix-8-x-8/Output-4/Input-7;
#X connect 154 0 398 0;
#X connect 398 0 399 0;
#X obj 5136 1630 r \$0-Matrix-8-x-8/Output-4/Input-7;
#X msg 5136 1650 /Matrix-8-x-8/Output-4/Input-7 \$1;
#X connect 400 0 401 0;
#X connect 401 0 155 0;
#X obj 5432 1630 route /Matrix-8-x-8/Output-4/Input-7;
#X obj 5432 1650 s \$0-Matrix-8-x-8/Output-4/Input-7;
#X connect 396 1 402 0;
#X connect 402 0 403 0;
#X msg 4840 1670 -10;
#X obj 4840 1690 s \$0-Matrix-8-x-8/Output-5/Input-0;
#X connect 154 0 404 0;
#X connect 404 0 405 0;
#X obj 5136 1670 r \$0-Matrix-8-x-8/Output-5/Input-0;
#X msg 5136 1690 /Matrix-8-x-8/Output-5/Input-0 \$1;
#X connect 406 0 407 0;
#X connect 407 0 155 0;
#X obj 5432 1670 route /Matrix-8-x-8/Output-5/Input-0;
#X obj 5432 1690 s \$0-Matrix-8-x-8/Output-5/Input-0;
#X connect 402 1 408 0;
#X connect 408 0 409 0;
#X msg 4840 1710 -10;
#X obj 4840 1730 s \$0-Matrix-8-x-8/Output-5/Input-1;
#X connect 154 0 410 0;
#X connect 410 0 411 0;
#X obj 5136 1710 r \$0-Matrix-8-x-8/Output-5/Input-1;
#X msg 5136 1730 /Matrix-8-x-8/Output-5/Input-1 \$1;
#X connect 412 0 413 0;
#X connect 413 0 155 0;
#X obj 5432 1710 route /Matrix-8-x-8/Output-5/Input-1;
#X obj 5432 1730 s \$0-Matrix-8-x-8/Output-5/Input-1;
#X connect 408 1 414 0;
#X connect 414 0 415 0;
#X msg 4840 1750 -10;
#X obj 4840 1770 s \$0-Matrix-8-x-8/Output-5/Input-2;
#X connect 154 0 416 0;
#X connect 416 0 417 0;
#X obj 5136 1750 r \$0-Matrix-8-x-8/Output-5/Input-2;
#X msg 5136 1770 /Matrix-8-x-8/Output-5/Input-2 \$1;
#X connect 418 0 419 0;
#X connect 419 0 155 0;
#X obj 5432 1750 route /Matrix-8-x-8/Output-5/Input-2;
#X obj 5432 1770 s \$0-Matrix-8-x-8/Output-5/Input-2;
#X connect 414 1 420 0;
#X connect 420 0 421 0;
#X msg 4840 1790 -10;
#X obj 4840 1810 s \$0-Matrix-8-x-8/Output-5/Input-3;
#X connect 154 0 422 0;
#X connect 422 0 423 0;
#X obj 5136 1790 r \$0-Matrix-8-x-8/Output-5/Input-3;
#X msg 5136 1810 /Matrix-8-x-8/Output-5/Input-3 \$1;
#X connect 424 0 425 0;
#X connect 425 0 155 0;
#X obj 5432 1790 route /Matrix-8-x-8/Output-5/Input-3;
#X obj 5432 1810 s \$0-Matrix-8-x-8/Output-5/Input-3;
#X connect 420 1 426 0;
#X connect 426 0 427 0;
#X msg 4840 1830 -10;
#X obj 4840 1850 s \$0-Matrix-8-x-8/Output-5/Input-4;
#X connect 154 0 428 0;
#X connect 428 0 429 0;
#X obj 5136 1830 r \$0-Matrix-8-x-8/Output-5/Input-4;
#X msg 5136 1850 /Matrix-8-x-8/Output-5/Input-4 \$1;
#X connect 430 0 431 0;
#X connect 431 0 155 0;
#X obj 5432 1830 route /Matrix-8-x-8/Output-5/Input-4;
#X obj 5432 1850 s \$0-Matrix-8-x-8/Output-5/Input-4;
#X connect 426 1 432 0;
#X connect 432 0 433 0;
#X msg 4840 1870 -10;
#X obj 4840 1890 s \$0-Matrix-8-x-8/Output-5/Input-5;
#X connect 154 0 434 0;
#X connect 434 0 435 0;
#X obj 5136 1870 r \$0-Matrix-8-x-8/Output-5/Input-5;
#X msg 5136 1890 /Matrix-8-x-8/Output-5/Input-5 \$1;
#X connect 436 0 437 0;
#X connect 437 0 155 0;
#X obj 5432 1870 route /Matrix-8-x-8/Output-5/Input-5;
#X obj 5432 1890 s \$0-Matrix-8-x-8/Output-5/Input-5;
#X connect 432 1 438 0;
#X connect 438 0 439 0;
#X msg 4840 1910 -10;
#X obj 4840 1930 s \$0-Matrix-8-x-8/Output-5/Input-6;
#X connect 154 0 440 0;
#X connect 440 0 441 0;
#X obj 5136 1910 r \$0-Matrix-8-x-8/Output-5/Input-6;
#X msg 5136 1930 /Matrix-8-x-8/Output-5/Input-6 \$1;
#X connect 442 0 443 0;
#X connect 443 0 155 0;
#X obj 5432 1910 route /Matrix-8-x-8/Output-5/Input-6;
#X obj 5432 1930 s \$0-Matrix-8-x-8/Output-5/Input-6;
#X connect 438 1 444 0;
#X connect 444 0 445 0;
#X msg 4840 1950 -10;
#X obj 4840 1970 s \$0-Matrix-8-x-8/Output-5/Input-7;
#X connect 154 0 446 0;
#X connect 446 0 447 0;
#X obj 5136 1950 r \$0-Matrix-8-x-8/Output-5/Input-7;
#X msg 5136 1970 /Matrix-8-x-8/Output-5/Input-7 \$1;
#X connect 448 0 449 0;
#X connect 449 0 155 0;
#X obj 5432 1950 route /Matrix-8-x-8/Output-5/Input-7;
#X obj 5432 1970 s \$0-Matrix-8-x-8/Output-5/Input-7;
#X connect 444 1 450 0;
#X connect 450 0 451 0;
#X msg 4840 1990 -10;
#X obj 4840 2010 s \$0-Matrix-8-x-8/Output-6/Input-0;
#X connect 154 0 452 0;
#X connect 452 0 453 0;
#X obj 5136 1990 r \$0-Matrix-8-x-8/Output-6/Input-0;
#X msg 5136 2010 /Matrix-8-x-8/Output-6/Input-0 \$1;
#X connect 454 0 455 0;
#X connect 455 0 155 0;
#X obj 5432 1990 route /Matrix-8-x-8/Output-6/Input-0;
#X obj 5432 2010 s \$0-Matrix-8-x-8/Output-6/Input-0;
#X connect 450 1 456 0;
#X connect 456 0 457 0;
#X msg 4840 2030 -10;
#X obj 4840 2050 s \$0-Matrix-8-x-8/Output-6/Input-1;
#X connect 154 0 458 0;
#X connect 458 0 459 0;
#X obj 5136 2030 r \$0-Matrix-8-x-8/Output-6/Input-1;
#X msg 5136 2050 /Matrix-8-x-8/Output-6/Input-1 \$1;
#X connect 460 0 461 0;
#X connect 461 0 155 0;
#X obj 5432 2030 route /Matrix-8-x-8/Output-6/Input-1;
#X obj 5432 2050 s \$0-Matrix-8-x-8/Output-6/Input-1;
#X connect 456 1 462 0;
#X connect 462 0 463 0;
#X msg 4840 2070 -10;
#X obj 4840 2090 s \$0-Matrix-8-x-8/Output-6/Input-2;
#X connect 154 0 464 0;
#X connect 464 0 465 0;
#X obj 5136 2070 r \$0-Matrix-8-x-8/Output-6/Input-2;
#X msg 5136 2090 /Matrix-8-x-8/Output-6/Input-2 \$1;
#X connect 466 0 467 0;
#X connect 467 0 155 0;
#X obj 5432 2070 route /Matrix-8-x-8/Output-6/Input-2;
#X obj 5432 2090 s \$0-Matrix-8-x-8/Output-6/Input-2;
#X connect 462 1 468 0;
#X connect 468 0 469 0;
#X msg 4840 2110 -10;
#X obj 4840 2130 s \$0-Matrix-8-x-8/Output-6/Input-3;
#X connect 154 0 470 0;
#X connect 470 0 471 0;
#X obj 5136 2110 r \$0-Matrix-8-x-8/Output-6/Input-3;
#X msg 5136 2130 /Matrix-8-x-8/Output-6/Input-3 \$1;
#X connect 472 0 473 0;
#X connect 473 0 155 0;
#X obj 5432 2110 route /Matrix-8-x-8/Output-6/Input-3;
#X obj 5432 2130 s \$0-Matrix-8-x-8/Output-6/Input-3;
#X connect 468 1 474 0;
#X connect 474 0 475 0;
#X msg 4840 2150 -10;
#X obj 4840 2170 s \$0-Matrix-8-x-8/Output-6/Input-4;
#X connect 154 0 476 0;
#X connect 476 0 477 0;
#X obj 5136 2150 r \$0-Matrix-8-x-8/Output-6/Input-4;
#X msg 5136 2170 /Matrix-8-x-8/Output-6/Input-4 \$1;
#X connect 478 0 479 0;
#X connect 479 0 155 0;
#X obj 5432 2150 route /Matrix-8-x-8/Output-6/Input-4;
#X obj 5432 2170 s \$0-Matrix-8-x-8/Output-6/Input-4;
#X connect 474 1 480 0;
#X connect 480 0 481 0;
#X msg 4840 2190 -10;
#X obj 4840 2210 s \$0-Matrix-8-x-8/Output-6/Input-5;
#X connect 154 0 482 0;
#X connect 482 0 483 0;
#X obj 5136 2190 r \$0-Matrix-8-x-8/Output-6/Input-5;
#X msg 5136 2210 /Matrix-8-x-8/Output-6/Input-5 \$1;
#X connect 484 0 485 0;
#X connect 485 0 155 0;
#X obj 5432 2190 route /Matrix-8-x-8/Output-6/Input-5;
#X obj 5432 2210 s \$0-Matrix-8-x-8/Output-6/Input-5;
#X connect 480 1 486 0;
#X connect 486 0 487 0;
#X msg 4840 2230 -10;
#X obj 4840 2250 s \$0-Matrix-8-x-8/Output-6/Input-6;
#X connect 154 0 488 0;
#X connect 488 0 489 0;
#X obj 5136 2230 r \$0-Matrix-8-x-8/Output-6/Input-6;
#X msg 5136 2250 /Matrix-8-x-8/Output-6/Input-6 \$1;
#X connect 490 0 491 0;
#X connect 491 0 155 0;
#X obj 5432 2230 route /Matrix-8-x-8/Output-6/Input-6;
#X obj 5432 2250 s \$0-Matrix-8-x-8/Output-6/Input-6;
#X connect 486 1 492 0;
#X connect 492 0 493 0;
#X msg 4840 2270 -10;
#X obj 4840 2290 s \$0-Matrix-8-x-8/Output-6/Input-7;
#X connect 154 0 494 0;
#X connect 494 0 495 0;
#X obj 5136 2270 r \$0-Matrix-8-x-8/Output-6/Input-7;
#X msg 5136 2290 /Matrix-8-x-8/Output-6/Input-7 \$1;
#X connect 496 0 497 0;
#X connect 497 0 155 0;
#X obj 5432 2270 route /Matrix-8-x-8/Output-6/Input-7;
#X obj 5432 2290 s \$0-Matrix-8-x-8/Output-6/Input-7;
#X connect 492 1 498 0;
#X connect 498 0 499 0;
#X msg 4840 2310 -10;
#X obj 4840 2330 s \$0-Matrix-8-x-8/Output-7/Input-0;
#X connect 154 0 500 0;
#X connect 500 0 501 0;
#X obj 5136 2310 r \$0-Matrix-8-x-8/Output-7/Input-0;
#X msg 5136 2330 /Matrix-8-x-8/Output-7/Input-0 \$1;
#X connect 502 0 503 0;
#X connect 503 0 155 0;
#X obj 5432 2310 route /Matrix-8-x-8/Output-7/Input-0;
#X obj 5432 2330 s \$0-Matrix-8-x-8/Output-7/Input-0;
#X connect 498 1 504 0;
#X connect 504 0 505 0;
#X msg 4840 2350 -10;
#X obj 4840 2370 s \$0-Matrix-8-x-8/Output-7/Input-1;
#X connect 154 0 506 0;
#X connect 506 0 507 0;
#X obj 5136 2350 r \$0-Matrix-8-x-8/Output-7/Input-1;
#X msg 5136 2370 /Matrix-8-x-8/Output-7/Input-1 \$1;
#X connect 508 0 509 0;
#X connect 509 0 155 0;
#X obj 5432 2350 route /Matrix-8-x-8/Output-7/Input-1;
#X obj 5432 2370 s \$0-Matrix-8-x-8/Output-7/Input-1;
#X connect 504 1 510 0;
#X connect 510 0 511 0;
#X msg 4840 2390 -10;
#X obj 4840 2410 s \$0-Matrix-8-x-8/Output-7/Input-2;
#X connect 154 0 512 0;
#X connect 512 0 513 0;
#X obj 5136 2390 r \$0-Matrix-8-x-8/Output-7/Input-2;
#X msg 5136 2410 /Matrix-8-x-8/Output-7/Input-2 \$1;
#X connect 514 0 515 0;
#X connect 515 0 155 0;
#X obj 5432 2390 route /Matrix-8-x-8/Output-7/Input-2;
#X obj 5432 2410 s \$0-Matrix-8-x-8/Output-7/Input-2;
#X connect 510 1 516 0;
#X connect 516 0 517 0;
#X msg 4840 2430 -10;
#X obj 4840 2450 s \$0-Matrix-8-x-8/Output-7/Input-3;
#X connect 154 0 518 0;
#X connect 518 0 519 0;
#X obj 5136 2430 r \$0-Matrix-8-x-8/Output-7/Input-3;
#X msg 5136 2450 /Matrix-8-x-8/Output-7/Input-3 \$1;
#X connect 520 0 521 0;
#X connect 521 0 155 0;
#X obj 5432 2430 route /Matrix-8-x-8/Output-7/Input-3;
#X obj 5432 2450 s \$0-Matrix-8-x-8/Output-7/Input-3;
#X connect 516 1 522 0;
#X connect 522 0 523 0;
#X msg 4840 2470 -10;
#X obj 4840 2490 s \$0-Matrix-8-x-8/Output-7/Input-4;
#X connect 154 0 524 0;
#X connect 524 0 525 0;
#X obj 5136 2470 r \$0-Matrix-8-x-8/Output-7/Input-4;
#X msg 5136 2490 /Matrix-8-x-8/Output-7/Input-4 \$1;
#X connect 526 0 527 0;
#X connect 527 0 155 0;
#X obj 5432 2470 route /Matrix-8-x-8/Output-7/Input-4;
#X obj 5432 2490 s \$0-Matrix-8-x-8/Output-7/Input-4;
#X connect 522 1 528 0;
#X connect 528 0 529 0;
#X msg 4840 2510 -10;
#X obj 4840 2530 s \$0-Matrix-8-x-8/Output-7/Input-5;
#X connect 154 0 530 0;
#X connect 530 0 531 0;
#X obj 5136 2510 r \$0-Matrix-8-x-8/Output-7/Input-5;
#X msg 5136 2530 /Matrix-8-x-8/Output-7/Input-5 \$1;
#X connect 532 0 533 0;
#X connect 533 0 155 0;
#X obj 5432 2510 route /Matrix-8-x-8/Output-7/Input-5;
#X obj 5432 2530 s \$0-Matrix-8-x-8/Output-7/Input-5;
#X connect 528 1 534 0;
#X connect 534 0 535 0;
#X msg 4840 2550 -10;
#X obj 4840 2570 s \$0-Matrix-8-x-8/Output-7/Input-6;
#X connect 154 0 536 0;
#X connect 536 0 537 0;
#X obj 5136 2550 r \$0-Matrix-8-x-8/Output-7/Input-6;
#X msg 5136 2570 /Matrix-8-x-8/Output-7/Input-6 \$1;
#X connect 538 0 539 0;
#X connect 539 0 155 0;
#X obj 5432 2550 route /Matrix-8-x-8/Output-7/Input-6;
#X obj 5432 2570 s \$0-Matrix-8-x-8/Output-7/Input-6;
#X connect 534 1 540 0;
#X connect 540 0 541 0;
#X msg 4840 2590 -10;
#X obj 4840 2610 s \$0-Matrix-8-x-8/Output-7/Input-7;
#X connect 154 0 542 0;
#X connect 542 0 543 0;
#X obj 5136 2590 r \$0-Matrix-8-x-8/Output-7/Input-7;
#X msg 5136 2610 /Matrix-8-x-8/Output-7/Input-7 \$1;
#X connect 544 0 545 0;
#X connect 545 0 155 0;
#X obj 5432 2590 route /Matrix-8-x-8/Output-7/Input-7;
#X obj 5432 2610 s \$0-Matrix-8-x-8/Output-7/Input-7;
#X connect 540 1 546 0;
#X connect 546 0 547 0;
#X coords 0 -1 1 1 4810 200 1 0 0;
#X text 0 220 Generated Mon Sep 22 11:26:00 2014 by faust2pd v2.9. See http://faust.grame.fr and http://purelang.bitbucket.org.;
