#N canvas 0 0 450 300 10;
#X obj 70 330 inlet~;
#X obj 130 330 inlet~;
#X obj 190 330 inlet~;
#X obj 250 330 inlet~;
#X obj 310 330 inlet~;
#X obj 370 330 inlet~;
#X obj 430 330 inlet~;
#X obj 490 330 inlet~;
#X obj 10 330 inlet;
#X obj 550 330 r \$0-read;
#X obj 550 360 faust-control \$0;
#X obj 550 390 s \$0-write;
#X obj 10 390 r \$0-in;
#X obj 10 420 mixer~;
#X obj 10 450 s \$0-out;
#X obj 70 480 outlet~;
#X obj 130 480 outlet~;
#X obj 10 480 outlet;
#X connect 8 0 10 0;
#X connect 9 0 10 0;
#X connect 10 0 11 0;
#X connect 13 0 14 0;
#X connect 8 0 17 0;
#X connect 12 0 13 0;
#X connect 0 0 13 1;
#X connect 1 0 13 2;
#X connect 2 0 13 3;
#X connect 3 0 13 4;
#X connect 4 0 13 5;
#X connect 5 0 13 6;
#X connect 6 0 13 7;
#X connect 7 0 13 8;
#X connect 13 1 15 0;
#X connect 13 2 16 0;
#X obj 10 30 vsl 15 128 -96 4 0 0 \$0-mixer/stereo-out/fader/dB \$0-mixer/stereo-out/fader/dB dB 0 -8 0 10 -262144 -1 -1 0 1;
#X obj 10 170 nbx 5 14 -96 4 0 0 \$0-mixer/stereo-out/fader/dB \$0-mixer/stereo-out/fader/dB empty 0 -6 0 10 -262144 -1 -1 256;
#X obj 85 30 vsl 15 128 -96 4 0 0 \$0-mixer/voice-0/fader/dB \$0-mixer/voice-0/fader/dB dB 0 -8 0 10 -262144 -1 -1 0 1;
#X obj 85 170 nbx 5 14 -96 4 0 0 \$0-mixer/voice-0/fader/dB \$0-mixer/voice-0/fader/dB empty 0 -6 0 10 -262144 -1 -1 256;
#X obj 160 30 vsl 15 128 0 1 0 0 \$0-mixer/voice-0/meter \$0-mixer/voice-0/meter meter 0 -8 0 10 -233017 -1 -1 0 1;
#X obj 160 170 nbx 5 14 0 1 0 0 \$0-mixer/voice-0/meter \$0-mixer/voice-0/meter empty 0 -6 0 10 -233017 -1 -1 256;
#X obj 85 210 tgl 15 0 \$0-mixer/voice-0/mute \$0-mixer/voice-0/mute mute 0 -6 0 10 -262144 -1 -1 0 1;
#X obj 85 240 nbx 5 14 -8 8 0 0 \$0-mixer/voice-0/panpot \$0-mixer/voice-0/panpot empty 0 -6 0 10 -262144 -1 -1 256;
#X obj 235 30 vsl 15 128 -96 4 0 0 \$0-mixer/voice-1/fader/dB \$0-mixer/voice-1/fader/dB dB 0 -8 0 10 -262144 -1 -1 0 1;
#X obj 235 170 nbx 5 14 -96 4 0 0 \$0-mixer/voice-1/fader/dB \$0-mixer/voice-1/fader/dB empty 0 -6 0 10 -262144 -1 -1 256;
#X obj 310 30 vsl 15 128 0 1 0 0 \$0-mixer/voice-1/meter \$0-mixer/voice-1/meter meter 0 -8 0 10 -233017 -1 -1 0 1;
#X obj 310 170 nbx 5 14 0 1 0 0 \$0-mixer/voice-1/meter \$0-mixer/voice-1/meter empty 0 -6 0 10 -233017 -1 -1 256;
#X obj 235 210 tgl 15 0 \$0-mixer/voice-1/mute \$0-mixer/voice-1/mute mute 0 -6 0 10 -262144 -1 -1 0 1;
#X obj 235 240 nbx 5 14 -8 8 0 0 \$0-mixer/voice-1/panpot \$0-mixer/voice-1/panpot empty 0 -6 0 10 -262144 -1 -1 256;
#X obj 385 30 vsl 15 128 -96 4 0 0 \$0-mixer/voice-2/fader/dB \$0-mixer/voice-2/fader/dB dB 0 -8 0 10 -262144 -1 -1 0 1;
#X obj 385 170 nbx 5 14 -96 4 0 0 \$0-mixer/voice-2/fader/dB \$0-mixer/voice-2/fader/dB empty 0 -6 0 10 -262144 -1 -1 256;
#X obj 460 30 vsl 15 128 0 1 0 0 \$0-mixer/voice-2/meter \$0-mixer/voice-2/meter meter 0 -8 0 10 -233017 -1 -1 0 1;
#X obj 460 170 nbx 5 14 0 1 0 0 \$0-mixer/voice-2/meter \$0-mixer/voice-2/meter empty 0 -6 0 10 -233017 -1 -1 256;
#X obj 385 210 tgl 15 0 \$0-mixer/voice-2/mute \$0-mixer/voice-2/mute mute 0 -6 0 10 -262144 -1 -1 0 1;
#X obj 385 240 nbx 5 14 -8 8 0 0 \$0-mixer/voice-2/panpot \$0-mixer/voice-2/panpot empty 0 -6 0 10 -262144 -1 -1 256;
#X obj 535 30 vsl 15 128 -96 4 0 0 \$0-mixer/voice-3/fader/dB \$0-mixer/voice-3/fader/dB dB 0 -8 0 10 -262144 -1 -1 0 1;
#X obj 535 170 nbx 5 14 -96 4 0 0 \$0-mixer/voice-3/fader/dB \$0-mixer/voice-3/fader/dB empty 0 -6 0 10 -262144 -1 -1 256;
#X obj 610 30 vsl 15 128 0 1 0 0 \$0-mixer/voice-3/meter \$0-mixer/voice-3/meter meter 0 -8 0 10 -233017 -1 -1 0 1;
#X obj 610 170 nbx 5 14 0 1 0 0 \$0-mixer/voice-3/meter \$0-mixer/voice-3/meter empty 0 -6 0 10 -233017 -1 -1 256;
#X obj 535 210 tgl 15 0 \$0-mixer/voice-3/mute \$0-mixer/voice-3/mute mute 0 -6 0 10 -262144 -1 -1 0 1;
#X obj 535 240 nbx 5 14 -8 8 0 0 \$0-mixer/voice-3/panpot \$0-mixer/voice-3/panpot empty 0 -6 0 10 -262144 -1 -1 256;
#X obj 685 30 vsl 15 128 -96 4 0 0 \$0-mixer/voice-4/fader/dB \$0-mixer/voice-4/fader/dB dB 0 -8 0 10 -262144 -1 -1 0 1;
#X obj 685 170 nbx 5 14 -96 4 0 0 \$0-mixer/voice-4/fader/dB \$0-mixer/voice-4/fader/dB empty 0 -6 0 10 -262144 -1 -1 256;
#X obj 760 30 vsl 15 128 0 1 0 0 \$0-mixer/voice-4/meter \$0-mixer/voice-4/meter meter 0 -8 0 10 -233017 -1 -1 0 1;
#X obj 760 170 nbx 5 14 0 1 0 0 \$0-mixer/voice-4/meter \$0-mixer/voice-4/meter empty 0 -6 0 10 -233017 -1 -1 256;
#X obj 685 210 tgl 15 0 \$0-mixer/voice-4/mute \$0-mixer/voice-4/mute mute 0 -6 0 10 -262144 -1 -1 0 1;
#X obj 685 240 nbx 5 14 -8 8 0 0 \$0-mixer/voice-4/panpot \$0-mixer/voice-4/panpot empty 0 -6 0 10 -262144 -1 -1 256;
#X obj 835 30 vsl 15 128 -96 4 0 0 \$0-mixer/voice-5/fader/dB \$0-mixer/voice-5/fader/dB dB 0 -8 0 10 -262144 -1 -1 0 1;
#X obj 835 170 nbx 5 14 -96 4 0 0 \$0-mixer/voice-5/fader/dB \$0-mixer/voice-5/fader/dB empty 0 -6 0 10 -262144 -1 -1 256;
#X obj 910 30 vsl 15 128 0 1 0 0 \$0-mixer/voice-5/meter \$0-mixer/voice-5/meter meter 0 -8 0 10 -233017 -1 -1 0 1;
#X obj 910 170 nbx 5 14 0 1 0 0 \$0-mixer/voice-5/meter \$0-mixer/voice-5/meter empty 0 -6 0 10 -233017 -1 -1 256;
#X obj 835 210 tgl 15 0 \$0-mixer/voice-5/mute \$0-mixer/voice-5/mute mute 0 -6 0 10 -262144 -1 -1 0 1;
#X obj 835 240 nbx 5 14 -8 8 0 0 \$0-mixer/voice-5/panpot \$0-mixer/voice-5/panpot empty 0 -6 0 10 -262144 -1 -1 256;
#X obj 985 30 vsl 15 128 -96 4 0 0 \$0-mixer/voice-6/fader/dB \$0-mixer/voice-6/fader/dB dB 0 -8 0 10 -262144 -1 -1 0 1;
#X obj 985 170 nbx 5 14 -96 4 0 0 \$0-mixer/voice-6/fader/dB \$0-mixer/voice-6/fader/dB empty 0 -6 0 10 -262144 -1 -1 256;
#X obj 1060 30 vsl 15 128 0 1 0 0 \$0-mixer/voice-6/meter \$0-mixer/voice-6/meter meter 0 -8 0 10 -233017 -1 -1 0 1;
#X obj 1060 170 nbx 5 14 0 1 0 0 \$0-mixer/voice-6/meter \$0-mixer/voice-6/meter empty 0 -6 0 10 -233017 -1 -1 256;
#X obj 985 210 tgl 15 0 \$0-mixer/voice-6/mute \$0-mixer/voice-6/mute mute 0 -6 0 10 -262144 -1 -1 0 1;
#X obj 985 240 nbx 5 14 -8 8 0 0 \$0-mixer/voice-6/panpot \$0-mixer/voice-6/panpot empty 0 -6 0 10 -262144 -1 -1 256;
#X obj 1135 30 vsl 15 128 -96 4 0 0 \$0-mixer/voice-7/fader/dB \$0-mixer/voice-7/fader/dB dB 0 -8 0 10 -262144 -1 -1 0 1;
#X obj 1135 170 nbx 5 14 -96 4 0 0 \$0-mixer/voice-7/fader/dB \$0-mixer/voice-7/fader/dB empty 0 -6 0 10 -262144 -1 -1 256;
#X obj 1210 30 vsl 15 128 0 1 0 0 \$0-mixer/voice-7/meter \$0-mixer/voice-7/meter meter 0 -8 0 10 -233017 -1 -1 0 1;
#X obj 1210 170 nbx 5 14 0 1 0 0 \$0-mixer/voice-7/meter \$0-mixer/voice-7/meter empty 0 -6 0 10 -233017 -1 -1 256;
#X obj 1135 210 tgl 15 0 \$0-mixer/voice-7/mute \$0-mixer/voice-7/mute mute 0 -6 0 10 -262144 -1 -1 0 1;
#X obj 1135 240 nbx 5 14 -8 8 0 0 \$0-mixer/voice-7/panpot \$0-mixer/voice-7/panpot empty 0 -6 0 10 -262144 -1 -1 256;
#X obj 1247 3 bng 15 250 50 1 \$0-init \$0-ignore empty 0 -6 0 10 -262144 -1 -1;
#X obj 1267 3 tgl 15 1 \$0-active \$0-active empty 0 -6 0 10 -262144 -1 -1 1 1;
#X obj 1315 10 r \$0-init;
#X obj 1579 10 s \$0-in;
#X obj 1711 10 s \$0-read;
#X obj 1843 10 r \$0-write;
#X msg 1315 30 1;
#X obj 1315 50 s \$0-active;
#X connect 74 0 75 0;
#X obj 1579 30 r \$0-active;
#X msg 1579 50 active \$1;
#X connect 76 0 77 0;
#X connect 77 0 71 0;
#X obj 1843 30 route active;
#X obj 1843 50 s \$0-active;
#X connect 73 0 78 0;
#X connect 78 0 79 0;
#X msg 1315 70 0;
#X obj 1315 90 s \$0-mixer/stereo-out/fader/dB;
#X connect 70 0 80 0;
#X connect 80 0 81 0;
#X obj 1579 70 r \$0-mixer/stereo-out/fader/dB;
#X msg 1579 90 /mixer/stereo-out/fader/dB \$1;
#X connect 82 0 83 0;
#X connect 83 0 71 0;
#X obj 1843 70 route /mixer/stereo-out/fader/dB;
#X obj 1843 90 s \$0-mixer/stereo-out/fader/dB;
#X connect 78 1 84 0;
#X connect 84 0 85 0;
#X msg 1315 110 0;
#X obj 1315 130 s \$0-mixer/voice-0/fader/dB;
#X connect 70 0 86 0;
#X connect 86 0 87 0;
#X obj 1579 110 r \$0-mixer/voice-0/fader/dB;
#X msg 1579 130 /mixer/voice-0/fader/dB \$1;
#X connect 88 0 89 0;
#X connect 89 0 71 0;
#X obj 1843 110 route /mixer/voice-0/fader/dB;
#X obj 1843 130 s \$0-mixer/voice-0/fader/dB;
#X connect 84 1 90 0;
#X connect 90 0 91 0;
#X msg 1315 150 0;
#X obj 1315 170 s \$0-mixer/voice-0/meter;
#X connect 70 0 92 0;
#X connect 92 0 93 0;
#X obj 1579 150 faust-timer \$0;
#X msg 1579 170 /mixer/voice-0/meter;
#X connect 94 0 95 0;
#X connect 95 0 72 0;
#X obj 1843 150 route /mixer/voice-0/meter;
#X obj 1843 170 s \$0-mixer/voice-0/meter;
#X connect 90 1 96 0;
#X connect 96 0 97 0;
#X msg 1315 190 0;
#X obj 1315 210 s \$0-mixer/voice-0/mute;
#X connect 70 0 98 0;
#X connect 98 0 99 0;
#X obj 1579 190 r \$0-mixer/voice-0/mute;
#X msg 1579 210 /mixer/voice-0/mute \$1;
#X connect 100 0 101 0;
#X connect 101 0 71 0;
#X obj 1843 190 route /mixer/voice-0/mute;
#X obj 1843 210 s \$0-mixer/voice-0/mute;
#X connect 96 1 102 0;
#X connect 102 0 103 0;
#X msg 1315 230 0;
#X obj 1315 250 s \$0-mixer/voice-0/panpot;
#X connect 70 0 104 0;
#X connect 104 0 105 0;
#X obj 1579 230 r \$0-mixer/voice-0/panpot;
#X msg 1579 250 /mixer/voice-0/panpot \$1;
#X connect 106 0 107 0;
#X connect 107 0 71 0;
#X obj 1843 230 route /mixer/voice-0/panpot;
#X obj 1843 250 s \$0-mixer/voice-0/panpot;
#X connect 102 1 108 0;
#X connect 108 0 109 0;
#X msg 1315 270 0;
#X obj 1315 290 s \$0-mixer/voice-1/fader/dB;
#X connect 70 0 110 0;
#X connect 110 0 111 0;
#X obj 1579 270 r \$0-mixer/voice-1/fader/dB;
#X msg 1579 290 /mixer/voice-1/fader/dB \$1;
#X connect 112 0 113 0;
#X connect 113 0 71 0;
#X obj 1843 270 route /mixer/voice-1/fader/dB;
#X obj 1843 290 s \$0-mixer/voice-1/fader/dB;
#X connect 108 1 114 0;
#X connect 114 0 115 0;
#X msg 1315 310 0;
#X obj 1315 330 s \$0-mixer/voice-1/meter;
#X connect 70 0 116 0;
#X connect 116 0 117 0;
#X obj 1579 310 faust-timer \$0;
#X msg 1579 330 /mixer/voice-1/meter;
#X connect 118 0 119 0;
#X connect 119 0 72 0;
#X obj 1843 310 route /mixer/voice-1/meter;
#X obj 1843 330 s \$0-mixer/voice-1/meter;
#X connect 114 1 120 0;
#X connect 120 0 121 0;
#X msg 1315 350 0;
#X obj 1315 370 s \$0-mixer/voice-1/mute;
#X connect 70 0 122 0;
#X connect 122 0 123 0;
#X obj 1579 350 r \$0-mixer/voice-1/mute;
#X msg 1579 370 /mixer/voice-1/mute \$1;
#X connect 124 0 125 0;
#X connect 125 0 71 0;
#X obj 1843 350 route /mixer/voice-1/mute;
#X obj 1843 370 s \$0-mixer/voice-1/mute;
#X connect 120 1 126 0;
#X connect 126 0 127 0;
#X msg 1315 390 0;
#X obj 1315 410 s \$0-mixer/voice-1/panpot;
#X connect 70 0 128 0;
#X connect 128 0 129 0;
#X obj 1579 390 r \$0-mixer/voice-1/panpot;
#X msg 1579 410 /mixer/voice-1/panpot \$1;
#X connect 130 0 131 0;
#X connect 131 0 71 0;
#X obj 1843 390 route /mixer/voice-1/panpot;
#X obj 1843 410 s \$0-mixer/voice-1/panpot;
#X connect 126 1 132 0;
#X connect 132 0 133 0;
#X msg 1315 430 0;
#X obj 1315 450 s \$0-mixer/voice-2/fader/dB;
#X connect 70 0 134 0;
#X connect 134 0 135 0;
#X obj 1579 430 r \$0-mixer/voice-2/fader/dB;
#X msg 1579 450 /mixer/voice-2/fader/dB \$1;
#X connect 136 0 137 0;
#X connect 137 0 71 0;
#X obj 1843 430 route /mixer/voice-2/fader/dB;
#X obj 1843 450 s \$0-mixer/voice-2/fader/dB;
#X connect 132 1 138 0;
#X connect 138 0 139 0;
#X msg 1315 470 0;
#X obj 1315 490 s \$0-mixer/voice-2/meter;
#X connect 70 0 140 0;
#X connect 140 0 141 0;
#X obj 1579 470 faust-timer \$0;
#X msg 1579 490 /mixer/voice-2/meter;
#X connect 142 0 143 0;
#X connect 143 0 72 0;
#X obj 1843 470 route /mixer/voice-2/meter;
#X obj 1843 490 s \$0-mixer/voice-2/meter;
#X connect 138 1 144 0;
#X connect 144 0 145 0;
#X msg 1315 510 0;
#X obj 1315 530 s \$0-mixer/voice-2/mute;
#X connect 70 0 146 0;
#X connect 146 0 147 0;
#X obj 1579 510 r \$0-mixer/voice-2/mute;
#X msg 1579 530 /mixer/voice-2/mute \$1;
#X connect 148 0 149 0;
#X connect 149 0 71 0;
#X obj 1843 510 route /mixer/voice-2/mute;
#X obj 1843 530 s \$0-mixer/voice-2/mute;
#X connect 144 1 150 0;
#X connect 150 0 151 0;
#X msg 1315 550 0;
#X obj 1315 570 s \$0-mixer/voice-2/panpot;
#X connect 70 0 152 0;
#X connect 152 0 153 0;
#X obj 1579 550 r \$0-mixer/voice-2/panpot;
#X msg 1579 570 /mixer/voice-2/panpot \$1;
#X connect 154 0 155 0;
#X connect 155 0 71 0;
#X obj 1843 550 route /mixer/voice-2/panpot;
#X obj 1843 570 s \$0-mixer/voice-2/panpot;
#X connect 150 1 156 0;
#X connect 156 0 157 0;
#X msg 1315 590 0;
#X obj 1315 610 s \$0-mixer/voice-3/fader/dB;
#X connect 70 0 158 0;
#X connect 158 0 159 0;
#X obj 1579 590 r \$0-mixer/voice-3/fader/dB;
#X msg 1579 610 /mixer/voice-3/fader/dB \$1;
#X connect 160 0 161 0;
#X connect 161 0 71 0;
#X obj 1843 590 route /mixer/voice-3/fader/dB;
#X obj 1843 610 s \$0-mixer/voice-3/fader/dB;
#X connect 156 1 162 0;
#X connect 162 0 163 0;
#X msg 1315 630 0;
#X obj 1315 650 s \$0-mixer/voice-3/meter;
#X connect 70 0 164 0;
#X connect 164 0 165 0;
#X obj 1579 630 faust-timer \$0;
#X msg 1579 650 /mixer/voice-3/meter;
#X connect 166 0 167 0;
#X connect 167 0 72 0;
#X obj 1843 630 route /mixer/voice-3/meter;
#X obj 1843 650 s \$0-mixer/voice-3/meter;
#X connect 162 1 168 0;
#X connect 168 0 169 0;
#X msg 1315 670 0;
#X obj 1315 690 s \$0-mixer/voice-3/mute;
#X connect 70 0 170 0;
#X connect 170 0 171 0;
#X obj 1579 670 r \$0-mixer/voice-3/mute;
#X msg 1579 690 /mixer/voice-3/mute \$1;
#X connect 172 0 173 0;
#X connect 173 0 71 0;
#X obj 1843 670 route /mixer/voice-3/mute;
#X obj 1843 690 s \$0-mixer/voice-3/mute;
#X connect 168 1 174 0;
#X connect 174 0 175 0;
#X msg 1315 710 0;
#X obj 1315 730 s \$0-mixer/voice-3/panpot;
#X connect 70 0 176 0;
#X connect 176 0 177 0;
#X obj 1579 710 r \$0-mixer/voice-3/panpot;
#X msg 1579 730 /mixer/voice-3/panpot \$1;
#X connect 178 0 179 0;
#X connect 179 0 71 0;
#X obj 1843 710 route /mixer/voice-3/panpot;
#X obj 1843 730 s \$0-mixer/voice-3/panpot;
#X connect 174 1 180 0;
#X connect 180 0 181 0;
#X msg 1315 750 0;
#X obj 1315 770 s \$0-mixer/voice-4/fader/dB;
#X connect 70 0 182 0;
#X connect 182 0 183 0;
#X obj 1579 750 r \$0-mixer/voice-4/fader/dB;
#X msg 1579 770 /mixer/voice-4/fader/dB \$1;
#X connect 184 0 185 0;
#X connect 185 0 71 0;
#X obj 1843 750 route /mixer/voice-4/fader/dB;
#X obj 1843 770 s \$0-mixer/voice-4/fader/dB;
#X connect 180 1 186 0;
#X connect 186 0 187 0;
#X msg 1315 790 0;
#X obj 1315 810 s \$0-mixer/voice-4/meter;
#X connect 70 0 188 0;
#X connect 188 0 189 0;
#X obj 1579 790 faust-timer \$0;
#X msg 1579 810 /mixer/voice-4/meter;
#X connect 190 0 191 0;
#X connect 191 0 72 0;
#X obj 1843 790 route /mixer/voice-4/meter;
#X obj 1843 810 s \$0-mixer/voice-4/meter;
#X connect 186 1 192 0;
#X connect 192 0 193 0;
#X msg 1315 830 0;
#X obj 1315 850 s \$0-mixer/voice-4/mute;
#X connect 70 0 194 0;
#X connect 194 0 195 0;
#X obj 1579 830 r \$0-mixer/voice-4/mute;
#X msg 1579 850 /mixer/voice-4/mute \$1;
#X connect 196 0 197 0;
#X connect 197 0 71 0;
#X obj 1843 830 route /mixer/voice-4/mute;
#X obj 1843 850 s \$0-mixer/voice-4/mute;
#X connect 192 1 198 0;
#X connect 198 0 199 0;
#X msg 1315 870 0;
#X obj 1315 890 s \$0-mixer/voice-4/panpot;
#X connect 70 0 200 0;
#X connect 200 0 201 0;
#X obj 1579 870 r \$0-mixer/voice-4/panpot;
#X msg 1579 890 /mixer/voice-4/panpot \$1;
#X connect 202 0 203 0;
#X connect 203 0 71 0;
#X obj 1843 870 route /mixer/voice-4/panpot;
#X obj 1843 890 s \$0-mixer/voice-4/panpot;
#X connect 198 1 204 0;
#X connect 204 0 205 0;
#X msg 1315 910 0;
#X obj 1315 930 s \$0-mixer/voice-5/fader/dB;
#X connect 70 0 206 0;
#X connect 206 0 207 0;
#X obj 1579 910 r \$0-mixer/voice-5/fader/dB;
#X msg 1579 930 /mixer/voice-5/fader/dB \$1;
#X connect 208 0 209 0;
#X connect 209 0 71 0;
#X obj 1843 910 route /mixer/voice-5/fader/dB;
#X obj 1843 930 s \$0-mixer/voice-5/fader/dB;
#X connect 204 1 210 0;
#X connect 210 0 211 0;
#X msg 1315 950 0;
#X obj 1315 970 s \$0-mixer/voice-5/meter;
#X connect 70 0 212 0;
#X connect 212 0 213 0;
#X obj 1579 950 faust-timer \$0;
#X msg 1579 970 /mixer/voice-5/meter;
#X connect 214 0 215 0;
#X connect 215 0 72 0;
#X obj 1843 950 route /mixer/voice-5/meter;
#X obj 1843 970 s \$0-mixer/voice-5/meter;
#X connect 210 1 216 0;
#X connect 216 0 217 0;
#X msg 1315 990 0;
#X obj 1315 1010 s \$0-mixer/voice-5/mute;
#X connect 70 0 218 0;
#X connect 218 0 219 0;
#X obj 1579 990 r \$0-mixer/voice-5/mute;
#X msg 1579 1010 /mixer/voice-5/mute \$1;
#X connect 220 0 221 0;
#X connect 221 0 71 0;
#X obj 1843 990 route /mixer/voice-5/mute;
#X obj 1843 1010 s \$0-mixer/voice-5/mute;
#X connect 216 1 222 0;
#X connect 222 0 223 0;
#X msg 1315 1030 0;
#X obj 1315 1050 s \$0-mixer/voice-5/panpot;
#X connect 70 0 224 0;
#X connect 224 0 225 0;
#X obj 1579 1030 r \$0-mixer/voice-5/panpot;
#X msg 1579 1050 /mixer/voice-5/panpot \$1;
#X connect 226 0 227 0;
#X connect 227 0 71 0;
#X obj 1843 1030 route /mixer/voice-5/panpot;
#X obj 1843 1050 s \$0-mixer/voice-5/panpot;
#X connect 222 1 228 0;
#X connect 228 0 229 0;
#X msg 1315 1070 0;
#X obj 1315 1090 s \$0-mixer/voice-6/fader/dB;
#X connect 70 0 230 0;
#X connect 230 0 231 0;
#X obj 1579 1070 r \$0-mixer/voice-6/fader/dB;
#X msg 1579 1090 /mixer/voice-6/fader/dB \$1;
#X connect 232 0 233 0;
#X connect 233 0 71 0;
#X obj 1843 1070 route /mixer/voice-6/fader/dB;
#X obj 1843 1090 s \$0-mixer/voice-6/fader/dB;
#X connect 228 1 234 0;
#X connect 234 0 235 0;
#X msg 1315 1110 0;
#X obj 1315 1130 s \$0-mixer/voice-6/meter;
#X connect 70 0 236 0;
#X connect 236 0 237 0;
#X obj 1579 1110 faust-timer \$0;
#X msg 1579 1130 /mixer/voice-6/meter;
#X connect 238 0 239 0;
#X connect 239 0 72 0;
#X obj 1843 1110 route /mixer/voice-6/meter;
#X obj 1843 1130 s \$0-mixer/voice-6/meter;
#X connect 234 1 240 0;
#X connect 240 0 241 0;
#X msg 1315 1150 0;
#X obj 1315 1170 s \$0-mixer/voice-6/mute;
#X connect 70 0 242 0;
#X connect 242 0 243 0;
#X obj 1579 1150 r \$0-mixer/voice-6/mute;
#X msg 1579 1170 /mixer/voice-6/mute \$1;
#X connect 244 0 245 0;
#X connect 245 0 71 0;
#X obj 1843 1150 route /mixer/voice-6/mute;
#X obj 1843 1170 s \$0-mixer/voice-6/mute;
#X connect 240 1 246 0;
#X connect 246 0 247 0;
#X msg 1315 1190 0;
#X obj 1315 1210 s \$0-mixer/voice-6/panpot;
#X connect 70 0 248 0;
#X connect 248 0 249 0;
#X obj 1579 1190 r \$0-mixer/voice-6/panpot;
#X msg 1579 1210 /mixer/voice-6/panpot \$1;
#X connect 250 0 251 0;
#X connect 251 0 71 0;
#X obj 1843 1190 route /mixer/voice-6/panpot;
#X obj 1843 1210 s \$0-mixer/voice-6/panpot;
#X connect 246 1 252 0;
#X connect 252 0 253 0;
#X msg 1315 1230 0;
#X obj 1315 1250 s \$0-mixer/voice-7/fader/dB;
#X connect 70 0 254 0;
#X connect 254 0 255 0;
#X obj 1579 1230 r \$0-mixer/voice-7/fader/dB;
#X msg 1579 1250 /mixer/voice-7/fader/dB \$1;
#X connect 256 0 257 0;
#X connect 257 0 71 0;
#X obj 1843 1230 route /mixer/voice-7/fader/dB;
#X obj 1843 1250 s \$0-mixer/voice-7/fader/dB;
#X connect 252 1 258 0;
#X connect 258 0 259 0;
#X msg 1315 1270 0;
#X obj 1315 1290 s \$0-mixer/voice-7/meter;
#X connect 70 0 260 0;
#X connect 260 0 261 0;
#X obj 1579 1270 faust-timer \$0;
#X msg 1579 1290 /mixer/voice-7/meter;
#X connect 262 0 263 0;
#X connect 263 0 72 0;
#X obj 1843 1270 route /mixer/voice-7/meter;
#X obj 1843 1290 s \$0-mixer/voice-7/meter;
#X connect 258 1 264 0;
#X connect 264 0 265 0;
#X msg 1315 1310 0;
#X obj 1315 1330 s \$0-mixer/voice-7/mute;
#X connect 70 0 266 0;
#X connect 266 0 267 0;
#X obj 1579 1310 r \$0-mixer/voice-7/mute;
#X msg 1579 1330 /mixer/voice-7/mute \$1;
#X connect 268 0 269 0;
#X connect 269 0 71 0;
#X obj 1843 1310 route /mixer/voice-7/mute;
#X obj 1843 1330 s \$0-mixer/voice-7/mute;
#X connect 264 1 270 0;
#X connect 270 0 271 0;
#X msg 1315 1350 0;
#X obj 1315 1370 s \$0-mixer/voice-7/panpot;
#X connect 70 0 272 0;
#X connect 272 0 273 0;
#X obj 1579 1350 r \$0-mixer/voice-7/panpot;
#X msg 1579 1370 /mixer/voice-7/panpot \$1;
#X connect 274 0 275 0;
#X connect 275 0 71 0;
#X obj 1843 1350 route /mixer/voice-7/panpot;
#X obj 1843 1370 s \$0-mixer/voice-7/panpot;
#X connect 270 1 276 0;
#X connect 276 0 277 0;
#X coords 0 -1 1 1 1285 260 1 0 0;
#X text 0 280 Generated Mon Sep 22 11:25:59 2014 by faust2pd v2.9. See http://faust.grame.fr and http://purelang.bitbucket.org.;
