#N canvas 0 0 450 300 10;
#X obj 70 330 inlet~;
#X obj 10 330 inlet;
#X obj 130 330 r \$0-read;
#X obj 130 360 faust-control \$0;
#X obj 130 390 s \$0-write;
#X obj 10 390 r \$0-in;
#X obj 10 420 multibandfilter~;
#X obj 10 450 s \$0-out;
#X obj 70 480 outlet~;
#X obj 10 480 outlet;
#X connect 1 0 3 0;
#X connect 2 0 3 0;
#X connect 3 0 4 0;
#X connect 6 0 7 0;
#X connect 1 0 9 0;
#X connect 5 0 6 0;
#X connect 0 0 6 1;
#X connect 6 1 8 0;
#X obj 10 30 nbx 5 14 0.1 100 0 0 \$0-Multi-Band-Filter/peak-0/Q-factor \$0-Multi-Band-Filter/peak-0/Q-factor Q-factor 0 -6 0 10 -262144 -1 -1 256;
#X obj 10 60 nbx 5 14 20 20000 0 0 \$0-Multi-Band-Filter/peak-0/freq-Hz \$0-Multi-Band-Filter/peak-0/freq-Hz freq-Hz 0 -6 0 10 -262144 -1 -1 256;
#X obj 10 90 vsl 15 128 -50 50 0 0 \$0-Multi-Band-Filter/peak-0/gain-dB \$0-Multi-Band-Filter/peak-0/gain-dB gain-dB 0 -8 0 10 -262144 -1 -1 0 1;
#X obj 10 230 nbx 5 14 -50 50 0 0 \$0-Multi-Band-Filter/peak-0/gain-dB \$0-Multi-Band-Filter/peak-0/gain-dB empty 0 -6 0 10 -262144 -1 -1 256;
#X obj 85 30 nbx 5 14 0.1 100 0 0 \$0-Multi-Band-Filter/peak-1/Q-factor \$0-Multi-Band-Filter/peak-1/Q-factor Q-factor 0 -6 0 10 -262144 -1 -1 256;
#X obj 85 60 nbx 5 14 20 20000 0 0 \$0-Multi-Band-Filter/peak-1/freq-Hz \$0-Multi-Band-Filter/peak-1/freq-Hz freq-Hz 0 -6 0 10 -262144 -1 -1 256;
#X obj 85 90 vsl 15 128 -50 50 0 0 \$0-Multi-Band-Filter/peak-1/gain-dB \$0-Multi-Band-Filter/peak-1/gain-dB gain-dB 0 -8 0 10 -262144 -1 -1 0 1;
#X obj 85 230 nbx 5 14 -50 50 0 0 \$0-Multi-Band-Filter/peak-1/gain-dB \$0-Multi-Band-Filter/peak-1/gain-dB empty 0 -6 0 10 -262144 -1 -1 256;
#X obj 160 30 nbx 5 14 0.1 100 0 0 \$0-Multi-Band-Filter/peak-2/Q-factor \$0-Multi-Band-Filter/peak-2/Q-factor Q-factor 0 -6 0 10 -262144 -1 -1 256;
#X obj 160 60 nbx 5 14 20 20000 0 0 \$0-Multi-Band-Filter/peak-2/freq-Hz \$0-Multi-Band-Filter/peak-2/freq-Hz freq-Hz 0 -6 0 10 -262144 -1 -1 256;
#X obj 160 90 vsl 15 128 -50 50 0 0 \$0-Multi-Band-Filter/peak-2/gain-dB \$0-Multi-Band-Filter/peak-2/gain-dB gain-dB 0 -8 0 10 -262144 -1 -1 0 1;
#X obj 160 230 nbx 5 14 -50 50 0 0 \$0-Multi-Band-Filter/peak-2/gain-dB \$0-Multi-Band-Filter/peak-2/gain-dB empty 0 -6 0 10 -262144 -1 -1 256;
#X obj 235 30 nbx 5 14 0.1 100 0 0 \$0-Multi-Band-Filter/peak-3/Q-factor \$0-Multi-Band-Filter/peak-3/Q-factor Q-factor 0 -6 0 10 -262144 -1 -1 256;
#X obj 235 60 nbx 5 14 20 20000 0 0 \$0-Multi-Band-Filter/peak-3/freq-Hz \$0-Multi-Band-Filter/peak-3/freq-Hz freq-Hz 0 -6 0 10 -262144 -1 -1 256;
#X obj 235 90 vsl 15 128 -50 50 0 0 \$0-Multi-Band-Filter/peak-3/gain-dB \$0-Multi-Band-Filter/peak-3/gain-dB gain-dB 0 -8 0 10 -262144 -1 -1 0 1;
#X obj 235 230 nbx 5 14 -50 50 0 0 \$0-Multi-Band-Filter/peak-3/gain-dB \$0-Multi-Band-Filter/peak-3/gain-dB empty 0 -6 0 10 -262144 -1 -1 256;
#X obj 310 30 nbx 5 14 0.1 100 0 0 \$0-Multi-Band-Filter/peak-4/Q-factor \$0-Multi-Band-Filter/peak-4/Q-factor Q-factor 0 -6 0 10 -262144 -1 -1 256;
#X obj 310 60 nbx 5 14 20 20000 0 0 \$0-Multi-Band-Filter/peak-4/freq-Hz \$0-Multi-Band-Filter/peak-4/freq-Hz freq-Hz 0 -6 0 10 -262144 -1 -1 256;
#X obj 310 90 vsl 15 128 -50 50 0 0 \$0-Multi-Band-Filter/peak-4/gain-dB \$0-Multi-Band-Filter/peak-4/gain-dB gain-dB 0 -8 0 10 -262144 -1 -1 0 1;
#X obj 310 230 nbx 5 14 -50 50 0 0 \$0-Multi-Band-Filter/peak-4/gain-dB \$0-Multi-Band-Filter/peak-4/gain-dB empty 0 -6 0 10 -262144 -1 -1 256;
#X obj 385 30 nbx 5 14 0.1 100 0 0 \$0-Multi-Band-Filter/peak-5/Q-factor \$0-Multi-Band-Filter/peak-5/Q-factor Q-factor 0 -6 0 10 -262144 -1 -1 256;
#X obj 385 60 nbx 5 14 20 20000 0 0 \$0-Multi-Band-Filter/peak-5/freq-Hz \$0-Multi-Band-Filter/peak-5/freq-Hz freq-Hz 0 -6 0 10 -262144 -1 -1 256;
#X obj 385 90 vsl 15 128 -50 50 0 0 \$0-Multi-Band-Filter/peak-5/gain-dB \$0-Multi-Band-Filter/peak-5/gain-dB gain-dB 0 -8 0 10 -262144 -1 -1 0 1;
#X obj 385 230 nbx 5 14 -50 50 0 0 \$0-Multi-Band-Filter/peak-5/gain-dB \$0-Multi-Band-Filter/peak-5/gain-dB empty 0 -6 0 10 -262144 -1 -1 256;
#X obj 460 30 nbx 5 14 0.1 100 0 0 \$0-Multi-Band-Filter/peak-6/Q-factor \$0-Multi-Band-Filter/peak-6/Q-factor Q-factor 0 -6 0 10 -262144 -1 -1 256;
#X obj 460 60 nbx 5 14 20 20000 0 0 \$0-Multi-Band-Filter/peak-6/freq-Hz \$0-Multi-Band-Filter/peak-6/freq-Hz freq-Hz 0 -6 0 10 -262144 -1 -1 256;
#X obj 460 90 vsl 15 128 -50 50 0 0 \$0-Multi-Band-Filter/peak-6/gain-dB \$0-Multi-Band-Filter/peak-6/gain-dB gain-dB 0 -8 0 10 -262144 -1 -1 0 1;
#X obj 460 230 nbx 5 14 -50 50 0 0 \$0-Multi-Band-Filter/peak-6/gain-dB \$0-Multi-Band-Filter/peak-6/gain-dB empty 0 -6 0 10 -262144 -1 -1 256;
#X obj 535 30 nbx 5 14 0.1 100 0 0 \$0-Multi-Band-Filter/peak-7/Q-factor \$0-Multi-Band-Filter/peak-7/Q-factor Q-factor 0 -6 0 10 -262144 -1 -1 256;
#X obj 535 60 nbx 5 14 20 20000 0 0 \$0-Multi-Band-Filter/peak-7/freq-Hz \$0-Multi-Band-Filter/peak-7/freq-Hz freq-Hz 0 -6 0 10 -262144 -1 -1 256;
#X obj 535 90 vsl 15 128 -50 50 0 0 \$0-Multi-Band-Filter/peak-7/gain-dB \$0-Multi-Band-Filter/peak-7/gain-dB gain-dB 0 -8 0 10 -262144 -1 -1 0 1;
#X obj 535 230 nbx 5 14 -50 50 0 0 \$0-Multi-Band-Filter/peak-7/gain-dB \$0-Multi-Band-Filter/peak-7/gain-dB empty 0 -6 0 10 -262144 -1 -1 256;
#X obj 610 30 nbx 5 14 0.1 100 0 0 \$0-Multi-Band-Filter/peak-8/Q-factor \$0-Multi-Band-Filter/peak-8/Q-factor Q-factor 0 -6 0 10 -262144 -1 -1 256;
#X obj 610 60 nbx 5 14 20 20000 0 0 \$0-Multi-Band-Filter/peak-8/freq-Hz \$0-Multi-Band-Filter/peak-8/freq-Hz freq-Hz 0 -6 0 10 -262144 -1 -1 256;
#X obj 610 90 vsl 15 128 -50 50 0 0 \$0-Multi-Band-Filter/peak-8/gain-dB \$0-Multi-Band-Filter/peak-8/gain-dB gain-dB 0 -8 0 10 -262144 -1 -1 0 1;
#X obj 610 230 nbx 5 14 -50 50 0 0 \$0-Multi-Band-Filter/peak-8/gain-dB \$0-Multi-Band-Filter/peak-8/gain-dB empty 0 -6 0 10 -262144 -1 -1 256;
#X obj 685 30 nbx 5 14 0.1 100 0 0 \$0-Multi-Band-Filter/peak-9/Q-factor \$0-Multi-Band-Filter/peak-9/Q-factor Q-factor 0 -6 0 10 -262144 -1 -1 256;
#X obj 685 60 nbx 5 14 20 20000 0 0 \$0-Multi-Band-Filter/peak-9/freq-Hz \$0-Multi-Band-Filter/peak-9/freq-Hz freq-Hz 0 -6 0 10 -262144 -1 -1 256;
#X obj 685 90 vsl 15 128 -50 50 0 0 \$0-Multi-Band-Filter/peak-9/gain-dB \$0-Multi-Band-Filter/peak-9/gain-dB gain-dB 0 -8 0 10 -262144 -1 -1 0 1;
#X obj 685 230 nbx 5 14 -50 50 0 0 \$0-Multi-Band-Filter/peak-9/gain-dB \$0-Multi-Band-Filter/peak-9/gain-dB empty 0 -6 0 10 -262144 -1 -1 256;
#X obj 722 3 bng 15 250 50 1 \$0-init \$0-ignore empty 0 -6 0 10 -262144 -1 -1;
#X obj 742 3 tgl 15 1 \$0-active \$0-active empty 0 -6 0 10 -262144 -1 -1 1 1;
#X obj 790 10 r \$0-init;
#X obj 1118 10 s \$0-in;
#X obj 1282 10 s \$0-read;
#X obj 1446 10 r \$0-write;
#X msg 790 30 1;
#X obj 790 50 s \$0-active;
#X connect 56 0 57 0;
#X obj 1118 30 r \$0-active;
#X msg 1118 50 active \$1;
#X connect 58 0 59 0;
#X connect 59 0 53 0;
#X obj 1446 30 route active;
#X obj 1446 50 s \$0-active;
#X connect 55 0 60 0;
#X connect 60 0 61 0;
#X msg 790 70 50;
#X obj 790 90 s \$0-Multi-Band-Filter/peak-0/Q-factor;
#X connect 52 0 62 0;
#X connect 62 0 63 0;
#X obj 1118 70 r \$0-Multi-Band-Filter/peak-0/Q-factor;
#X msg 1118 90 /Multi-Band-Filter/peak-0/Q-factor \$1;
#X connect 64 0 65 0;
#X connect 65 0 53 0;
#X obj 1446 70 route /Multi-Band-Filter/peak-0/Q-factor;
#X obj 1446 90 s \$0-Multi-Band-Filter/peak-0/Q-factor;
#X connect 60 1 66 0;
#X connect 66 0 67 0;
#X msg 790 110 1000;
#X obj 790 130 s \$0-Multi-Band-Filter/peak-0/freq-Hz;
#X connect 52 0 68 0;
#X connect 68 0 69 0;
#X obj 1118 110 r \$0-Multi-Band-Filter/peak-0/freq-Hz;
#X msg 1118 130 /Multi-Band-Filter/peak-0/freq-Hz \$1;
#X connect 70 0 71 0;
#X connect 71 0 53 0;
#X obj 1446 110 route /Multi-Band-Filter/peak-0/freq-Hz;
#X obj 1446 130 s \$0-Multi-Band-Filter/peak-0/freq-Hz;
#X connect 66 1 72 0;
#X connect 72 0 73 0;
#X msg 790 150 0;
#X obj 790 170 s \$0-Multi-Band-Filter/peak-0/gain-dB;
#X connect 52 0 74 0;
#X connect 74 0 75 0;
#X obj 1118 150 r \$0-Multi-Band-Filter/peak-0/gain-dB;
#X msg 1118 170 /Multi-Band-Filter/peak-0/gain-dB \$1;
#X connect 76 0 77 0;
#X connect 77 0 53 0;
#X obj 1446 150 route /Multi-Band-Filter/peak-0/gain-dB;
#X obj 1446 170 s \$0-Multi-Band-Filter/peak-0/gain-dB;
#X connect 72 1 78 0;
#X connect 78 0 79 0;
#X msg 790 190 50;
#X obj 790 210 s \$0-Multi-Band-Filter/peak-1/Q-factor;
#X connect 52 0 80 0;
#X connect 80 0 81 0;
#X obj 1118 190 r \$0-Multi-Band-Filter/peak-1/Q-factor;
#X msg 1118 210 /Multi-Band-Filter/peak-1/Q-factor \$1;
#X connect 82 0 83 0;
#X connect 83 0 53 0;
#X obj 1446 190 route /Multi-Band-Filter/peak-1/Q-factor;
#X obj 1446 210 s \$0-Multi-Band-Filter/peak-1/Q-factor;
#X connect 78 1 84 0;
#X connect 84 0 85 0;
#X msg 790 230 2000;
#X obj 790 250 s \$0-Multi-Band-Filter/peak-1/freq-Hz;
#X connect 52 0 86 0;
#X connect 86 0 87 0;
#X obj 1118 230 r \$0-Multi-Band-Filter/peak-1/freq-Hz;
#X msg 1118 250 /Multi-Band-Filter/peak-1/freq-Hz \$1;
#X connect 88 0 89 0;
#X connect 89 0 53 0;
#X obj 1446 230 route /Multi-Band-Filter/peak-1/freq-Hz;
#X obj 1446 250 s \$0-Multi-Band-Filter/peak-1/freq-Hz;
#X connect 84 1 90 0;
#X connect 90 0 91 0;
#X msg 790 270 0;
#X obj 790 290 s \$0-Multi-Band-Filter/peak-1/gain-dB;
#X connect 52 0 92 0;
#X connect 92 0 93 0;
#X obj 1118 270 r \$0-Multi-Band-Filter/peak-1/gain-dB;
#X msg 1118 290 /Multi-Band-Filter/peak-1/gain-dB \$1;
#X connect 94 0 95 0;
#X connect 95 0 53 0;
#X obj 1446 270 route /Multi-Band-Filter/peak-1/gain-dB;
#X obj 1446 290 s \$0-Multi-Band-Filter/peak-1/gain-dB;
#X connect 90 1 96 0;
#X connect 96 0 97 0;
#X msg 790 310 50;
#X obj 790 330 s \$0-Multi-Band-Filter/peak-2/Q-factor;
#X connect 52 0 98 0;
#X connect 98 0 99 0;
#X obj 1118 310 r \$0-Multi-Band-Filter/peak-2/Q-factor;
#X msg 1118 330 /Multi-Band-Filter/peak-2/Q-factor \$1;
#X connect 100 0 101 0;
#X connect 101 0 53 0;
#X obj 1446 310 route /Multi-Band-Filter/peak-2/Q-factor;
#X obj 1446 330 s \$0-Multi-Band-Filter/peak-2/Q-factor;
#X connect 96 1 102 0;
#X connect 102 0 103 0;
#X msg 790 350 3000;
#X obj 790 370 s \$0-Multi-Band-Filter/peak-2/freq-Hz;
#X connect 52 0 104 0;
#X connect 104 0 105 0;
#X obj 1118 350 r \$0-Multi-Band-Filter/peak-2/freq-Hz;
#X msg 1118 370 /Multi-Band-Filter/peak-2/freq-Hz \$1;
#X connect 106 0 107 0;
#X connect 107 0 53 0;
#X obj 1446 350 route /Multi-Band-Filter/peak-2/freq-Hz;
#X obj 1446 370 s \$0-Multi-Band-Filter/peak-2/freq-Hz;
#X connect 102 1 108 0;
#X connect 108 0 109 0;
#X msg 790 390 0;
#X obj 790 410 s \$0-Multi-Band-Filter/peak-2/gain-dB;
#X connect 52 0 110 0;
#X connect 110 0 111 0;
#X obj 1118 390 r \$0-Multi-Band-Filter/peak-2/gain-dB;
#X msg 1118 410 /Multi-Band-Filter/peak-2/gain-dB \$1;
#X connect 112 0 113 0;
#X connect 113 0 53 0;
#X obj 1446 390 route /Multi-Band-Filter/peak-2/gain-dB;
#X obj 1446 410 s \$0-Multi-Band-Filter/peak-2/gain-dB;
#X connect 108 1 114 0;
#X connect 114 0 115 0;
#X msg 790 430 50;
#X obj 790 450 s \$0-Multi-Band-Filter/peak-3/Q-factor;
#X connect 52 0 116 0;
#X connect 116 0 117 0;
#X obj 1118 430 r \$0-Multi-Band-Filter/peak-3/Q-factor;
#X msg 1118 450 /Multi-Band-Filter/peak-3/Q-factor \$1;
#X connect 118 0 119 0;
#X connect 119 0 53 0;
#X obj 1446 430 route /Multi-Band-Filter/peak-3/Q-factor;
#X obj 1446 450 s \$0-Multi-Band-Filter/peak-3/Q-factor;
#X connect 114 1 120 0;
#X connect 120 0 121 0;
#X msg 790 470 4000;
#X obj 790 490 s \$0-Multi-Band-Filter/peak-3/freq-Hz;
#X connect 52 0 122 0;
#X connect 122 0 123 0;
#X obj 1118 470 r \$0-Multi-Band-Filter/peak-3/freq-Hz;
#X msg 1118 490 /Multi-Band-Filter/peak-3/freq-Hz \$1;
#X connect 124 0 125 0;
#X connect 125 0 53 0;
#X obj 1446 470 route /Multi-Band-Filter/peak-3/freq-Hz;
#X obj 1446 490 s \$0-Multi-Band-Filter/peak-3/freq-Hz;
#X connect 120 1 126 0;
#X connect 126 0 127 0;
#X msg 790 510 0;
#X obj 790 530 s \$0-Multi-Band-Filter/peak-3/gain-dB;
#X connect 52 0 128 0;
#X connect 128 0 129 0;
#X obj 1118 510 r \$0-Multi-Band-Filter/peak-3/gain-dB;
#X msg 1118 530 /Multi-Band-Filter/peak-3/gain-dB \$1;
#X connect 130 0 131 0;
#X connect 131 0 53 0;
#X obj 1446 510 route /Multi-Band-Filter/peak-3/gain-dB;
#X obj 1446 530 s \$0-Multi-Band-Filter/peak-3/gain-dB;
#X connect 126 1 132 0;
#X connect 132 0 133 0;
#X msg 790 550 50;
#X obj 790 570 s \$0-Multi-Band-Filter/peak-4/Q-factor;
#X connect 52 0 134 0;
#X connect 134 0 135 0;
#X obj 1118 550 r \$0-Multi-Band-Filter/peak-4/Q-factor;
#X msg 1118 570 /Multi-Band-Filter/peak-4/Q-factor \$1;
#X connect 136 0 137 0;
#X connect 137 0 53 0;
#X obj 1446 550 route /Multi-Band-Filter/peak-4/Q-factor;
#X obj 1446 570 s \$0-Multi-Band-Filter/peak-4/Q-factor;
#X connect 132 1 138 0;
#X connect 138 0 139 0;
#X msg 790 590 5000;
#X obj 790 610 s \$0-Multi-Band-Filter/peak-4/freq-Hz;
#X connect 52 0 140 0;
#X connect 140 0 141 0;
#X obj 1118 590 r \$0-Multi-Band-Filter/peak-4/freq-Hz;
#X msg 1118 610 /Multi-Band-Filter/peak-4/freq-Hz \$1;
#X connect 142 0 143 0;
#X connect 143 0 53 0;
#X obj 1446 590 route /Multi-Band-Filter/peak-4/freq-Hz;
#X obj 1446 610 s \$0-Multi-Band-Filter/peak-4/freq-Hz;
#X connect 138 1 144 0;
#X connect 144 0 145 0;
#X msg 790 630 0;
#X obj 790 650 s \$0-Multi-Band-Filter/peak-4/gain-dB;
#X connect 52 0 146 0;
#X connect 146 0 147 0;
#X obj 1118 630 r \$0-Multi-Band-Filter/peak-4/gain-dB;
#X msg 1118 650 /Multi-Band-Filter/peak-4/gain-dB \$1;
#X connect 148 0 149 0;
#X connect 149 0 53 0;
#X obj 1446 630 route /Multi-Band-Filter/peak-4/gain-dB;
#X obj 1446 650 s \$0-Multi-Band-Filter/peak-4/gain-dB;
#X connect 144 1 150 0;
#X connect 150 0 151 0;
#X msg 790 670 50;
#X obj 790 690 s \$0-Multi-Band-Filter/peak-5/Q-factor;
#X connect 52 0 152 0;
#X connect 152 0 153 0;
#X obj 1118 670 r \$0-Multi-Band-Filter/peak-5/Q-factor;
#X msg 1118 690 /Multi-Band-Filter/peak-5/Q-factor \$1;
#X connect 154 0 155 0;
#X connect 155 0 53 0;
#X obj 1446 670 route /Multi-Band-Filter/peak-5/Q-factor;
#X obj 1446 690 s \$0-Multi-Band-Filter/peak-5/Q-factor;
#X connect 150 1 156 0;
#X connect 156 0 157 0;
#X msg 790 710 6000;
#X obj 790 730 s \$0-Multi-Band-Filter/peak-5/freq-Hz;
#X connect 52 0 158 0;
#X connect 158 0 159 0;
#X obj 1118 710 r \$0-Multi-Band-Filter/peak-5/freq-Hz;
#X msg 1118 730 /Multi-Band-Filter/peak-5/freq-Hz \$1;
#X connect 160 0 161 0;
#X connect 161 0 53 0;
#X obj 1446 710 route /Multi-Band-Filter/peak-5/freq-Hz;
#X obj 1446 730 s \$0-Multi-Band-Filter/peak-5/freq-Hz;
#X connect 156 1 162 0;
#X connect 162 0 163 0;
#X msg 790 750 0;
#X obj 790 770 s \$0-Multi-Band-Filter/peak-5/gain-dB;
#X connect 52 0 164 0;
#X connect 164 0 165 0;
#X obj 1118 750 r \$0-Multi-Band-Filter/peak-5/gain-dB;
#X msg 1118 770 /Multi-Band-Filter/peak-5/gain-dB \$1;
#X connect 166 0 167 0;
#X connect 167 0 53 0;
#X obj 1446 750 route /Multi-Band-Filter/peak-5/gain-dB;
#X obj 1446 770 s \$0-Multi-Band-Filter/peak-5/gain-dB;
#X connect 162 1 168 0;
#X connect 168 0 169 0;
#X msg 790 790 50;
#X obj 790 810 s \$0-Multi-Band-Filter/peak-6/Q-factor;
#X connect 52 0 170 0;
#X connect 170 0 171 0;
#X obj 1118 790 r \$0-Multi-Band-Filter/peak-6/Q-factor;
#X msg 1118 810 /Multi-Band-Filter/peak-6/Q-factor \$1;
#X connect 172 0 173 0;
#X connect 173 0 53 0;
#X obj 1446 790 route /Multi-Band-Filter/peak-6/Q-factor;
#X obj 1446 810 s \$0-Multi-Band-Filter/peak-6/Q-factor;
#X connect 168 1 174 0;
#X connect 174 0 175 0;
#X msg 790 830 7000;
#X obj 790 850 s \$0-Multi-Band-Filter/peak-6/freq-Hz;
#X connect 52 0 176 0;
#X connect 176 0 177 0;
#X obj 1118 830 r \$0-Multi-Band-Filter/peak-6/freq-Hz;
#X msg 1118 850 /Multi-Band-Filter/peak-6/freq-Hz \$1;
#X connect 178 0 179 0;
#X connect 179 0 53 0;
#X obj 1446 830 route /Multi-Band-Filter/peak-6/freq-Hz;
#X obj 1446 850 s \$0-Multi-Band-Filter/peak-6/freq-Hz;
#X connect 174 1 180 0;
#X connect 180 0 181 0;
#X msg 790 870 0;
#X obj 790 890 s \$0-Multi-Band-Filter/peak-6/gain-dB;
#X connect 52 0 182 0;
#X connect 182 0 183 0;
#X obj 1118 870 r \$0-Multi-Band-Filter/peak-6/gain-dB;
#X msg 1118 890 /Multi-Band-Filter/peak-6/gain-dB \$1;
#X connect 184 0 185 0;
#X connect 185 0 53 0;
#X obj 1446 870 route /Multi-Band-Filter/peak-6/gain-dB;
#X obj 1446 890 s \$0-Multi-Band-Filter/peak-6/gain-dB;
#X connect 180 1 186 0;
#X connect 186 0 187 0;
#X msg 790 910 50;
#X obj 790 930 s \$0-Multi-Band-Filter/peak-7/Q-factor;
#X connect 52 0 188 0;
#X connect 188 0 189 0;
#X obj 1118 910 r \$0-Multi-Band-Filter/peak-7/Q-factor;
#X msg 1118 930 /Multi-Band-Filter/peak-7/Q-factor \$1;
#X connect 190 0 191 0;
#X connect 191 0 53 0;
#X obj 1446 910 route /Multi-Band-Filter/peak-7/Q-factor;
#X obj 1446 930 s \$0-Multi-Band-Filter/peak-7/Q-factor;
#X connect 186 1 192 0;
#X connect 192 0 193 0;
#X msg 790 950 8000;
#X obj 790 970 s \$0-Multi-Band-Filter/peak-7/freq-Hz;
#X connect 52 0 194 0;
#X connect 194 0 195 0;
#X obj 1118 950 r \$0-Multi-Band-Filter/peak-7/freq-Hz;
#X msg 1118 970 /Multi-Band-Filter/peak-7/freq-Hz \$1;
#X connect 196 0 197 0;
#X connect 197 0 53 0;
#X obj 1446 950 route /Multi-Band-Filter/peak-7/freq-Hz;
#X obj 1446 970 s \$0-Multi-Band-Filter/peak-7/freq-Hz;
#X connect 192 1 198 0;
#X connect 198 0 199 0;
#X msg 790 990 0;
#X obj 790 1010 s \$0-Multi-Band-Filter/peak-7/gain-dB;
#X connect 52 0 200 0;
#X connect 200 0 201 0;
#X obj 1118 990 r \$0-Multi-Band-Filter/peak-7/gain-dB;
#X msg 1118 1010 /Multi-Band-Filter/peak-7/gain-dB \$1;
#X connect 202 0 203 0;
#X connect 203 0 53 0;
#X obj 1446 990 route /Multi-Band-Filter/peak-7/gain-dB;
#X obj 1446 1010 s \$0-Multi-Band-Filter/peak-7/gain-dB;
#X connect 198 1 204 0;
#X connect 204 0 205 0;
#X msg 790 1030 50;
#X obj 790 1050 s \$0-Multi-Band-Filter/peak-8/Q-factor;
#X connect 52 0 206 0;
#X connect 206 0 207 0;
#X obj 1118 1030 r \$0-Multi-Band-Filter/peak-8/Q-factor;
#X msg 1118 1050 /Multi-Band-Filter/peak-8/Q-factor \$1;
#X connect 208 0 209 0;
#X connect 209 0 53 0;
#X obj 1446 1030 route /Multi-Band-Filter/peak-8/Q-factor;
#X obj 1446 1050 s \$0-Multi-Band-Filter/peak-8/Q-factor;
#X connect 204 1 210 0;
#X connect 210 0 211 0;
#X msg 790 1070 9000;
#X obj 790 1090 s \$0-Multi-Band-Filter/peak-8/freq-Hz;
#X connect 52 0 212 0;
#X connect 212 0 213 0;
#X obj 1118 1070 r \$0-Multi-Band-Filter/peak-8/freq-Hz;
#X msg 1118 1090 /Multi-Band-Filter/peak-8/freq-Hz \$1;
#X connect 214 0 215 0;
#X connect 215 0 53 0;
#X obj 1446 1070 route /Multi-Band-Filter/peak-8/freq-Hz;
#X obj 1446 1090 s \$0-Multi-Band-Filter/peak-8/freq-Hz;
#X connect 210 1 216 0;
#X connect 216 0 217 0;
#X msg 790 1110 0;
#X obj 790 1130 s \$0-Multi-Band-Filter/peak-8/gain-dB;
#X connect 52 0 218 0;
#X connect 218 0 219 0;
#X obj 1118 1110 r \$0-Multi-Band-Filter/peak-8/gain-dB;
#X msg 1118 1130 /Multi-Band-Filter/peak-8/gain-dB \$1;
#X connect 220 0 221 0;
#X connect 221 0 53 0;
#X obj 1446 1110 route /Multi-Band-Filter/peak-8/gain-dB;
#X obj 1446 1130 s \$0-Multi-Band-Filter/peak-8/gain-dB;
#X connect 216 1 222 0;
#X connect 222 0 223 0;
#X msg 790 1150 50;
#X obj 790 1170 s \$0-Multi-Band-Filter/peak-9/Q-factor;
#X connect 52 0 224 0;
#X connect 224 0 225 0;
#X obj 1118 1150 r \$0-Multi-Band-Filter/peak-9/Q-factor;
#X msg 1118 1170 /Multi-Band-Filter/peak-9/Q-factor \$1;
#X connect 226 0 227 0;
#X connect 227 0 53 0;
#X obj 1446 1150 route /Multi-Band-Filter/peak-9/Q-factor;
#X obj 1446 1170 s \$0-Multi-Band-Filter/peak-9/Q-factor;
#X connect 222 1 228 0;
#X connect 228 0 229 0;
#X msg 790 1190 10000;
#X obj 790 1210 s \$0-Multi-Band-Filter/peak-9/freq-Hz;
#X connect 52 0 230 0;
#X connect 230 0 231 0;
#X obj 1118 1190 r \$0-Multi-Band-Filter/peak-9/freq-Hz;
#X msg 1118 1210 /Multi-Band-Filter/peak-9/freq-Hz \$1;
#X connect 232 0 233 0;
#X connect 233 0 53 0;
#X obj 1446 1190 route /Multi-Band-Filter/peak-9/freq-Hz;
#X obj 1446 1210 s \$0-Multi-Band-Filter/peak-9/freq-Hz;
#X connect 228 1 234 0;
#X connect 234 0 235 0;
#X msg 790 1230 0;
#X obj 790 1250 s \$0-Multi-Band-Filter/peak-9/gain-dB;
#X connect 52 0 236 0;
#X connect 236 0 237 0;
#X obj 1118 1230 r \$0-Multi-Band-Filter/peak-9/gain-dB;
#X msg 1118 1250 /Multi-Band-Filter/peak-9/gain-dB \$1;
#X connect 238 0 239 0;
#X connect 239 0 53 0;
#X obj 1446 1230 route /Multi-Band-Filter/peak-9/gain-dB;
#X obj 1446 1250 s \$0-Multi-Band-Filter/peak-9/gain-dB;
#X connect 234 1 240 0;
#X connect 240 0 241 0;
#X coords 0 -1 1 1 760 260 1 0 0;
#X text 0 280 Generated Mon Sep 22 11:25:59 2014 by faust2pd v2.9. See http://faust.grame.fr and http://purelang.bitbucket.org.;
