#N canvas 0 0 450 300 10;
#X obj 10 150 inlet;
#X obj 130 150 r \$0-read;
#X obj 130 180 faust-control \$0;
#X obj 130 210 s \$0-write;
#X obj 10 210 r \$0-in;
#X obj 10 240 osc2~;
#X obj 10 270 s \$0-out;
#X obj 70 300 outlet~;
#X obj 10 300 outlet;
#X connect 0 0 2 0;
#X connect 1 0 2 0;
#X connect 2 0 3 0;
#X connect 5 0 6 0;
#X connect 0 0 8 0;
#X connect 4 0 5 0;
#X connect 5 1 7 0;
#X obj 10 30 hsl 128 15 0 24000 0 0 \$0-Oscillator/freq \$0-Oscillator/freq freq -2 -6 0 10 -262144 -1 -1 0 1;
#X obj 160 30 nbx 5 14 0 24000 0 0 \$0-Oscillator/freq \$0-Oscillator/freq empty 0 -6 0 10 -262144 -1 -1 256;
#X obj 10 60 hsl 128 15 -96 0 0 0 \$0-Oscillator/volume-db \$0-Oscillator/volume-db volume-db -2 -6 0 10 -262144 -1 -1 0 1;
#X obj 160 60 nbx 5 14 -96 0 0 0 \$0-Oscillator/volume-db \$0-Oscillator/volume-db empty 0 -6 0 10 -262144 -1 -1 256;
#X obj 197 3 bng 15 250 50 1 \$0-init \$0-ignore empty 0 -6 0 10 -262144 -1 -1;
#X obj 217 3 tgl 15 1 \$0-active \$0-active empty 0 -6 0 10 -262144 -1 -1 1 1;
#X obj 450 10 r \$0-init;
#X obj 674 10 s \$0-in;
#X obj 786 10 s \$0-read;
#X obj 898 10 r \$0-write;
#X msg 450 30 1;
#X obj 450 50 s \$0-active;
#X connect 19 0 20 0;
#X obj 674 30 r \$0-active;
#X msg 674 50 active \$1;
#X connect 21 0 22 0;
#X connect 22 0 16 0;
#X obj 898 30 route active;
#X obj 898 50 s \$0-active;
#X connect 18 0 23 0;
#X connect 23 0 24 0;
#X msg 450 70 1000;
#X obj 450 90 s \$0-Oscillator/freq;
#X connect 15 0 25 0;
#X connect 25 0 26 0;
#X obj 674 70 r \$0-Oscillator/freq;
#X msg 674 90 /Oscillator/freq \$1;
#X connect 27 0 28 0;
#X connect 28 0 16 0;
#X obj 898 70 route /Oscillator/freq;
#X obj 898 90 s \$0-Oscillator/freq;
#X connect 23 1 29 0;
#X connect 29 0 30 0;
#X msg 450 110 0;
#X obj 450 130 s \$0-Oscillator/volume-db;
#X connect 15 0 31 0;
#X connect 31 0 32 0;
#X obj 674 110 r \$0-Oscillator/volume-db;
#X msg 674 130 /Oscillator/volume-db \$1;
#X connect 33 0 34 0;
#X connect 34 0 16 0;
#X obj 898 110 route /Oscillator/volume-db;
#X obj 898 130 s \$0-Oscillator/volume-db;
#X connect 29 1 35 0;
#X connect 35 0 36 0;
#X coords 0 -1 1 1 235 80 1 0 0;
#X text 0 100 Generated Mon Sep 22 11:25:58 2014 by faust2pd v2.9. See http://faust.grame.fr and http://purelang.bitbucket.org.;
