#N canvas 0 0 450 300 10;
#X obj 70 120 inlet~;
#X obj 10 120 inlet;
#X obj 130 120 r \$0-read;
#X obj 130 150 faust-control \$0;
#X obj 130 180 s \$0-write;
#X obj 10 180 r \$0-in;
#X obj 10 210 panpot~;
#X obj 10 240 s \$0-out;
#X obj 70 270 outlet~;
#X obj 130 270 outlet~;
#X obj 10 270 outlet;
#X connect 1 0 3 0;
#X connect 2 0 3 0;
#X connect 3 0 4 0;
#X connect 6 0 7 0;
#X connect 1 0 10 0;
#X connect 5 0 6 0;
#X connect 0 0 6 1;
#X connect 6 1 8 0;
#X connect 6 2 9 0;
#X obj 10 30 nbx 5 14 -8 8 0 0 \$0-panpot \$0-panpot empty 0 -6 0 10 -262144 -1 -1 256;
#X obj 47 3 bng 15 250 50 1 \$0-init \$0-ignore empty 0 -6 0 10 -262144 -1 -1;
#X obj 67 3 tgl 15 1 \$0-active \$0-active empty 0 -6 0 10 -262144 -1 -1 1 1;
#X obj 450 10 r \$0-init;
#X obj 562 10 s \$0-in;
#X obj 618 10 s \$0-read;
#X obj 674 10 r \$0-write;
#X msg 450 30 1;
#X obj 450 50 s \$0-active;
#X connect 18 0 19 0;
#X obj 562 30 r \$0-active;
#X msg 562 50 active \$1;
#X connect 20 0 21 0;
#X connect 21 0 15 0;
#X obj 674 30 route active;
#X obj 674 50 s \$0-active;
#X connect 17 0 22 0;
#X connect 22 0 23 0;
#X msg 450 70 0;
#X obj 450 90 s \$0-panpot;
#X connect 14 0 24 0;
#X connect 24 0 25 0;
#X obj 562 70 r \$0-panpot;
#X msg 562 90 /panpot \$1;
#X connect 26 0 27 0;
#X connect 27 0 15 0;
#X obj 674 70 route /panpot;
#X obj 674 90 s \$0-panpot;
#X connect 22 1 28 0;
#X connect 28 0 29 0;
#X coords 0 -1 1 1 85 50 1 0 0;
#X text 0 70 Generated Mon Sep 22 11:25:59 2014 by faust2pd v2.9. See http://faust.grame.fr and http://purelang.bitbucket.org.;
