#N canvas 0 0 450 300 10;
#X obj 70 180 inlet~;
#X obj 10 180 inlet;
#X obj 130 180 r \$0-read;
#X obj 130 210 faust-control \$0;
#X obj 130 240 s \$0-write;
#X obj 10 240 r \$0-in;
#X obj 10 270 pitch_shifter~;
#X obj 10 300 s \$0-out;
#X obj 70 330 outlet~;
#X obj 10 330 outlet;
#X connect 1 0 3 0;
#X connect 2 0 3 0;
#X connect 3 0 4 0;
#X connect 6 0 7 0;
#X connect 1 0 9 0;
#X connect 5 0 6 0;
#X connect 0 0 6 1;
#X connect 6 1 8 0;
#X obj 10 30 hsl 128 15 -12 12 0 0 \$0-Pitch-Shifter/shift-semitones \$0-Pitch-Shifter/shift-semitones shift-semitones -2 -6 0 10 -262144 -1 -1 0 1;
#X obj 160 30 nbx 5 14 -12 12 0 0 \$0-Pitch-Shifter/shift-semitones \$0-Pitch-Shifter/shift-semitones empty 0 -6 0 10 -262144 -1 -1 256;
#X obj 10 60 hsl 128 15 50 10000 0 0 \$0-Pitch-Shifter/window-samples \$0-Pitch-Shifter/window-samples window-samples -2 -6 0 10 -262144 -1 -1 0 1;
#X obj 160 60 nbx 5 14 50 10000 0 0 \$0-Pitch-Shifter/window-samples \$0-Pitch-Shifter/window-samples empty 0 -6 0 10 -262144 -1 -1 256;
#X obj 10 90 hsl 128 15 1 10000 0 0 \$0-Pitch-Shifter/xfade-samples \$0-Pitch-Shifter/xfade-samples xfade-samples -2 -6 0 10 -262144 -1 -1 0 1;
#X obj 160 90 nbx 5 14 1 10000 0 0 \$0-Pitch-Shifter/xfade-samples \$0-Pitch-Shifter/xfade-samples empty 0 -6 0 10 -262144 -1 -1 256;
#X obj 197 3 bng 15 250 50 1 \$0-init \$0-ignore empty 0 -6 0 10 -262144 -1 -1;
#X obj 217 3 tgl 15 1 \$0-active \$0-active empty 0 -6 0 10 -262144 -1 -1 1 1;
#X obj 450 10 r \$0-init;
#X obj 746 10 s \$0-in;
#X obj 894 10 s \$0-read;
#X obj 1042 10 r \$0-write;
#X msg 450 30 1;
#X obj 450 50 s \$0-active;
#X connect 22 0 23 0;
#X obj 746 30 r \$0-active;
#X msg 746 50 active \$1;
#X connect 24 0 25 0;
#X connect 25 0 19 0;
#X obj 1042 30 route active;
#X obj 1042 50 s \$0-active;
#X connect 21 0 26 0;
#X connect 26 0 27 0;
#X msg 450 70 0;
#X obj 450 90 s \$0-Pitch-Shifter/shift-semitones;
#X connect 18 0 28 0;
#X connect 28 0 29 0;
#X obj 746 70 r \$0-Pitch-Shifter/shift-semitones;
#X msg 746 90 /Pitch-Shifter/shift-semitones \$1;
#X connect 30 0 31 0;
#X connect 31 0 19 0;
#X obj 1042 70 route /Pitch-Shifter/shift-semitones;
#X obj 1042 90 s \$0-Pitch-Shifter/shift-semitones;
#X connect 26 1 32 0;
#X connect 32 0 33 0;
#X msg 450 110 1000;
#X obj 450 130 s \$0-Pitch-Shifter/window-samples;
#X connect 18 0 34 0;
#X connect 34 0 35 0;
#X obj 746 110 r \$0-Pitch-Shifter/window-samples;
#X msg 746 130 /Pitch-Shifter/window-samples \$1;
#X connect 36 0 37 0;
#X connect 37 0 19 0;
#X obj 1042 110 route /Pitch-Shifter/window-samples;
#X obj 1042 130 s \$0-Pitch-Shifter/window-samples;
#X connect 32 1 38 0;
#X connect 38 0 39 0;
#X msg 450 150 10;
#X obj 450 170 s \$0-Pitch-Shifter/xfade-samples;
#X connect 18 0 40 0;
#X connect 40 0 41 0;
#X obj 746 150 r \$0-Pitch-Shifter/xfade-samples;
#X msg 746 170 /Pitch-Shifter/xfade-samples \$1;
#X connect 42 0 43 0;
#X connect 43 0 19 0;
#X obj 1042 150 route /Pitch-Shifter/xfade-samples;
#X obj 1042 170 s \$0-Pitch-Shifter/xfade-samples;
#X connect 38 1 44 0;
#X connect 44 0 45 0;
#X coords 0 -1 1 1 235 110 1 0 0;
#X text 0 130 Generated Mon Sep 22 11:25:59 2014 by faust2pd v2.9. See http://faust.grame.fr and http://purelang.bitbucket.org.;
