#N canvas 0 0 450 300 10;
#X obj 70 150 inlet~;
#X obj 10 150 inlet;
#X obj 130 150 r \$0-read;
#X obj 130 180 faust-control \$0;
#X obj 130 210 s \$0-write;
#X obj 10 210 r \$0-in;
#X obj 10 240 spat~;
#X obj 10 270 s \$0-out;
#X obj 70 300 outlet~;
#X obj 130 300 outlet~;
#X obj 190 300 outlet~;
#X obj 250 300 outlet~;
#X obj 310 300 outlet~;
#X obj 370 300 outlet~;
#X obj 430 300 outlet~;
#X obj 490 300 outlet~;
#X obj 10 300 outlet;
#X connect 1 0 3 0;
#X connect 2 0 3 0;
#X connect 3 0 4 0;
#X connect 6 0 7 0;
#X connect 1 0 16 0;
#X connect 5 0 6 0;
#X connect 0 0 6 1;
#X connect 6 1 8 0;
#X connect 6 2 9 0;
#X connect 6 3 10 0;
#X connect 6 4 11 0;
#X connect 6 5 12 0;
#X connect 6 6 13 0;
#X connect 6 7 14 0;
#X connect 6 8 15 0;
#X obj 10 30 hsl 128 15 0 1 0 0 \$0-Spatializer-1x8/angle \$0-Spatializer-1x8/angle angle -2 -6 0 10 -262144 -1 -1 0 1;
#X obj 160 30 nbx 5 14 0 1 0 0 \$0-Spatializer-1x8/angle \$0-Spatializer-1x8/angle empty 0 -6 0 10 -262144 -1 -1 256;
#X obj 10 60 hsl 128 15 0 1 0 0 \$0-Spatializer-1x8/distance \$0-Spatializer-1x8/distance distance -2 -6 0 10 -262144 -1 -1 0 1;
#X obj 160 60 nbx 5 14 0 1 0 0 \$0-Spatializer-1x8/distance \$0-Spatializer-1x8/distance empty 0 -6 0 10 -262144 -1 -1 256;
#X obj 197 3 bng 15 250 50 1 \$0-init \$0-ignore empty 0 -6 0 10 -262144 -1 -1;
#X obj 217 3 tgl 15 1 \$0-active \$0-active empty 0 -6 0 10 -262144 -1 -1 1 1;
#X obj 450 10 r \$0-init;
#X obj 706 10 s \$0-in;
#X obj 834 10 s \$0-read;
#X obj 962 10 r \$0-write;
#X msg 450 30 1;
#X obj 450 50 s \$0-active;
#X connect 27 0 28 0;
#X obj 706 30 r \$0-active;
#X msg 706 50 active \$1;
#X connect 29 0 30 0;
#X connect 30 0 24 0;
#X obj 962 30 route active;
#X obj 962 50 s \$0-active;
#X connect 26 0 31 0;
#X connect 31 0 32 0;
#X msg 450 70 0;
#X obj 450 90 s \$0-Spatializer-1x8/angle;
#X connect 23 0 33 0;
#X connect 33 0 34 0;
#X obj 706 70 r \$0-Spatializer-1x8/angle;
#X msg 706 90 /Spatializer-1x8/angle \$1;
#X connect 35 0 36 0;
#X connect 36 0 24 0;
#X obj 962 70 route /Spatializer-1x8/angle;
#X obj 962 90 s \$0-Spatializer-1x8/angle;
#X connect 31 1 37 0;
#X connect 37 0 38 0;
#X msg 450 110 0.5;
#X obj 450 130 s \$0-Spatializer-1x8/distance;
#X connect 23 0 39 0;
#X connect 39 0 40 0;
#X obj 706 110 r \$0-Spatializer-1x8/distance;
#X msg 706 130 /Spatializer-1x8/distance \$1;
#X connect 41 0 42 0;
#X connect 42 0 24 0;
#X obj 962 110 route /Spatializer-1x8/distance;
#X obj 962 130 s \$0-Spatializer-1x8/distance;
#X connect 37 1 43 0;
#X connect 43 0 44 0;
#X coords 0 -1 1 1 235 80 1 0 0;
#X text 0 100 Generated Mon Sep 22 11:25:59 2014 by faust2pd v2.9. See http://faust.grame.fr and http://purelang.bitbucket.org.;
