#N canvas 0 0 450 300 10;
#X obj 70 630 inlet~;
#X obj 130 630 inlet~;
#X obj 10 630 inlet;
#X obj 190 630 r \$0-read;
#X obj 190 660 faust-control \$0;
#X obj 190 690 s \$0-write;
#X obj 10 690 r \$0-in;
#X obj 10 720 tapiir~;
#X obj 10 750 s \$0-out;
#X obj 70 780 outlet~;
#X obj 130 780 outlet~;
#X obj 10 780 outlet;
#X connect 2 0 4 0;
#X connect 3 0 4 0;
#X connect 4 0 5 0;
#X connect 7 0 8 0;
#X connect 2 0 11 0;
#X connect 6 0 7 0;
#X connect 0 0 7 1;
#X connect 1 0 7 2;
#X connect 7 1 9 0;
#X connect 7 2 10 0;
#X obj 10 30 vsl 15 128 0 5 0 0 \$0-Tapiir/Tap-0/delay-sec \$0-Tapiir/Tap-0/delay-sec delay-sec 0 -8 0 10 -262144 -1 -1 0 1;
#X obj 10 170 nbx 5 14 0 5 0 0 \$0-Tapiir/Tap-0/delay-sec \$0-Tapiir/Tap-0/delay-sec empty 0 -6 0 10 -262144 -1 -1 256;
#X obj 85 30 vsl 15 128 0 1 0 0 \$0-Tapiir/Tap-0/gain \$0-Tapiir/Tap-0/gain gain 0 -8 0 10 -262144 -1 -1 0 1;
#X obj 85 170 nbx 5 14 0 1 0 0 \$0-Tapiir/Tap-0/gain \$0-Tapiir/Tap-0/gain empty 0 -6 0 10 -262144 -1 -1 256;
#X obj 160 30 vsl 15 128 0 1 0 0 \$0-Tapiir/Tap-0/input-0 \$0-Tapiir/Tap-0/input-0 input-0 0 -8 0 10 -262144 -1 -1 0 1;
#X obj 160 170 nbx 5 14 0 1 0 0 \$0-Tapiir/Tap-0/input-0 \$0-Tapiir/Tap-0/input-0 empty 0 -6 0 10 -262144 -1 -1 256;
#X obj 235 30 vsl 15 128 0 1 0 0 \$0-Tapiir/Tap-0/input-1 \$0-Tapiir/Tap-0/input-1 input-1 0 -8 0 10 -262144 -1 -1 0 1;
#X obj 235 170 nbx 5 14 0 1 0 0 \$0-Tapiir/Tap-0/input-1 \$0-Tapiir/Tap-0/input-1 empty 0 -6 0 10 -262144 -1 -1 256;
#X obj 310 30 vsl 15 128 0 1 0 0 \$0-Tapiir/Tap-0/tap-0 \$0-Tapiir/Tap-0/tap-0 tap-0 0 -8 0 10 -262144 -1 -1 0 1;
#X obj 310 170 nbx 5 14 0 1 0 0 \$0-Tapiir/Tap-0/tap-0 \$0-Tapiir/Tap-0/tap-0 empty 0 -6 0 10 -262144 -1 -1 256;
#X obj 385 30 vsl 15 128 0 1 0 0 \$0-Tapiir/Tap-0/tap-1 \$0-Tapiir/Tap-0/tap-1 tap-1 0 -8 0 10 -262144 -1 -1 0 1;
#X obj 385 170 nbx 5 14 0 1 0 0 \$0-Tapiir/Tap-0/tap-1 \$0-Tapiir/Tap-0/tap-1 empty 0 -6 0 10 -262144 -1 -1 256;
#X obj 460 30 vsl 15 128 0 1 0 0 \$0-Tapiir/Tap-0/tap-2 \$0-Tapiir/Tap-0/tap-2 tap-2 0 -8 0 10 -262144 -1 -1 0 1;
#X obj 460 170 nbx 5 14 0 1 0 0 \$0-Tapiir/Tap-0/tap-2 \$0-Tapiir/Tap-0/tap-2 empty 0 -6 0 10 -262144 -1 -1 256;
#X obj 535 30 vsl 15 128 0 1 0 0 \$0-Tapiir/Tap-0/tap-3 \$0-Tapiir/Tap-0/tap-3 tap-3 0 -8 0 10 -262144 -1 -1 0 1;
#X obj 535 170 nbx 5 14 0 1 0 0 \$0-Tapiir/Tap-0/tap-3 \$0-Tapiir/Tap-0/tap-3 empty 0 -6 0 10 -262144 -1 -1 256;
#X obj 610 30 vsl 15 128 0 1 0 0 \$0-Tapiir/Tap-0/tap-4 \$0-Tapiir/Tap-0/tap-4 tap-4 0 -8 0 10 -262144 -1 -1 0 1;
#X obj 610 170 nbx 5 14 0 1 0 0 \$0-Tapiir/Tap-0/tap-4 \$0-Tapiir/Tap-0/tap-4 empty 0 -6 0 10 -262144 -1 -1 256;
#X obj 685 30 vsl 15 128 0 1 0 0 \$0-Tapiir/Tap-0/tap-5 \$0-Tapiir/Tap-0/tap-5 tap-5 0 -8 0 10 -262144 -1 -1 0 1;
#X obj 685 170 nbx 5 14 0 1 0 0 \$0-Tapiir/Tap-0/tap-5 \$0-Tapiir/Tap-0/tap-5 empty 0 -6 0 10 -262144 -1 -1 256;
#X obj 760 30 vsl 15 128 0 5 0 0 \$0-Tapiir/Tap-1/delay-sec \$0-Tapiir/Tap-1/delay-sec delay-sec 0 -8 0 10 -262144 -1 -1 0 1;
#X obj 760 170 nbx 5 14 0 5 0 0 \$0-Tapiir/Tap-1/delay-sec \$0-Tapiir/Tap-1/delay-sec empty 0 -6 0 10 -262144 -1 -1 256;
#X obj 835 30 vsl 15 128 0 1 0 0 \$0-Tapiir/Tap-1/gain \$0-Tapiir/Tap-1/gain gain 0 -8 0 10 -262144 -1 -1 0 1;
#X obj 835 170 nbx 5 14 0 1 0 0 \$0-Tapiir/Tap-1/gain \$0-Tapiir/Tap-1/gain empty 0 -6 0 10 -262144 -1 -1 256;
#X obj 910 30 vsl 15 128 0 1 0 0 \$0-Tapiir/Tap-1/input-0 \$0-Tapiir/Tap-1/input-0 input-0 0 -8 0 10 -262144 -1 -1 0 1;
#X obj 910 170 nbx 5 14 0 1 0 0 \$0-Tapiir/Tap-1/input-0 \$0-Tapiir/Tap-1/input-0 empty 0 -6 0 10 -262144 -1 -1 256;
#X obj 985 30 vsl 15 128 0 1 0 0 \$0-Tapiir/Tap-1/input-1 \$0-Tapiir/Tap-1/input-1 input-1 0 -8 0 10 -262144 -1 -1 0 1;
#X obj 985 170 nbx 5 14 0 1 0 0 \$0-Tapiir/Tap-1/input-1 \$0-Tapiir/Tap-1/input-1 empty 0 -6 0 10 -262144 -1 -1 256;
#X obj 1060 30 vsl 15 128 0 1 0 0 \$0-Tapiir/Tap-1/tap-0 \$0-Tapiir/Tap-1/tap-0 tap-0 0 -8 0 10 -262144 -1 -1 0 1;
#X obj 1060 170 nbx 5 14 0 1 0 0 \$0-Tapiir/Tap-1/tap-0 \$0-Tapiir/Tap-1/tap-0 empty 0 -6 0 10 -262144 -1 -1 256;
#X obj 1135 30 vsl 15 128 0 1 0 0 \$0-Tapiir/Tap-1/tap-1 \$0-Tapiir/Tap-1/tap-1 tap-1 0 -8 0 10 -262144 -1 -1 0 1;
#X obj 1135 170 nbx 5 14 0 1 0 0 \$0-Tapiir/Tap-1/tap-1 \$0-Tapiir/Tap-1/tap-1 empty 0 -6 0 10 -262144 -1 -1 256;
#X obj 1210 30 vsl 15 128 0 1 0 0 \$0-Tapiir/Tap-1/tap-2 \$0-Tapiir/Tap-1/tap-2 tap-2 0 -8 0 10 -262144 -1 -1 0 1;
#X obj 1210 170 nbx 5 14 0 1 0 0 \$0-Tapiir/Tap-1/tap-2 \$0-Tapiir/Tap-1/tap-2 empty 0 -6 0 10 -262144 -1 -1 256;
#X obj 1285 30 vsl 15 128 0 1 0 0 \$0-Tapiir/Tap-1/tap-3 \$0-Tapiir/Tap-1/tap-3 tap-3 0 -8 0 10 -262144 -1 -1 0 1;
#X obj 1285 170 nbx 5 14 0 1 0 0 \$0-Tapiir/Tap-1/tap-3 \$0-Tapiir/Tap-1/tap-3 empty 0 -6 0 10 -262144 -1 -1 256;
#X obj 1360 30 vsl 15 128 0 1 0 0 \$0-Tapiir/Tap-1/tap-4 \$0-Tapiir/Tap-1/tap-4 tap-4 0 -8 0 10 -262144 -1 -1 0 1;
#X obj 1360 170 nbx 5 14 0 1 0 0 \$0-Tapiir/Tap-1/tap-4 \$0-Tapiir/Tap-1/tap-4 empty 0 -6 0 10 -262144 -1 -1 256;
#X obj 1435 30 vsl 15 128 0 1 0 0 \$0-Tapiir/Tap-1/tap-5 \$0-Tapiir/Tap-1/tap-5 tap-5 0 -8 0 10 -262144 -1 -1 0 1;
#X obj 1435 170 nbx 5 14 0 1 0 0 \$0-Tapiir/Tap-1/tap-5 \$0-Tapiir/Tap-1/tap-5 empty 0 -6 0 10 -262144 -1 -1 256;
#X obj 1510 30 vsl 15 128 0 5 0 0 \$0-Tapiir/Tap-2/delay-sec \$0-Tapiir/Tap-2/delay-sec delay-sec 0 -8 0 10 -262144 -1 -1 0 1;
#X obj 1510 170 nbx 5 14 0 5 0 0 \$0-Tapiir/Tap-2/delay-sec \$0-Tapiir/Tap-2/delay-sec empty 0 -6 0 10 -262144 -1 -1 256;
#X obj 1585 30 vsl 15 128 0 1 0 0 \$0-Tapiir/Tap-2/gain \$0-Tapiir/Tap-2/gain gain 0 -8 0 10 -262144 -1 -1 0 1;
#X obj 1585 170 nbx 5 14 0 1 0 0 \$0-Tapiir/Tap-2/gain \$0-Tapiir/Tap-2/gain empty 0 -6 0 10 -262144 -1 -1 256;
#X obj 1660 30 vsl 15 128 0 1 0 0 \$0-Tapiir/Tap-2/input-0 \$0-Tapiir/Tap-2/input-0 input-0 0 -8 0 10 -262144 -1 -1 0 1;
#X obj 1660 170 nbx 5 14 0 1 0 0 \$0-Tapiir/Tap-2/input-0 \$0-Tapiir/Tap-2/input-0 empty 0 -6 0 10 -262144 -1 -1 256;
#X obj 1735 30 vsl 15 128 0 1 0 0 \$0-Tapiir/Tap-2/input-1 \$0-Tapiir/Tap-2/input-1 input-1 0 -8 0 10 -262144 -1 -1 0 1;
#X obj 1735 170 nbx 5 14 0 1 0 0 \$0-Tapiir/Tap-2/input-1 \$0-Tapiir/Tap-2/input-1 empty 0 -6 0 10 -262144 -1 -1 256;
#X obj 1810 30 vsl 15 128 0 1 0 0 \$0-Tapiir/Tap-2/tap-0 \$0-Tapiir/Tap-2/tap-0 tap-0 0 -8 0 10 -262144 -1 -1 0 1;
#X obj 1810 170 nbx 5 14 0 1 0 0 \$0-Tapiir/Tap-2/tap-0 \$0-Tapiir/Tap-2/tap-0 empty 0 -6 0 10 -262144 -1 -1 256;
#X obj 1885 30 vsl 15 128 0 1 0 0 \$0-Tapiir/Tap-2/tap-1 \$0-Tapiir/Tap-2/tap-1 tap-1 0 -8 0 10 -262144 -1 -1 0 1;
#X obj 1885 170 nbx 5 14 0 1 0 0 \$0-Tapiir/Tap-2/tap-1 \$0-Tapiir/Tap-2/tap-1 empty 0 -6 0 10 -262144 -1 -1 256;
#X obj 1960 30 vsl 15 128 0 1 0 0 \$0-Tapiir/Tap-2/tap-2 \$0-Tapiir/Tap-2/tap-2 tap-2 0 -8 0 10 -262144 -1 -1 0 1;
#X obj 1960 170 nbx 5 14 0 1 0 0 \$0-Tapiir/Tap-2/tap-2 \$0-Tapiir/Tap-2/tap-2 empty 0 -6 0 10 -262144 -1 -1 256;
#X obj 2035 30 vsl 15 128 0 1 0 0 \$0-Tapiir/Tap-2/tap-3 \$0-Tapiir/Tap-2/tap-3 tap-3 0 -8 0 10 -262144 -1 -1 0 1;
#X obj 2035 170 nbx 5 14 0 1 0 0 \$0-Tapiir/Tap-2/tap-3 \$0-Tapiir/Tap-2/tap-3 empty 0 -6 0 10 -262144 -1 -1 256;
#X obj 2110 30 vsl 15 128 0 1 0 0 \$0-Tapiir/Tap-2/tap-4 \$0-Tapiir/Tap-2/tap-4 tap-4 0 -8 0 10 -262144 -1 -1 0 1;
#X obj 2110 170 nbx 5 14 0 1 0 0 \$0-Tapiir/Tap-2/tap-4 \$0-Tapiir/Tap-2/tap-4 empty 0 -6 0 10 -262144 -1 -1 256;
#X obj 2185 30 vsl 15 128 0 1 0 0 \$0-Tapiir/Tap-2/tap-5 \$0-Tapiir/Tap-2/tap-5 tap-5 0 -8 0 10 -262144 -1 -1 0 1;
#X obj 2185 170 nbx 5 14 0 1 0 0 \$0-Tapiir/Tap-2/tap-5 \$0-Tapiir/Tap-2/tap-5 empty 0 -6 0 10 -262144 -1 -1 256;
#X obj 2260 30 vsl 15 128 0 5 0 0 \$0-Tapiir/Tap-3/delay-sec \$0-Tapiir/Tap-3/delay-sec delay-sec 0 -8 0 10 -262144 -1 -1 0 1;
#X obj 2260 170 nbx 5 14 0 5 0 0 \$0-Tapiir/Tap-3/delay-sec \$0-Tapiir/Tap-3/delay-sec empty 0 -6 0 10 -262144 -1 -1 256;
#X obj 2335 30 vsl 15 128 0 1 0 0 \$0-Tapiir/Tap-3/gain \$0-Tapiir/Tap-3/gain gain 0 -8 0 10 -262144 -1 -1 0 1;
#X obj 2335 170 nbx 5 14 0 1 0 0 \$0-Tapiir/Tap-3/gain \$0-Tapiir/Tap-3/gain empty 0 -6 0 10 -262144 -1 -1 256;
#X obj 2410 30 vsl 15 128 0 1 0 0 \$0-Tapiir/Tap-3/input-0 \$0-Tapiir/Tap-3/input-0 input-0 0 -8 0 10 -262144 -1 -1 0 1;
#X obj 2410 170 nbx 5 14 0 1 0 0 \$0-Tapiir/Tap-3/input-0 \$0-Tapiir/Tap-3/input-0 empty 0 -6 0 10 -262144 -1 -1 256;
#X obj 2485 30 vsl 15 128 0 1 0 0 \$0-Tapiir/Tap-3/input-1 \$0-Tapiir/Tap-3/input-1 input-1 0 -8 0 10 -262144 -1 -1 0 1;
#X obj 2485 170 nbx 5 14 0 1 0 0 \$0-Tapiir/Tap-3/input-1 \$0-Tapiir/Tap-3/input-1 empty 0 -6 0 10 -262144 -1 -1 256;
#X obj 2560 30 vsl 15 128 0 1 0 0 \$0-Tapiir/Tap-3/tap-0 \$0-Tapiir/Tap-3/tap-0 tap-0 0 -8 0 10 -262144 -1 -1 0 1;
#X obj 2560 170 nbx 5 14 0 1 0 0 \$0-Tapiir/Tap-3/tap-0 \$0-Tapiir/Tap-3/tap-0 empty 0 -6 0 10 -262144 -1 -1 256;
#X obj 2635 30 vsl 15 128 0 1 0 0 \$0-Tapiir/Tap-3/tap-1 \$0-Tapiir/Tap-3/tap-1 tap-1 0 -8 0 10 -262144 -1 -1 0 1;
#X obj 2635 170 nbx 5 14 0 1 0 0 \$0-Tapiir/Tap-3/tap-1 \$0-Tapiir/Tap-3/tap-1 empty 0 -6 0 10 -262144 -1 -1 256;
#X obj 2710 30 vsl 15 128 0 1 0 0 \$0-Tapiir/Tap-3/tap-2 \$0-Tapiir/Tap-3/tap-2 tap-2 0 -8 0 10 -262144 -1 -1 0 1;
#X obj 2710 170 nbx 5 14 0 1 0 0 \$0-Tapiir/Tap-3/tap-2 \$0-Tapiir/Tap-3/tap-2 empty 0 -6 0 10 -262144 -1 -1 256;
#X obj 2785 30 vsl 15 128 0 1 0 0 \$0-Tapiir/Tap-3/tap-3 \$0-Tapiir/Tap-3/tap-3 tap-3 0 -8 0 10 -262144 -1 -1 0 1;
#X obj 2785 170 nbx 5 14 0 1 0 0 \$0-Tapiir/Tap-3/tap-3 \$0-Tapiir/Tap-3/tap-3 empty 0 -6 0 10 -262144 -1 -1 256;
#X obj 2860 30 vsl 15 128 0 1 0 0 \$0-Tapiir/Tap-3/tap-4 \$0-Tapiir/Tap-3/tap-4 tap-4 0 -8 0 10 -262144 -1 -1 0 1;
#X obj 2860 170 nbx 5 14 0 1 0 0 \$0-Tapiir/Tap-3/tap-4 \$0-Tapiir/Tap-3/tap-4 empty 0 -6 0 10 -262144 -1 -1 256;
#X obj 2935 30 vsl 15 128 0 1 0 0 \$0-Tapiir/Tap-3/tap-5 \$0-Tapiir/Tap-3/tap-5 tap-5 0 -8 0 10 -262144 -1 -1 0 1;
#X obj 2935 170 nbx 5 14 0 1 0 0 \$0-Tapiir/Tap-3/tap-5 \$0-Tapiir/Tap-3/tap-5 empty 0 -6 0 10 -262144 -1 -1 256;
#X obj 3010 30 vsl 15 128 0 5 0 0 \$0-Tapiir/Tap-4/delay-sec \$0-Tapiir/Tap-4/delay-sec delay-sec 0 -8 0 10 -262144 -1 -1 0 1;
#X obj 3010 170 nbx 5 14 0 5 0 0 \$0-Tapiir/Tap-4/delay-sec \$0-Tapiir/Tap-4/delay-sec empty 0 -6 0 10 -262144 -1 -1 256;
#X obj 3085 30 vsl 15 128 0 1 0 0 \$0-Tapiir/Tap-4/gain \$0-Tapiir/Tap-4/gain gain 0 -8 0 10 -262144 -1 -1 0 1;
#X obj 3085 170 nbx 5 14 0 1 0 0 \$0-Tapiir/Tap-4/gain \$0-Tapiir/Tap-4/gain empty 0 -6 0 10 -262144 -1 -1 256;
#X obj 3160 30 vsl 15 128 0 1 0 0 \$0-Tapiir/Tap-4/input-0 \$0-Tapiir/Tap-4/input-0 input-0 0 -8 0 10 -262144 -1 -1 0 1;
#X obj 3160 170 nbx 5 14 0 1 0 0 \$0-Tapiir/Tap-4/input-0 \$0-Tapiir/Tap-4/input-0 empty 0 -6 0 10 -262144 -1 -1 256;
#X obj 3235 30 vsl 15 128 0 1 0 0 \$0-Tapiir/Tap-4/input-1 \$0-Tapiir/Tap-4/input-1 input-1 0 -8 0 10 -262144 -1 -1 0 1;
#X obj 3235 170 nbx 5 14 0 1 0 0 \$0-Tapiir/Tap-4/input-1 \$0-Tapiir/Tap-4/input-1 empty 0 -6 0 10 -262144 -1 -1 256;
#X obj 3310 30 vsl 15 128 0 1 0 0 \$0-Tapiir/Tap-4/tap-0 \$0-Tapiir/Tap-4/tap-0 tap-0 0 -8 0 10 -262144 -1 -1 0 1;
#X obj 3310 170 nbx 5 14 0 1 0 0 \$0-Tapiir/Tap-4/tap-0 \$0-Tapiir/Tap-4/tap-0 empty 0 -6 0 10 -262144 -1 -1 256;
#X obj 3385 30 vsl 15 128 0 1 0 0 \$0-Tapiir/Tap-4/tap-1 \$0-Tapiir/Tap-4/tap-1 tap-1 0 -8 0 10 -262144 -1 -1 0 1;
#X obj 3385 170 nbx 5 14 0 1 0 0 \$0-Tapiir/Tap-4/tap-1 \$0-Tapiir/Tap-4/tap-1 empty 0 -6 0 10 -262144 -1 -1 256;
#X obj 3460 30 vsl 15 128 0 1 0 0 \$0-Tapiir/Tap-4/tap-2 \$0-Tapiir/Tap-4/tap-2 tap-2 0 -8 0 10 -262144 -1 -1 0 1;
#X obj 3460 170 nbx 5 14 0 1 0 0 \$0-Tapiir/Tap-4/tap-2 \$0-Tapiir/Tap-4/tap-2 empty 0 -6 0 10 -262144 -1 -1 256;
#X obj 3535 30 vsl 15 128 0 1 0 0 \$0-Tapiir/Tap-4/tap-3 \$0-Tapiir/Tap-4/tap-3 tap-3 0 -8 0 10 -262144 -1 -1 0 1;
#X obj 3535 170 nbx 5 14 0 1 0 0 \$0-Tapiir/Tap-4/tap-3 \$0-Tapiir/Tap-4/tap-3 empty 0 -6 0 10 -262144 -1 -1 256;
#X obj 3610 30 vsl 15 128 0 1 0 0 \$0-Tapiir/Tap-4/tap-4 \$0-Tapiir/Tap-4/tap-4 tap-4 0 -8 0 10 -262144 -1 -1 0 1;
#X obj 3610 170 nbx 5 14 0 1 0 0 \$0-Tapiir/Tap-4/tap-4 \$0-Tapiir/Tap-4/tap-4 empty 0 -6 0 10 -262144 -1 -1 256;
#X obj 3685 30 vsl 15 128 0 1 0 0 \$0-Tapiir/Tap-4/tap-5 \$0-Tapiir/Tap-4/tap-5 tap-5 0 -8 0 10 -262144 -1 -1 0 1;
#X obj 3685 170 nbx 5 14 0 1 0 0 \$0-Tapiir/Tap-4/tap-5 \$0-Tapiir/Tap-4/tap-5 empty 0 -6 0 10 -262144 -1 -1 256;
#X obj 3760 30 vsl 15 128 0 5 0 0 \$0-Tapiir/Tap-5/delay-sec \$0-Tapiir/Tap-5/delay-sec delay-sec 0 -8 0 10 -262144 -1 -1 0 1;
#X obj 3760 170 nbx 5 14 0 5 0 0 \$0-Tapiir/Tap-5/delay-sec \$0-Tapiir/Tap-5/delay-sec empty 0 -6 0 10 -262144 -1 -1 256;
#X obj 3835 30 vsl 15 128 0 1 0 0 \$0-Tapiir/Tap-5/gain \$0-Tapiir/Tap-5/gain gain 0 -8 0 10 -262144 -1 -1 0 1;
#X obj 3835 170 nbx 5 14 0 1 0 0 \$0-Tapiir/Tap-5/gain \$0-Tapiir/Tap-5/gain empty 0 -6 0 10 -262144 -1 -1 256;
#X obj 3910 30 vsl 15 128 0 1 0 0 \$0-Tapiir/Tap-5/input-0 \$0-Tapiir/Tap-5/input-0 input-0 0 -8 0 10 -262144 -1 -1 0 1;
#X obj 3910 170 nbx 5 14 0 1 0 0 \$0-Tapiir/Tap-5/input-0 \$0-Tapiir/Tap-5/input-0 empty 0 -6 0 10 -262144 -1 -1 256;
#X obj 3985 30 vsl 15 128 0 1 0 0 \$0-Tapiir/Tap-5/input-1 \$0-Tapiir/Tap-5/input-1 input-1 0 -8 0 10 -262144 -1 -1 0 1;
#X obj 3985 170 nbx 5 14 0 1 0 0 \$0-Tapiir/Tap-5/input-1 \$0-Tapiir/Tap-5/input-1 empty 0 -6 0 10 -262144 -1 -1 256;
#X obj 4060 30 vsl 15 128 0 1 0 0 \$0-Tapiir/Tap-5/tap-0 \$0-Tapiir/Tap-5/tap-0 tap-0 0 -8 0 10 -262144 -1 -1 0 1;
#X obj 4060 170 nbx 5 14 0 1 0 0 \$0-Tapiir/Tap-5/tap-0 \$0-Tapiir/Tap-5/tap-0 empty 0 -6 0 10 -262144 -1 -1 256;
#X obj 4135 30 vsl 15 128 0 1 0 0 \$0-Tapiir/Tap-5/tap-1 \$0-Tapiir/Tap-5/tap-1 tap-1 0 -8 0 10 -262144 -1 -1 0 1;
#X obj 4135 170 nbx 5 14 0 1 0 0 \$0-Tapiir/Tap-5/tap-1 \$0-Tapiir/Tap-5/tap-1 empty 0 -6 0 10 -262144 -1 -1 256;
#X obj 4210 30 vsl 15 128 0 1 0 0 \$0-Tapiir/Tap-5/tap-2 \$0-Tapiir/Tap-5/tap-2 tap-2 0 -8 0 10 -262144 -1 -1 0 1;
#X obj 4210 170 nbx 5 14 0 1 0 0 \$0-Tapiir/Tap-5/tap-2 \$0-Tapiir/Tap-5/tap-2 empty 0 -6 0 10 -262144 -1 -1 256;
#X obj 4285 30 vsl 15 128 0 1 0 0 \$0-Tapiir/Tap-5/tap-3 \$0-Tapiir/Tap-5/tap-3 tap-3 0 -8 0 10 -262144 -1 -1 0 1;
#X obj 4285 170 nbx 5 14 0 1 0 0 \$0-Tapiir/Tap-5/tap-3 \$0-Tapiir/Tap-5/tap-3 empty 0 -6 0 10 -262144 -1 -1 256;
#X obj 4360 30 vsl 15 128 0 1 0 0 \$0-Tapiir/Tap-5/tap-4 \$0-Tapiir/Tap-5/tap-4 tap-4 0 -8 0 10 -262144 -1 -1 0 1;
#X obj 4360 170 nbx 5 14 0 1 0 0 \$0-Tapiir/Tap-5/tap-4 \$0-Tapiir/Tap-5/tap-4 empty 0 -6 0 10 -262144 -1 -1 256;
#X obj 4435 30 vsl 15 128 0 1 0 0 \$0-Tapiir/Tap-5/tap-5 \$0-Tapiir/Tap-5/tap-5 tap-5 0 -8 0 10 -262144 -1 -1 0 1;
#X obj 4435 170 nbx 5 14 0 1 0 0 \$0-Tapiir/Tap-5/tap-5 \$0-Tapiir/Tap-5/tap-5 empty 0 -6 0 10 -262144 -1 -1 256;
#X obj 10 210 vsl 15 128 0 1 0 0 \$0-Tapiir/outputs/output-0/gain \$0-Tapiir/outputs/output-0/gain gain 0 -8 0 10 -262144 -1 -1 0 1;
#X obj 10 350 nbx 5 14 0 1 0 0 \$0-Tapiir/outputs/output-0/gain \$0-Tapiir/outputs/output-0/gain empty 0 -6 0 10 -262144 -1 -1 256;
#X obj 85 210 vsl 15 128 0 1 0 0 \$0-Tapiir/outputs/output-0/input-0 \$0-Tapiir/outputs/output-0/input-0 input-0 0 -8 0 10 -262144 -1 -1 0 1;
#X obj 85 350 nbx 5 14 0 1 0 0 \$0-Tapiir/outputs/output-0/input-0 \$0-Tapiir/outputs/output-0/input-0 empty 0 -6 0 10 -262144 -1 -1 256;
#X obj 160 210 vsl 15 128 0 1 0 0 \$0-Tapiir/outputs/output-0/input-1 \$0-Tapiir/outputs/output-0/input-1 input-1 0 -8 0 10 -262144 -1 -1 0 1;
#X obj 160 350 nbx 5 14 0 1 0 0 \$0-Tapiir/outputs/output-0/input-1 \$0-Tapiir/outputs/output-0/input-1 empty 0 -6 0 10 -262144 -1 -1 256;
#X obj 235 210 vsl 15 128 0 1 0 0 \$0-Tapiir/outputs/output-0/tap-0 \$0-Tapiir/outputs/output-0/tap-0 tap-0 0 -8 0 10 -262144 -1 -1 0 1;
#X obj 235 350 nbx 5 14 0 1 0 0 \$0-Tapiir/outputs/output-0/tap-0 \$0-Tapiir/outputs/output-0/tap-0 empty 0 -6 0 10 -262144 -1 -1 256;
#X obj 310 210 vsl 15 128 0 1 0 0 \$0-Tapiir/outputs/output-0/tap-1 \$0-Tapiir/outputs/output-0/tap-1 tap-1 0 -8 0 10 -262144 -1 -1 0 1;
#X obj 310 350 nbx 5 14 0 1 0 0 \$0-Tapiir/outputs/output-0/tap-1 \$0-Tapiir/outputs/output-0/tap-1 empty 0 -6 0 10 -262144 -1 -1 256;
#X obj 385 210 vsl 15 128 0 1 0 0 \$0-Tapiir/outputs/output-0/tap-2 \$0-Tapiir/outputs/output-0/tap-2 tap-2 0 -8 0 10 -262144 -1 -1 0 1;
#X obj 385 350 nbx 5 14 0 1 0 0 \$0-Tapiir/outputs/output-0/tap-2 \$0-Tapiir/outputs/output-0/tap-2 empty 0 -6 0 10 -262144 -1 -1 256;
#X obj 460 210 vsl 15 128 0 1 0 0 \$0-Tapiir/outputs/output-0/tap-3 \$0-Tapiir/outputs/output-0/tap-3 tap-3 0 -8 0 10 -262144 -1 -1 0 1;
#X obj 460 350 nbx 5 14 0 1 0 0 \$0-Tapiir/outputs/output-0/tap-3 \$0-Tapiir/outputs/output-0/tap-3 empty 0 -6 0 10 -262144 -1 -1 256;
#X obj 535 210 vsl 15 128 0 1 0 0 \$0-Tapiir/outputs/output-0/tap-4 \$0-Tapiir/outputs/output-0/tap-4 tap-4 0 -8 0 10 -262144 -1 -1 0 1;
#X obj 535 350 nbx 5 14 0 1 0 0 \$0-Tapiir/outputs/output-0/tap-4 \$0-Tapiir/outputs/output-0/tap-4 empty 0 -6 0 10 -262144 -1 -1 256;
#X obj 610 210 vsl 15 128 0 1 0 0 \$0-Tapiir/outputs/output-0/tap-5 \$0-Tapiir/outputs/output-0/tap-5 tap-5 0 -8 0 10 -262144 -1 -1 0 1;
#X obj 610 350 nbx 5 14 0 1 0 0 \$0-Tapiir/outputs/output-0/tap-5 \$0-Tapiir/outputs/output-0/tap-5 empty 0 -6 0 10 -262144 -1 -1 256;
#X obj 10 390 vsl 15 128 0 1 0 0 \$0-Tapiir/outputs/output-1/gain \$0-Tapiir/outputs/output-1/gain gain 0 -8 0 10 -262144 -1 -1 0 1;
#X obj 10 530 nbx 5 14 0 1 0 0 \$0-Tapiir/outputs/output-1/gain \$0-Tapiir/outputs/output-1/gain empty 0 -6 0 10 -262144 -1 -1 256;
#X obj 85 390 vsl 15 128 0 1 0 0 \$0-Tapiir/outputs/output-1/input-0 \$0-Tapiir/outputs/output-1/input-0 input-0 0 -8 0 10 -262144 -1 -1 0 1;
#X obj 85 530 nbx 5 14 0 1 0 0 \$0-Tapiir/outputs/output-1/input-0 \$0-Tapiir/outputs/output-1/input-0 empty 0 -6 0 10 -262144 -1 -1 256;
#X obj 160 390 vsl 15 128 0 1 0 0 \$0-Tapiir/outputs/output-1/input-1 \$0-Tapiir/outputs/output-1/input-1 input-1 0 -8 0 10 -262144 -1 -1 0 1;
#X obj 160 530 nbx 5 14 0 1 0 0 \$0-Tapiir/outputs/output-1/input-1 \$0-Tapiir/outputs/output-1/input-1 empty 0 -6 0 10 -262144 -1 -1 256;
#X obj 235 390 vsl 15 128 0 1 0 0 \$0-Tapiir/outputs/output-1/tap-0 \$0-Tapiir/outputs/output-1/tap-0 tap-0 0 -8 0 10 -262144 -1 -1 0 1;
#X obj 235 530 nbx 5 14 0 1 0 0 \$0-Tapiir/outputs/output-1/tap-0 \$0-Tapiir/outputs/output-1/tap-0 empty 0 -6 0 10 -262144 -1 -1 256;
#X obj 310 390 vsl 15 128 0 1 0 0 \$0-Tapiir/outputs/output-1/tap-1 \$0-Tapiir/outputs/output-1/tap-1 tap-1 0 -8 0 10 -262144 -1 -1 0 1;
#X obj 310 530 nbx 5 14 0 1 0 0 \$0-Tapiir/outputs/output-1/tap-1 \$0-Tapiir/outputs/output-1/tap-1 empty 0 -6 0 10 -262144 -1 -1 256;
#X obj 385 390 vsl 15 128 0 1 0 0 \$0-Tapiir/outputs/output-1/tap-2 \$0-Tapiir/outputs/output-1/tap-2 tap-2 0 -8 0 10 -262144 -1 -1 0 1;
#X obj 385 530 nbx 5 14 0 1 0 0 \$0-Tapiir/outputs/output-1/tap-2 \$0-Tapiir/outputs/output-1/tap-2 empty 0 -6 0 10 -262144 -1 -1 256;
#X obj 460 390 vsl 15 128 0 1 0 0 \$0-Tapiir/outputs/output-1/tap-3 \$0-Tapiir/outputs/output-1/tap-3 tap-3 0 -8 0 10 -262144 -1 -1 0 1;
#X obj 460 530 nbx 5 14 0 1 0 0 \$0-Tapiir/outputs/output-1/tap-3 \$0-Tapiir/outputs/output-1/tap-3 empty 0 -6 0 10 -262144 -1 -1 256;
#X obj 535 390 vsl 15 128 0 1 0 0 \$0-Tapiir/outputs/output-1/tap-4 \$0-Tapiir/outputs/output-1/tap-4 tap-4 0 -8 0 10 -262144 -1 -1 0 1;
#X obj 535 530 nbx 5 14 0 1 0 0 \$0-Tapiir/outputs/output-1/tap-4 \$0-Tapiir/outputs/output-1/tap-4 empty 0 -6 0 10 -262144 -1 -1 256;
#X obj 610 390 vsl 15 128 0 1 0 0 \$0-Tapiir/outputs/output-1/tap-5 \$0-Tapiir/outputs/output-1/tap-5 tap-5 0 -8 0 10 -262144 -1 -1 0 1;
#X obj 610 530 nbx 5 14 0 1 0 0 \$0-Tapiir/outputs/output-1/tap-5 \$0-Tapiir/outputs/output-1/tap-5 empty 0 -6 0 10 -262144 -1 -1 256;
#X obj 4472 3 bng 15 250 50 1 \$0-init \$0-ignore empty 0 -6 0 10 -262144 -1 -1;
#X obj 4492 3 tgl 15 1 \$0-active \$0-active empty 0 -6 0 10 -262144 -1 -1 1 1;
#X obj 4540 10 r \$0-init;
#X obj 4852 10 s \$0-in;
#X obj 5008 10 s \$0-read;
#X obj 5164 10 r \$0-write;
#X msg 4540 30 1;
#X obj 4540 50 s \$0-active;
#X connect 174 0 175 0;
#X obj 4852 30 r \$0-active;
#X msg 4852 50 active \$1;
#X connect 176 0 177 0;
#X connect 177 0 171 0;
#X obj 5164 30 route active;
#X obj 5164 50 s \$0-active;
#X connect 173 0 178 0;
#X connect 178 0 179 0;
#X msg 4540 70 0;
#X obj 4540 90 s \$0-Tapiir/Tap-0/delay-sec;
#X connect 170 0 180 0;
#X connect 180 0 181 0;
#X obj 4852 70 r \$0-Tapiir/Tap-0/delay-sec;
#X msg 4852 90 /Tapiir/Tap-0/delay-sec \$1;
#X connect 182 0 183 0;
#X connect 183 0 171 0;
#X obj 5164 70 route /Tapiir/Tap-0/delay-sec;
#X obj 5164 90 s \$0-Tapiir/Tap-0/delay-sec;
#X connect 178 1 184 0;
#X connect 184 0 185 0;
#X msg 4540 110 1;
#X obj 4540 130 s \$0-Tapiir/Tap-0/gain;
#X connect 170 0 186 0;
#X connect 186 0 187 0;
#X obj 4852 110 r \$0-Tapiir/Tap-0/gain;
#X msg 4852 130 /Tapiir/Tap-0/gain \$1;
#X connect 188 0 189 0;
#X connect 189 0 171 0;
#X obj 5164 110 route /Tapiir/Tap-0/gain;
#X obj 5164 130 s \$0-Tapiir/Tap-0/gain;
#X connect 184 1 190 0;
#X connect 190 0 191 0;
#X msg 4540 150 1;
#X obj 4540 170 s \$0-Tapiir/Tap-0/input-0;
#X connect 170 0 192 0;
#X connect 192 0 193 0;
#X obj 4852 150 r \$0-Tapiir/Tap-0/input-0;
#X msg 4852 170 /Tapiir/Tap-0/input-0 \$1;
#X connect 194 0 195 0;
#X connect 195 0 171 0;
#X obj 5164 150 route /Tapiir/Tap-0/input-0;
#X obj 5164 170 s \$0-Tapiir/Tap-0/input-0;
#X connect 190 1 196 0;
#X connect 196 0 197 0;
#X msg 4540 190 1;
#X obj 4540 210 s \$0-Tapiir/Tap-0/input-1;
#X connect 170 0 198 0;
#X connect 198 0 199 0;
#X obj 4852 190 r \$0-Tapiir/Tap-0/input-1;
#X msg 4852 210 /Tapiir/Tap-0/input-1 \$1;
#X connect 200 0 201 0;
#X connect 201 0 171 0;
#X obj 5164 190 route /Tapiir/Tap-0/input-1;
#X obj 5164 210 s \$0-Tapiir/Tap-0/input-1;
#X connect 196 1 202 0;
#X connect 202 0 203 0;
#X msg 4540 230 0;
#X obj 4540 250 s \$0-Tapiir/Tap-0/tap-0;
#X connect 170 0 204 0;
#X connect 204 0 205 0;
#X obj 4852 230 r \$0-Tapiir/Tap-0/tap-0;
#X msg 4852 250 /Tapiir/Tap-0/tap-0 \$1;
#X connect 206 0 207 0;
#X connect 207 0 171 0;
#X obj 5164 230 route /Tapiir/Tap-0/tap-0;
#X obj 5164 250 s \$0-Tapiir/Tap-0/tap-0;
#X connect 202 1 208 0;
#X connect 208 0 209 0;
#X msg 4540 270 0;
#X obj 4540 290 s \$0-Tapiir/Tap-0/tap-1;
#X connect 170 0 210 0;
#X connect 210 0 211 0;
#X obj 4852 270 r \$0-Tapiir/Tap-0/tap-1;
#X msg 4852 290 /Tapiir/Tap-0/tap-1 \$1;
#X connect 212 0 213 0;
#X connect 213 0 171 0;
#X obj 5164 270 route /Tapiir/Tap-0/tap-1;
#X obj 5164 290 s \$0-Tapiir/Tap-0/tap-1;
#X connect 208 1 214 0;
#X connect 214 0 215 0;
#X msg 4540 310 0;
#X obj 4540 330 s \$0-Tapiir/Tap-0/tap-2;
#X connect 170 0 216 0;
#X connect 216 0 217 0;
#X obj 4852 310 r \$0-Tapiir/Tap-0/tap-2;
#X msg 4852 330 /Tapiir/Tap-0/tap-2 \$1;
#X connect 218 0 219 0;
#X connect 219 0 171 0;
#X obj 5164 310 route /Tapiir/Tap-0/tap-2;
#X obj 5164 330 s \$0-Tapiir/Tap-0/tap-2;
#X connect 214 1 220 0;
#X connect 220 0 221 0;
#X msg 4540 350 0;
#X obj 4540 370 s \$0-Tapiir/Tap-0/tap-3;
#X connect 170 0 222 0;
#X connect 222 0 223 0;
#X obj 4852 350 r \$0-Tapiir/Tap-0/tap-3;
#X msg 4852 370 /Tapiir/Tap-0/tap-3 \$1;
#X connect 224 0 225 0;
#X connect 225 0 171 0;
#X obj 5164 350 route /Tapiir/Tap-0/tap-3;
#X obj 5164 370 s \$0-Tapiir/Tap-0/tap-3;
#X connect 220 1 226 0;
#X connect 226 0 227 0;
#X msg 4540 390 0;
#X obj 4540 410 s \$0-Tapiir/Tap-0/tap-4;
#X connect 170 0 228 0;
#X connect 228 0 229 0;
#X obj 4852 390 r \$0-Tapiir/Tap-0/tap-4;
#X msg 4852 410 /Tapiir/Tap-0/tap-4 \$1;
#X connect 230 0 231 0;
#X connect 231 0 171 0;
#X obj 5164 390 route /Tapiir/Tap-0/tap-4;
#X obj 5164 410 s \$0-Tapiir/Tap-0/tap-4;
#X connect 226 1 232 0;
#X connect 232 0 233 0;
#X msg 4540 430 0;
#X obj 4540 450 s \$0-Tapiir/Tap-0/tap-5;
#X connect 170 0 234 0;
#X connect 234 0 235 0;
#X obj 4852 430 r \$0-Tapiir/Tap-0/tap-5;
#X msg 4852 450 /Tapiir/Tap-0/tap-5 \$1;
#X connect 236 0 237 0;
#X connect 237 0 171 0;
#X obj 5164 430 route /Tapiir/Tap-0/tap-5;
#X obj 5164 450 s \$0-Tapiir/Tap-0/tap-5;
#X connect 232 1 238 0;
#X connect 238 0 239 0;
#X msg 4540 470 0;
#X obj 4540 490 s \$0-Tapiir/Tap-1/delay-sec;
#X connect 170 0 240 0;
#X connect 240 0 241 0;
#X obj 4852 470 r \$0-Tapiir/Tap-1/delay-sec;
#X msg 4852 490 /Tapiir/Tap-1/delay-sec \$1;
#X connect 242 0 243 0;
#X connect 243 0 171 0;
#X obj 5164 470 route /Tapiir/Tap-1/delay-sec;
#X obj 5164 490 s \$0-Tapiir/Tap-1/delay-sec;
#X connect 238 1 244 0;
#X connect 244 0 245 0;
#X msg 4540 510 1;
#X obj 4540 530 s \$0-Tapiir/Tap-1/gain;
#X connect 170 0 246 0;
#X connect 246 0 247 0;
#X obj 4852 510 r \$0-Tapiir/Tap-1/gain;
#X msg 4852 530 /Tapiir/Tap-1/gain \$1;
#X connect 248 0 249 0;
#X connect 249 0 171 0;
#X obj 5164 510 route /Tapiir/Tap-1/gain;
#X obj 5164 530 s \$0-Tapiir/Tap-1/gain;
#X connect 244 1 250 0;
#X connect 250 0 251 0;
#X msg 4540 550 1;
#X obj 4540 570 s \$0-Tapiir/Tap-1/input-0;
#X connect 170 0 252 0;
#X connect 252 0 253 0;
#X obj 4852 550 r \$0-Tapiir/Tap-1/input-0;
#X msg 4852 570 /Tapiir/Tap-1/input-0 \$1;
#X connect 254 0 255 0;
#X connect 255 0 171 0;
#X obj 5164 550 route /Tapiir/Tap-1/input-0;
#X obj 5164 570 s \$0-Tapiir/Tap-1/input-0;
#X connect 250 1 256 0;
#X connect 256 0 257 0;
#X msg 4540 590 1;
#X obj 4540 610 s \$0-Tapiir/Tap-1/input-1;
#X connect 170 0 258 0;
#X connect 258 0 259 0;
#X obj 4852 590 r \$0-Tapiir/Tap-1/input-1;
#X msg 4852 610 /Tapiir/Tap-1/input-1 \$1;
#X connect 260 0 261 0;
#X connect 261 0 171 0;
#X obj 5164 590 route /Tapiir/Tap-1/input-1;
#X obj 5164 610 s \$0-Tapiir/Tap-1/input-1;
#X connect 256 1 262 0;
#X connect 262 0 263 0;
#X msg 4540 630 0;
#X obj 4540 650 s \$0-Tapiir/Tap-1/tap-0;
#X connect 170 0 264 0;
#X connect 264 0 265 0;
#X obj 4852 630 r \$0-Tapiir/Tap-1/tap-0;
#X msg 4852 650 /Tapiir/Tap-1/tap-0 \$1;
#X connect 266 0 267 0;
#X connect 267 0 171 0;
#X obj 5164 630 route /Tapiir/Tap-1/tap-0;
#X obj 5164 650 s \$0-Tapiir/Tap-1/tap-0;
#X connect 262 1 268 0;
#X connect 268 0 269 0;
#X msg 4540 670 0;
#X obj 4540 690 s \$0-Tapiir/Tap-1/tap-1;
#X connect 170 0 270 0;
#X connect 270 0 271 0;
#X obj 4852 670 r \$0-Tapiir/Tap-1/tap-1;
#X msg 4852 690 /Tapiir/Tap-1/tap-1 \$1;
#X connect 272 0 273 0;
#X connect 273 0 171 0;
#X obj 5164 670 route /Tapiir/Tap-1/tap-1;
#X obj 5164 690 s \$0-Tapiir/Tap-1/tap-1;
#X connect 268 1 274 0;
#X connect 274 0 275 0;
#X msg 4540 710 0;
#X obj 4540 730 s \$0-Tapiir/Tap-1/tap-2;
#X connect 170 0 276 0;
#X connect 276 0 277 0;
#X obj 4852 710 r \$0-Tapiir/Tap-1/tap-2;
#X msg 4852 730 /Tapiir/Tap-1/tap-2 \$1;
#X connect 278 0 279 0;
#X connect 279 0 171 0;
#X obj 5164 710 route /Tapiir/Tap-1/tap-2;
#X obj 5164 730 s \$0-Tapiir/Tap-1/tap-2;
#X connect 274 1 280 0;
#X connect 280 0 281 0;
#X msg 4540 750 0;
#X obj 4540 770 s \$0-Tapiir/Tap-1/tap-3;
#X connect 170 0 282 0;
#X connect 282 0 283 0;
#X obj 4852 750 r \$0-Tapiir/Tap-1/tap-3;
#X msg 4852 770 /Tapiir/Tap-1/tap-3 \$1;
#X connect 284 0 285 0;
#X connect 285 0 171 0;
#X obj 5164 750 route /Tapiir/Tap-1/tap-3;
#X obj 5164 770 s \$0-Tapiir/Tap-1/tap-3;
#X connect 280 1 286 0;
#X connect 286 0 287 0;
#X msg 4540 790 0;
#X obj 4540 810 s \$0-Tapiir/Tap-1/tap-4;
#X connect 170 0 288 0;
#X connect 288 0 289 0;
#X obj 4852 790 r \$0-Tapiir/Tap-1/tap-4;
#X msg 4852 810 /Tapiir/Tap-1/tap-4 \$1;
#X connect 290 0 291 0;
#X connect 291 0 171 0;
#X obj 5164 790 route /Tapiir/Tap-1/tap-4;
#X obj 5164 810 s \$0-Tapiir/Tap-1/tap-4;
#X connect 286 1 292 0;
#X connect 292 0 293 0;
#X msg 4540 830 0;
#X obj 4540 850 s \$0-Tapiir/Tap-1/tap-5;
#X connect 170 0 294 0;
#X connect 294 0 295 0;
#X obj 4852 830 r \$0-Tapiir/Tap-1/tap-5;
#X msg 4852 850 /Tapiir/Tap-1/tap-5 \$1;
#X connect 296 0 297 0;
#X connect 297 0 171 0;
#X obj 5164 830 route /Tapiir/Tap-1/tap-5;
#X obj 5164 850 s \$0-Tapiir/Tap-1/tap-5;
#X connect 292 1 298 0;
#X connect 298 0 299 0;
#X msg 4540 870 0;
#X obj 4540 890 s \$0-Tapiir/Tap-2/delay-sec;
#X connect 170 0 300 0;
#X connect 300 0 301 0;
#X obj 4852 870 r \$0-Tapiir/Tap-2/delay-sec;
#X msg 4852 890 /Tapiir/Tap-2/delay-sec \$1;
#X connect 302 0 303 0;
#X connect 303 0 171 0;
#X obj 5164 870 route /Tapiir/Tap-2/delay-sec;
#X obj 5164 890 s \$0-Tapiir/Tap-2/delay-sec;
#X connect 298 1 304 0;
#X connect 304 0 305 0;
#X msg 4540 910 1;
#X obj 4540 930 s \$0-Tapiir/Tap-2/gain;
#X connect 170 0 306 0;
#X connect 306 0 307 0;
#X obj 4852 910 r \$0-Tapiir/Tap-2/gain;
#X msg 4852 930 /Tapiir/Tap-2/gain \$1;
#X connect 308 0 309 0;
#X connect 309 0 171 0;
#X obj 5164 910 route /Tapiir/Tap-2/gain;
#X obj 5164 930 s \$0-Tapiir/Tap-2/gain;
#X connect 304 1 310 0;
#X connect 310 0 311 0;
#X msg 4540 950 1;
#X obj 4540 970 s \$0-Tapiir/Tap-2/input-0;
#X connect 170 0 312 0;
#X connect 312 0 313 0;
#X obj 4852 950 r \$0-Tapiir/Tap-2/input-0;
#X msg 4852 970 /Tapiir/Tap-2/input-0 \$1;
#X connect 314 0 315 0;
#X connect 315 0 171 0;
#X obj 5164 950 route /Tapiir/Tap-2/input-0;
#X obj 5164 970 s \$0-Tapiir/Tap-2/input-0;
#X connect 310 1 316 0;
#X connect 316 0 317 0;
#X msg 4540 990 1;
#X obj 4540 1010 s \$0-Tapiir/Tap-2/input-1;
#X connect 170 0 318 0;
#X connect 318 0 319 0;
#X obj 4852 990 r \$0-Tapiir/Tap-2/input-1;
#X msg 4852 1010 /Tapiir/Tap-2/input-1 \$1;
#X connect 320 0 321 0;
#X connect 321 0 171 0;
#X obj 5164 990 route /Tapiir/Tap-2/input-1;
#X obj 5164 1010 s \$0-Tapiir/Tap-2/input-1;
#X connect 316 1 322 0;
#X connect 322 0 323 0;
#X msg 4540 1030 0;
#X obj 4540 1050 s \$0-Tapiir/Tap-2/tap-0;
#X connect 170 0 324 0;
#X connect 324 0 325 0;
#X obj 4852 1030 r \$0-Tapiir/Tap-2/tap-0;
#X msg 4852 1050 /Tapiir/Tap-2/tap-0 \$1;
#X connect 326 0 327 0;
#X connect 327 0 171 0;
#X obj 5164 1030 route /Tapiir/Tap-2/tap-0;
#X obj 5164 1050 s \$0-Tapiir/Tap-2/tap-0;
#X connect 322 1 328 0;
#X connect 328 0 329 0;
#X msg 4540 1070 0;
#X obj 4540 1090 s \$0-Tapiir/Tap-2/tap-1;
#X connect 170 0 330 0;
#X connect 330 0 331 0;
#X obj 4852 1070 r \$0-Tapiir/Tap-2/tap-1;
#X msg 4852 1090 /Tapiir/Tap-2/tap-1 \$1;
#X connect 332 0 333 0;
#X connect 333 0 171 0;
#X obj 5164 1070 route /Tapiir/Tap-2/tap-1;
#X obj 5164 1090 s \$0-Tapiir/Tap-2/tap-1;
#X connect 328 1 334 0;
#X connect 334 0 335 0;
#X msg 4540 1110 0;
#X obj 4540 1130 s \$0-Tapiir/Tap-2/tap-2;
#X connect 170 0 336 0;
#X connect 336 0 337 0;
#X obj 4852 1110 r \$0-Tapiir/Tap-2/tap-2;
#X msg 4852 1130 /Tapiir/Tap-2/tap-2 \$1;
#X connect 338 0 339 0;
#X connect 339 0 171 0;
#X obj 5164 1110 route /Tapiir/Tap-2/tap-2;
#X obj 5164 1130 s \$0-Tapiir/Tap-2/tap-2;
#X connect 334 1 340 0;
#X connect 340 0 341 0;
#X msg 4540 1150 0;
#X obj 4540 1170 s \$0-Tapiir/Tap-2/tap-3;
#X connect 170 0 342 0;
#X connect 342 0 343 0;
#X obj 4852 1150 r \$0-Tapiir/Tap-2/tap-3;
#X msg 4852 1170 /Tapiir/Tap-2/tap-3 \$1;
#X connect 344 0 345 0;
#X connect 345 0 171 0;
#X obj 5164 1150 route /Tapiir/Tap-2/tap-3;
#X obj 5164 1170 s \$0-Tapiir/Tap-2/tap-3;
#X connect 340 1 346 0;
#X connect 346 0 347 0;
#X msg 4540 1190 0;
#X obj 4540 1210 s \$0-Tapiir/Tap-2/tap-4;
#X connect 170 0 348 0;
#X connect 348 0 349 0;
#X obj 4852 1190 r \$0-Tapiir/Tap-2/tap-4;
#X msg 4852 1210 /Tapiir/Tap-2/tap-4 \$1;
#X connect 350 0 351 0;
#X connect 351 0 171 0;
#X obj 5164 1190 route /Tapiir/Tap-2/tap-4;
#X obj 5164 1210 s \$0-Tapiir/Tap-2/tap-4;
#X connect 346 1 352 0;
#X connect 352 0 353 0;
#X msg 4540 1230 0;
#X obj 4540 1250 s \$0-Tapiir/Tap-2/tap-5;
#X connect 170 0 354 0;
#X connect 354 0 355 0;
#X obj 4852 1230 r \$0-Tapiir/Tap-2/tap-5;
#X msg 4852 1250 /Tapiir/Tap-2/tap-5 \$1;
#X connect 356 0 357 0;
#X connect 357 0 171 0;
#X obj 5164 1230 route /Tapiir/Tap-2/tap-5;
#X obj 5164 1250 s \$0-Tapiir/Tap-2/tap-5;
#X connect 352 1 358 0;
#X connect 358 0 359 0;
#X msg 4540 1270 0;
#X obj 4540 1290 s \$0-Tapiir/Tap-3/delay-sec;
#X connect 170 0 360 0;
#X connect 360 0 361 0;
#X obj 4852 1270 r \$0-Tapiir/Tap-3/delay-sec;
#X msg 4852 1290 /Tapiir/Tap-3/delay-sec \$1;
#X connect 362 0 363 0;
#X connect 363 0 171 0;
#X obj 5164 1270 route /Tapiir/Tap-3/delay-sec;
#X obj 5164 1290 s \$0-Tapiir/Tap-3/delay-sec;
#X connect 358 1 364 0;
#X connect 364 0 365 0;
#X msg 4540 1310 1;
#X obj 4540 1330 s \$0-Tapiir/Tap-3/gain;
#X connect 170 0 366 0;
#X connect 366 0 367 0;
#X obj 4852 1310 r \$0-Tapiir/Tap-3/gain;
#X msg 4852 1330 /Tapiir/Tap-3/gain \$1;
#X connect 368 0 369 0;
#X connect 369 0 171 0;
#X obj 5164 1310 route /Tapiir/Tap-3/gain;
#X obj 5164 1330 s \$0-Tapiir/Tap-3/gain;
#X connect 364 1 370 0;
#X connect 370 0 371 0;
#X msg 4540 1350 1;
#X obj 4540 1370 s \$0-Tapiir/Tap-3/input-0;
#X connect 170 0 372 0;
#X connect 372 0 373 0;
#X obj 4852 1350 r \$0-Tapiir/Tap-3/input-0;
#X msg 4852 1370 /Tapiir/Tap-3/input-0 \$1;
#X connect 374 0 375 0;
#X connect 375 0 171 0;
#X obj 5164 1350 route /Tapiir/Tap-3/input-0;
#X obj 5164 1370 s \$0-Tapiir/Tap-3/input-0;
#X connect 370 1 376 0;
#X connect 376 0 377 0;
#X msg 4540 1390 1;
#X obj 4540 1410 s \$0-Tapiir/Tap-3/input-1;
#X connect 170 0 378 0;
#X connect 378 0 379 0;
#X obj 4852 1390 r \$0-Tapiir/Tap-3/input-1;
#X msg 4852 1410 /Tapiir/Tap-3/input-1 \$1;
#X connect 380 0 381 0;
#X connect 381 0 171 0;
#X obj 5164 1390 route /Tapiir/Tap-3/input-1;
#X obj 5164 1410 s \$0-Tapiir/Tap-3/input-1;
#X connect 376 1 382 0;
#X connect 382 0 383 0;
#X msg 4540 1430 0;
#X obj 4540 1450 s \$0-Tapiir/Tap-3/tap-0;
#X connect 170 0 384 0;
#X connect 384 0 385 0;
#X obj 4852 1430 r \$0-Tapiir/Tap-3/tap-0;
#X msg 4852 1450 /Tapiir/Tap-3/tap-0 \$1;
#X connect 386 0 387 0;
#X connect 387 0 171 0;
#X obj 5164 1430 route /Tapiir/Tap-3/tap-0;
#X obj 5164 1450 s \$0-Tapiir/Tap-3/tap-0;
#X connect 382 1 388 0;
#X connect 388 0 389 0;
#X msg 4540 1470 0;
#X obj 4540 1490 s \$0-Tapiir/Tap-3/tap-1;
#X connect 170 0 390 0;
#X connect 390 0 391 0;
#X obj 4852 1470 r \$0-Tapiir/Tap-3/tap-1;
#X msg 4852 1490 /Tapiir/Tap-3/tap-1 \$1;
#X connect 392 0 393 0;
#X connect 393 0 171 0;
#X obj 5164 1470 route /Tapiir/Tap-3/tap-1;
#X obj 5164 1490 s \$0-Tapiir/Tap-3/tap-1;
#X connect 388 1 394 0;
#X connect 394 0 395 0;
#X msg 4540 1510 0;
#X obj 4540 1530 s \$0-Tapiir/Tap-3/tap-2;
#X connect 170 0 396 0;
#X connect 396 0 397 0;
#X obj 4852 1510 r \$0-Tapiir/Tap-3/tap-2;
#X msg 4852 1530 /Tapiir/Tap-3/tap-2 \$1;
#X connect 398 0 399 0;
#X connect 399 0 171 0;
#X obj 5164 1510 route /Tapiir/Tap-3/tap-2;
#X obj 5164 1530 s \$0-Tapiir/Tap-3/tap-2;
#X connect 394 1 400 0;
#X connect 400 0 401 0;
#X msg 4540 1550 0;
#X obj 4540 1570 s \$0-Tapiir/Tap-3/tap-3;
#X connect 170 0 402 0;
#X connect 402 0 403 0;
#X obj 4852 1550 r \$0-Tapiir/Tap-3/tap-3;
#X msg 4852 1570 /Tapiir/Tap-3/tap-3 \$1;
#X connect 404 0 405 0;
#X connect 405 0 171 0;
#X obj 5164 1550 route /Tapiir/Tap-3/tap-3;
#X obj 5164 1570 s \$0-Tapiir/Tap-3/tap-3;
#X connect 400 1 406 0;
#X connect 406 0 407 0;
#X msg 4540 1590 0;
#X obj 4540 1610 s \$0-Tapiir/Tap-3/tap-4;
#X connect 170 0 408 0;
#X connect 408 0 409 0;
#X obj 4852 1590 r \$0-Tapiir/Tap-3/tap-4;
#X msg 4852 1610 /Tapiir/Tap-3/tap-4 \$1;
#X connect 410 0 411 0;
#X connect 411 0 171 0;
#X obj 5164 1590 route /Tapiir/Tap-3/tap-4;
#X obj 5164 1610 s \$0-Tapiir/Tap-3/tap-4;
#X connect 406 1 412 0;
#X connect 412 0 413 0;
#X msg 4540 1630 0;
#X obj 4540 1650 s \$0-Tapiir/Tap-3/tap-5;
#X connect 170 0 414 0;
#X connect 414 0 415 0;
#X obj 4852 1630 r \$0-Tapiir/Tap-3/tap-5;
#X msg 4852 1650 /Tapiir/Tap-3/tap-5 \$1;
#X connect 416 0 417 0;
#X connect 417 0 171 0;
#X obj 5164 1630 route /Tapiir/Tap-3/tap-5;
#X obj 5164 1650 s \$0-Tapiir/Tap-3/tap-5;
#X connect 412 1 418 0;
#X connect 418 0 419 0;
#X msg 4540 1670 0;
#X obj 4540 1690 s \$0-Tapiir/Tap-4/delay-sec;
#X connect 170 0 420 0;
#X connect 420 0 421 0;
#X obj 4852 1670 r \$0-Tapiir/Tap-4/delay-sec;
#X msg 4852 1690 /Tapiir/Tap-4/delay-sec \$1;
#X connect 422 0 423 0;
#X connect 423 0 171 0;
#X obj 5164 1670 route /Tapiir/Tap-4/delay-sec;
#X obj 5164 1690 s \$0-Tapiir/Tap-4/delay-sec;
#X connect 418 1 424 0;
#X connect 424 0 425 0;
#X msg 4540 1710 1;
#X obj 4540 1730 s \$0-Tapiir/Tap-4/gain;
#X connect 170 0 426 0;
#X connect 426 0 427 0;
#X obj 4852 1710 r \$0-Tapiir/Tap-4/gain;
#X msg 4852 1730 /Tapiir/Tap-4/gain \$1;
#X connect 428 0 429 0;
#X connect 429 0 171 0;
#X obj 5164 1710 route /Tapiir/Tap-4/gain;
#X obj 5164 1730 s \$0-Tapiir/Tap-4/gain;
#X connect 424 1 430 0;
#X connect 430 0 431 0;
#X msg 4540 1750 1;
#X obj 4540 1770 s \$0-Tapiir/Tap-4/input-0;
#X connect 170 0 432 0;
#X connect 432 0 433 0;
#X obj 4852 1750 r \$0-Tapiir/Tap-4/input-0;
#X msg 4852 1770 /Tapiir/Tap-4/input-0 \$1;
#X connect 434 0 435 0;
#X connect 435 0 171 0;
#X obj 5164 1750 route /Tapiir/Tap-4/input-0;
#X obj 5164 1770 s \$0-Tapiir/Tap-4/input-0;
#X connect 430 1 436 0;
#X connect 436 0 437 0;
#X msg 4540 1790 1;
#X obj 4540 1810 s \$0-Tapiir/Tap-4/input-1;
#X connect 170 0 438 0;
#X connect 438 0 439 0;
#X obj 4852 1790 r \$0-Tapiir/Tap-4/input-1;
#X msg 4852 1810 /Tapiir/Tap-4/input-1 \$1;
#X connect 440 0 441 0;
#X connect 441 0 171 0;
#X obj 5164 1790 route /Tapiir/Tap-4/input-1;
#X obj 5164 1810 s \$0-Tapiir/Tap-4/input-1;
#X connect 436 1 442 0;
#X connect 442 0 443 0;
#X msg 4540 1830 0;
#X obj 4540 1850 s \$0-Tapiir/Tap-4/tap-0;
#X connect 170 0 444 0;
#X connect 444 0 445 0;
#X obj 4852 1830 r \$0-Tapiir/Tap-4/tap-0;
#X msg 4852 1850 /Tapiir/Tap-4/tap-0 \$1;
#X connect 446 0 447 0;
#X connect 447 0 171 0;
#X obj 5164 1830 route /Tapiir/Tap-4/tap-0;
#X obj 5164 1850 s \$0-Tapiir/Tap-4/tap-0;
#X connect 442 1 448 0;
#X connect 448 0 449 0;
#X msg 4540 1870 0;
#X obj 4540 1890 s \$0-Tapiir/Tap-4/tap-1;
#X connect 170 0 450 0;
#X connect 450 0 451 0;
#X obj 4852 1870 r \$0-Tapiir/Tap-4/tap-1;
#X msg 4852 1890 /Tapiir/Tap-4/tap-1 \$1;
#X connect 452 0 453 0;
#X connect 453 0 171 0;
#X obj 5164 1870 route /Tapiir/Tap-4/tap-1;
#X obj 5164 1890 s \$0-Tapiir/Tap-4/tap-1;
#X connect 448 1 454 0;
#X connect 454 0 455 0;
#X msg 4540 1910 0;
#X obj 4540 1930 s \$0-Tapiir/Tap-4/tap-2;
#X connect 170 0 456 0;
#X connect 456 0 457 0;
#X obj 4852 1910 r \$0-Tapiir/Tap-4/tap-2;
#X msg 4852 1930 /Tapiir/Tap-4/tap-2 \$1;
#X connect 458 0 459 0;
#X connect 459 0 171 0;
#X obj 5164 1910 route /Tapiir/Tap-4/tap-2;
#X obj 5164 1930 s \$0-Tapiir/Tap-4/tap-2;
#X connect 454 1 460 0;
#X connect 460 0 461 0;
#X msg 4540 1950 0;
#X obj 4540 1970 s \$0-Tapiir/Tap-4/tap-3;
#X connect 170 0 462 0;
#X connect 462 0 463 0;
#X obj 4852 1950 r \$0-Tapiir/Tap-4/tap-3;
#X msg 4852 1970 /Tapiir/Tap-4/tap-3 \$1;
#X connect 464 0 465 0;
#X connect 465 0 171 0;
#X obj 5164 1950 route /Tapiir/Tap-4/tap-3;
#X obj 5164 1970 s \$0-Tapiir/Tap-4/tap-3;
#X connect 460 1 466 0;
#X connect 466 0 467 0;
#X msg 4540 1990 0;
#X obj 4540 2010 s \$0-Tapiir/Tap-4/tap-4;
#X connect 170 0 468 0;
#X connect 468 0 469 0;
#X obj 4852 1990 r \$0-Tapiir/Tap-4/tap-4;
#X msg 4852 2010 /Tapiir/Tap-4/tap-4 \$1;
#X connect 470 0 471 0;
#X connect 471 0 171 0;
#X obj 5164 1990 route /Tapiir/Tap-4/tap-4;
#X obj 5164 2010 s \$0-Tapiir/Tap-4/tap-4;
#X connect 466 1 472 0;
#X connect 472 0 473 0;
#X msg 4540 2030 0;
#X obj 4540 2050 s \$0-Tapiir/Tap-4/tap-5;
#X connect 170 0 474 0;
#X connect 474 0 475 0;
#X obj 4852 2030 r \$0-Tapiir/Tap-4/tap-5;
#X msg 4852 2050 /Tapiir/Tap-4/tap-5 \$1;
#X connect 476 0 477 0;
#X connect 477 0 171 0;
#X obj 5164 2030 route /Tapiir/Tap-4/tap-5;
#X obj 5164 2050 s \$0-Tapiir/Tap-4/tap-5;
#X connect 472 1 478 0;
#X connect 478 0 479 0;
#X msg 4540 2070 0;
#X obj 4540 2090 s \$0-Tapiir/Tap-5/delay-sec;
#X connect 170 0 480 0;
#X connect 480 0 481 0;
#X obj 4852 2070 r \$0-Tapiir/Tap-5/delay-sec;
#X msg 4852 2090 /Tapiir/Tap-5/delay-sec \$1;
#X connect 482 0 483 0;
#X connect 483 0 171 0;
#X obj 5164 2070 route /Tapiir/Tap-5/delay-sec;
#X obj 5164 2090 s \$0-Tapiir/Tap-5/delay-sec;
#X connect 478 1 484 0;
#X connect 484 0 485 0;
#X msg 4540 2110 1;
#X obj 4540 2130 s \$0-Tapiir/Tap-5/gain;
#X connect 170 0 486 0;
#X connect 486 0 487 0;
#X obj 4852 2110 r \$0-Tapiir/Tap-5/gain;
#X msg 4852 2130 /Tapiir/Tap-5/gain \$1;
#X connect 488 0 489 0;
#X connect 489 0 171 0;
#X obj 5164 2110 route /Tapiir/Tap-5/gain;
#X obj 5164 2130 s \$0-Tapiir/Tap-5/gain;
#X connect 484 1 490 0;
#X connect 490 0 491 0;
#X msg 4540 2150 1;
#X obj 4540 2170 s \$0-Tapiir/Tap-5/input-0;
#X connect 170 0 492 0;
#X connect 492 0 493 0;
#X obj 4852 2150 r \$0-Tapiir/Tap-5/input-0;
#X msg 4852 2170 /Tapiir/Tap-5/input-0 \$1;
#X connect 494 0 495 0;
#X connect 495 0 171 0;
#X obj 5164 2150 route /Tapiir/Tap-5/input-0;
#X obj 5164 2170 s \$0-Tapiir/Tap-5/input-0;
#X connect 490 1 496 0;
#X connect 496 0 497 0;
#X msg 4540 2190 1;
#X obj 4540 2210 s \$0-Tapiir/Tap-5/input-1;
#X connect 170 0 498 0;
#X connect 498 0 499 0;
#X obj 4852 2190 r \$0-Tapiir/Tap-5/input-1;
#X msg 4852 2210 /Tapiir/Tap-5/input-1 \$1;
#X connect 500 0 501 0;
#X connect 501 0 171 0;
#X obj 5164 2190 route /Tapiir/Tap-5/input-1;
#X obj 5164 2210 s \$0-Tapiir/Tap-5/input-1;
#X connect 496 1 502 0;
#X connect 502 0 503 0;
#X msg 4540 2230 0;
#X obj 4540 2250 s \$0-Tapiir/Tap-5/tap-0;
#X connect 170 0 504 0;
#X connect 504 0 505 0;
#X obj 4852 2230 r \$0-Tapiir/Tap-5/tap-0;
#X msg 4852 2250 /Tapiir/Tap-5/tap-0 \$1;
#X connect 506 0 507 0;
#X connect 507 0 171 0;
#X obj 5164 2230 route /Tapiir/Tap-5/tap-0;
#X obj 5164 2250 s \$0-Tapiir/Tap-5/tap-0;
#X connect 502 1 508 0;
#X connect 508 0 509 0;
#X msg 4540 2270 0;
#X obj 4540 2290 s \$0-Tapiir/Tap-5/tap-1;
#X connect 170 0 510 0;
#X connect 510 0 511 0;
#X obj 4852 2270 r \$0-Tapiir/Tap-5/tap-1;
#X msg 4852 2290 /Tapiir/Tap-5/tap-1 \$1;
#X connect 512 0 513 0;
#X connect 513 0 171 0;
#X obj 5164 2270 route /Tapiir/Tap-5/tap-1;
#X obj 5164 2290 s \$0-Tapiir/Tap-5/tap-1;
#X connect 508 1 514 0;
#X connect 514 0 515 0;
#X msg 4540 2310 0;
#X obj 4540 2330 s \$0-Tapiir/Tap-5/tap-2;
#X connect 170 0 516 0;
#X connect 516 0 517 0;
#X obj 4852 2310 r \$0-Tapiir/Tap-5/tap-2;
#X msg 4852 2330 /Tapiir/Tap-5/tap-2 \$1;
#X connect 518 0 519 0;
#X connect 519 0 171 0;
#X obj 5164 2310 route /Tapiir/Tap-5/tap-2;
#X obj 5164 2330 s \$0-Tapiir/Tap-5/tap-2;
#X connect 514 1 520 0;
#X connect 520 0 521 0;
#X msg 4540 2350 0;
#X obj 4540 2370 s \$0-Tapiir/Tap-5/tap-3;
#X connect 170 0 522 0;
#X connect 522 0 523 0;
#X obj 4852 2350 r \$0-Tapiir/Tap-5/tap-3;
#X msg 4852 2370 /Tapiir/Tap-5/tap-3 \$1;
#X connect 524 0 525 0;
#X connect 525 0 171 0;
#X obj 5164 2350 route /Tapiir/Tap-5/tap-3;
#X obj 5164 2370 s \$0-Tapiir/Tap-5/tap-3;
#X connect 520 1 526 0;
#X connect 526 0 527 0;
#X msg 4540 2390 0;
#X obj 4540 2410 s \$0-Tapiir/Tap-5/tap-4;
#X connect 170 0 528 0;
#X connect 528 0 529 0;
#X obj 4852 2390 r \$0-Tapiir/Tap-5/tap-4;
#X msg 4852 2410 /Tapiir/Tap-5/tap-4 \$1;
#X connect 530 0 531 0;
#X connect 531 0 171 0;
#X obj 5164 2390 route /Tapiir/Tap-5/tap-4;
#X obj 5164 2410 s \$0-Tapiir/Tap-5/tap-4;
#X connect 526 1 532 0;
#X connect 532 0 533 0;
#X msg 4540 2430 0;
#X obj 4540 2450 s \$0-Tapiir/Tap-5/tap-5;
#X connect 170 0 534 0;
#X connect 534 0 535 0;
#X obj 4852 2430 r \$0-Tapiir/Tap-5/tap-5;
#X msg 4852 2450 /Tapiir/Tap-5/tap-5 \$1;
#X connect 536 0 537 0;
#X connect 537 0 171 0;
#X obj 5164 2430 route /Tapiir/Tap-5/tap-5;
#X obj 5164 2450 s \$0-Tapiir/Tap-5/tap-5;
#X connect 532 1 538 0;
#X connect 538 0 539 0;
#X msg 4540 2470 1;
#X obj 4540 2490 s \$0-Tapiir/outputs/output-0/gain;
#X connect 170 0 540 0;
#X connect 540 0 541 0;
#X obj 4852 2470 r \$0-Tapiir/outputs/output-0/gain;
#X msg 4852 2490 /Tapiir/outputs/output-0/gain \$1;
#X connect 542 0 543 0;
#X connect 543 0 171 0;
#X obj 5164 2470 route /Tapiir/outputs/output-0/gain;
#X obj 5164 2490 s \$0-Tapiir/outputs/output-0/gain;
#X connect 538 1 544 0;
#X connect 544 0 545 0;
#X msg 4540 2510 1;
#X obj 4540 2530 s \$0-Tapiir/outputs/output-0/input-0;
#X connect 170 0 546 0;
#X connect 546 0 547 0;
#X obj 4852 2510 r \$0-Tapiir/outputs/output-0/input-0;
#X msg 4852 2530 /Tapiir/outputs/output-0/input-0 \$1;
#X connect 548 0 549 0;
#X connect 549 0 171 0;
#X obj 5164 2510 route /Tapiir/outputs/output-0/input-0;
#X obj 5164 2530 s \$0-Tapiir/outputs/output-0/input-0;
#X connect 544 1 550 0;
#X connect 550 0 551 0;
#X msg 4540 2550 1;
#X obj 4540 2570 s \$0-Tapiir/outputs/output-0/input-1;
#X connect 170 0 552 0;
#X connect 552 0 553 0;
#X obj 4852 2550 r \$0-Tapiir/outputs/output-0/input-1;
#X msg 4852 2570 /Tapiir/outputs/output-0/input-1 \$1;
#X connect 554 0 555 0;
#X connect 555 0 171 0;
#X obj 5164 2550 route /Tapiir/outputs/output-0/input-1;
#X obj 5164 2570 s \$0-Tapiir/outputs/output-0/input-1;
#X connect 550 1 556 0;
#X connect 556 0 557 0;
#X msg 4540 2590 0;
#X obj 4540 2610 s \$0-Tapiir/outputs/output-0/tap-0;
#X connect 170 0 558 0;
#X connect 558 0 559 0;
#X obj 4852 2590 r \$0-Tapiir/outputs/output-0/tap-0;
#X msg 4852 2610 /Tapiir/outputs/output-0/tap-0 \$1;
#X connect 560 0 561 0;
#X connect 561 0 171 0;
#X obj 5164 2590 route /Tapiir/outputs/output-0/tap-0;
#X obj 5164 2610 s \$0-Tapiir/outputs/output-0/tap-0;
#X connect 556 1 562 0;
#X connect 562 0 563 0;
#X msg 4540 2630 0;
#X obj 4540 2650 s \$0-Tapiir/outputs/output-0/tap-1;
#X connect 170 0 564 0;
#X connect 564 0 565 0;
#X obj 4852 2630 r \$0-Tapiir/outputs/output-0/tap-1;
#X msg 4852 2650 /Tapiir/outputs/output-0/tap-1 \$1;
#X connect 566 0 567 0;
#X connect 567 0 171 0;
#X obj 5164 2630 route /Tapiir/outputs/output-0/tap-1;
#X obj 5164 2650 s \$0-Tapiir/outputs/output-0/tap-1;
#X connect 562 1 568 0;
#X connect 568 0 569 0;
#X msg 4540 2670 0;
#X obj 4540 2690 s \$0-Tapiir/outputs/output-0/tap-2;
#X connect 170 0 570 0;
#X connect 570 0 571 0;
#X obj 4852 2670 r \$0-Tapiir/outputs/output-0/tap-2;
#X msg 4852 2690 /Tapiir/outputs/output-0/tap-2 \$1;
#X connect 572 0 573 0;
#X connect 573 0 171 0;
#X obj 5164 2670 route /Tapiir/outputs/output-0/tap-2;
#X obj 5164 2690 s \$0-Tapiir/outputs/output-0/tap-2;
#X connect 568 1 574 0;
#X connect 574 0 575 0;
#X msg 4540 2710 0;
#X obj 4540 2730 s \$0-Tapiir/outputs/output-0/tap-3;
#X connect 170 0 576 0;
#X connect 576 0 577 0;
#X obj 4852 2710 r \$0-Tapiir/outputs/output-0/tap-3;
#X msg 4852 2730 /Tapiir/outputs/output-0/tap-3 \$1;
#X connect 578 0 579 0;
#X connect 579 0 171 0;
#X obj 5164 2710 route /Tapiir/outputs/output-0/tap-3;
#X obj 5164 2730 s \$0-Tapiir/outputs/output-0/tap-3;
#X connect 574 1 580 0;
#X connect 580 0 581 0;
#X msg 4540 2750 0;
#X obj 4540 2770 s \$0-Tapiir/outputs/output-0/tap-4;
#X connect 170 0 582 0;
#X connect 582 0 583 0;
#X obj 4852 2750 r \$0-Tapiir/outputs/output-0/tap-4;
#X msg 4852 2770 /Tapiir/outputs/output-0/tap-4 \$1;
#X connect 584 0 585 0;
#X connect 585 0 171 0;
#X obj 5164 2750 route /Tapiir/outputs/output-0/tap-4;
#X obj 5164 2770 s \$0-Tapiir/outputs/output-0/tap-4;
#X connect 580 1 586 0;
#X connect 586 0 587 0;
#X msg 4540 2790 0;
#X obj 4540 2810 s \$0-Tapiir/outputs/output-0/tap-5;
#X connect 170 0 588 0;
#X connect 588 0 589 0;
#X obj 4852 2790 r \$0-Tapiir/outputs/output-0/tap-5;
#X msg 4852 2810 /Tapiir/outputs/output-0/tap-5 \$1;
#X connect 590 0 591 0;
#X connect 591 0 171 0;
#X obj 5164 2790 route /Tapiir/outputs/output-0/tap-5;
#X obj 5164 2810 s \$0-Tapiir/outputs/output-0/tap-5;
#X connect 586 1 592 0;
#X connect 592 0 593 0;
#X msg 4540 2830 1;
#X obj 4540 2850 s \$0-Tapiir/outputs/output-1/gain;
#X connect 170 0 594 0;
#X connect 594 0 595 0;
#X obj 4852 2830 r \$0-Tapiir/outputs/output-1/gain;
#X msg 4852 2850 /Tapiir/outputs/output-1/gain \$1;
#X connect 596 0 597 0;
#X connect 597 0 171 0;
#X obj 5164 2830 route /Tapiir/outputs/output-1/gain;
#X obj 5164 2850 s \$0-Tapiir/outputs/output-1/gain;
#X connect 592 1 598 0;
#X connect 598 0 599 0;
#X msg 4540 2870 1;
#X obj 4540 2890 s \$0-Tapiir/outputs/output-1/input-0;
#X connect 170 0 600 0;
#X connect 600 0 601 0;
#X obj 4852 2870 r \$0-Tapiir/outputs/output-1/input-0;
#X msg 4852 2890 /Tapiir/outputs/output-1/input-0 \$1;
#X connect 602 0 603 0;
#X connect 603 0 171 0;
#X obj 5164 2870 route /Tapiir/outputs/output-1/input-0;
#X obj 5164 2890 s \$0-Tapiir/outputs/output-1/input-0;
#X connect 598 1 604 0;
#X connect 604 0 605 0;
#X msg 4540 2910 1;
#X obj 4540 2930 s \$0-Tapiir/outputs/output-1/input-1;
#X connect 170 0 606 0;
#X connect 606 0 607 0;
#X obj 4852 2910 r \$0-Tapiir/outputs/output-1/input-1;
#X msg 4852 2930 /Tapiir/outputs/output-1/input-1 \$1;
#X connect 608 0 609 0;
#X connect 609 0 171 0;
#X obj 5164 2910 route /Tapiir/outputs/output-1/input-1;
#X obj 5164 2930 s \$0-Tapiir/outputs/output-1/input-1;
#X connect 604 1 610 0;
#X connect 610 0 611 0;
#X msg 4540 2950 0;
#X obj 4540 2970 s \$0-Tapiir/outputs/output-1/tap-0;
#X connect 170 0 612 0;
#X connect 612 0 613 0;
#X obj 4852 2950 r \$0-Tapiir/outputs/output-1/tap-0;
#X msg 4852 2970 /Tapiir/outputs/output-1/tap-0 \$1;
#X connect 614 0 615 0;
#X connect 615 0 171 0;
#X obj 5164 2950 route /Tapiir/outputs/output-1/tap-0;
#X obj 5164 2970 s \$0-Tapiir/outputs/output-1/tap-0;
#X connect 610 1 616 0;
#X connect 616 0 617 0;
#X msg 4540 2990 0;
#X obj 4540 3010 s \$0-Tapiir/outputs/output-1/tap-1;
#X connect 170 0 618 0;
#X connect 618 0 619 0;
#X obj 4852 2990 r \$0-Tapiir/outputs/output-1/tap-1;
#X msg 4852 3010 /Tapiir/outputs/output-1/tap-1 \$1;
#X connect 620 0 621 0;
#X connect 621 0 171 0;
#X obj 5164 2990 route /Tapiir/outputs/output-1/tap-1;
#X obj 5164 3010 s \$0-Tapiir/outputs/output-1/tap-1;
#X connect 616 1 622 0;
#X connect 622 0 623 0;
#X msg 4540 3030 0;
#X obj 4540 3050 s \$0-Tapiir/outputs/output-1/tap-2;
#X connect 170 0 624 0;
#X connect 624 0 625 0;
#X obj 4852 3030 r \$0-Tapiir/outputs/output-1/tap-2;
#X msg 4852 3050 /Tapiir/outputs/output-1/tap-2 \$1;
#X connect 626 0 627 0;
#X connect 627 0 171 0;
#X obj 5164 3030 route /Tapiir/outputs/output-1/tap-2;
#X obj 5164 3050 s \$0-Tapiir/outputs/output-1/tap-2;
#X connect 622 1 628 0;
#X connect 628 0 629 0;
#X msg 4540 3070 0;
#X obj 4540 3090 s \$0-Tapiir/outputs/output-1/tap-3;
#X connect 170 0 630 0;
#X connect 630 0 631 0;
#X obj 4852 3070 r \$0-Tapiir/outputs/output-1/tap-3;
#X msg 4852 3090 /Tapiir/outputs/output-1/tap-3 \$1;
#X connect 632 0 633 0;
#X connect 633 0 171 0;
#X obj 5164 3070 route /Tapiir/outputs/output-1/tap-3;
#X obj 5164 3090 s \$0-Tapiir/outputs/output-1/tap-3;
#X connect 628 1 634 0;
#X connect 634 0 635 0;
#X msg 4540 3110 0;
#X obj 4540 3130 s \$0-Tapiir/outputs/output-1/tap-4;
#X connect 170 0 636 0;
#X connect 636 0 637 0;
#X obj 4852 3110 r \$0-Tapiir/outputs/output-1/tap-4;
#X msg 4852 3130 /Tapiir/outputs/output-1/tap-4 \$1;
#X connect 638 0 639 0;
#X connect 639 0 171 0;
#X obj 5164 3110 route /Tapiir/outputs/output-1/tap-4;
#X obj 5164 3130 s \$0-Tapiir/outputs/output-1/tap-4;
#X connect 634 1 640 0;
#X connect 640 0 641 0;
#X msg 4540 3150 0;
#X obj 4540 3170 s \$0-Tapiir/outputs/output-1/tap-5;
#X connect 170 0 642 0;
#X connect 642 0 643 0;
#X obj 4852 3150 r \$0-Tapiir/outputs/output-1/tap-5;
#X msg 4852 3170 /Tapiir/outputs/output-1/tap-5 \$1;
#X connect 644 0 645 0;
#X connect 645 0 171 0;
#X obj 5164 3150 route /Tapiir/outputs/output-1/tap-5;
#X obj 5164 3170 s \$0-Tapiir/outputs/output-1/tap-5;
#X connect 640 1 646 0;
#X connect 646 0 647 0;
#X coords 0 -1 1 1 4510 560 1 0 0;
#X text 0 580 Generated Mon Sep 22 11:25:59 2014 by faust2pd v2.9. See http://faust.grame.fr and http://purelang.bitbucket.org.;
