#N canvas 0 0 450 300 10;
#X obj 10 270 inlet;
#X obj 130 270 r \$0-read;
#X obj 130 300 faust-control \$0;
#X obj 130 330 s \$0-write;
#X obj 10 330 r \$0-in;
#X obj 10 360 tester~;
#X obj 10 390 s \$0-out;
#X obj 70 420 outlet~;
#X obj 130 420 outlet~;
#X obj 190 420 outlet~;
#X obj 250 420 outlet~;
#X obj 310 420 outlet~;
#X obj 370 420 outlet~;
#X obj 430 420 outlet~;
#X obj 490 420 outlet~;
#X obj 10 420 outlet;
#X connect 0 0 2 0;
#X connect 1 0 2 0;
#X connect 2 0 3 0;
#X connect 5 0 6 0;
#X connect 0 0 15 0;
#X connect 4 0 5 0;
#X connect 5 1 7 0;
#X connect 5 2 8 0;
#X connect 5 3 9 0;
#X connect 5 4 10 0;
#X connect 5 5 11 0;
#X connect 5 6 12 0;
#X connect 5 7 13 0;
#X connect 5 8 14 0;
#X obj 10 30 hsl 128 15 0 24000 0 0 \$0-Audio-Tester/1-freq \$0-Audio-Tester/1-freq 1-freq -2 -6 0 10 -262144 -1 -1 0 1;
#X obj 160 30 nbx 5 14 0 24000 0 0 \$0-Audio-Tester/1-freq \$0-Audio-Tester/1-freq empty 0 -6 0 10 -262144 -1 -1 256;
#X obj 10 60 hsl 128 15 -96 0 0 0 \$0-Audio-Tester/2-volume \$0-Audio-Tester/2-volume 2-volume -2 -6 0 10 -262144 -1 -1 0 1;
#X obj 160 60 nbx 5 14 -96 0 0 0 \$0-Audio-Tester/2-volume \$0-Audio-Tester/2-volume empty 0 -6 0 10 -262144 -1 -1 256;
#X obj 10 90 hradio 15 1 0 9 \$0-Audio-Tester/3-destination \$0-Audio-Tester/3-destination 3-destination 0 -6 0 10 -262144 -1 -1 0;
#X obj 10 120 tgl 15 0 \$0-Audio-Tester/pink-noise \$0-Audio-Tester/pink-noise pink-noise 0 -6 0 10 -262144 -1 -1 0 1;
#X obj 10 150 tgl 15 0 \$0-Audio-Tester/sine-wave \$0-Audio-Tester/sine-wave sine-wave 0 -6 0 10 -262144 -1 -1 0 1;
#X obj 10 180 tgl 15 0 \$0-Audio-Tester/white-noise \$0-Audio-Tester/white-noise white-noise 0 -6 0 10 -262144 -1 -1 0 1;
#X obj 197 3 bng 15 250 50 1 \$0-init \$0-ignore empty 0 -6 0 10 -262144 -1 -1;
#X obj 217 3 tgl 15 1 \$0-active \$0-active empty 0 -6 0 10 -262144 -1 -1 1 1;
#X obj 450 10 r \$0-init;
#X obj 722 10 s \$0-in;
#X obj 858 10 s \$0-read;
#X obj 994 10 r \$0-write;
#X msg 450 30 1;
#X obj 450 50 s \$0-active;
#X connect 30 0 31 0;
#X obj 722 30 r \$0-active;
#X msg 722 50 active \$1;
#X connect 32 0 33 0;
#X connect 33 0 27 0;
#X obj 994 30 route active;
#X obj 994 50 s \$0-active;
#X connect 29 0 34 0;
#X connect 34 0 35 0;
#X msg 450 70 1000;
#X obj 450 90 s \$0-Audio-Tester/1-freq;
#X connect 26 0 36 0;
#X connect 36 0 37 0;
#X obj 722 70 r \$0-Audio-Tester/1-freq;
#X msg 722 90 /Audio-Tester/1-freq \$1;
#X connect 38 0 39 0;
#X connect 39 0 27 0;
#X obj 994 70 route /Audio-Tester/1-freq;
#X obj 994 90 s \$0-Audio-Tester/1-freq;
#X connect 34 1 40 0;
#X connect 40 0 41 0;
#X msg 450 110 -96;
#X obj 450 130 s \$0-Audio-Tester/2-volume;
#X connect 26 0 42 0;
#X connect 42 0 43 0;
#X obj 722 110 r \$0-Audio-Tester/2-volume;
#X msg 722 130 /Audio-Tester/2-volume \$1;
#X connect 44 0 45 0;
#X connect 45 0 27 0;
#X obj 994 110 route /Audio-Tester/2-volume;
#X obj 994 130 s \$0-Audio-Tester/2-volume;
#X connect 40 1 46 0;
#X connect 46 0 47 0;
#X msg 450 150 0;
#X obj 450 170 s \$0-Audio-Tester/3-destination;
#X connect 26 0 48 0;
#X connect 48 0 49 0;
#X obj 722 150 r \$0-Audio-Tester/3-destination;
#X msg 722 170 /Audio-Tester/3-destination \$1;
#X connect 50 0 51 0;
#X connect 51 0 27 0;
#X obj 994 150 route /Audio-Tester/3-destination;
#X obj 994 170 s \$0-Audio-Tester/3-destination;
#X connect 46 1 52 0;
#X connect 52 0 53 0;
#X msg 450 190 0;
#X obj 450 210 s \$0-Audio-Tester/pink-noise;
#X connect 26 0 54 0;
#X connect 54 0 55 0;
#X obj 722 190 r \$0-Audio-Tester/pink-noise;
#X msg 722 210 /Audio-Tester/pink-noise \$1;
#X connect 56 0 57 0;
#X connect 57 0 27 0;
#X obj 994 190 route /Audio-Tester/pink-noise;
#X obj 994 210 s \$0-Audio-Tester/pink-noise;
#X connect 52 1 58 0;
#X connect 58 0 59 0;
#X msg 450 230 0;
#X obj 450 250 s \$0-Audio-Tester/sine-wave;
#X connect 26 0 60 0;
#X connect 60 0 61 0;
#X obj 722 230 r \$0-Audio-Tester/sine-wave;
#X msg 722 250 /Audio-Tester/sine-wave \$1;
#X connect 62 0 63 0;
#X connect 63 0 27 0;
#X obj 994 230 route /Audio-Tester/sine-wave;
#X obj 994 250 s \$0-Audio-Tester/sine-wave;
#X connect 58 1 64 0;
#X connect 64 0 65 0;
#X msg 450 270 0;
#X obj 450 290 s \$0-Audio-Tester/white-noise;
#X connect 26 0 66 0;
#X connect 66 0 67 0;
#X obj 722 270 r \$0-Audio-Tester/white-noise;
#X msg 722 290 /Audio-Tester/white-noise \$1;
#X connect 68 0 69 0;
#X connect 69 0 27 0;
#X obj 994 270 route /Audio-Tester/white-noise;
#X obj 994 290 s \$0-Audio-Tester/white-noise;
#X connect 64 1 70 0;
#X connect 70 0 71 0;
#X coords 0 -1 1 1 235 200 1 0 0;
#X text 0 220 Generated Mon Sep 22 11:25:59 2014 by faust2pd v2.9. See http://faust.grame.fr and http://purelang.bitbucket.org.;
