#N canvas 0 0 450 300 10;
#X obj 10 510 inlet;
#X obj 130 510 inlet;
#X obj 190 510 r \$0-read;
#X obj 130 540 r \$0-all;
#X obj 190 540 faust-control \$0;
#X obj 190 570 s \$0-write;
#X obj 130 570 r \$0-in;
#X obj 130 660 s \$0-out;
#X obj 10 600 faust-gate 1;
#X obj 130 600 blowHole~;
#X obj 10 630 faust-gate 2;
#X obj 130 630 blowHole~;
#X obj 130 690 outlet~;
#X obj 190 690 outlet~;
#X obj 10 690 outlet;
#X connect 1 0 4 0;
#X connect 2 0 4 0;
#X connect 4 0 5 0;
#X connect 1 0 14 0;
#X connect 6 0 9 0;
#X connect 9 0 7 0;
#X connect 0 0 8 0;
#X connect 8 0 9 0;
#X connect 3 0 9 0;
#X connect 0 0 10 0;
#X connect 10 0 11 0;
#X connect 3 0 11 0;
#X connect 9 1 12 0;
#X connect 9 2 13 0;
#X connect 11 1 12 0;
#X connect 11 2 13 0;
#X obj 10 30 hsl 128 15 0 2 0 0 \$0-blowHole/Envelopes-and-Vibrato/Envelope-Parameters/Envelope-Attack \$0-blowHole/Envelopes-and-Vibrato/Envelope-Parameters/Envelope-Attack Envelope-Attack -2 -6 0 10 -262144 -1 -1 0 1;
#X obj 160 30 nbx 5 14 0 2 0 0 \$0-blowHole/Envelopes-and-Vibrato/Envelope-Parameters/Envelope-Attack \$0-blowHole/Envelopes-and-Vibrato/Envelope-Parameters/Envelope-Attack empty 0 -6 0 10 -262144 -1 -1 256;
#X obj 10 60 hsl 128 15 0 2 0 0 \$0-blowHole/Envelopes-and-Vibrato/Envelope-Parameters/Envelope-Release \$0-blowHole/Envelopes-and-Vibrato/Envelope-Parameters/Envelope-Release Envelope-Release -2 -6 0 10 -262144 -1 -1 0 1;
#X obj 160 60 nbx 5 14 0 2 0 0 \$0-blowHole/Envelopes-and-Vibrato/Envelope-Parameters/Envelope-Release \$0-blowHole/Envelopes-and-Vibrato/Envelope-Parameters/Envelope-Release empty 0 -6 0 10 -262144 -1 -1 256;
#X obj 235 30 hsl 128 15 0 2 0 0 \$0-blowHole/Envelopes-and-Vibrato/Vibrato-Parameters/Vibrato-Attack \$0-blowHole/Envelopes-and-Vibrato/Vibrato-Parameters/Vibrato-Attack Vibrato-Attack -2 -6 0 10 -262144 -1 -1 0 1;
#X obj 385 30 nbx 5 14 0 2 0 0 \$0-blowHole/Envelopes-and-Vibrato/Vibrato-Parameters/Vibrato-Attack \$0-blowHole/Envelopes-and-Vibrato/Vibrato-Parameters/Vibrato-Attack empty 0 -6 0 10 -262144 -1 -1 256;
#X obj 235 60 hsl 128 15 1 15 0 0 \$0-blowHole/Envelopes-and-Vibrato/Vibrato-Parameters/Vibrato-Freq \$0-blowHole/Envelopes-and-Vibrato/Vibrato-Parameters/Vibrato-Freq Vibrato-Freq -2 -6 0 10 -262144 -1 -1 0 1;
#X obj 385 60 nbx 5 14 1 15 0 0 \$0-blowHole/Envelopes-and-Vibrato/Vibrato-Parameters/Vibrato-Freq \$0-blowHole/Envelopes-and-Vibrato/Vibrato-Parameters/Vibrato-Freq empty 0 -6 0 10 -262144 -1 -1 256;
#X obj 235 90 hsl 128 15 0 1 0 0 \$0-blowHole/Envelopes-and-Vibrato/Vibrato-Parameters/Vibrato-Gain \$0-blowHole/Envelopes-and-Vibrato/Vibrato-Parameters/Vibrato-Gain Vibrato-Gain -2 -6 0 10 -262144 -1 -1 0 1;
#X obj 385 90 nbx 5 14 0 1 0 0 \$0-blowHole/Envelopes-and-Vibrato/Vibrato-Parameters/Vibrato-Gain \$0-blowHole/Envelopes-and-Vibrato/Vibrato-Parameters/Vibrato-Gain empty 0 -6 0 10 -262144 -1 -1 256;
#X obj 235 120 hsl 128 15 0 2 0 0 \$0-blowHole/Envelopes-and-Vibrato/Vibrato-Parameters/Vibrato-Release \$0-blowHole/Envelopes-and-Vibrato/Vibrato-Parameters/Vibrato-Release Vibrato-Release -2 -6 0 10 -262144 -1 -1 0 1;
#X obj 385 120 nbx 5 14 0 2 0 0 \$0-blowHole/Envelopes-and-Vibrato/Vibrato-Parameters/Vibrato-Release \$0-blowHole/Envelopes-and-Vibrato/Vibrato-Parameters/Vibrato-Release empty 0 -6 0 10 -262144 -1 -1 256;
#X obj 10 150 hsl 128 15 20 1000 0 0 \$0-blowHole/Physical-and-Nonlinearity/Nonlinear-Filter-Parameters/Modulation-Frequency \$0-blowHole/Physical-and-Nonlinearity/Nonlinear-Filter-Parameters/Modulation-Frequency Modulation-Frequency -2 -6 0 10 -262144 -1 -1 0 1;
#X obj 160 150 nbx 5 14 20 1000 0 0 \$0-blowHole/Physical-and-Nonlinearity/Nonlinear-Filter-Parameters/Modulation-Frequency \$0-blowHole/Physical-and-Nonlinearity/Nonlinear-Filter-Parameters/Modulation-Frequency empty 0 -6 0 10 -262144 -1 -1 256;
#X obj 10 180 nbx 5 14 0 4 0 0 \$0-blowHole/Physical-and-Nonlinearity/Nonlinear-Filter-Parameters/Modulation-Type \$0-blowHole/Physical-and-Nonlinearity/Nonlinear-Filter-Parameters/Modulation-Type Modulation-Type 0 -6 0 10 -262144 -1 -1 256;
#X obj 10 210 hsl 128 15 0 1 0 0 \$0-blowHole/Physical-and-Nonlinearity/Nonlinear-Filter-Parameters/Nonlinearity \$0-blowHole/Physical-and-Nonlinearity/Nonlinear-Filter-Parameters/Nonlinearity Nonlinearity -2 -6 0 10 -262144 -1 -1 0 1;
#X obj 160 210 nbx 5 14 0 1 0 0 \$0-blowHole/Physical-and-Nonlinearity/Nonlinear-Filter-Parameters/Nonlinearity \$0-blowHole/Physical-and-Nonlinearity/Nonlinear-Filter-Parameters/Nonlinearity empty 0 -6 0 10 -262144 -1 -1 256;
#X obj 10 240 hsl 128 15 0 2 0 0 \$0-blowHole/Physical-and-Nonlinearity/Nonlinear-Filter-Parameters/Nonlinearity-Attack \$0-blowHole/Physical-and-Nonlinearity/Nonlinear-Filter-Parameters/Nonlinearity-Attack Nonlinearity-Attack -2 -6 0 10 -262144 -1 -1 0 1;
#X obj 160 240 nbx 5 14 0 2 0 0 \$0-blowHole/Physical-and-Nonlinearity/Nonlinear-Filter-Parameters/Nonlinearity-Attack \$0-blowHole/Physical-and-Nonlinearity/Nonlinear-Filter-Parameters/Nonlinearity-Attack empty 0 -6 0 10 -262144 -1 -1 256;
#X obj 235 150 hsl 128 15 0 1 0 0 \$0-blowHole/Physical-and-Nonlinearity/Physical-Parameters/Noise-Gain \$0-blowHole/Physical-and-Nonlinearity/Physical-Parameters/Noise-Gain Noise-Gain -2 -6 0 10 -262144 -1 -1 0 1;
#X obj 385 150 nbx 5 14 0 1 0 0 \$0-blowHole/Physical-and-Nonlinearity/Physical-Parameters/Noise-Gain \$0-blowHole/Physical-and-Nonlinearity/Physical-Parameters/Noise-Gain empty 0 -6 0 10 -262144 -1 -1 256;
#X obj 235 180 hsl 128 15 0 1 0 0 \$0-blowHole/Physical-and-Nonlinearity/Physical-Parameters/Pressure \$0-blowHole/Physical-and-Nonlinearity/Physical-Parameters/Pressure Pressure -2 -6 0 10 -262144 -1 -1 0 1;
#X obj 385 180 nbx 5 14 0 1 0 0 \$0-blowHole/Physical-and-Nonlinearity/Physical-Parameters/Pressure \$0-blowHole/Physical-and-Nonlinearity/Physical-Parameters/Pressure empty 0 -6 0 10 -262144 -1 -1 256;
#X obj 235 210 hsl 128 15 0 1 0 0 \$0-blowHole/Physical-and-Nonlinearity/Physical-Parameters/Reed-Stiffness \$0-blowHole/Physical-and-Nonlinearity/Physical-Parameters/Reed-Stiffness Reed-Stiffness -2 -6 0 10 -262144 -1 -1 0 1;
#X obj 385 210 nbx 5 14 0 1 0 0 \$0-blowHole/Physical-and-Nonlinearity/Physical-Parameters/Reed-Stiffness \$0-blowHole/Physical-and-Nonlinearity/Physical-Parameters/Reed-Stiffness empty 0 -6 0 10 -262144 -1 -1 256;
#X obj 235 240 hsl 128 15 0 1 0 0 \$0-blowHole/Physical-and-Nonlinearity/Physical-Parameters/Tone-Hole-Openness \$0-blowHole/Physical-and-Nonlinearity/Physical-Parameters/Tone-Hole-Openness Tone-Hole-Openness -2 -6 0 10 -262144 -1 -1 0 1;
#X obj 385 240 nbx 5 14 0 1 0 0 \$0-blowHole/Physical-and-Nonlinearity/Physical-Parameters/Tone-Hole-Openness \$0-blowHole/Physical-and-Nonlinearity/Physical-Parameters/Tone-Hole-Openness empty 0 -6 0 10 -262144 -1 -1 256;
#X obj 235 270 hsl 128 15 0 1 0 0 \$0-blowHole/Physical-and-Nonlinearity/Physical-Parameters/Vent-Openness \$0-blowHole/Physical-and-Nonlinearity/Physical-Parameters/Vent-Openness Vent-Openness -2 -6 0 10 -262144 -1 -1 0 1;
#X obj 385 270 nbx 5 14 0 1 0 0 \$0-blowHole/Physical-and-Nonlinearity/Physical-Parameters/Vent-Openness \$0-blowHole/Physical-and-Nonlinearity/Physical-Parameters/Vent-Openness empty 0 -6 0 10 -262144 -1 -1 256;
#X obj 10 300 hsl 128 15 0 1 0 0 \$0-blowHole/Reverb/Freeverb/Damp \$0-blowHole/Reverb/Freeverb/Damp Damp -2 -6 0 10 -262144 -1 -1 0 1;
#X obj 160 300 nbx 5 14 0 1 0 0 \$0-blowHole/Reverb/Freeverb/Damp \$0-blowHole/Reverb/Freeverb/Damp empty 0 -6 0 10 -262144 -1 -1 256;
#X obj 10 330 hsl 128 15 0 1 0 0 \$0-blowHole/Reverb/Freeverb/RoomSize \$0-blowHole/Reverb/Freeverb/RoomSize RoomSize -2 -6 0 10 -262144 -1 -1 0 1;
#X obj 160 330 nbx 5 14 0 1 0 0 \$0-blowHole/Reverb/Freeverb/RoomSize \$0-blowHole/Reverb/Freeverb/RoomSize empty 0 -6 0 10 -262144 -1 -1 256;
#X obj 10 360 hsl 128 15 0 1 0 0 \$0-blowHole/Reverb/Freeverb/Wet \$0-blowHole/Reverb/Freeverb/Wet Wet -2 -6 0 10 -262144 -1 -1 0 1;
#X obj 160 360 nbx 5 14 0 1 0 0 \$0-blowHole/Reverb/Freeverb/Wet \$0-blowHole/Reverb/Freeverb/Wet empty 0 -6 0 10 -262144 -1 -1 256;
#X obj 10 390 hsl 128 15 0 1 0 0 \$0-blowHole/Spat/pan-angle \$0-blowHole/Spat/pan-angle pan-angle -2 -6 0 10 -262144 -1 -1 0 1;
#X obj 160 390 nbx 5 14 0 1 0 0 \$0-blowHole/Spat/pan-angle \$0-blowHole/Spat/pan-angle empty 0 -6 0 10 -262144 -1 -1 256;
#X obj 10 420 hsl 128 15 0 1 0 0 \$0-blowHole/Spat/spatial-width \$0-blowHole/Spat/spatial-width spatial-width -2 -6 0 10 -262144 -1 -1 0 1;
#X obj 160 420 nbx 5 14 0 1 0 0 \$0-blowHole/Spat/spatial-width \$0-blowHole/Spat/spatial-width empty 0 -6 0 10 -262144 -1 -1 256;
#X obj 422 3 bng 15 250 50 1 \$0-init \$0-ignore empty 0 -6 0 10 -262144 -1 -1;
#X obj 442 3 tgl 15 1 \$0-active \$0-active empty 0 -6 0 10 -262144 -1 -1 1 1;
#X obj 490 10 r \$0-init;
#X obj 1218 10 s \$0-all;
#X obj 1582 10 s \$0-read;
#X obj 1946 10 r \$0-write;
#X msg 490 30 1;
#X obj 490 50 s \$0-active;
#X connect 60 0 61 0;
#X obj 1218 30 r \$0-active;
#X msg 1218 50 active \$1;
#X connect 62 0 63 0;
#X connect 63 0 57 0;
#X obj 1946 30 route active;
#X obj 1946 50 s \$0-active;
#X connect 59 0 64 0;
#X connect 64 0 65 0;
#X msg 490 70 0.01;
#X obj 490 90 s \$0-blowHole/Envelopes-and-Vibrato/Envelope-Parameters/Envelope-Attack;
#X connect 56 0 66 0;
#X connect 66 0 67 0;
#X obj 1218 70 r \$0-blowHole/Envelopes-and-Vibrato/Envelope-Parameters/Envelope-Attack;
#X msg 1218 90 /blowHole/Envelopes-and-Vibrato/Envelope-Parameters/Envelope-Attack \$1;
#X connect 68 0 69 0;
#X connect 69 0 57 0;
#X obj 1946 70 route /blowHole/Envelopes-and-Vibrato/Envelope-Parameters/Envelope-Attack;
#X obj 1946 90 s \$0-blowHole/Envelopes-and-Vibrato/Envelope-Parameters/Envelope-Attack;
#X connect 64 1 70 0;
#X connect 70 0 71 0;
#X msg 490 110 0.1;
#X obj 490 130 s \$0-blowHole/Envelopes-and-Vibrato/Envelope-Parameters/Envelope-Release;
#X connect 56 0 72 0;
#X connect 72 0 73 0;
#X obj 1218 110 r \$0-blowHole/Envelopes-and-Vibrato/Envelope-Parameters/Envelope-Release;
#X msg 1218 130 /blowHole/Envelopes-and-Vibrato/Envelope-Parameters/Envelope-Release \$1;
#X connect 74 0 75 0;
#X connect 75 0 57 0;
#X obj 1946 110 route /blowHole/Envelopes-and-Vibrato/Envelope-Parameters/Envelope-Release;
#X obj 1946 130 s \$0-blowHole/Envelopes-and-Vibrato/Envelope-Parameters/Envelope-Release;
#X connect 70 1 76 0;
#X connect 76 0 77 0;
#X msg 490 150 0.5;
#X obj 490 170 s \$0-blowHole/Envelopes-and-Vibrato/Vibrato-Parameters/Vibrato-Attack;
#X connect 56 0 78 0;
#X connect 78 0 79 0;
#X obj 1218 150 r \$0-blowHole/Envelopes-and-Vibrato/Vibrato-Parameters/Vibrato-Attack;
#X msg 1218 170 /blowHole/Envelopes-and-Vibrato/Vibrato-Parameters/Vibrato-Attack \$1;
#X connect 80 0 81 0;
#X connect 81 0 57 0;
#X obj 1946 150 route /blowHole/Envelopes-and-Vibrato/Vibrato-Parameters/Vibrato-Attack;
#X obj 1946 170 s \$0-blowHole/Envelopes-and-Vibrato/Vibrato-Parameters/Vibrato-Attack;
#X connect 76 1 82 0;
#X connect 82 0 83 0;
#X msg 490 190 5;
#X obj 490 210 s \$0-blowHole/Envelopes-and-Vibrato/Vibrato-Parameters/Vibrato-Freq;
#X connect 56 0 84 0;
#X connect 84 0 85 0;
#X obj 1218 190 r \$0-blowHole/Envelopes-and-Vibrato/Vibrato-Parameters/Vibrato-Freq;
#X msg 1218 210 /blowHole/Envelopes-and-Vibrato/Vibrato-Parameters/Vibrato-Freq \$1;
#X connect 86 0 87 0;
#X connect 87 0 57 0;
#X obj 1946 190 route /blowHole/Envelopes-and-Vibrato/Vibrato-Parameters/Vibrato-Freq;
#X obj 1946 210 s \$0-blowHole/Envelopes-and-Vibrato/Vibrato-Parameters/Vibrato-Freq;
#X connect 82 1 88 0;
#X connect 88 0 89 0;
#X msg 490 230 0.1;
#X obj 490 250 s \$0-blowHole/Envelopes-and-Vibrato/Vibrato-Parameters/Vibrato-Gain;
#X connect 56 0 90 0;
#X connect 90 0 91 0;
#X obj 1218 230 r \$0-blowHole/Envelopes-and-Vibrato/Vibrato-Parameters/Vibrato-Gain;
#X msg 1218 250 /blowHole/Envelopes-and-Vibrato/Vibrato-Parameters/Vibrato-Gain \$1;
#X connect 92 0 93 0;
#X connect 93 0 57 0;
#X obj 1946 230 route /blowHole/Envelopes-and-Vibrato/Vibrato-Parameters/Vibrato-Gain;
#X obj 1946 250 s \$0-blowHole/Envelopes-and-Vibrato/Vibrato-Parameters/Vibrato-Gain;
#X connect 88 1 94 0;
#X connect 94 0 95 0;
#X msg 490 270 0.01;
#X obj 490 290 s \$0-blowHole/Envelopes-and-Vibrato/Vibrato-Parameters/Vibrato-Release;
#X connect 56 0 96 0;
#X connect 96 0 97 0;
#X obj 1218 270 r \$0-blowHole/Envelopes-and-Vibrato/Vibrato-Parameters/Vibrato-Release;
#X msg 1218 290 /blowHole/Envelopes-and-Vibrato/Vibrato-Parameters/Vibrato-Release \$1;
#X connect 98 0 99 0;
#X connect 99 0 57 0;
#X obj 1946 270 route /blowHole/Envelopes-and-Vibrato/Vibrato-Parameters/Vibrato-Release;
#X obj 1946 290 s \$0-blowHole/Envelopes-and-Vibrato/Vibrato-Parameters/Vibrato-Release;
#X connect 94 1 100 0;
#X connect 100 0 101 0;
#X msg 490 310 220;
#X obj 490 330 s \$0-blowHole/Physical-and-Nonlinearity/Nonlinear-Filter-Parameters/Modulation-Frequency;
#X connect 56 0 102 0;
#X connect 102 0 103 0;
#X obj 1218 310 r \$0-blowHole/Physical-and-Nonlinearity/Nonlinear-Filter-Parameters/Modulation-Frequency;
#X msg 1218 330 /blowHole/Physical-and-Nonlinearity/Nonlinear-Filter-Parameters/Modulation-Frequency \$1;
#X connect 104 0 105 0;
#X connect 105 0 57 0;
#X obj 1946 310 route /blowHole/Physical-and-Nonlinearity/Nonlinear-Filter-Parameters/Modulation-Frequency;
#X obj 1946 330 s \$0-blowHole/Physical-and-Nonlinearity/Nonlinear-Filter-Parameters/Modulation-Frequency;
#X connect 100 1 106 0;
#X connect 106 0 107 0;
#X msg 490 350 0;
#X obj 490 370 s \$0-blowHole/Physical-and-Nonlinearity/Nonlinear-Filter-Parameters/Modulation-Type;
#X connect 56 0 108 0;
#X connect 108 0 109 0;
#X obj 1218 350 r \$0-blowHole/Physical-and-Nonlinearity/Nonlinear-Filter-Parameters/Modulation-Type;
#X msg 1218 370 /blowHole/Physical-and-Nonlinearity/Nonlinear-Filter-Parameters/Modulation-Type \$1;
#X connect 110 0 111 0;
#X connect 111 0 57 0;
#X obj 1946 350 route /blowHole/Physical-and-Nonlinearity/Nonlinear-Filter-Parameters/Modulation-Type;
#X obj 1946 370 s \$0-blowHole/Physical-and-Nonlinearity/Nonlinear-Filter-Parameters/Modulation-Type;
#X connect 106 1 112 0;
#X connect 112 0 113 0;
#X msg 490 390 0;
#X obj 490 410 s \$0-blowHole/Physical-and-Nonlinearity/Nonlinear-Filter-Parameters/Nonlinearity;
#X connect 56 0 114 0;
#X connect 114 0 115 0;
#X obj 1218 390 r \$0-blowHole/Physical-and-Nonlinearity/Nonlinear-Filter-Parameters/Nonlinearity;
#X msg 1218 410 /blowHole/Physical-and-Nonlinearity/Nonlinear-Filter-Parameters/Nonlinearity \$1;
#X connect 116 0 117 0;
#X connect 117 0 57 0;
#X obj 1946 390 route /blowHole/Physical-and-Nonlinearity/Nonlinear-Filter-Parameters/Nonlinearity;
#X obj 1946 410 s \$0-blowHole/Physical-and-Nonlinearity/Nonlinear-Filter-Parameters/Nonlinearity;
#X connect 112 1 118 0;
#X connect 118 0 119 0;
#X msg 490 430 0.1;
#X obj 490 450 s \$0-blowHole/Physical-and-Nonlinearity/Nonlinear-Filter-Parameters/Nonlinearity-Attack;
#X connect 56 0 120 0;
#X connect 120 0 121 0;
#X obj 1218 430 r \$0-blowHole/Physical-and-Nonlinearity/Nonlinear-Filter-Parameters/Nonlinearity-Attack;
#X msg 1218 450 /blowHole/Physical-and-Nonlinearity/Nonlinear-Filter-Parameters/Nonlinearity-Attack \$1;
#X connect 122 0 123 0;
#X connect 123 0 57 0;
#X obj 1946 430 route /blowHole/Physical-and-Nonlinearity/Nonlinear-Filter-Parameters/Nonlinearity-Attack;
#X obj 1946 450 s \$0-blowHole/Physical-and-Nonlinearity/Nonlinear-Filter-Parameters/Nonlinearity-Attack;
#X connect 118 1 124 0;
#X connect 124 0 125 0;
#X msg 490 470 0;
#X obj 490 490 s \$0-blowHole/Physical-and-Nonlinearity/Physical-Parameters/Noise-Gain;
#X connect 56 0 126 0;
#X connect 126 0 127 0;
#X obj 1218 470 r \$0-blowHole/Physical-and-Nonlinearity/Physical-Parameters/Noise-Gain;
#X msg 1218 490 /blowHole/Physical-and-Nonlinearity/Physical-Parameters/Noise-Gain \$1;
#X connect 128 0 129 0;
#X connect 129 0 57 0;
#X obj 1946 470 route /blowHole/Physical-and-Nonlinearity/Physical-Parameters/Noise-Gain;
#X obj 1946 490 s \$0-blowHole/Physical-and-Nonlinearity/Physical-Parameters/Noise-Gain;
#X connect 124 1 130 0;
#X connect 130 0 131 0;
#X msg 490 510 0.35;
#X obj 490 530 s \$0-blowHole/Physical-and-Nonlinearity/Physical-Parameters/Pressure;
#X connect 56 0 132 0;
#X connect 132 0 133 0;
#X obj 1218 510 r \$0-blowHole/Physical-and-Nonlinearity/Physical-Parameters/Pressure;
#X msg 1218 530 /blowHole/Physical-and-Nonlinearity/Physical-Parameters/Pressure \$1;
#X connect 134 0 135 0;
#X connect 135 0 57 0;
#X obj 1946 510 route /blowHole/Physical-and-Nonlinearity/Physical-Parameters/Pressure;
#X obj 1946 530 s \$0-blowHole/Physical-and-Nonlinearity/Physical-Parameters/Pressure;
#X connect 130 1 136 0;
#X connect 136 0 137 0;
#X msg 490 550 0.35;
#X obj 490 570 s \$0-blowHole/Physical-and-Nonlinearity/Physical-Parameters/Reed-Stiffness;
#X connect 56 0 138 0;
#X connect 138 0 139 0;
#X obj 1218 550 r \$0-blowHole/Physical-and-Nonlinearity/Physical-Parameters/Reed-Stiffness;
#X msg 1218 570 /blowHole/Physical-and-Nonlinearity/Physical-Parameters/Reed-Stiffness \$1;
#X connect 140 0 141 0;
#X connect 141 0 57 0;
#X obj 1946 550 route /blowHole/Physical-and-Nonlinearity/Physical-Parameters/Reed-Stiffness;
#X obj 1946 570 s \$0-blowHole/Physical-and-Nonlinearity/Physical-Parameters/Reed-Stiffness;
#X connect 136 1 142 0;
#X connect 142 0 143 0;
#X msg 490 590 0.12;
#X obj 490 610 s \$0-blowHole/Physical-and-Nonlinearity/Physical-Parameters/Tone-Hole-Openness;
#X connect 56 0 144 0;
#X connect 144 0 145 0;
#X obj 1218 590 r \$0-blowHole/Physical-and-Nonlinearity/Physical-Parameters/Tone-Hole-Openness;
#X msg 1218 610 /blowHole/Physical-and-Nonlinearity/Physical-Parameters/Tone-Hole-Openness \$1;
#X connect 146 0 147 0;
#X connect 147 0 57 0;
#X obj 1946 590 route /blowHole/Physical-and-Nonlinearity/Physical-Parameters/Tone-Hole-Openness;
#X obj 1946 610 s \$0-blowHole/Physical-and-Nonlinearity/Physical-Parameters/Tone-Hole-Openness;
#X connect 142 1 148 0;
#X connect 148 0 149 0;
#X msg 490 630 0;
#X obj 490 650 s \$0-blowHole/Physical-and-Nonlinearity/Physical-Parameters/Vent-Openness;
#X connect 56 0 150 0;
#X connect 150 0 151 0;
#X obj 1218 630 r \$0-blowHole/Physical-and-Nonlinearity/Physical-Parameters/Vent-Openness;
#X msg 1218 650 /blowHole/Physical-and-Nonlinearity/Physical-Parameters/Vent-Openness \$1;
#X connect 152 0 153 0;
#X connect 153 0 57 0;
#X obj 1946 630 route /blowHole/Physical-and-Nonlinearity/Physical-Parameters/Vent-Openness;
#X obj 1946 650 s \$0-blowHole/Physical-and-Nonlinearity/Physical-Parameters/Vent-Openness;
#X connect 148 1 154 0;
#X connect 154 0 155 0;
#X msg 490 670 0.72;
#X obj 490 690 s \$0-blowHole/Reverb/Freeverb/Damp;
#X connect 56 0 156 0;
#X connect 156 0 157 0;
#X obj 1218 670 r \$0-blowHole/Reverb/Freeverb/Damp;
#X msg 1218 690 /blowHole/Reverb/Freeverb/Damp \$1;
#X connect 158 0 159 0;
#X connect 159 0 57 0;
#X obj 1946 670 route /blowHole/Reverb/Freeverb/Damp;
#X obj 1946 690 s \$0-blowHole/Reverb/Freeverb/Damp;
#X connect 154 1 160 0;
#X connect 160 0 161 0;
#X msg 490 710 0.54;
#X obj 490 730 s \$0-blowHole/Reverb/Freeverb/RoomSize;
#X connect 56 0 162 0;
#X connect 162 0 163 0;
#X obj 1218 710 r \$0-blowHole/Reverb/Freeverb/RoomSize;
#X msg 1218 730 /blowHole/Reverb/Freeverb/RoomSize \$1;
#X connect 164 0 165 0;
#X connect 165 0 57 0;
#X obj 1946 710 route /blowHole/Reverb/Freeverb/RoomSize;
#X obj 1946 730 s \$0-blowHole/Reverb/Freeverb/RoomSize;
#X connect 160 1 166 0;
#X connect 166 0 167 0;
#X msg 490 750 0.141;
#X obj 490 770 s \$0-blowHole/Reverb/Freeverb/Wet;
#X connect 56 0 168 0;
#X connect 168 0 169 0;
#X obj 1218 750 r \$0-blowHole/Reverb/Freeverb/Wet;
#X msg 1218 770 /blowHole/Reverb/Freeverb/Wet \$1;
#X connect 170 0 171 0;
#X connect 171 0 57 0;
#X obj 1946 750 route /blowHole/Reverb/Freeverb/Wet;
#X obj 1946 770 s \$0-blowHole/Reverb/Freeverb/Wet;
#X connect 166 1 172 0;
#X connect 172 0 173 0;
#X msg 490 790 0.6;
#X obj 490 810 s \$0-blowHole/Spat/pan-angle;
#X connect 56 0 174 0;
#X connect 174 0 175 0;
#X obj 1218 790 r \$0-blowHole/Spat/pan-angle;
#X msg 1218 810 /blowHole/Spat/pan-angle \$1;
#X connect 176 0 177 0;
#X connect 177 0 57 0;
#X obj 1946 790 route /blowHole/Spat/pan-angle;
#X obj 1946 810 s \$0-blowHole/Spat/pan-angle;
#X connect 172 1 178 0;
#X connect 178 0 179 0;
#X msg 490 830 0.5;
#X obj 490 850 s \$0-blowHole/Spat/spatial-width;
#X connect 56 0 180 0;
#X connect 180 0 181 0;
#X obj 1218 830 r \$0-blowHole/Spat/spatial-width;
#X msg 1218 850 /blowHole/Spat/spatial-width \$1;
#X connect 182 0 183 0;
#X connect 183 0 57 0;
#X obj 1946 830 route /blowHole/Spat/spatial-width;
#X obj 1946 850 s \$0-blowHole/Spat/spatial-width;
#X connect 178 1 184 0;
#X connect 184 0 185 0;
#X coords 0 -1 1 1 460 440 1 0 0;
#X text 0 460 Generated Mon Mar 21 14:25:13 2011 by faust2pd v2.2. See http://faust.grame.fr and http://pure-lang.googlecode.com.;
