#N canvas 0 0 450 300 10;
#X obj 70 210 inlet~;
#X obj 130 210 inlet~;
#X obj 10 210 inlet;
#X obj 190 210 r \$0-read;
#X obj 190 240 faust-control \$0;
#X obj 190 270 s \$0-write;
#X obj 10 270 r \$0-in;
#X obj 10 300 chorus~;
#X obj 10 330 s \$0-out;
#X obj 70 360 outlet~;
#X obj 130 360 outlet~;
#X obj 10 360 outlet;
#X connect 2 0 4 0;
#X connect 3 0 4 0;
#X connect 4 0 5 0;
#X connect 7 0 8 0;
#X connect 2 0 11 0;
#X connect 6 0 7 0;
#X connect 0 0 7 1;
#X connect 1 0 7 2;
#X connect 7 1 9 0;
#X connect 7 2 10 0;
#X obj 10 30 hsl 128 15 0 0.2 0 0 \$0-chorus/delay \$0-chorus/delay delay -2 -6 0 10 -262144 -1 -1 0 1;
#X obj 160 30 nbx 5 14 0 0.2 0 0 \$0-chorus/delay \$0-chorus/delay empty 0 -6 0 10 -262144 -1 -1 256;
#X obj 10 60 hsl 128 15 0 1 0 0 \$0-chorus/depth \$0-chorus/depth depth -2 -6 0 10 -262144 -1 -1 0 1;
#X obj 160 60 nbx 5 14 0 1 0 0 \$0-chorus/depth \$0-chorus/depth empty 0 -6 0 10 -262144 -1 -1 256;
#X obj 10 90 hsl 128 15 0 10 0 0 \$0-chorus/freq \$0-chorus/freq freq -2 -6 0 10 -262144 -1 -1 0 1;
#X obj 160 90 nbx 5 14 0 10 0 0 \$0-chorus/freq \$0-chorus/freq empty 0 -6 0 10 -262144 -1 -1 256;
#X obj 10 120 hsl 128 15 0 1 0 0 \$0-chorus/level \$0-chorus/level level -2 -6 0 10 -262144 -1 -1 0 1;
#X obj 160 120 nbx 5 14 0 1 0 0 \$0-chorus/level \$0-chorus/level empty 0 -6 0 10 -262144 -1 -1 256;
#X obj 197 3 bng 15 250 50 1 \$0-init \$0-ignore empty 0 -6 0 10 -262144 -1 -1;
#X obj 217 3 tgl 15 1 \$0-active \$0-active empty 0 -6 0 10 -262144 -1 -1 1 1;
#X obj 450 10 r \$0-init;
#X obj 610 10 s \$0-in;
#X obj 690 10 s \$0-read;
#X obj 770 10 r \$0-write;
#X msg 450 30 1;
#X obj 450 50 s \$0-active;
#X connect 26 0 27 0;
#X obj 610 30 r \$0-active;
#X msg 610 50 active \$1;
#X connect 28 0 29 0;
#X connect 29 0 23 0;
#X obj 770 30 route active;
#X obj 770 50 s \$0-active;
#X connect 25 0 30 0;
#X connect 30 0 31 0;
#X msg 450 70 0.025;
#X obj 450 90 s \$0-chorus/delay;
#X connect 22 0 32 0;
#X connect 32 0 33 0;
#X obj 610 70 r \$0-chorus/delay;
#X msg 610 90 /chorus/delay \$1;
#X connect 34 0 35 0;
#X connect 35 0 23 0;
#X obj 770 70 route /chorus/delay;
#X obj 770 90 s \$0-chorus/delay;
#X connect 30 1 36 0;
#X connect 36 0 37 0;
#X msg 450 110 0.02;
#X obj 450 130 s \$0-chorus/depth;
#X connect 22 0 38 0;
#X connect 38 0 39 0;
#X obj 610 110 r \$0-chorus/depth;
#X msg 610 130 /chorus/depth \$1;
#X connect 40 0 41 0;
#X connect 41 0 23 0;
#X obj 770 110 route /chorus/depth;
#X obj 770 130 s \$0-chorus/depth;
#X connect 36 1 42 0;
#X connect 42 0 43 0;
#X msg 450 150 2;
#X obj 450 170 s \$0-chorus/freq;
#X connect 22 0 44 0;
#X connect 44 0 45 0;
#X obj 610 150 r \$0-chorus/freq;
#X msg 610 170 /chorus/freq \$1;
#X connect 46 0 47 0;
#X connect 47 0 23 0;
#X obj 770 150 route /chorus/freq;
#X obj 770 170 s \$0-chorus/freq;
#X connect 42 1 48 0;
#X connect 48 0 49 0;
#X msg 450 190 0.5;
#X obj 450 210 s \$0-chorus/level;
#X connect 22 0 50 0;
#X connect 50 0 51 0;
#X obj 610 190 r \$0-chorus/level;
#X msg 610 210 /chorus/level \$1;
#X connect 52 0 53 0;
#X connect 53 0 23 0;
#X obj 770 190 route /chorus/level;
#X obj 770 210 s \$0-chorus/level;
#X connect 48 1 54 0;
#X connect 54 0 55 0;
#X coords 0 -1 1 1 235 140 1 0 0;
#X text 0 160 Generated Mon Sep 22 11:26:07 2014 by faust2pd v2.9. See http://faust.grame.fr and http://purelang.bitbucket.org.;
