#N canvas 546 331 537 528 10;
#X obj 178 425 route 1 2 3;
#X obj 130 253 list split 3;
#X obj 144 364 list;
#X obj 178 394 list;
#X msg 130 282 \$2 \$3 \$1;
#X obj 130 309 unpack f s f;
#X obj 130 334 pack f s;
#X obj 21 124 inlet;
#X obj 182 3 tgl 15 0 \$0-toggle \$0-toggle empty 0 -6 0 8 -262144
-1 -1 1 1;
#X obj 339 196 loadbang;
#X msg 339 223 1;
#X obj 339 249 s \$0-toggle;
#X obj 87 125 r \$0-toggle;
#X obj 21 156 spigot;
#X obj 182 32 bng 15 50 50 0 \$0-blink \$0-blink empty 0 -6 0 8 -262144
-260818 -1;
#N canvas 255 528 450 300 part 0;
#X obj 97 49 route note;
#X obj 48 81 unpack f f f f;
#X obj 48 106 pipe f f f 500;
#X obj 162 105 pipe s f 500;
#X obj 162 80 unpack s f f;
#X obj 97 21 inlet;
#X obj 128 194 outlet;
#X text 18 227 decode and schedule note and control messages for a
single part;
#X msg 48 158 note \$1 \$2 \$3;
#X obj 48 133 pack f f f;
#X obj 162 132 pack s f;
#X msg 162 159 \$1 \$2;
#X connect 0 0 1 0;
#X connect 0 1 4 0;
#X connect 1 0 2 0;
#X connect 1 1 2 1;
#X connect 1 2 2 2;
#X connect 1 3 2 3;
#X connect 2 0 9 0;
#X connect 2 1 9 1;
#X connect 2 2 9 2;
#X connect 3 0 10 0;
#X connect 3 1 10 1;
#X connect 4 0 3 0;
#X connect 4 1 3 1;
#X connect 4 2 3 2;
#X connect 5 0 0 0;
#X connect 8 0 6 0;
#X connect 9 0 8 0;
#X connect 10 0 11 0;
#X connect 11 0 6 0;
#X restore 199 455 pd part;
#X obj 199 485 outlet;
#X obj 118 185 s \$0-blink;
#X msg 21 252 stop;
#N canvas 255 528 450 300 part 0;
#X obj 97 49 route note;
#X obj 48 81 unpack f f f f;
#X obj 48 106 pipe f f f 500;
#X obj 162 105 pipe s f 500;
#X obj 162 80 unpack s f f;
#X obj 97 21 inlet;
#X obj 128 194 outlet;
#X text 18 227 decode and schedule note and control messages for a
single part;
#X msg 48 158 note \$1 \$2 \$3;
#X obj 48 133 pack f f f;
#X obj 162 132 pack s f;
#X msg 162 159 \$1 \$2;
#X connect 0 0 1 0;
#X connect 0 1 4 0;
#X connect 1 0 2 0;
#X connect 1 1 2 1;
#X connect 1 2 2 2;
#X connect 1 3 2 3;
#X connect 2 0 9 0;
#X connect 2 1 9 1;
#X connect 2 2 9 2;
#X connect 3 0 10 0;
#X connect 3 1 10 1;
#X connect 4 0 3 0;
#X connect 4 1 3 1;
#X connect 4 2 3 2;
#X connect 5 0 0 0;
#X connect 8 0 6 0;
#X connect 9 0 8 0;
#X connect 10 0 11 0;
#X connect 11 0 6 0;
#X restore 126 453 pd part;
#X obj 126 483 outlet;
#N canvas 255 528 450 300 part 0;
#X obj 97 49 route note;
#X obj 48 81 unpack f f f f;
#X obj 48 106 pipe f f f 500;
#X obj 162 105 pipe s f 500;
#X obj 162 80 unpack s f f;
#X obj 97 21 inlet;
#X obj 128 194 outlet;
#X text 18 227 decode and schedule note and control messages for a
single part;
#X msg 48 158 note \$1 \$2 \$3;
#X obj 48 133 pack f f f;
#X obj 162 132 pack s f;
#X msg 162 159 \$1 \$2;
#X connect 0 0 1 0;
#X connect 0 1 4 0;
#X connect 1 0 2 0;
#X connect 1 1 2 1;
#X connect 1 2 2 2;
#X connect 1 3 2 3;
#X connect 2 0 9 0;
#X connect 2 1 9 1;
#X connect 2 2 9 2;
#X connect 3 0 10 0;
#X connect 3 1 10 1;
#X connect 4 0 3 0;
#X connect 4 1 3 1;
#X connect 4 2 3 2;
#X connect 5 0 0 0;
#X connect 8 0 6 0;
#X connect 9 0 8 0;
#X connect 10 0 11 0;
#X connect 11 0 6 0;
#X restore 284 457 pd part;
#X obj 284 487 outlet;
#X obj 21 282 s pulse;
#X obj 21 218 route stop float;
#X obj 267 14 pure-remote;
#X obj 21 186 sequencer;
#X text 30 16 Pd-Pure sequencer;
#X text 21 61 3 part sequencer \, implemented in Pure;
#X text 20 80 Takes note and control messages from the Pure sequencer
and routes them to 3 parts.;
#X connect 0 0 19 0;
#X connect 0 1 15 0;
#X connect 0 2 21 0;
#X connect 1 0 4 0;
#X connect 1 1 2 1;
#X connect 2 0 3 0;
#X connect 3 0 0 0;
#X connect 4 0 5 0;
#X connect 5 0 6 0;
#X connect 5 1 6 1;
#X connect 5 2 3 1;
#X connect 6 0 2 0;
#X connect 7 0 13 0;
#X connect 9 0 10 0;
#X connect 10 0 11 0;
#X connect 12 0 13 1;
#X connect 13 0 17 0;
#X connect 13 0 26 0;
#X connect 15 0 16 0;
#X connect 18 0 23 0;
#X connect 19 0 20 0;
#X connect 21 0 22 0;
#X connect 24 0 18 0;
#X connect 24 1 23 0;
#X connect 24 2 1 0;
#X connect 26 0 24 0;
#X coords 0 -1 1 1 200 50 1 0 0;
