#N canvas 186 168 982 777 10;
#X obj 225 605 audio-out;
#X obj 225 488 freeverb;
#X obj 225 27 midi-in 2;
#X obj 175 113 r seq;
#X text 74 710 v0.1;
#X obj 476 604 audio-out;
#X obj 728 604 audio-out;
#X obj 9 27 pulse;
#X obj 163 11 r pulse;
#X obj 9 339 s pulse;
#X msg 9 310 130;
#X msg 43 310 180;
#X msg 77 310 250;
#X msg 113 310 500;
#X obj 9 284 s seq;
#X msg 9 256 pat1;
#X msg 53 257 pat2;
#X msg 96 257 pat3;
#X obj 9 179 s part1;
#X obj 84 179 s part2;
#X obj 163 179 s part3;
#X obj 225 11 r part1;
#X obj 476 11 r part2;
#X obj 728 12 r part3;
#X obj 728 28 midi-in 2;
#X obj 225 342 chorus;
#X obj 476 27 midi-in 2;
#N canvas 89 543 469 296 more-presets 0;
#X msg 20 234 \; seq pat1 \; pulse 130;
#X msg 120 234 \; part1 pan 0.2 \; part3 pan 0.8;
#X text 18 175 Defaults;
#X text 18 9 Play with different patterns \, tempi and settings;
#X msg 19 39 \; seq pat1 \; pulse 130 \; part2 drive 0 \, tone 20 \,
res 0;
#X msg 20 103 \; seq pat1 \; pulse 130 \; part2 drive 3 \, tone 10
\, res 3;
#X msg 243 40 \; seq pat3 \; pulse 180 \; part2 drive 0 \, tone 20
\, res 0;
#X msg 244 102 \; seq pat3 \; pulse 180 \; part2 drive 10 \, tone 15
\, res 0;
#X obj 120 201 r initdefaults;
#X obj 20 202 loadbang;
#X connect 8 0 0 0;
#X connect 8 0 1 0;
#X connect 9 0 0 0;
#X connect 9 0 1 0;
#X restore 8 635 pd more-presets;
#X text 6 613 Click here to see more...;
#X msg 8 379 \; seq pat1 \; pulse 130;
#X msg 135 380 \; seq pat3 \; pulse 180;
#X text 9 230 Patterns and tempi;
#X obj 476 342 chorus;
#X obj 728 343 chorus;
#X obj 476 488 freeverb;
#X obj 728 488 freeverb;
#X obj 225 77 organ;
#X obj 476 77 karplusplus;
#X obj 728 78 subtractive;
#X msg 7 475 \; part2 drive 0 \, tone 20 \, res 0;
#X msg 7 510 \; part2 drive 3 \, tone 10 \, res 3;
#X msg 7 546 \; part2 drive 10 \, tone 15 \, res 0;
#X text 6 449 Fuzz settings (karplusplus);
#X text 16 692 Pd-Pure Step Sequencer Demo;
#X obj 9 129 sequ;
#X connect 1 0 0 0;
#X connect 1 1 0 1;
#X connect 1 2 0 2;
#X connect 2 0 36 0;
#X connect 2 1 36 1;
#X connect 3 0 44 0;
#X connect 7 0 44 0;
#X connect 8 0 7 0;
#X connect 10 0 9 0;
#X connect 11 0 9 0;
#X connect 12 0 9 0;
#X connect 13 0 9 0;
#X connect 15 0 14 0;
#X connect 16 0 14 0;
#X connect 17 0 14 0;
#X connect 21 0 2 0;
#X connect 22 0 26 0;
#X connect 23 0 24 0;
#X connect 24 0 38 0;
#X connect 24 1 38 1;
#X connect 25 0 1 0;
#X connect 25 1 1 1;
#X connect 25 2 1 2;
#X connect 26 0 37 0;
#X connect 26 1 37 1;
#X connect 32 0 34 0;
#X connect 32 1 34 1;
#X connect 32 2 34 2;
#X connect 33 0 35 0;
#X connect 33 1 35 1;
#X connect 33 2 35 2;
#X connect 34 0 5 0;
#X connect 34 1 5 1;
#X connect 34 2 5 2;
#X connect 35 0 6 0;
#X connect 35 1 6 1;
#X connect 35 2 6 2;
#X connect 36 0 25 0;
#X connect 36 1 25 1;
#X connect 36 2 25 2;
#X connect 37 0 32 0;
#X connect 37 1 32 1;
#X connect 37 2 32 2;
#X connect 38 0 33 0;
#X connect 38 1 33 1;
#X connect 38 2 33 2;
#X connect 44 0 18 0;
#X connect 44 1 19 0;
#X connect 44 2 20 0;
