#N canvas 0 0 450 300 10;
#X obj 10 480 inlet;
#X obj 130 480 inlet;
#X obj 190 480 r \$0-read;
#X obj 130 510 r \$0-all;
#X obj 190 510 faust-control \$0;
#X obj 190 540 s \$0-write;
#X obj 130 540 r \$0-in;
#X obj 130 630 s \$0-out;
#X obj 10 570 faust-gate 1;
#X obj 130 570 flute~;
#X obj 10 600 faust-gate 2;
#X obj 130 600 flute~;
#X obj 130 660 outlet~;
#X obj 190 660 outlet~;
#X obj 10 660 outlet;
#X connect 1 0 4 0;
#X connect 2 0 4 0;
#X connect 4 0 5 0;
#X connect 1 0 14 0;
#X connect 6 0 9 0;
#X connect 9 0 7 0;
#X connect 0 0 8 0;
#X connect 8 0 9 0;
#X connect 3 0 9 0;
#X connect 0 0 10 0;
#X connect 10 0 11 0;
#X connect 3 0 11 0;
#X connect 9 1 12 0;
#X connect 9 2 13 0;
#X connect 11 1 12 0;
#X connect 11 2 13 0;
#X obj 10 30 hsl 128 15 0 2 0 0 \$0-flute/Envelopes-and-Vibrato/Global-Envelope-Parameters/Glob-Env-Attack \$0-flute/Envelopes-and-Vibrato/Global-Envelope-Parameters/Glob-Env-Attack Glob-Env-Attack -2 -6 0 10 -262144 -1 -1 0 1;
#X obj 160 30 nbx 5 14 0 2 0 0 \$0-flute/Envelopes-and-Vibrato/Global-Envelope-Parameters/Glob-Env-Attack \$0-flute/Envelopes-and-Vibrato/Global-Envelope-Parameters/Glob-Env-Attack empty 0 -6 0 10 -262144 -1 -1 256;
#X obj 10 60 hsl 128 15 0 2 0 0 \$0-flute/Envelopes-and-Vibrato/Global-Envelope-Parameters/Glob-Env-Release \$0-flute/Envelopes-and-Vibrato/Global-Envelope-Parameters/Glob-Env-Release Glob-Env-Release -2 -6 0 10 -262144 -1 -1 0 1;
#X obj 160 60 nbx 5 14 0 2 0 0 \$0-flute/Envelopes-and-Vibrato/Global-Envelope-Parameters/Glob-Env-Release \$0-flute/Envelopes-and-Vibrato/Global-Envelope-Parameters/Glob-Env-Release empty 0 -6 0 10 -262144 -1 -1 256;
#X obj 235 30 hsl 128 15 0 2 0 0 \$0-flute/Envelopes-and-Vibrato/Pressure-Envelope-Parameters/Press-Env-Attack \$0-flute/Envelopes-and-Vibrato/Pressure-Envelope-Parameters/Press-Env-Attack Press-Env-Attack -2 -6 0 10 -262144 -1 -1 0 1;
#X obj 385 30 nbx 5 14 0 2 0 0 \$0-flute/Envelopes-and-Vibrato/Pressure-Envelope-Parameters/Press-Env-Attack \$0-flute/Envelopes-and-Vibrato/Pressure-Envelope-Parameters/Press-Env-Attack empty 0 -6 0 10 -262144 -1 -1 256;
#X obj 235 60 hsl 128 15 0 2 0 0 \$0-flute/Envelopes-and-Vibrato/Pressure-Envelope-Parameters/Press-Env-Decay \$0-flute/Envelopes-and-Vibrato/Pressure-Envelope-Parameters/Press-Env-Decay Press-Env-Decay -2 -6 0 10 -262144 -1 -1 0 1;
#X obj 385 60 nbx 5 14 0 2 0 0 \$0-flute/Envelopes-and-Vibrato/Pressure-Envelope-Parameters/Press-Env-Decay \$0-flute/Envelopes-and-Vibrato/Pressure-Envelope-Parameters/Press-Env-Decay empty 0 -6 0 10 -262144 -1 -1 256;
#X obj 235 90 hsl 128 15 0 2 0 0 \$0-flute/Envelopes-and-Vibrato/Pressure-Envelope-Parameters/Press-Env-Release \$0-flute/Envelopes-and-Vibrato/Pressure-Envelope-Parameters/Press-Env-Release Press-Env-Release -2 -6 0 10 -262144 -1 -1 0 1;
#X obj 385 90 nbx 5 14 0 2 0 0 \$0-flute/Envelopes-and-Vibrato/Pressure-Envelope-Parameters/Press-Env-Release \$0-flute/Envelopes-and-Vibrato/Pressure-Envelope-Parameters/Press-Env-Release empty 0 -6 0 10 -262144 -1 -1 256;
#X obj 235 120 tgl 15 0 \$0-flute/Envelopes-and-Vibrato/Pressure-Envelope-Parameters/Pressure-Env \$0-flute/Envelopes-and-Vibrato/Pressure-Envelope-Parameters/Pressure-Env Pressure-Env 0 -6 0 10 -262144 -1 -1 0 1;
#X obj 460 30 hsl 128 15 0 2 0 0 \$0-flute/Envelopes-and-Vibrato/Vibrato-Parameters/Vibrato-Attack \$0-flute/Envelopes-and-Vibrato/Vibrato-Parameters/Vibrato-Attack Vibrato-Attack -2 -6 0 10 -262144 -1 -1 0 1;
#X obj 610 30 nbx 5 14 0 2 0 0 \$0-flute/Envelopes-and-Vibrato/Vibrato-Parameters/Vibrato-Attack \$0-flute/Envelopes-and-Vibrato/Vibrato-Parameters/Vibrato-Attack empty 0 -6 0 10 -262144 -1 -1 256;
#X obj 460 60 hsl 128 15 0 2 0 0 \$0-flute/Envelopes-and-Vibrato/Vibrato-Parameters/Vibrato-Begin \$0-flute/Envelopes-and-Vibrato/Vibrato-Parameters/Vibrato-Begin Vibrato-Begin -2 -6 0 10 -262144 -1 -1 0 1;
#X obj 610 60 nbx 5 14 0 2 0 0 \$0-flute/Envelopes-and-Vibrato/Vibrato-Parameters/Vibrato-Begin \$0-flute/Envelopes-and-Vibrato/Vibrato-Parameters/Vibrato-Begin empty 0 -6 0 10 -262144 -1 -1 256;
#X obj 460 90 hsl 128 15 1 15 0 0 \$0-flute/Envelopes-and-Vibrato/Vibrato-Parameters/Vibrato-Freq \$0-flute/Envelopes-and-Vibrato/Vibrato-Parameters/Vibrato-Freq Vibrato-Freq -2 -6 0 10 -262144 -1 -1 0 1;
#X obj 610 90 nbx 5 14 1 15 0 0 \$0-flute/Envelopes-and-Vibrato/Vibrato-Parameters/Vibrato-Freq \$0-flute/Envelopes-and-Vibrato/Vibrato-Parameters/Vibrato-Freq empty 0 -6 0 10 -262144 -1 -1 256;
#X obj 460 120 hsl 128 15 0 1 0 0 \$0-flute/Envelopes-and-Vibrato/Vibrato-Parameters/Vibrato-Gain \$0-flute/Envelopes-and-Vibrato/Vibrato-Parameters/Vibrato-Gain Vibrato-Gain -2 -6 0 10 -262144 -1 -1 0 1;
#X obj 610 120 nbx 5 14 0 1 0 0 \$0-flute/Envelopes-and-Vibrato/Vibrato-Parameters/Vibrato-Gain \$0-flute/Envelopes-and-Vibrato/Vibrato-Parameters/Vibrato-Gain empty 0 -6 0 10 -262144 -1 -1 256;
#X obj 460 150 hsl 128 15 0 2 0 0 \$0-flute/Envelopes-and-Vibrato/Vibrato-Parameters/Vibrato-Release \$0-flute/Envelopes-and-Vibrato/Vibrato-Parameters/Vibrato-Release Vibrato-Release -2 -6 0 10 -262144 -1 -1 0 1;
#X obj 610 150 nbx 5 14 0 2 0 0 \$0-flute/Envelopes-and-Vibrato/Vibrato-Parameters/Vibrato-Release \$0-flute/Envelopes-and-Vibrato/Vibrato-Parameters/Vibrato-Release empty 0 -6 0 10 -262144 -1 -1 256;
#X obj 10 180 hsl 128 15 20 1000 0 0 \$0-flute/Physical-and-Nonlinearity/Nonlinear-Filter-Parameters/Modulation-Frequency \$0-flute/Physical-and-Nonlinearity/Nonlinear-Filter-Parameters/Modulation-Frequency Modulation-Frequency -2 -6 0 10 -262144 -1 -1 0 1;
#X obj 160 180 nbx 5 14 20 1000 0 0 \$0-flute/Physical-and-Nonlinearity/Nonlinear-Filter-Parameters/Modulation-Frequency \$0-flute/Physical-and-Nonlinearity/Nonlinear-Filter-Parameters/Modulation-Frequency empty 0 -6 0 10 -262144 -1 -1 256;
#X obj 10 210 nbx 5 14 0 4 0 0 \$0-flute/Physical-and-Nonlinearity/Nonlinear-Filter-Parameters/Modulation-Type \$0-flute/Physical-and-Nonlinearity/Nonlinear-Filter-Parameters/Modulation-Type Modulation-Type 0 -6 0 10 -262144 -1 -1 256;
#X obj 10 240 hsl 128 15 0 1 0 0 \$0-flute/Physical-and-Nonlinearity/Nonlinear-Filter-Parameters/Nonlinearity \$0-flute/Physical-and-Nonlinearity/Nonlinear-Filter-Parameters/Nonlinearity Nonlinearity -2 -6 0 10 -262144 -1 -1 0 1;
#X obj 160 240 nbx 5 14 0 1 0 0 \$0-flute/Physical-and-Nonlinearity/Nonlinear-Filter-Parameters/Nonlinearity \$0-flute/Physical-and-Nonlinearity/Nonlinear-Filter-Parameters/Nonlinearity empty 0 -6 0 10 -262144 -1 -1 256;
#X obj 10 270 hsl 128 15 0 2 0 0 \$0-flute/Physical-and-Nonlinearity/Nonlinear-Filter-Parameters/Nonlinearity-Attack \$0-flute/Physical-and-Nonlinearity/Nonlinear-Filter-Parameters/Nonlinearity-Attack Nonlinearity-Attack -2 -6 0 10 -262144 -1 -1 0 1;
#X obj 160 270 nbx 5 14 0 2 0 0 \$0-flute/Physical-and-Nonlinearity/Nonlinear-Filter-Parameters/Nonlinearity-Attack \$0-flute/Physical-and-Nonlinearity/Nonlinear-Filter-Parameters/Nonlinearity-Attack empty 0 -6 0 10 -262144 -1 -1 256;
#X obj 235 180 hsl 128 15 0 1 0 0 \$0-flute/Physical-and-Nonlinearity/Physical-Parameters/Noise-Gain \$0-flute/Physical-and-Nonlinearity/Physical-Parameters/Noise-Gain Noise-Gain -2 -6 0 10 -262144 -1 -1 0 1;
#X obj 385 180 nbx 5 14 0 1 0 0 \$0-flute/Physical-and-Nonlinearity/Physical-Parameters/Noise-Gain \$0-flute/Physical-and-Nonlinearity/Physical-Parameters/Noise-Gain empty 0 -6 0 10 -262144 -1 -1 256;
#X obj 235 210 hsl 128 15 0 1.5 0 0 \$0-flute/Physical-and-Nonlinearity/Physical-Parameters/Pressure \$0-flute/Physical-and-Nonlinearity/Physical-Parameters/Pressure Pressure -2 -6 0 10 -262144 -1 -1 0 1;
#X obj 385 210 nbx 5 14 0 1.5 0 0 \$0-flute/Physical-and-Nonlinearity/Physical-Parameters/Pressure \$0-flute/Physical-and-Nonlinearity/Physical-Parameters/Pressure empty 0 -6 0 10 -262144 -1 -1 256;
#X obj 10 300 hsl 128 15 0 1 0 0 \$0-flute/Reverb/reverbGain \$0-flute/Reverb/reverbGain reverbGain -2 -6 0 10 -262144 -1 -1 0 1;
#X obj 160 300 nbx 5 14 0 1 0 0 \$0-flute/Reverb/reverbGain \$0-flute/Reverb/reverbGain empty 0 -6 0 10 -262144 -1 -1 256;
#X obj 10 330 hsl 128 15 0.01 2 0 0 \$0-flute/Reverb/roomSize \$0-flute/Reverb/roomSize roomSize -2 -6 0 10 -262144 -1 -1 0 1;
#X obj 160 330 nbx 5 14 0.01 2 0 0 \$0-flute/Reverb/roomSize \$0-flute/Reverb/roomSize empty 0 -6 0 10 -262144 -1 -1 256;
#X obj 10 360 hsl 128 15 0 1 0 0 \$0-flute/Spat/pan-angle \$0-flute/Spat/pan-angle pan-angle -2 -6 0 10 -262144 -1 -1 0 1;
#X obj 160 360 nbx 5 14 0 1 0 0 \$0-flute/Spat/pan-angle \$0-flute/Spat/pan-angle empty 0 -6 0 10 -262144 -1 -1 256;
#X obj 10 390 hsl 128 15 0 1 0 0 \$0-flute/Spat/spatial-width \$0-flute/Spat/spatial-width spatial-width -2 -6 0 10 -262144 -1 -1 0 1;
#X obj 160 390 nbx 5 14 0 1 0 0 \$0-flute/Spat/spatial-width \$0-flute/Spat/spatial-width empty 0 -6 0 10 -262144 -1 -1 256;
#X obj 647 3 bng 15 250 50 1 \$0-init \$0-ignore empty 0 -6 0 10 -262144 -1 -1;
#X obj 667 3 tgl 15 1 \$0-active \$0-active empty 0 -6 0 10 -262144 -1 -1 1 1;
#X obj 715 10 r \$0-init;
#X obj 1419 10 s \$0-all;
#X obj 1771 10 s \$0-read;
#X obj 2123 10 r \$0-write;
#X msg 715 30 1;
#X obj 715 50 s \$0-active;
#X connect 61 0 62 0;
#X obj 1419 30 r \$0-active;
#X msg 1419 50 active \$1;
#X connect 63 0 64 0;
#X connect 64 0 58 0;
#X obj 2123 30 route active;
#X obj 2123 50 s \$0-active;
#X connect 60 0 65 0;
#X connect 65 0 66 0;
#X msg 715 70 0.1;
#X obj 715 90 s \$0-flute/Envelopes-and-Vibrato/Global-Envelope-Parameters/Glob-Env-Attack;
#X connect 57 0 67 0;
#X connect 67 0 68 0;
#X obj 1419 70 r \$0-flute/Envelopes-and-Vibrato/Global-Envelope-Parameters/Glob-Env-Attack;
#X msg 1419 90 /flute/Envelopes-and-Vibrato/Global-Envelope-Parameters/Glob-Env-Attack \$1;
#X connect 69 0 70 0;
#X connect 70 0 58 0;
#X obj 2123 70 route /flute/Envelopes-and-Vibrato/Global-Envelope-Parameters/Glob-Env-Attack;
#X obj 2123 90 s \$0-flute/Envelopes-and-Vibrato/Global-Envelope-Parameters/Glob-Env-Attack;
#X connect 65 1 71 0;
#X connect 71 0 72 0;
#X msg 715 110 0.1;
#X obj 715 130 s \$0-flute/Envelopes-and-Vibrato/Global-Envelope-Parameters/Glob-Env-Release;
#X connect 57 0 73 0;
#X connect 73 0 74 0;
#X obj 1419 110 r \$0-flute/Envelopes-and-Vibrato/Global-Envelope-Parameters/Glob-Env-Release;
#X msg 1419 130 /flute/Envelopes-and-Vibrato/Global-Envelope-Parameters/Glob-Env-Release \$1;
#X connect 75 0 76 0;
#X connect 76 0 58 0;
#X obj 2123 110 route /flute/Envelopes-and-Vibrato/Global-Envelope-Parameters/Glob-Env-Release;
#X obj 2123 130 s \$0-flute/Envelopes-and-Vibrato/Global-Envelope-Parameters/Glob-Env-Release;
#X connect 71 1 77 0;
#X connect 77 0 78 0;
#X msg 715 150 0.05;
#X obj 715 170 s \$0-flute/Envelopes-and-Vibrato/Pressure-Envelope-Parameters/Press-Env-Attack;
#X connect 57 0 79 0;
#X connect 79 0 80 0;
#X obj 1419 150 r \$0-flute/Envelopes-and-Vibrato/Pressure-Envelope-Parameters/Press-Env-Attack;
#X msg 1419 170 /flute/Envelopes-and-Vibrato/Pressure-Envelope-Parameters/Press-Env-Attack \$1;
#X connect 81 0 82 0;
#X connect 82 0 58 0;
#X obj 2123 150 route /flute/Envelopes-and-Vibrato/Pressure-Envelope-Parameters/Press-Env-Attack;
#X obj 2123 170 s \$0-flute/Envelopes-and-Vibrato/Pressure-Envelope-Parameters/Press-Env-Attack;
#X connect 77 1 83 0;
#X connect 83 0 84 0;
#X msg 715 190 0.2;
#X obj 715 210 s \$0-flute/Envelopes-and-Vibrato/Pressure-Envelope-Parameters/Press-Env-Decay;
#X connect 57 0 85 0;
#X connect 85 0 86 0;
#X obj 1419 190 r \$0-flute/Envelopes-and-Vibrato/Pressure-Envelope-Parameters/Press-Env-Decay;
#X msg 1419 210 /flute/Envelopes-and-Vibrato/Pressure-Envelope-Parameters/Press-Env-Decay \$1;
#X connect 87 0 88 0;
#X connect 88 0 58 0;
#X obj 2123 190 route /flute/Envelopes-and-Vibrato/Pressure-Envelope-Parameters/Press-Env-Decay;
#X obj 2123 210 s \$0-flute/Envelopes-and-Vibrato/Pressure-Envelope-Parameters/Press-Env-Decay;
#X connect 83 1 89 0;
#X connect 89 0 90 0;
#X msg 715 230 1;
#X obj 715 250 s \$0-flute/Envelopes-and-Vibrato/Pressure-Envelope-Parameters/Press-Env-Release;
#X connect 57 0 91 0;
#X connect 91 0 92 0;
#X obj 1419 230 r \$0-flute/Envelopes-and-Vibrato/Pressure-Envelope-Parameters/Press-Env-Release;
#X msg 1419 250 /flute/Envelopes-and-Vibrato/Pressure-Envelope-Parameters/Press-Env-Release \$1;
#X connect 93 0 94 0;
#X connect 94 0 58 0;
#X obj 2123 230 route /flute/Envelopes-and-Vibrato/Pressure-Envelope-Parameters/Press-Env-Release;
#X obj 2123 250 s \$0-flute/Envelopes-and-Vibrato/Pressure-Envelope-Parameters/Press-Env-Release;
#X connect 89 1 95 0;
#X connect 95 0 96 0;
#X msg 715 270 0;
#X obj 715 290 s \$0-flute/Envelopes-and-Vibrato/Pressure-Envelope-Parameters/Pressure-Env;
#X connect 57 0 97 0;
#X connect 97 0 98 0;
#X obj 1419 270 r \$0-flute/Envelopes-and-Vibrato/Pressure-Envelope-Parameters/Pressure-Env;
#X msg 1419 290 /flute/Envelopes-and-Vibrato/Pressure-Envelope-Parameters/Pressure-Env \$1;
#X connect 99 0 100 0;
#X connect 100 0 58 0;
#X obj 2123 270 route /flute/Envelopes-and-Vibrato/Pressure-Envelope-Parameters/Pressure-Env;
#X obj 2123 290 s \$0-flute/Envelopes-and-Vibrato/Pressure-Envelope-Parameters/Pressure-Env;
#X connect 95 1 101 0;
#X connect 101 0 102 0;
#X msg 715 310 0.5;
#X obj 715 330 s \$0-flute/Envelopes-and-Vibrato/Vibrato-Parameters/Vibrato-Attack;
#X connect 57 0 103 0;
#X connect 103 0 104 0;
#X obj 1419 310 r \$0-flute/Envelopes-and-Vibrato/Vibrato-Parameters/Vibrato-Attack;
#X msg 1419 330 /flute/Envelopes-and-Vibrato/Vibrato-Parameters/Vibrato-Attack \$1;
#X connect 105 0 106 0;
#X connect 106 0 58 0;
#X obj 2123 310 route /flute/Envelopes-and-Vibrato/Vibrato-Parameters/Vibrato-Attack;
#X obj 2123 330 s \$0-flute/Envelopes-and-Vibrato/Vibrato-Parameters/Vibrato-Attack;
#X connect 101 1 107 0;
#X connect 107 0 108 0;
#X msg 715 350 0.1;
#X obj 715 370 s \$0-flute/Envelopes-and-Vibrato/Vibrato-Parameters/Vibrato-Begin;
#X connect 57 0 109 0;
#X connect 109 0 110 0;
#X obj 1419 350 r \$0-flute/Envelopes-and-Vibrato/Vibrato-Parameters/Vibrato-Begin;
#X msg 1419 370 /flute/Envelopes-and-Vibrato/Vibrato-Parameters/Vibrato-Begin \$1;
#X connect 111 0 112 0;
#X connect 112 0 58 0;
#X obj 2123 350 route /flute/Envelopes-and-Vibrato/Vibrato-Parameters/Vibrato-Begin;
#X obj 2123 370 s \$0-flute/Envelopes-and-Vibrato/Vibrato-Parameters/Vibrato-Begin;
#X connect 107 1 113 0;
#X connect 113 0 114 0;
#X msg 715 390 5;
#X obj 715 410 s \$0-flute/Envelopes-and-Vibrato/Vibrato-Parameters/Vibrato-Freq;
#X connect 57 0 115 0;
#X connect 115 0 116 0;
#X obj 1419 390 r \$0-flute/Envelopes-and-Vibrato/Vibrato-Parameters/Vibrato-Freq;
#X msg 1419 410 /flute/Envelopes-and-Vibrato/Vibrato-Parameters/Vibrato-Freq \$1;
#X connect 117 0 118 0;
#X connect 118 0 58 0;
#X obj 2123 390 route /flute/Envelopes-and-Vibrato/Vibrato-Parameters/Vibrato-Freq;
#X obj 2123 410 s \$0-flute/Envelopes-and-Vibrato/Vibrato-Parameters/Vibrato-Freq;
#X connect 113 1 119 0;
#X connect 119 0 120 0;
#X msg 715 430 0.1;
#X obj 715 450 s \$0-flute/Envelopes-and-Vibrato/Vibrato-Parameters/Vibrato-Gain;
#X connect 57 0 121 0;
#X connect 121 0 122 0;
#X obj 1419 430 r \$0-flute/Envelopes-and-Vibrato/Vibrato-Parameters/Vibrato-Gain;
#X msg 1419 450 /flute/Envelopes-and-Vibrato/Vibrato-Parameters/Vibrato-Gain \$1;
#X connect 123 0 124 0;
#X connect 124 0 58 0;
#X obj 2123 430 route /flute/Envelopes-and-Vibrato/Vibrato-Parameters/Vibrato-Gain;
#X obj 2123 450 s \$0-flute/Envelopes-and-Vibrato/Vibrato-Parameters/Vibrato-Gain;
#X connect 119 1 125 0;
#X connect 125 0 126 0;
#X msg 715 470 0.2;
#X obj 715 490 s \$0-flute/Envelopes-and-Vibrato/Vibrato-Parameters/Vibrato-Release;
#X connect 57 0 127 0;
#X connect 127 0 128 0;
#X obj 1419 470 r \$0-flute/Envelopes-and-Vibrato/Vibrato-Parameters/Vibrato-Release;
#X msg 1419 490 /flute/Envelopes-and-Vibrato/Vibrato-Parameters/Vibrato-Release \$1;
#X connect 129 0 130 0;
#X connect 130 0 58 0;
#X obj 2123 470 route /flute/Envelopes-and-Vibrato/Vibrato-Parameters/Vibrato-Release;
#X obj 2123 490 s \$0-flute/Envelopes-and-Vibrato/Vibrato-Parameters/Vibrato-Release;
#X connect 125 1 131 0;
#X connect 131 0 132 0;
#X msg 715 510 220;
#X obj 715 530 s \$0-flute/Physical-and-Nonlinearity/Nonlinear-Filter-Parameters/Modulation-Frequency;
#X connect 57 0 133 0;
#X connect 133 0 134 0;
#X obj 1419 510 r \$0-flute/Physical-and-Nonlinearity/Nonlinear-Filter-Parameters/Modulation-Frequency;
#X msg 1419 530 /flute/Physical-and-Nonlinearity/Nonlinear-Filter-Parameters/Modulation-Frequency \$1;
#X connect 135 0 136 0;
#X connect 136 0 58 0;
#X obj 2123 510 route /flute/Physical-and-Nonlinearity/Nonlinear-Filter-Parameters/Modulation-Frequency;
#X obj 2123 530 s \$0-flute/Physical-and-Nonlinearity/Nonlinear-Filter-Parameters/Modulation-Frequency;
#X connect 131 1 137 0;
#X connect 137 0 138 0;
#X msg 715 550 0;
#X obj 715 570 s \$0-flute/Physical-and-Nonlinearity/Nonlinear-Filter-Parameters/Modulation-Type;
#X connect 57 0 139 0;
#X connect 139 0 140 0;
#X obj 1419 550 r \$0-flute/Physical-and-Nonlinearity/Nonlinear-Filter-Parameters/Modulation-Type;
#X msg 1419 570 /flute/Physical-and-Nonlinearity/Nonlinear-Filter-Parameters/Modulation-Type \$1;
#X connect 141 0 142 0;
#X connect 142 0 58 0;
#X obj 2123 550 route /flute/Physical-and-Nonlinearity/Nonlinear-Filter-Parameters/Modulation-Type;
#X obj 2123 570 s \$0-flute/Physical-and-Nonlinearity/Nonlinear-Filter-Parameters/Modulation-Type;
#X connect 137 1 143 0;
#X connect 143 0 144 0;
#X msg 715 590 0;
#X obj 715 610 s \$0-flute/Physical-and-Nonlinearity/Nonlinear-Filter-Parameters/Nonlinearity;
#X connect 57 0 145 0;
#X connect 145 0 146 0;
#X obj 1419 590 r \$0-flute/Physical-and-Nonlinearity/Nonlinear-Filter-Parameters/Nonlinearity;
#X msg 1419 610 /flute/Physical-and-Nonlinearity/Nonlinear-Filter-Parameters/Nonlinearity \$1;
#X connect 147 0 148 0;
#X connect 148 0 58 0;
#X obj 2123 590 route /flute/Physical-and-Nonlinearity/Nonlinear-Filter-Parameters/Nonlinearity;
#X obj 2123 610 s \$0-flute/Physical-and-Nonlinearity/Nonlinear-Filter-Parameters/Nonlinearity;
#X connect 143 1 149 0;
#X connect 149 0 150 0;
#X msg 715 630 0.1;
#X obj 715 650 s \$0-flute/Physical-and-Nonlinearity/Nonlinear-Filter-Parameters/Nonlinearity-Attack;
#X connect 57 0 151 0;
#X connect 151 0 152 0;
#X obj 1419 630 r \$0-flute/Physical-and-Nonlinearity/Nonlinear-Filter-Parameters/Nonlinearity-Attack;
#X msg 1419 650 /flute/Physical-and-Nonlinearity/Nonlinear-Filter-Parameters/Nonlinearity-Attack \$1;
#X connect 153 0 154 0;
#X connect 154 0 58 0;
#X obj 2123 630 route /flute/Physical-and-Nonlinearity/Nonlinear-Filter-Parameters/Nonlinearity-Attack;
#X obj 2123 650 s \$0-flute/Physical-and-Nonlinearity/Nonlinear-Filter-Parameters/Nonlinearity-Attack;
#X connect 149 1 155 0;
#X connect 155 0 156 0;
#X msg 715 670 0.1;
#X obj 715 690 s \$0-flute/Physical-and-Nonlinearity/Physical-Parameters/Noise-Gain;
#X connect 57 0 157 0;
#X connect 157 0 158 0;
#X obj 1419 670 r \$0-flute/Physical-and-Nonlinearity/Physical-Parameters/Noise-Gain;
#X msg 1419 690 /flute/Physical-and-Nonlinearity/Physical-Parameters/Noise-Gain \$1;
#X connect 159 0 160 0;
#X connect 160 0 58 0;
#X obj 2123 670 route /flute/Physical-and-Nonlinearity/Physical-Parameters/Noise-Gain;
#X obj 2123 690 s \$0-flute/Physical-and-Nonlinearity/Physical-Parameters/Noise-Gain;
#X connect 155 1 161 0;
#X connect 161 0 162 0;
#X msg 715 710 0.9;
#X obj 715 730 s \$0-flute/Physical-and-Nonlinearity/Physical-Parameters/Pressure;
#X connect 57 0 163 0;
#X connect 163 0 164 0;
#X obj 1419 710 r \$0-flute/Physical-and-Nonlinearity/Physical-Parameters/Pressure;
#X msg 1419 730 /flute/Physical-and-Nonlinearity/Physical-Parameters/Pressure \$1;
#X connect 165 0 166 0;
#X connect 166 0 58 0;
#X obj 2123 710 route /flute/Physical-and-Nonlinearity/Physical-Parameters/Pressure;
#X obj 2123 730 s \$0-flute/Physical-and-Nonlinearity/Physical-Parameters/Pressure;
#X connect 161 1 167 0;
#X connect 167 0 168 0;
#X msg 715 750 0.137;
#X obj 715 770 s \$0-flute/Reverb/reverbGain;
#X connect 57 0 169 0;
#X connect 169 0 170 0;
#X obj 1419 750 r \$0-flute/Reverb/reverbGain;
#X msg 1419 770 /flute/Reverb/reverbGain \$1;
#X connect 171 0 172 0;
#X connect 172 0 58 0;
#X obj 2123 750 route /flute/Reverb/reverbGain;
#X obj 2123 770 s \$0-flute/Reverb/reverbGain;
#X connect 167 1 173 0;
#X connect 173 0 174 0;
#X msg 715 790 0.72;
#X obj 715 810 s \$0-flute/Reverb/roomSize;
#X connect 57 0 175 0;
#X connect 175 0 176 0;
#X obj 1419 790 r \$0-flute/Reverb/roomSize;
#X msg 1419 810 /flute/Reverb/roomSize \$1;
#X connect 177 0 178 0;
#X connect 178 0 58 0;
#X obj 2123 790 route /flute/Reverb/roomSize;
#X obj 2123 810 s \$0-flute/Reverb/roomSize;
#X connect 173 1 179 0;
#X connect 179 0 180 0;
#X msg 715 830 0.6;
#X obj 715 850 s \$0-flute/Spat/pan-angle;
#X connect 57 0 181 0;
#X connect 181 0 182 0;
#X obj 1419 830 r \$0-flute/Spat/pan-angle;
#X msg 1419 850 /flute/Spat/pan-angle \$1;
#X connect 183 0 184 0;
#X connect 184 0 58 0;
#X obj 2123 830 route /flute/Spat/pan-angle;
#X obj 2123 850 s \$0-flute/Spat/pan-angle;
#X connect 179 1 185 0;
#X connect 185 0 186 0;
#X msg 715 870 0.5;
#X obj 715 890 s \$0-flute/Spat/spatial-width;
#X connect 57 0 187 0;
#X connect 187 0 188 0;
#X obj 1419 870 r \$0-flute/Spat/spatial-width;
#X msg 1419 890 /flute/Spat/spatial-width \$1;
#X connect 189 0 190 0;
#X connect 190 0 58 0;
#X obj 2123 870 route /flute/Spat/spatial-width;
#X obj 2123 890 s \$0-flute/Spat/spatial-width;
#X connect 185 1 191 0;
#X connect 191 0 192 0;
#X coords 0 -1 1 1 685 410 1 0 0;
#X text 0 430 Generated Thu Sep 15 19:36:13 2011 by faust2pd v2.2. See http://faust.grame.fr and http://pure-lang.googlecode.com.;
