#N canvas 0 0 450 300 10;
#X obj 10 330 inlet;
#X obj 130 330 inlet;
#X obj 190 330 r \$0-read;
#X obj 130 360 r \$0-all;
#X obj 190 360 faust-control \$0;
#X obj 190 390 s \$0-write;
#X obj 130 390 r \$0-in;
#X obj 130 660 s \$0-out;
#X obj 10 420 faust-gate 1;
#X obj 130 420 harpsi~;
#X obj 10 450 faust-gate 2;
#X obj 130 450 harpsi~;
#X obj 10 480 faust-gate 3;
#X obj 130 480 harpsi~;
#X obj 10 510 faust-gate 4;
#X obj 130 510 harpsi~;
#X obj 10 540 faust-gate 5;
#X obj 130 540 harpsi~;
#X obj 10 570 faust-gate 6;
#X obj 130 570 harpsi~;
#X obj 10 600 faust-gate 7;
#X obj 130 600 harpsi~;
#X obj 10 630 faust-gate 8;
#X obj 130 630 harpsi~;
#X obj 130 690 outlet~;
#X obj 190 690 outlet~;
#X obj 10 690 outlet;
#X connect 1 0 4 0;
#X connect 2 0 4 0;
#X connect 4 0 5 0;
#X connect 1 0 26 0;
#X connect 6 0 9 0;
#X connect 9 0 7 0;
#X connect 0 0 8 0;
#X connect 8 0 9 0;
#X connect 3 0 9 0;
#X connect 0 0 10 0;
#X connect 10 0 11 0;
#X connect 3 0 11 0;
#X connect 0 0 12 0;
#X connect 12 0 13 0;
#X connect 3 0 13 0;
#X connect 0 0 14 0;
#X connect 14 0 15 0;
#X connect 3 0 15 0;
#X connect 0 0 16 0;
#X connect 16 0 17 0;
#X connect 3 0 17 0;
#X connect 0 0 18 0;
#X connect 18 0 19 0;
#X connect 3 0 19 0;
#X connect 0 0 20 0;
#X connect 20 0 21 0;
#X connect 3 0 21 0;
#X connect 0 0 22 0;
#X connect 22 0 23 0;
#X connect 3 0 23 0;
#X connect 9 1 24 0;
#X connect 9 2 25 0;
#X connect 11 1 24 0;
#X connect 11 2 25 0;
#X connect 13 1 24 0;
#X connect 13 2 25 0;
#X connect 15 1 24 0;
#X connect 15 2 25 0;
#X connect 17 1 24 0;
#X connect 17 2 25 0;
#X connect 19 1 24 0;
#X connect 19 2 25 0;
#X connect 21 1 24 0;
#X connect 21 2 25 0;
#X connect 23 1 24 0;
#X connect 23 2 25 0;
#X obj 10 30 hsl 128 15 20 1000 0 0 \$0-harpsi/Physical-and-Nonlinearity/Nonlinear-Filter-Parameters/Modulation-Frequency \$0-harpsi/Physical-and-Nonlinearity/Nonlinear-Filter-Parameters/Modulation-Frequency Modulation-Frequency -2 -6 0 10 -262144 -1 -1 0 1;
#X obj 160 30 nbx 5 14 20 1000 0 0 \$0-harpsi/Physical-and-Nonlinearity/Nonlinear-Filter-Parameters/Modulation-Frequency \$0-harpsi/Physical-and-Nonlinearity/Nonlinear-Filter-Parameters/Modulation-Frequency empty 0 -6 0 10 -262144 -1 -1 256;
#X obj 10 60 nbx 5 14 0 4 0 0 \$0-harpsi/Physical-and-Nonlinearity/Nonlinear-Filter-Parameters/Modulation-Type \$0-harpsi/Physical-and-Nonlinearity/Nonlinear-Filter-Parameters/Modulation-Type Modulation-Type 0 -6 0 10 -262144 -1 -1 256;
#X obj 10 90 hsl 128 15 0 1 0 0 \$0-harpsi/Physical-and-Nonlinearity/Nonlinear-Filter-Parameters/Nonlinearity \$0-harpsi/Physical-and-Nonlinearity/Nonlinear-Filter-Parameters/Nonlinearity Nonlinearity -2 -6 0 10 -262144 -1 -1 0 1;
#X obj 160 90 nbx 5 14 0 1 0 0 \$0-harpsi/Physical-and-Nonlinearity/Nonlinear-Filter-Parameters/Nonlinearity \$0-harpsi/Physical-and-Nonlinearity/Nonlinear-Filter-Parameters/Nonlinearity empty 0 -6 0 10 -262144 -1 -1 256;
#X obj 10 120 hsl 128 15 0 1 0 0 \$0-harpsi/Reverb/Freeverb/Damp \$0-harpsi/Reverb/Freeverb/Damp Damp -2 -6 0 10 -262144 -1 -1 0 1;
#X obj 160 120 nbx 5 14 0 1 0 0 \$0-harpsi/Reverb/Freeverb/Damp \$0-harpsi/Reverb/Freeverb/Damp empty 0 -6 0 10 -262144 -1 -1 256;
#X obj 10 150 hsl 128 15 0 1 0 0 \$0-harpsi/Reverb/Freeverb/RoomSize \$0-harpsi/Reverb/Freeverb/RoomSize RoomSize -2 -6 0 10 -262144 -1 -1 0 1;
#X obj 160 150 nbx 5 14 0 1 0 0 \$0-harpsi/Reverb/Freeverb/RoomSize \$0-harpsi/Reverb/Freeverb/RoomSize empty 0 -6 0 10 -262144 -1 -1 256;
#X obj 10 180 hsl 128 15 0 1 0 0 \$0-harpsi/Reverb/Freeverb/Wet \$0-harpsi/Reverb/Freeverb/Wet Wet -2 -6 0 10 -262144 -1 -1 0 1;
#X obj 160 180 nbx 5 14 0 1 0 0 \$0-harpsi/Reverb/Freeverb/Wet \$0-harpsi/Reverb/Freeverb/Wet empty 0 -6 0 10 -262144 -1 -1 256;
#X obj 10 210 hsl 128 15 0 1 0 0 \$0-harpsi/Spat/pan-angle \$0-harpsi/Spat/pan-angle pan-angle -2 -6 0 10 -262144 -1 -1 0 1;
#X obj 160 210 nbx 5 14 0 1 0 0 \$0-harpsi/Spat/pan-angle \$0-harpsi/Spat/pan-angle empty 0 -6 0 10 -262144 -1 -1 256;
#X obj 10 240 hsl 128 15 0 1 0 0 \$0-harpsi/Spat/spatial-width \$0-harpsi/Spat/spatial-width spatial-width -2 -6 0 10 -262144 -1 -1 0 1;
#X obj 160 240 nbx 5 14 0 1 0 0 \$0-harpsi/Spat/spatial-width \$0-harpsi/Spat/spatial-width empty 0 -6 0 10 -262144 -1 -1 256;
#X obj 197 3 bng 15 250 50 1 \$0-init \$0-ignore empty 0 -6 0 10 -262144 -1 -1;
#X obj 217 3 tgl 15 1 \$0-active \$0-active empty 0 -6 0 10 -262144 -1 -1 1 1;
#X obj 450 10 r \$0-init;
#X obj 1162 10 s \$0-all;
#X obj 1518 10 s \$0-read;
#X obj 1874 10 r \$0-write;
#X msg 450 30 1;
#X obj 450 50 s \$0-active;
#X connect 48 0 49 0;
#X obj 1162 30 r \$0-active;
#X msg 1162 50 active \$1;
#X connect 50 0 51 0;
#X connect 51 0 45 0;
#X obj 1874 30 route active;
#X obj 1874 50 s \$0-active;
#X connect 47 0 52 0;
#X connect 52 0 53 0;
#X msg 450 70 220;
#X obj 450 90 s \$0-harpsi/Physical-and-Nonlinearity/Nonlinear-Filter-Parameters/Modulation-Frequency;
#X connect 44 0 54 0;
#X connect 54 0 55 0;
#X obj 1162 70 r \$0-harpsi/Physical-and-Nonlinearity/Nonlinear-Filter-Parameters/Modulation-Frequency;
#X msg 1162 90 /harpsi/Physical-and-Nonlinearity/Nonlinear-Filter-Parameters/Modulation-Frequency \$1;
#X connect 56 0 57 0;
#X connect 57 0 45 0;
#X obj 1874 70 route /harpsi/Physical-and-Nonlinearity/Nonlinear-Filter-Parameters/Modulation-Frequency;
#X obj 1874 90 s \$0-harpsi/Physical-and-Nonlinearity/Nonlinear-Filter-Parameters/Modulation-Frequency;
#X connect 52 1 58 0;
#X connect 58 0 59 0;
#X msg 450 110 0;
#X obj 450 130 s \$0-harpsi/Physical-and-Nonlinearity/Nonlinear-Filter-Parameters/Modulation-Type;
#X connect 44 0 60 0;
#X connect 60 0 61 0;
#X obj 1162 110 r \$0-harpsi/Physical-and-Nonlinearity/Nonlinear-Filter-Parameters/Modulation-Type;
#X msg 1162 130 /harpsi/Physical-and-Nonlinearity/Nonlinear-Filter-Parameters/Modulation-Type \$1;
#X connect 62 0 63 0;
#X connect 63 0 45 0;
#X obj 1874 110 route /harpsi/Physical-and-Nonlinearity/Nonlinear-Filter-Parameters/Modulation-Type;
#X obj 1874 130 s \$0-harpsi/Physical-and-Nonlinearity/Nonlinear-Filter-Parameters/Modulation-Type;
#X connect 58 1 64 0;
#X connect 64 0 65 0;
#X msg 450 150 0;
#X obj 450 170 s \$0-harpsi/Physical-and-Nonlinearity/Nonlinear-Filter-Parameters/Nonlinearity;
#X connect 44 0 66 0;
#X connect 66 0 67 0;
#X obj 1162 150 r \$0-harpsi/Physical-and-Nonlinearity/Nonlinear-Filter-Parameters/Nonlinearity;
#X msg 1162 170 /harpsi/Physical-and-Nonlinearity/Nonlinear-Filter-Parameters/Nonlinearity \$1;
#X connect 68 0 69 0;
#X connect 69 0 45 0;
#X obj 1874 150 route /harpsi/Physical-and-Nonlinearity/Nonlinear-Filter-Parameters/Nonlinearity;
#X obj 1874 170 s \$0-harpsi/Physical-and-Nonlinearity/Nonlinear-Filter-Parameters/Nonlinearity;
#X connect 64 1 70 0;
#X connect 70 0 71 0;
#X msg 450 190 0.72;
#X obj 450 210 s \$0-harpsi/Reverb/Freeverb/Damp;
#X connect 44 0 72 0;
#X connect 72 0 73 0;
#X obj 1162 190 r \$0-harpsi/Reverb/Freeverb/Damp;
#X msg 1162 210 /harpsi/Reverb/Freeverb/Damp \$1;
#X connect 74 0 75 0;
#X connect 75 0 45 0;
#X obj 1874 190 route /harpsi/Reverb/Freeverb/Damp;
#X obj 1874 210 s \$0-harpsi/Reverb/Freeverb/Damp;
#X connect 70 1 76 0;
#X connect 76 0 77 0;
#X msg 450 230 0.54;
#X obj 450 250 s \$0-harpsi/Reverb/Freeverb/RoomSize;
#X connect 44 0 78 0;
#X connect 78 0 79 0;
#X obj 1162 230 r \$0-harpsi/Reverb/Freeverb/RoomSize;
#X msg 1162 250 /harpsi/Reverb/Freeverb/RoomSize \$1;
#X connect 80 0 81 0;
#X connect 81 0 45 0;
#X obj 1874 230 route /harpsi/Reverb/Freeverb/RoomSize;
#X obj 1874 250 s \$0-harpsi/Reverb/Freeverb/RoomSize;
#X connect 76 1 82 0;
#X connect 82 0 83 0;
#X msg 450 270 0.141;
#X obj 450 290 s \$0-harpsi/Reverb/Freeverb/Wet;
#X connect 44 0 84 0;
#X connect 84 0 85 0;
#X obj 1162 270 r \$0-harpsi/Reverb/Freeverb/Wet;
#X msg 1162 290 /harpsi/Reverb/Freeverb/Wet \$1;
#X connect 86 0 87 0;
#X connect 87 0 45 0;
#X obj 1874 270 route /harpsi/Reverb/Freeverb/Wet;
#X obj 1874 290 s \$0-harpsi/Reverb/Freeverb/Wet;
#X connect 82 1 88 0;
#X connect 88 0 89 0;
#X msg 450 310 0.6;
#X obj 450 330 s \$0-harpsi/Spat/pan-angle;
#X connect 44 0 90 0;
#X connect 90 0 91 0;
#X obj 1162 310 r \$0-harpsi/Spat/pan-angle;
#X msg 1162 330 /harpsi/Spat/pan-angle \$1;
#X connect 92 0 93 0;
#X connect 93 0 45 0;
#X obj 1874 310 route /harpsi/Spat/pan-angle;
#X obj 1874 330 s \$0-harpsi/Spat/pan-angle;
#X connect 88 1 94 0;
#X connect 94 0 95 0;
#X msg 450 350 0.5;
#X obj 450 370 s \$0-harpsi/Spat/spatial-width;
#X connect 44 0 96 0;
#X connect 96 0 97 0;
#X obj 1162 350 r \$0-harpsi/Spat/spatial-width;
#X msg 1162 370 /harpsi/Spat/spatial-width \$1;
#X connect 98 0 99 0;
#X connect 99 0 45 0;
#X obj 1874 350 route /harpsi/Spat/spatial-width;
#X obj 1874 370 s \$0-harpsi/Spat/spatial-width;
#X connect 94 1 100 0;
#X connect 100 0 101 0;
#X coords 0 -1 1 1 235 260 1 0 0;
#X text 0 280 Generated Mon Mar 21 14:53:34 2011 by faust2pd v2.2. See http://faust.grame.fr and http://pure-lang.googlecode.com.;
