#N canvas 0 0 450 300 10;
#X obj 10 210 inlet;
#X obj 130 210 inlet;
#X obj 190 210 r \$0-read;
#X obj 130 240 r \$0-all;
#X obj 190 240 faust-control \$0;
#X obj 190 270 s \$0-write;
#X obj 130 270 r \$0-in;
#X obj 130 540 s \$0-out;
#X obj 10 300 faust-gate 1;
#X obj 130 300 karplus~;
#X obj 10 330 faust-gate 2;
#X obj 130 330 karplus~;
#X obj 10 360 faust-gate 3;
#X obj 130 360 karplus~;
#X obj 10 390 faust-gate 4;
#X obj 130 390 karplus~;
#X obj 10 420 faust-gate 5;
#X obj 130 420 karplus~;
#X obj 10 450 faust-gate 6;
#X obj 130 450 karplus~;
#X obj 10 480 faust-gate 7;
#X obj 130 480 karplus~;
#X obj 10 510 faust-gate 8;
#X obj 130 510 karplus~;
#X obj 130 570 outlet~;
#X obj 190 570 outlet~;
#X obj 10 570 outlet;
#X connect 1 0 4 0;
#X connect 2 0 4 0;
#X connect 4 0 5 0;
#X connect 1 0 26 0;
#X connect 6 0 9 0;
#X connect 9 0 7 0;
#X connect 0 0 8 0;
#X connect 8 0 9 0;
#X connect 3 0 9 0;
#X connect 0 0 10 0;
#X connect 10 0 11 0;
#X connect 3 0 11 0;
#X connect 0 0 12 0;
#X connect 12 0 13 0;
#X connect 3 0 13 0;
#X connect 0 0 14 0;
#X connect 14 0 15 0;
#X connect 3 0 15 0;
#X connect 0 0 16 0;
#X connect 16 0 17 0;
#X connect 3 0 17 0;
#X connect 0 0 18 0;
#X connect 18 0 19 0;
#X connect 3 0 19 0;
#X connect 0 0 20 0;
#X connect 20 0 21 0;
#X connect 3 0 21 0;
#X connect 0 0 22 0;
#X connect 22 0 23 0;
#X connect 3 0 23 0;
#X connect 9 1 24 0;
#X connect 9 2 25 0;
#X connect 11 1 24 0;
#X connect 11 2 25 0;
#X connect 13 1 24 0;
#X connect 13 2 25 0;
#X connect 15 1 24 0;
#X connect 15 2 25 0;
#X connect 17 1 24 0;
#X connect 17 2 25 0;
#X connect 19 1 24 0;
#X connect 19 2 25 0;
#X connect 21 1 24 0;
#X connect 21 2 25 0;
#X connect 23 1 24 0;
#X connect 23 2 25 0;
#X obj 10 30 hsl 128 15 1 1024 0 0 \$0-faust/1-excitator/samples \$0-faust/1-excitator/samples samples -2 -6 0 8 -262144 -1 -1 0 1;
#X obj 160 30 nbx 5 14 1 1024 0 0 \$0-faust/1-excitator/samples \$0-faust/1-excitator/samples empty 0 -6 0 10 -262144 -1 -1 256;
#X obj 10 60 hsl 128 15 0 10 0 0 \$0-faust/2-resonator/decay-time \$0-faust/2-resonator/decay-time decay-time -2 -6 0 8 -262144 -1 -1 0 1;
#X obj 160 60 nbx 5 14 0 10 0 0 \$0-faust/2-resonator/decay-time \$0-faust/2-resonator/decay-time empty 0 -6 0 10 -262144 -1 -1 256;
#X obj 10 90 hsl 128 15 0 1 0 0 \$0-faust/3-master/pan \$0-faust/3-master/pan pan -2 -6 0 8 -262144 -1 -1 0 1;
#X obj 160 90 nbx 5 14 0 1 0 0 \$0-faust/3-master/pan \$0-faust/3-master/pan empty 0 -6 0 10 -262144 -1 -1 256;
#X obj 10 120 hsl 128 15 0 10 0 0 \$0-faust/3-master/vol \$0-faust/3-master/vol vol -2 -6 0 8 -262144 -1 -1 0 1;
#X obj 160 120 nbx 5 14 0 10 0 0 \$0-faust/3-master/vol \$0-faust/3-master/vol empty 0 -6 0 10 -262144 -1 -1 256;
#X obj 197 3 bng 15 250 50 1 \$0-init \$0-ignore empty 0 -6 0 8 -262144 -1 -1;
#X obj 217 3 tgl 15 1 \$0-active \$0-active empty 0 -6 0 8 -262144 -1 -1 1 1;
#X obj 450 10 r \$0-init;
#X obj 738 10 s \$0-all;
#X obj 882 10 s \$0-read;
#X obj 1026 10 r \$0-write;
#X msg 450 30 1;
#X obj 450 50 s \$0-active;
#X connect 41 0 42 0;
#X obj 738 30 r \$0-active;
#X msg 738 50 active \$1;
#X connect 43 0 44 0;
#X connect 44 0 38 0;
#X obj 1026 30 route active;
#X obj 1026 50 s \$0-active;
#X connect 40 0 45 0;
#X connect 45 0 46 0;
#X msg 450 70 512;
#X obj 450 90 s \$0-faust/1-excitator/samples;
#X connect 37 0 47 0;
#X connect 47 0 48 0;
#X obj 738 70 r \$0-faust/1-excitator/samples;
#X msg 738 90 /faust/1-excitator/samples \$1;
#X connect 49 0 50 0;
#X connect 50 0 38 0;
#X obj 1026 70 route /faust/1-excitator/samples;
#X obj 1026 90 s \$0-faust/1-excitator/samples;
#X connect 45 1 51 0;
#X connect 51 0 52 0;
#X msg 450 110 4;
#X obj 450 130 s \$0-faust/2-resonator/decay-time;
#X connect 37 0 53 0;
#X connect 53 0 54 0;
#X obj 738 110 r \$0-faust/2-resonator/decay-time;
#X msg 738 130 /faust/2-resonator/decay-time \$1;
#X connect 55 0 56 0;
#X connect 56 0 38 0;
#X obj 1026 110 route /faust/2-resonator/decay-time;
#X obj 1026 130 s \$0-faust/2-resonator/decay-time;
#X connect 51 1 57 0;
#X connect 57 0 58 0;
#X msg 450 150 0.5;
#X obj 450 170 s \$0-faust/3-master/pan;
#X connect 37 0 59 0;
#X connect 59 0 60 0;
#X obj 738 150 r \$0-faust/3-master/pan;
#X msg 738 170 /faust/3-master/pan \$1;
#X connect 61 0 62 0;
#X connect 62 0 38 0;
#X obj 1026 150 route /faust/3-master/pan;
#X obj 1026 170 s \$0-faust/3-master/pan;
#X connect 57 1 63 0;
#X connect 63 0 64 0;
#X msg 450 190 0.3;
#X obj 450 210 s \$0-faust/3-master/vol;
#X connect 37 0 65 0;
#X connect 65 0 66 0;
#X obj 738 190 r \$0-faust/3-master/vol;
#X msg 738 210 /faust/3-master/vol \$1;
#X connect 67 0 68 0;
#X connect 68 0 38 0;
#X obj 1026 190 route /faust/3-master/vol;
#X obj 1026 210 s \$0-faust/3-master/vol;
#X connect 63 1 69 0;
#X connect 69 0 70 0;
#X coords 0 -1 1 1 235 140 1 0 0;
#X text 0 160 Generated Mon 16 Oct 2006 01:16:22 PM CEST by faust2pd v1.0. See http://faudiostream.sf.net and http://q-lang.sf.net.;
