#N canvas 179 36 415 457 10;
#X obj 202 336 prepend send;
#X obj 202 365 sendOSC;
#X obj 43 276 loadbang;
#X msg 43 308 connect localhost 5510;
#X obj 177 233 dumpOSC 5511;
#X obj 177 270 print FAUST;
#X obj 265 232 dumpOSC 5512;
#X obj 265 269 print Error;
#X obj 202 306 r _faust;
#X obj 88 11 vsl 15 128 0 100 0 0 empty empty empty 0 -9 0 10 -262144
-1 -1 0 1;
#X floatatom 88 150 5 0 0 0 - - -;
#X obj 44 174 metro 10;
#X text 124 150 ms;
#X obj 44 109 tgl 15 0 empty empty empty 17 7 0 10 -262144 -1 -1 0
1;
#X text 33 87 ON/OFF;
#X msg 44 198 /* 0.1;
#X obj 43 225 s _faust;
#X obj 222 58 until;
#X msg 222 15 10;
#X msg 262 16 50;
#X msg 302 16 100;
#X msg 183 15 1;
#X msg 221 88 /* 0.1;
#X obj 220 115 s _faust;
#X text 77 -10 Speed;
#X text 180 -9 Step by step;
#X text 35 -46 Send signal messages to any running faust program. Displays
the ouput in Pd window.;
#X connect 0 0 1 0;
#X connect 2 0 3 0;
#X connect 3 0 1 0;
#X connect 4 0 5 0;
#X connect 6 0 7 0;
#X connect 8 0 0 0;
#X connect 9 0 10 0;
#X connect 10 0 11 1;
#X connect 11 0 15 0;
#X connect 13 0 11 0;
#X connect 15 0 16 0;
#X connect 17 0 22 0;
#X connect 18 0 17 0;
#X connect 19 0 17 0;
#X connect 20 0 17 0;
#X connect 21 0 17 0;
#X connect 22 0 23 0;
