#N canvas 0 0 450 300 10;
#X obj 10 330 inlet;
#X obj 130 330 inlet;
#X obj 190 330 r \$0-read;
#X obj 130 360 r \$0-all;
#X obj 190 360 faust-control \$0;
#X obj 190 390 s \$0-write;
#X obj 130 390 r \$0-in;
#X obj 130 480 s \$0-out;
#X obj 10 420 faust-gate 1;
#X obj 130 420 bass~;
#X obj 10 450 faust-gate 2;
#X obj 130 450 bass~;
#X obj 130 510 outlet~;
#X obj 190 510 outlet~;
#X obj 10 510 outlet;
#X connect 1 0 4 0;
#X connect 2 0 4 0;
#X connect 4 0 5 0;
#X connect 1 0 14 0;
#X connect 6 0 9 0;
#X connect 9 0 7 0;
#X connect 0 0 8 0;
#X connect 8 0 9 0;
#X connect 3 0 9 0;
#X connect 0 0 10 0;
#X connect 10 0 11 0;
#X connect 3 0 11 0;
#X connect 9 1 12 0;
#X connect 9 2 13 0;
#X connect 11 1 12 0;
#X connect 11 2 13 0;
#X obj 10 30 hsl 128 15 20 1000 0 0 \$0-bass/Nonlinear-Filter-Parameters/Modulation-Frequency \$0-bass/Nonlinear-Filter-Parameters/Modulation-Frequency Modulation-Frequency -2 -6 0 10 -262144 -1 -1 0 1;
#X obj 160 30 nbx 5 14 20 1000 0 0 \$0-bass/Nonlinear-Filter-Parameters/Modulation-Frequency \$0-bass/Nonlinear-Filter-Parameters/Modulation-Frequency empty 0 -6 0 10 -262144 -1 -1 256;
#X obj 10 60 nbx 5 14 0 4 0 0 \$0-bass/Nonlinear-Filter-Parameters/Modulation-Type \$0-bass/Nonlinear-Filter-Parameters/Modulation-Type Modulation-Type 0 -6 0 10 -262144 -1 -1 256;
#X obj 10 90 hsl 128 15 0 1 0 0 \$0-bass/Nonlinear-Filter-Parameters/Nonlinearity \$0-bass/Nonlinear-Filter-Parameters/Nonlinearity Nonlinearity -2 -6 0 10 -262144 -1 -1 0 1;
#X obj 160 90 nbx 5 14 0 1 0 0 \$0-bass/Nonlinear-Filter-Parameters/Nonlinearity \$0-bass/Nonlinear-Filter-Parameters/Nonlinearity empty 0 -6 0 10 -262144 -1 -1 256;
#X obj 10 120 hsl 128 15 0 1 0 0 \$0-bass/Physical-Parameters/Touch-Length \$0-bass/Physical-Parameters/Touch-Length Touch-Length -2 -6 0 10 -262144 -1 -1 0 1;
#X obj 160 120 nbx 5 14 0 1 0 0 \$0-bass/Physical-Parameters/Touch-Length \$0-bass/Physical-Parameters/Touch-Length empty 0 -6 0 10 -262144 -1 -1 256;
#X obj 10 150 hsl 128 15 0 1 0 0 \$0-bass/Reverb/reverbGain \$0-bass/Reverb/reverbGain reverbGain -2 -6 0 10 -262144 -1 -1 0 1;
#X obj 160 150 nbx 5 14 0 1 0 0 \$0-bass/Reverb/reverbGain \$0-bass/Reverb/reverbGain empty 0 -6 0 10 -262144 -1 -1 256;
#X obj 10 180 hsl 128 15 0.01 2 0 0 \$0-bass/Reverb/roomSize \$0-bass/Reverb/roomSize roomSize -2 -6 0 10 -262144 -1 -1 0 1;
#X obj 160 180 nbx 5 14 0.01 2 0 0 \$0-bass/Reverb/roomSize \$0-bass/Reverb/roomSize empty 0 -6 0 10 -262144 -1 -1 256;
#X obj 10 210 hsl 128 15 0 1 0 0 \$0-bass/Spat/pan-angle \$0-bass/Spat/pan-angle pan-angle -2 -6 0 10 -262144 -1 -1 0 1;
#X obj 160 210 nbx 5 14 0 1 0 0 \$0-bass/Spat/pan-angle \$0-bass/Spat/pan-angle empty 0 -6 0 10 -262144 -1 -1 256;
#X obj 10 240 hsl 128 15 0 1 0 0 \$0-bass/Spat/spatial-width \$0-bass/Spat/spatial-width spatial-width -2 -6 0 10 -262144 -1 -1 0 1;
#X obj 160 240 nbx 5 14 0 1 0 0 \$0-bass/Spat/spatial-width \$0-bass/Spat/spatial-width empty 0 -6 0 10 -262144 -1 -1 256;
#X obj 197 3 bng 15 250 50 1 \$0-init \$0-ignore empty 0 -6 0 10 -262144 -1 -1;
#X obj 217 3 tgl 15 1 \$0-active \$0-active empty 0 -6 0 10 -262144 -1 -1 1 1;
#X obj 450 10 r \$0-init;
#X obj 938 10 s \$0-all;
#X obj 1182 10 s \$0-read;
#X obj 1426 10 r \$0-write;
#X msg 450 30 1;
#X obj 450 50 s \$0-active;
#X connect 36 0 37 0;
#X obj 938 30 r \$0-active;
#X msg 938 50 active \$1;
#X connect 38 0 39 0;
#X connect 39 0 33 0;
#X obj 1426 30 route active;
#X obj 1426 50 s \$0-active;
#X connect 35 0 40 0;
#X connect 40 0 41 0;
#X msg 450 70 220;
#X obj 450 90 s \$0-bass/Nonlinear-Filter-Parameters/Modulation-Frequency;
#X connect 32 0 42 0;
#X connect 42 0 43 0;
#X obj 938 70 r \$0-bass/Nonlinear-Filter-Parameters/Modulation-Frequency;
#X msg 938 90 /bass/Nonlinear-Filter-Parameters/Modulation-Frequency \$1;
#X connect 44 0 45 0;
#X connect 45 0 33 0;
#X obj 1426 70 route /bass/Nonlinear-Filter-Parameters/Modulation-Frequency;
#X obj 1426 90 s \$0-bass/Nonlinear-Filter-Parameters/Modulation-Frequency;
#X connect 40 1 46 0;
#X connect 46 0 47 0;
#X msg 450 110 0;
#X obj 450 130 s \$0-bass/Nonlinear-Filter-Parameters/Modulation-Type;
#X connect 32 0 48 0;
#X connect 48 0 49 0;
#X obj 938 110 r \$0-bass/Nonlinear-Filter-Parameters/Modulation-Type;
#X msg 938 130 /bass/Nonlinear-Filter-Parameters/Modulation-Type \$1;
#X connect 50 0 51 0;
#X connect 51 0 33 0;
#X obj 1426 110 route /bass/Nonlinear-Filter-Parameters/Modulation-Type;
#X obj 1426 130 s \$0-bass/Nonlinear-Filter-Parameters/Modulation-Type;
#X connect 46 1 52 0;
#X connect 52 0 53 0;
#X msg 450 150 0;
#X obj 450 170 s \$0-bass/Nonlinear-Filter-Parameters/Nonlinearity;
#X connect 32 0 54 0;
#X connect 54 0 55 0;
#X obj 938 150 r \$0-bass/Nonlinear-Filter-Parameters/Nonlinearity;
#X msg 938 170 /bass/Nonlinear-Filter-Parameters/Nonlinearity \$1;
#X connect 56 0 57 0;
#X connect 57 0 33 0;
#X obj 1426 150 route /bass/Nonlinear-Filter-Parameters/Nonlinearity;
#X obj 1426 170 s \$0-bass/Nonlinear-Filter-Parameters/Nonlinearity;
#X connect 52 1 58 0;
#X connect 58 0 59 0;
#X msg 450 190 0.15;
#X obj 450 210 s \$0-bass/Physical-Parameters/Touch-Length;
#X connect 32 0 60 0;
#X connect 60 0 61 0;
#X obj 938 190 r \$0-bass/Physical-Parameters/Touch-Length;
#X msg 938 210 /bass/Physical-Parameters/Touch-Length \$1;
#X connect 62 0 63 0;
#X connect 63 0 33 0;
#X obj 1426 190 route /bass/Physical-Parameters/Touch-Length;
#X obj 1426 210 s \$0-bass/Physical-Parameters/Touch-Length;
#X connect 58 1 64 0;
#X connect 64 0 65 0;
#X msg 450 230 0.137;
#X obj 450 250 s \$0-bass/Reverb/reverbGain;
#X connect 32 0 66 0;
#X connect 66 0 67 0;
#X obj 938 230 r \$0-bass/Reverb/reverbGain;
#X msg 938 250 /bass/Reverb/reverbGain \$1;
#X connect 68 0 69 0;
#X connect 69 0 33 0;
#X obj 1426 230 route /bass/Reverb/reverbGain;
#X obj 1426 250 s \$0-bass/Reverb/reverbGain;
#X connect 64 1 70 0;
#X connect 70 0 71 0;
#X msg 450 270 0.72;
#X obj 450 290 s \$0-bass/Reverb/roomSize;
#X connect 32 0 72 0;
#X connect 72 0 73 0;
#X obj 938 270 r \$0-bass/Reverb/roomSize;
#X msg 938 290 /bass/Reverb/roomSize \$1;
#X connect 74 0 75 0;
#X connect 75 0 33 0;
#X obj 1426 270 route /bass/Reverb/roomSize;
#X obj 1426 290 s \$0-bass/Reverb/roomSize;
#X connect 70 1 76 0;
#X connect 76 0 77 0;
#X msg 450 310 0.6;
#X obj 450 330 s \$0-bass/Spat/pan-angle;
#X connect 32 0 78 0;
#X connect 78 0 79 0;
#X obj 938 310 r \$0-bass/Spat/pan-angle;
#X msg 938 330 /bass/Spat/pan-angle \$1;
#X connect 80 0 81 0;
#X connect 81 0 33 0;
#X obj 1426 310 route /bass/Spat/pan-angle;
#X obj 1426 330 s \$0-bass/Spat/pan-angle;
#X connect 76 1 82 0;
#X connect 82 0 83 0;
#X msg 450 350 0.5;
#X obj 450 370 s \$0-bass/Spat/spatial-width;
#X connect 32 0 84 0;
#X connect 84 0 85 0;
#X obj 938 350 r \$0-bass/Spat/spatial-width;
#X msg 938 370 /bass/Spat/spatial-width \$1;
#X connect 86 0 87 0;
#X connect 87 0 33 0;
#X obj 1426 350 route /bass/Spat/spatial-width;
#X obj 1426 370 s \$0-bass/Spat/spatial-width;
#X connect 82 1 88 0;
#X connect 88 0 89 0;
#X coords 0 -1 1 1 235 260 1 0 0;
#X text 0 280 Generated Fri Sep 16 10:51:36 2011 by faust2pd v2.2. See http://faust.grame.fr and http://pure-lang.googlecode.com.;
