#N canvas 641 188 358 538 10;
#X msg 273 361 \; pd dsp 1;
#X msg 273 399 \; pd dsp 0;
#X obj 19 335 audio-out;
#X obj 19 68 harpsi;
#X obj 19 17 midi-in 8;
#X connect 3 1 2 1;
#X connect 3 2 2 2;
#X connect 4 0 3 0;
#X connect 4 1 3 1;
