#N canvas 0 0 450 300 10;
#X obj 10 360 inlet;
#X obj 130 360 inlet;
#X obj 190 360 r \$0-read;
#X obj 130 390 r \$0-all;
#X obj 190 390 faust-control \$0;
#X obj 190 420 s \$0-write;
#X obj 130 420 r \$0-in;
#X obj 130 630 s \$0-out;
#X obj 10 450 faust-gate 1;
#X obj 130 450 piano~;
#X obj 10 480 faust-gate 2;
#X obj 130 480 piano~;
#X obj 10 510 faust-gate 3;
#X obj 130 510 piano~;
#X obj 10 540 faust-gate 4;
#X obj 130 540 piano~;
#X obj 10 570 faust-gate 5;
#X obj 130 570 piano~;
#X obj 10 600 faust-gate 6;
#X obj 130 600 piano~;
#X obj 130 660 outlet~;
#X obj 190 660 outlet~;
#X obj 10 660 outlet;
#X connect 1 0 4 0;
#X connect 2 0 4 0;
#X connect 4 0 5 0;
#X connect 1 0 22 0;
#X connect 6 0 9 0;
#X connect 9 0 7 0;
#X connect 0 0 8 0;
#X connect 8 0 9 0;
#X connect 3 0 9 0;
#X connect 0 0 10 0;
#X connect 10 0 11 0;
#X connect 3 0 11 0;
#X connect 0 0 12 0;
#X connect 12 0 13 0;
#X connect 3 0 13 0;
#X connect 0 0 14 0;
#X connect 14 0 15 0;
#X connect 3 0 15 0;
#X connect 0 0 16 0;
#X connect 16 0 17 0;
#X connect 3 0 17 0;
#X connect 0 0 18 0;
#X connect 18 0 19 0;
#X connect 3 0 19 0;
#X connect 9 1 20 0;
#X connect 9 2 21 0;
#X connect 11 1 20 0;
#X connect 11 2 21 0;
#X connect 13 1 20 0;
#X connect 13 2 21 0;
#X connect 15 1 20 0;
#X connect 15 2 21 0;
#X connect 17 1 20 0;
#X connect 17 2 21 0;
#X connect 19 1 20 0;
#X connect 19 2 21 0;
#X obj 10 30 hsl 128 15 0 1 0 0 \$0-piano/Physical-Parameters/Brightness-Factor \$0-piano/Physical-Parameters/Brightness-Factor Brightness-Factor -2 -6 0 10 -262144 -1 -1 0 1;
#X obj 160 30 nbx 5 14 0 1 0 0 \$0-piano/Physical-Parameters/Brightness-Factor \$0-piano/Physical-Parameters/Brightness-Factor empty 0 -6 0 10 -262144 -1 -1 256;
#X obj 10 60 hsl 128 15 0 1 0 0 \$0-piano/Physical-Parameters/Detuning-Factor \$0-piano/Physical-Parameters/Detuning-Factor Detuning-Factor -2 -6 0 10 -262144 -1 -1 0 1;
#X obj 160 60 nbx 5 14 0 1 0 0 \$0-piano/Physical-Parameters/Detuning-Factor \$0-piano/Physical-Parameters/Detuning-Factor empty 0 -6 0 10 -262144 -1 -1 256;
#X obj 10 90 hsl 128 15 0 1 0 0 \$0-piano/Physical-Parameters/Hammer-Hardness \$0-piano/Physical-Parameters/Hammer-Hardness Hammer-Hardness -2 -6 0 10 -262144 -1 -1 0 1;
#X obj 160 90 nbx 5 14 0 1 0 0 \$0-piano/Physical-Parameters/Hammer-Hardness \$0-piano/Physical-Parameters/Hammer-Hardness empty 0 -6 0 10 -262144 -1 -1 256;
#X obj 10 120 hsl 128 15 0 1 0 0 \$0-piano/Physical-Parameters/Stiffness-Factor \$0-piano/Physical-Parameters/Stiffness-Factor Stiffness-Factor -2 -6 0 10 -262144 -1 -1 0 1;
#X obj 160 120 nbx 5 14 0 1 0 0 \$0-piano/Physical-Parameters/Stiffness-Factor \$0-piano/Physical-Parameters/Stiffness-Factor empty 0 -6 0 10 -262144 -1 -1 256;
#X obj 10 150 hsl 128 15 0 1 0 0 \$0-piano/Reverb/Freeverb/Damp \$0-piano/Reverb/Freeverb/Damp Damp -2 -6 0 10 -262144 -1 -1 0 1;
#X obj 160 150 nbx 5 14 0 1 0 0 \$0-piano/Reverb/Freeverb/Damp \$0-piano/Reverb/Freeverb/Damp empty 0 -6 0 10 -262144 -1 -1 256;
#X obj 10 180 hsl 128 15 0 1 0 0 \$0-piano/Reverb/Freeverb/RoomSize \$0-piano/Reverb/Freeverb/RoomSize RoomSize -2 -6 0 10 -262144 -1 -1 0 1;
#X obj 160 180 nbx 5 14 0 1 0 0 \$0-piano/Reverb/Freeverb/RoomSize \$0-piano/Reverb/Freeverb/RoomSize empty 0 -6 0 10 -262144 -1 -1 256;
#X obj 10 210 hsl 128 15 0 1 0 0 \$0-piano/Reverb/Freeverb/Wet \$0-piano/Reverb/Freeverb/Wet Wet -2 -6 0 10 -262144 -1 -1 0 1;
#X obj 160 210 nbx 5 14 0 1 0 0 \$0-piano/Reverb/Freeverb/Wet \$0-piano/Reverb/Freeverb/Wet empty 0 -6 0 10 -262144 -1 -1 256;
#X obj 10 240 hsl 128 15 0 1 0 0 \$0-piano/Spat/pan-angle \$0-piano/Spat/pan-angle pan-angle -2 -6 0 10 -262144 -1 -1 0 1;
#X obj 160 240 nbx 5 14 0 1 0 0 \$0-piano/Spat/pan-angle \$0-piano/Spat/pan-angle empty 0 -6 0 10 -262144 -1 -1 256;
#X obj 10 270 hsl 128 15 0 1 0 0 \$0-piano/Spat/spatial-width \$0-piano/Spat/spatial-width spatial-width -2 -6 0 10 -262144 -1 -1 0 1;
#X obj 160 270 nbx 5 14 0 1 0 0 \$0-piano/Spat/spatial-width \$0-piano/Spat/spatial-width empty 0 -6 0 10 -262144 -1 -1 256;
#X obj 197 3 bng 15 250 50 1 \$0-init \$0-ignore empty 0 -6 0 10 -262144 -1 -1;
#X obj 217 3 tgl 15 1 \$0-active \$0-active empty 0 -6 0 10 -262144 -1 -1 1 1;
#X obj 450 10 r \$0-init;
#X obj 858 10 s \$0-all;
#X obj 1062 10 s \$0-read;
#X obj 1266 10 r \$0-write;
#X msg 450 30 1;
#X obj 450 50 s \$0-active;
#X connect 47 0 48 0;
#X obj 858 30 r \$0-active;
#X msg 858 50 active \$1;
#X connect 49 0 50 0;
#X connect 50 0 44 0;
#X obj 1266 30 route active;
#X obj 1266 50 s \$0-active;
#X connect 46 0 51 0;
#X connect 51 0 52 0;
#X msg 450 70 0;
#X obj 450 90 s \$0-piano/Physical-Parameters/Brightness-Factor;
#X connect 43 0 53 0;
#X connect 53 0 54 0;
#X obj 858 70 r \$0-piano/Physical-Parameters/Brightness-Factor;
#X msg 858 90 /piano/Physical-Parameters/Brightness-Factor \$1;
#X connect 55 0 56 0;
#X connect 56 0 44 0;
#X obj 1266 70 route /piano/Physical-Parameters/Brightness-Factor;
#X obj 1266 90 s \$0-piano/Physical-Parameters/Brightness-Factor;
#X connect 51 1 57 0;
#X connect 57 0 58 0;
#X msg 450 110 0.1;
#X obj 450 130 s \$0-piano/Physical-Parameters/Detuning-Factor;
#X connect 43 0 59 0;
#X connect 59 0 60 0;
#X obj 858 110 r \$0-piano/Physical-Parameters/Detuning-Factor;
#X msg 858 130 /piano/Physical-Parameters/Detuning-Factor \$1;
#X connect 61 0 62 0;
#X connect 62 0 44 0;
#X obj 1266 110 route /piano/Physical-Parameters/Detuning-Factor;
#X obj 1266 130 s \$0-piano/Physical-Parameters/Detuning-Factor;
#X connect 57 1 63 0;
#X connect 63 0 64 0;
#X msg 450 150 0.1;
#X obj 450 170 s \$0-piano/Physical-Parameters/Hammer-Hardness;
#X connect 43 0 65 0;
#X connect 65 0 66 0;
#X obj 858 150 r \$0-piano/Physical-Parameters/Hammer-Hardness;
#X msg 858 170 /piano/Physical-Parameters/Hammer-Hardness \$1;
#X connect 67 0 68 0;
#X connect 68 0 44 0;
#X obj 1266 150 route /piano/Physical-Parameters/Hammer-Hardness;
#X obj 1266 170 s \$0-piano/Physical-Parameters/Hammer-Hardness;
#X connect 63 1 69 0;
#X connect 69 0 70 0;
#X msg 450 190 0.28;
#X obj 450 210 s \$0-piano/Physical-Parameters/Stiffness-Factor;
#X connect 43 0 71 0;
#X connect 71 0 72 0;
#X obj 858 190 r \$0-piano/Physical-Parameters/Stiffness-Factor;
#X msg 858 210 /piano/Physical-Parameters/Stiffness-Factor \$1;
#X connect 73 0 74 0;
#X connect 74 0 44 0;
#X obj 1266 190 route /piano/Physical-Parameters/Stiffness-Factor;
#X obj 1266 210 s \$0-piano/Physical-Parameters/Stiffness-Factor;
#X connect 69 1 75 0;
#X connect 75 0 76 0;
#X msg 450 230 0.72;
#X obj 450 250 s \$0-piano/Reverb/Freeverb/Damp;
#X connect 43 0 77 0;
#X connect 77 0 78 0;
#X obj 858 230 r \$0-piano/Reverb/Freeverb/Damp;
#X msg 858 250 /piano/Reverb/Freeverb/Damp \$1;
#X connect 79 0 80 0;
#X connect 80 0 44 0;
#X obj 1266 230 route /piano/Reverb/Freeverb/Damp;
#X obj 1266 250 s \$0-piano/Reverb/Freeverb/Damp;
#X connect 75 1 81 0;
#X connect 81 0 82 0;
#X msg 450 270 0.54;
#X obj 450 290 s \$0-piano/Reverb/Freeverb/RoomSize;
#X connect 43 0 83 0;
#X connect 83 0 84 0;
#X obj 858 270 r \$0-piano/Reverb/Freeverb/RoomSize;
#X msg 858 290 /piano/Reverb/Freeverb/RoomSize \$1;
#X connect 85 0 86 0;
#X connect 86 0 44 0;
#X obj 1266 270 route /piano/Reverb/Freeverb/RoomSize;
#X obj 1266 290 s \$0-piano/Reverb/Freeverb/RoomSize;
#X connect 81 1 87 0;
#X connect 87 0 88 0;
#X msg 450 310 0.141;
#X obj 450 330 s \$0-piano/Reverb/Freeverb/Wet;
#X connect 43 0 89 0;
#X connect 89 0 90 0;
#X obj 858 310 r \$0-piano/Reverb/Freeverb/Wet;
#X msg 858 330 /piano/Reverb/Freeverb/Wet \$1;
#X connect 91 0 92 0;
#X connect 92 0 44 0;
#X obj 1266 310 route /piano/Reverb/Freeverb/Wet;
#X obj 1266 330 s \$0-piano/Reverb/Freeverb/Wet;
#X connect 87 1 93 0;
#X connect 93 0 94 0;
#X msg 450 350 0.6;
#X obj 450 370 s \$0-piano/Spat/pan-angle;
#X connect 43 0 95 0;
#X connect 95 0 96 0;
#X obj 858 350 r \$0-piano/Spat/pan-angle;
#X msg 858 370 /piano/Spat/pan-angle \$1;
#X connect 97 0 98 0;
#X connect 98 0 44 0;
#X obj 1266 350 route /piano/Spat/pan-angle;
#X obj 1266 370 s \$0-piano/Spat/pan-angle;
#X connect 93 1 99 0;
#X connect 99 0 100 0;
#X msg 450 390 0.5;
#X obj 450 410 s \$0-piano/Spat/spatial-width;
#X connect 43 0 101 0;
#X connect 101 0 102 0;
#X obj 858 390 r \$0-piano/Spat/spatial-width;
#X msg 858 410 /piano/Spat/spatial-width \$1;
#X connect 103 0 104 0;
#X connect 104 0 44 0;
#X obj 1266 390 route /piano/Spat/spatial-width;
#X obj 1266 410 s \$0-piano/Spat/spatial-width;
#X connect 99 1 105 0;
#X connect 105 0 106 0;
#X coords 0 -1 1 1 235 290 1 0 0;
#X text 0 310 Generated Mon Mar 21 15:15:14 2011 by faust2pd v2.2. See http://faust.grame.fr and http://pure-lang.googlecode.com.;
