#N canvas 303 22 748 793 10;
#X msg 642 600 \; pd dsp 1;
#X msg 642 638 \; pd dsp 0;
#X obj 18 574 audio-out;
#X obj 418 639 seq;
#X msg 450 569 bang;
#X msg 450 596 stop;
#X msg 500 595 pause;
#X msg 560 595 continue;
#X text 488 568 play;
#X obj 418 666 midiout;
#X obj 335 573 loadbang;
#X obj 18 79 piano;
#X obj 263 79 blowHole;
#X msg 335 597 read take5.mid;
#X obj 18 28 midi-in 6 1;
#X obj 362 24 midi-in 2 2;
#X text 290 707 In order to have this example work \, input device
and output device in MIDI settings must be set to the same internal
driver. The seq object is included in the pd-extended distribution
and is part of the cyclone package (http://puredata.info/community/projects/software/cyclone).
;
#X obj 117 466 *~ 0.8;
#X obj 166 466 *~ 0.8;
#X obj 350 534 *~ 1.6;
#X obj 403 534 *~ 1.6;
#X connect 3 0 9 0;
#X connect 4 0 3 0;
#X connect 5 0 3 0;
#X connect 6 0 3 0;
#X connect 7 0 3 0;
#X connect 10 0 13 0;
#X connect 11 1 17 0;
#X connect 11 2 18 0;
#X connect 12 1 19 0;
#X connect 12 2 20 0;
#X connect 13 0 3 0;
#X connect 14 0 11 0;
#X connect 14 1 11 1;
#X connect 15 0 12 0;
#X connect 15 1 12 1;
#X connect 17 0 2 1;
#X connect 18 0 2 2;
#X connect 19 0 2 1;
#X connect 20 0 2 2;
