#N canvas 22 22 974 784 10;
#X obj 11 73 clarinet;
#X msg 507 542 \; pd dsp 1;
#X msg 507 580 \; pd dsp 0;
#X obj 257 493 audio-out;
#X obj 493 63 blowHole;
#X obj 263 11 midi-in 2;
#X connect 0 1 3 1;
#X connect 0 2 3 2;
#X connect 4 1 3 1;
#X connect 4 2 3 2;
#X connect 5 0 0 0;
#X connect 5 0 4 0;
#X connect 5 1 0 1;
#X connect 5 1 4 1;
