#N canvas 160 22 767 702 10;
#X msg 278 546 \; pd dsp 1;
#X msg 278 584 \; pd dsp 0;
#X obj 22 501 audio-out;
#X obj 262 13 midi-in 2;
#X obj 19 77 sitar;
#X obj 506 73 NLFeks;
#X obj 262 76 bass;
#X connect 3 0 4 0;
#X connect 3 0 5 0;
#X connect 3 0 6 0;
#X connect 3 1 4 1;
#X connect 3 1 5 1;
#X connect 3 1 6 1;
#X connect 4 1 2 1;
#X connect 4 2 2 2;
#X connect 5 1 2 1;
#X connect 5 2 2 2;
#X connect 6 1 2 1;
#X connect 6 2 2 2;
