#N canvas 351 68 1569 879 10;
#X obj 10 390 inlet;
#X obj 130 390 inlet;
#X obj 190 390 r \$0-read;
#X obj 130 420 r \$0-all;
#X obj 190 420 faust-control \$0;
#X obj 190 450 s \$0-write;
#X obj 130 450 r \$0-in;
#X obj 130 540 s \$0-out;
#X obj 10 480 faust-gate 1;
#X obj 130 480 voiceForm~;
#X obj 10 510 faust-gate 2;
#X obj 130 510 voiceForm~;
#X obj 130 570 outlet~;
#X obj 190 570 outlet~;
#X obj 10 570 outlet;
#X obj 10 30 hsl 128 15 0 2 0 0 \$0-voiceForm/Envelopes-and-Vibrato/Envelope-Parameters/Noised-Attack
\$0-voiceForm/Envelopes-and-Vibrato/Envelope-Parameters/Noised-Attack
Noised-Attack -2 -6 0 10 -262144 -1 -1 6 1;
#X obj 160 30 nbx 5 14 0 2 0 0 \$0-voiceForm/Envelopes-and-Vibrato/Envelope-Parameters/Noised-Attack
\$0-voiceForm/Envelopes-and-Vibrato/Envelope-Parameters/Noised-Attack
empty 0 -6 0 10 -262144 -1 -1 0.001 256;
#X obj 10 60 hsl 128 15 0 2 0 0 \$0-voiceForm/Envelopes-and-Vibrato/Envelope-Parameters/Noised-Release
\$0-voiceForm/Envelopes-and-Vibrato/Envelope-Parameters/Noised-Release
Noised-Release -2 -6 0 10 -262144 -1 -1 6 1;
#X obj 160 60 nbx 5 14 0 2 0 0 \$0-voiceForm/Envelopes-and-Vibrato/Envelope-Parameters/Noised-Release
\$0-voiceForm/Envelopes-and-Vibrato/Envelope-Parameters/Noised-Release
empty 0 -6 0 10 -262144 -1 -1 0.001 256;
#X obj 10 90 hsl 128 15 0 2 0 0 \$0-voiceForm/Envelopes-and-Vibrato/Envelope-Parameters/Voiced-Attack
\$0-voiceForm/Envelopes-and-Vibrato/Envelope-Parameters/Voiced-Attack
Voiced-Attack -2 -6 0 10 -262144 -1 -1 63 1;
#X obj 160 90 nbx 5 14 0 2 0 0 \$0-voiceForm/Envelopes-and-Vibrato/Envelope-Parameters/Voiced-Attack
\$0-voiceForm/Envelopes-and-Vibrato/Envelope-Parameters/Voiced-Attack
empty 0 -6 0 10 -262144 -1 -1 0.01 256;
#X obj 10 120 hsl 128 15 0 2 0 0 \$0-voiceForm/Envelopes-and-Vibrato/Envelope-Parameters/Voiced-Release
\$0-voiceForm/Envelopes-and-Vibrato/Envelope-Parameters/Voiced-Release
Voiced-Release -2 -6 0 10 -262144 -1 -1 63 1;
#X obj 160 120 nbx 5 14 0 2 0 0 \$0-voiceForm/Envelopes-and-Vibrato/Envelope-Parameters/Voiced-Release
\$0-voiceForm/Envelopes-and-Vibrato/Envelope-Parameters/Voiced-Release
empty 0 -6 0 10 -262144 -1 -1 0.01 256;
#X obj 235 30 hsl 128 15 0 2 0 0 \$0-voiceForm/Envelopes-and-Vibrato/Vibrato-Parameters/Vibrato-Attack
\$0-voiceForm/Envelopes-and-Vibrato/Vibrato-Parameters/Vibrato-Attack
Vibrato-Attack -2 -6 0 10 -262144 -1 -1 3175 1;
#X obj 385 30 nbx 5 14 0 2 0 0 \$0-voiceForm/Envelopes-and-Vibrato/Vibrato-Parameters/Vibrato-Attack
\$0-voiceForm/Envelopes-and-Vibrato/Vibrato-Parameters/Vibrato-Attack
empty 0 -6 0 10 -262144 -1 -1 0.5 256;
#X obj 235 60 hsl 128 15 0 2 0 0 \$0-voiceForm/Envelopes-and-Vibrato/Vibrato-Parameters/Vibrato-Begin
\$0-voiceForm/Envelopes-and-Vibrato/Vibrato-Parameters/Vibrato-Begin
Vibrato-Begin -2 -6 0 10 -262144 -1 -1 317 1;
#X obj 385 60 nbx 5 14 0 2 0 0 \$0-voiceForm/Envelopes-and-Vibrato/Vibrato-Parameters/Vibrato-Begin
\$0-voiceForm/Envelopes-and-Vibrato/Vibrato-Parameters/Vibrato-Begin
empty 0 -6 0 10 -262144 -1 -1 0.05 256;
#X obj 235 90 hsl 128 15 1 15 0 0 \$0-voiceForm/Envelopes-and-Vibrato/Vibrato-Parameters/Vibrato-Freq
\$0-voiceForm/Envelopes-and-Vibrato/Vibrato-Parameters/Vibrato-Freq
Vibrato-Freq -2 -6 0 10 -262144 -1 -1 4536 1;
#X obj 385 90 nbx 5 14 1 15 0 0 \$0-voiceForm/Envelopes-and-Vibrato/Vibrato-Parameters/Vibrato-Freq
\$0-voiceForm/Envelopes-and-Vibrato/Vibrato-Parameters/Vibrato-Freq
empty 0 -6 0 10 -262144 -1 -1 6 256;
#X obj 235 120 hsl 128 15 0 1 0 0 \$0-voiceForm/Envelopes-and-Vibrato/Vibrato-Parameters/Vibrato-Gain
\$0-voiceForm/Envelopes-and-Vibrato/Vibrato-Parameters/Vibrato-Gain
Vibrato-Gain -2 -6 0 10 -262144 -1 -1 635 1;
#X obj 385 120 nbx 5 14 0 1 0 0 \$0-voiceForm/Envelopes-and-Vibrato/Vibrato-Parameters/Vibrato-Gain
\$0-voiceForm/Envelopes-and-Vibrato/Vibrato-Parameters/Vibrato-Gain
empty 0 -6 0 10 -262144 -1 -1 0.05 256;
#X obj 235 150 hsl 128 15 0 2 0 0 \$0-voiceForm/Envelopes-and-Vibrato/Vibrato-Parameters/Vibrato-Release
\$0-voiceForm/Envelopes-and-Vibrato/Vibrato-Parameters/Vibrato-Release
Vibrato-Release -2 -6 0 10 -262144 -1 -1 635 1;
#X obj 385 150 nbx 5 14 0 2 0 0 \$0-voiceForm/Envelopes-and-Vibrato/Vibrato-Parameters/Vibrato-Release
\$0-voiceForm/Envelopes-and-Vibrato/Vibrato-Parameters/Vibrato-Release
empty 0 -6 0 10 -262144 -1 -1 0.1 256;
#X obj 10 180 hsl 128 15 0 31 0 0 \$0-voiceForm/Physical-Parameters/Phoneme
\$0-voiceForm/Physical-Parameters/Phoneme Phoneme -2 -6 0 10 -262144
-1 -1 1639 1;
#X obj 160 180 nbx 5 14 0 31 0 0 \$0-voiceForm/Physical-Parameters/Phoneme
\$0-voiceForm/Physical-Parameters/Phoneme empty 0 -6 0 10 -262144 -1
-1 4 256;
#X obj 10 210 hsl 128 15 0 1 0 0 \$0-voiceForm/Reverb/reverbGain \$0-voiceForm/Reverb/reverbGain
reverbGain -2 -6 0 10 -262144 -1 -1 1740 1;
#X obj 160 210 nbx 5 14 0 1 0 0 \$0-voiceForm/Reverb/reverbGain \$0-voiceForm/Reverb/reverbGain
empty 0 -6 0 10 -262144 -1 -1 0.137 256;
#X obj 10 240 hsl 128 15 0.01 2 0 0 \$0-voiceForm/Reverb/roomSize \$0-voiceForm/Reverb/roomSize
roomSize -2 -6 0 10 -262144 -1 -1 4531 1;
#X obj 160 240 nbx 5 14 0.01 2 0 0 \$0-voiceForm/Reverb/roomSize \$0-voiceForm/Reverb/roomSize
empty 0 -6 0 10 -262144 -1 -1 0.72 256;
#X obj 10 270 hsl 128 15 0 1 0 0 \$0-voiceForm/Spat/pan-angle \$0-voiceForm/Spat/pan-angle
pan-angle -2 -6 0 10 -262144 -1 -1 7620 1;
#X obj 160 270 nbx 5 14 0 1 0 0 \$0-voiceForm/Spat/pan-angle \$0-voiceForm/Spat/pan-angle
empty 0 -6 0 10 -262144 -1 -1 0.6 256;
#X obj 10 300 hsl 128 15 0 1 0 0 \$0-voiceForm/Spat/spatial-width \$0-voiceForm/Spat/spatial-width
spatial-width -2 -6 0 10 -262144 -1 -1 6350 1;
#X obj 160 300 nbx 5 14 0 1 0 0 \$0-voiceForm/Spat/spatial-width \$0-voiceForm/Spat/spatial-width
empty 0 -6 0 10 -262144 -1 -1 0.5 256;
#X obj 422 3 bng 15 250 50 1 \$0-init \$0-ignore empty 0 -6 0 10 -262144
-1 -1;
#X obj 442 3 tgl 15 1 \$0-active \$0-active empty 0 -6 0 10 -262144
-1 -1 1 1;
#X obj 490 10 r \$0-init;
#X obj 1082 10 s \$0-all;
#X obj 1378 10 s \$0-read;
#X obj 1674 10 r \$0-write;
#X msg 490 30 1;
#X obj 490 50 s \$0-active;
#X obj 1082 30 r \$0-active;
#X msg 1082 50 active \$1;
#X obj 1674 30 route active;
#X obj 1674 50 s \$0-active;
#X msg 490 70 0.001;
#X obj 490 90 s \$0-voiceForm/Envelopes-and-Vibrato/Envelope-Parameters/Noised-Attack
;
#X obj 1082 70 r \$0-voiceForm/Envelopes-and-Vibrato/Envelope-Parameters/Noised-Attack
;
#X msg 1082 90 /voiceForm/Envelopes-and-Vibrato/Envelope-Parameters/Noised-Attack
\$1;
#X obj 1674 70 route /voiceForm/Envelopes-and-Vibrato/Envelope-Parameters/Noised-Attack
;
#X obj 1674 90 s \$0-voiceForm/Envelopes-and-Vibrato/Envelope-Parameters/Noised-Attack
;
#X msg 490 110 0.001;
#X obj 490 130 s \$0-voiceForm/Envelopes-and-Vibrato/Envelope-Parameters/Noised-Release
;
#X obj 1082 110 r \$0-voiceForm/Envelopes-and-Vibrato/Envelope-Parameters/Noised-Release
;
#X msg 1082 130 /voiceForm/Envelopes-and-Vibrato/Envelope-Parameters/Noised-Release
\$1;
#X obj 1674 110 route /voiceForm/Envelopes-and-Vibrato/Envelope-Parameters/Noised-Release
;
#X obj 1674 130 s \$0-voiceForm/Envelopes-and-Vibrato/Envelope-Parameters/Noised-Release
;
#X msg 490 150 0.01;
#X obj 490 170 s \$0-voiceForm/Envelopes-and-Vibrato/Envelope-Parameters/Voiced-Attack
;
#X obj 1082 150 r \$0-voiceForm/Envelopes-and-Vibrato/Envelope-Parameters/Voiced-Attack
;
#X msg 1082 170 /voiceForm/Envelopes-and-Vibrato/Envelope-Parameters/Voiced-Attack
\$1;
#X obj 1674 150 route /voiceForm/Envelopes-and-Vibrato/Envelope-Parameters/Voiced-Attack
;
#X obj 1674 170 s \$0-voiceForm/Envelopes-and-Vibrato/Envelope-Parameters/Voiced-Attack
;
#X msg 490 190 0.01;
#X obj 490 210 s \$0-voiceForm/Envelopes-and-Vibrato/Envelope-Parameters/Voiced-Release
;
#X obj 1082 190 r \$0-voiceForm/Envelopes-and-Vibrato/Envelope-Parameters/Voiced-Release
;
#X msg 1082 210 /voiceForm/Envelopes-and-Vibrato/Envelope-Parameters/Voiced-Release
\$1;
#X obj 1674 190 route /voiceForm/Envelopes-and-Vibrato/Envelope-Parameters/Voiced-Release
;
#X obj 1674 210 s \$0-voiceForm/Envelopes-and-Vibrato/Envelope-Parameters/Voiced-Release
;
#X msg 490 230 0.5;
#X obj 490 250 s \$0-voiceForm/Envelopes-and-Vibrato/Vibrato-Parameters/Vibrato-Attack
;
#X obj 1082 230 r \$0-voiceForm/Envelopes-and-Vibrato/Vibrato-Parameters/Vibrato-Attack
;
#X msg 1082 250 /voiceForm/Envelopes-and-Vibrato/Vibrato-Parameters/Vibrato-Attack
\$1;
#X obj 1674 230 route /voiceForm/Envelopes-and-Vibrato/Vibrato-Parameters/Vibrato-Attack
;
#X obj 1674 250 s \$0-voiceForm/Envelopes-and-Vibrato/Vibrato-Parameters/Vibrato-Attack
;
#X msg 490 270 0.05;
#X obj 490 290 s \$0-voiceForm/Envelopes-and-Vibrato/Vibrato-Parameters/Vibrato-Begin
;
#X obj 1082 270 r \$0-voiceForm/Envelopes-and-Vibrato/Vibrato-Parameters/Vibrato-Begin
;
#X msg 1082 290 /voiceForm/Envelopes-and-Vibrato/Vibrato-Parameters/Vibrato-Begin
\$1;
#X obj 1674 270 route /voiceForm/Envelopes-and-Vibrato/Vibrato-Parameters/Vibrato-Begin
;
#X obj 1674 290 s \$0-voiceForm/Envelopes-and-Vibrato/Vibrato-Parameters/Vibrato-Begin
;
#X msg 490 310 6;
#X obj 490 330 s \$0-voiceForm/Envelopes-and-Vibrato/Vibrato-Parameters/Vibrato-Freq
;
#X obj 1082 310 r \$0-voiceForm/Envelopes-and-Vibrato/Vibrato-Parameters/Vibrato-Freq
;
#X msg 1082 330 /voiceForm/Envelopes-and-Vibrato/Vibrato-Parameters/Vibrato-Freq
\$1;
#X obj 1674 310 route /voiceForm/Envelopes-and-Vibrato/Vibrato-Parameters/Vibrato-Freq
;
#X obj 1674 330 s \$0-voiceForm/Envelopes-and-Vibrato/Vibrato-Parameters/Vibrato-Freq
;
#X msg 490 350 0.05;
#X obj 490 370 s \$0-voiceForm/Envelopes-and-Vibrato/Vibrato-Parameters/Vibrato-Gain
;
#X obj 1082 350 r \$0-voiceForm/Envelopes-and-Vibrato/Vibrato-Parameters/Vibrato-Gain
;
#X msg 1082 370 /voiceForm/Envelopes-and-Vibrato/Vibrato-Parameters/Vibrato-Gain
\$1;
#X obj 1674 350 route /voiceForm/Envelopes-and-Vibrato/Vibrato-Parameters/Vibrato-Gain
;
#X obj 1674 370 s \$0-voiceForm/Envelopes-and-Vibrato/Vibrato-Parameters/Vibrato-Gain
;
#X msg 490 390 0.1;
#X obj 490 410 s \$0-voiceForm/Envelopes-and-Vibrato/Vibrato-Parameters/Vibrato-Release
;
#X obj 1082 390 r \$0-voiceForm/Envelopes-and-Vibrato/Vibrato-Parameters/Vibrato-Release
;
#X msg 1085 397 /voiceForm/Envelopes-and-Vibrato/Vibrato-Parameters/Vibrato-Release
\$1;
#X obj 1674 390 route /voiceForm/Envelopes-and-Vibrato/Vibrato-Parameters/Vibrato-Release
;
#X obj 1674 410 s \$0-voiceForm/Envelopes-and-Vibrato/Vibrato-Parameters/Vibrato-Release
;
#X msg 490 430 4;
#X obj 490 450 s \$0-voiceForm/Physical-Parameters/Phoneme;
#X obj 1229 431 r \$0-voiceForm/Physical-Parameters/Phoneme;
#X obj 1674 430 route /voiceForm/Physical-Parameters/Phoneme;
#X obj 1674 450 s \$0-voiceForm/Physical-Parameters/Phoneme;
#X msg 490 470 0.137;
#X obj 490 490 s \$0-voiceForm/Reverb/reverbGain;
#X obj 1082 470 r \$0-voiceForm/Reverb/reverbGain;
#X msg 1082 490 /voiceForm/Reverb/reverbGain \$1;
#X obj 1674 470 route /voiceForm/Reverb/reverbGain;
#X obj 1674 490 s \$0-voiceForm/Reverb/reverbGain;
#X msg 490 510 0.72;
#X obj 490 530 s \$0-voiceForm/Reverb/roomSize;
#X obj 1082 510 r \$0-voiceForm/Reverb/roomSize;
#X msg 1082 530 /voiceForm/Reverb/roomSize \$1;
#X obj 1674 510 route /voiceForm/Reverb/roomSize;
#X obj 1674 530 s \$0-voiceForm/Reverb/roomSize;
#X msg 490 550 0.6;
#X obj 490 570 s \$0-voiceForm/Spat/pan-angle;
#X obj 1082 550 r \$0-voiceForm/Spat/pan-angle;
#X msg 1082 570 /voiceForm/Spat/pan-angle \$1;
#X obj 1674 550 route /voiceForm/Spat/pan-angle;
#X obj 1674 570 s \$0-voiceForm/Spat/pan-angle;
#X msg 490 590 0.5;
#X obj 490 610 s \$0-voiceForm/Spat/spatial-width;
#X obj 1082 590 r \$0-voiceForm/Spat/spatial-width;
#X msg 1082 610 /voiceForm/Spat/spatial-width \$1;
#X obj 1674 590 route /voiceForm/Spat/spatial-width;
#X obj 1674 610 s \$0-voiceForm/Spat/spatial-width;
#X text 0 340 Generated Wed Sep 14 23:09:33 2011 by faust2pd v2.2.
See http://faust.grame.fr and http://pure-lang.googlecode.com.;
#X connect 0 0 8 0;
#X connect 0 0 10 0;
#X connect 1 0 4 0;
#X connect 1 0 14 0;
#X connect 2 0 4 0;
#X connect 3 0 9 0;
#X connect 3 0 11 0;
#X connect 4 0 5 0;
#X connect 6 0 9 0;
#X connect 8 0 9 0;
#X connect 9 0 7 0;
#X connect 9 1 12 0;
#X connect 9 2 13 0;
#X connect 10 0 11 0;
#X connect 11 1 12 0;
#X connect 11 2 13 0;
#X connect 45 0 55 0;
#X connect 45 0 61 0;
#X connect 45 0 67 0;
#X connect 45 0 73 0;
#X connect 45 0 79 0;
#X connect 45 0 85 0;
#X connect 45 0 91 0;
#X connect 45 0 97 0;
#X connect 45 0 103 0;
#X connect 45 0 109 0;
#X connect 45 0 114 0;
#X connect 45 0 120 0;
#X connect 45 0 126 0;
#X connect 45 0 132 0;
#X connect 48 0 53 0;
#X connect 49 0 50 0;
#X connect 51 0 52 0;
#X connect 52 0 46 0;
#X connect 53 0 54 0;
#X connect 53 1 59 0;
#X connect 55 0 56 0;
#X connect 57 0 58 0;
#X connect 58 0 46 0;
#X connect 59 0 60 0;
#X connect 59 1 65 0;
#X connect 61 0 62 0;
#X connect 63 0 64 0;
#X connect 64 0 46 0;
#X connect 65 0 66 0;
#X connect 65 1 71 0;
#X connect 67 0 68 0;
#X connect 69 0 70 0;
#X connect 70 0 46 0;
#X connect 71 0 72 0;
#X connect 71 1 77 0;
#X connect 73 0 74 0;
#X connect 75 0 76 0;
#X connect 76 0 46 0;
#X connect 77 0 78 0;
#X connect 77 1 83 0;
#X connect 79 0 80 0;
#X connect 81 0 82 0;
#X connect 82 0 46 0;
#X connect 83 0 84 0;
#X connect 83 1 89 0;
#X connect 85 0 86 0;
#X connect 87 0 88 0;
#X connect 88 0 46 0;
#X connect 89 0 90 0;
#X connect 89 1 95 0;
#X connect 91 0 92 0;
#X connect 93 0 94 0;
#X connect 94 0 46 0;
#X connect 95 0 96 0;
#X connect 95 1 101 0;
#X connect 97 0 98 0;
#X connect 99 0 100 0;
#X connect 100 0 46 0;
#X connect 101 0 102 0;
#X connect 101 1 107 0;
#X connect 103 0 104 0;
#X connect 105 0 106 0;
#X connect 106 0 46 0;
#X connect 107 0 108 0;
#X connect 107 1 112 0;
#X connect 109 0 110 0;
#X connect 112 0 113 0;
#X connect 112 1 118 0;
#X connect 114 0 115 0;
#X connect 116 0 117 0;
#X connect 117 0 46 0;
#X connect 118 0 119 0;
#X connect 118 1 124 0;
#X connect 120 0 121 0;
#X connect 122 0 123 0;
#X connect 123 0 46 0;
#X connect 124 0 125 0;
#X connect 124 1 130 0;
#X connect 126 0 127 0;
#X connect 128 0 129 0;
#X connect 129 0 46 0;
#X connect 130 0 131 0;
#X connect 130 1 136 0;
#X connect 132 0 133 0;
#X connect 134 0 135 0;
#X connect 135 0 46 0;
#X connect 136 0 137 0;
#X coords 0 -1 1 1 460 320 1 0 0;
