#N canvas 0 0 450 300 10;
#X obj 10 360 inlet;
#X obj 130 360 inlet;
#X obj 190 360 r \$0-read;
#X obj 130 390 r \$0-all;
#X obj 190 390 faust-control \$0;
#X obj 190 420 s \$0-write;
#X obj 130 420 r \$0-in;
#X obj 130 690 s \$0-out;
#X obj 10 450 faust-gate 1;
#X obj 130 450 modalBar~;
#X obj 10 480 faust-gate 2;
#X obj 130 480 modalBar~;
#X obj 10 510 faust-gate 3;
#X obj 130 510 modalBar~;
#X obj 10 540 faust-gate 4;
#X obj 130 540 modalBar~;
#X obj 10 570 faust-gate 5;
#X obj 130 570 modalBar~;
#X obj 10 600 faust-gate 6;
#X obj 130 600 modalBar~;
#X obj 10 630 faust-gate 7;
#X obj 130 630 modalBar~;
#X obj 10 660 faust-gate 8;
#X obj 130 660 modalBar~;
#X obj 130 720 outlet~;
#X obj 190 720 outlet~;
#X obj 10 720 outlet;
#X connect 1 0 4 0;
#X connect 2 0 4 0;
#X connect 4 0 5 0;
#X connect 1 0 26 0;
#X connect 6 0 9 0;
#X connect 9 0 7 0;
#X connect 0 0 8 0;
#X connect 8 0 9 0;
#X connect 3 0 9 0;
#X connect 0 0 10 0;
#X connect 10 0 11 0;
#X connect 3 0 11 0;
#X connect 0 0 12 0;
#X connect 12 0 13 0;
#X connect 3 0 13 0;
#X connect 0 0 14 0;
#X connect 14 0 15 0;
#X connect 3 0 15 0;
#X connect 0 0 16 0;
#X connect 16 0 17 0;
#X connect 3 0 17 0;
#X connect 0 0 18 0;
#X connect 18 0 19 0;
#X connect 3 0 19 0;
#X connect 0 0 20 0;
#X connect 20 0 21 0;
#X connect 3 0 21 0;
#X connect 0 0 22 0;
#X connect 22 0 23 0;
#X connect 3 0 23 0;
#X connect 9 1 24 0;
#X connect 9 2 25 0;
#X connect 11 1 24 0;
#X connect 11 2 25 0;
#X connect 13 1 24 0;
#X connect 13 2 25 0;
#X connect 15 1 24 0;
#X connect 15 2 25 0;
#X connect 17 1 24 0;
#X connect 17 2 25 0;
#X connect 19 1 24 0;
#X connect 19 2 25 0;
#X connect 21 1 24 0;
#X connect 21 2 25 0;
#X connect 23 1 24 0;
#X connect 23 2 25 0;
#X obj 10 30 hsl 128 15 1 15 0 0 \$0-modalBar/Envelopes-and-Vibrato/Vibrato-Parameters/Vibrato-Freq \$0-modalBar/Envelopes-and-Vibrato/Vibrato-Parameters/Vibrato-Freq Vibrato-Freq -2 -6 0 10 -262144 -1 -1 0 1;
#X obj 160 30 nbx 5 14 1 15 0 0 \$0-modalBar/Envelopes-and-Vibrato/Vibrato-Parameters/Vibrato-Freq \$0-modalBar/Envelopes-and-Vibrato/Vibrato-Parameters/Vibrato-Freq empty 0 -6 0 10 -262144 -1 -1 256;
#X obj 10 60 hsl 128 15 0 1 0 0 \$0-modalBar/Envelopes-and-Vibrato/Vibrato-Parameters/Vibrato-Gain \$0-modalBar/Envelopes-and-Vibrato/Vibrato-Parameters/Vibrato-Gain Vibrato-Gain -2 -6 0 10 -262144 -1 -1 0 1;
#X obj 160 60 nbx 5 14 0 1 0 0 \$0-modalBar/Envelopes-and-Vibrato/Vibrato-Parameters/Vibrato-Gain \$0-modalBar/Envelopes-and-Vibrato/Vibrato-Parameters/Vibrato-Gain empty 0 -6 0 10 -262144 -1 -1 256;
#X obj 10 90 hsl 128 15 20 1000 0 0 \$0-modalBar/Physical-and-Nonlinearity/Nonlinear-Filter-Parameters/Modulation-Frequency \$0-modalBar/Physical-and-Nonlinearity/Nonlinear-Filter-Parameters/Modulation-Frequency Modulation-Frequency -2 -6 0 10 -262144 -1 -1 0 1;
#X obj 160 90 nbx 5 14 20 1000 0 0 \$0-modalBar/Physical-and-Nonlinearity/Nonlinear-Filter-Parameters/Modulation-Frequency \$0-modalBar/Physical-and-Nonlinearity/Nonlinear-Filter-Parameters/Modulation-Frequency empty 0 -6 0 10 -262144 -1 -1 256;
#X obj 10 120 nbx 5 14 0 4 0 0 \$0-modalBar/Physical-and-Nonlinearity/Nonlinear-Filter-Parameters/Modulation-Type \$0-modalBar/Physical-and-Nonlinearity/Nonlinear-Filter-Parameters/Modulation-Type Modulation-Type 0 -6 0 10 -262144 -1 -1 256;
#X obj 10 150 hsl 128 15 0 1 0 0 \$0-modalBar/Physical-and-Nonlinearity/Nonlinear-Filter-Parameters/Nonlinearity \$0-modalBar/Physical-and-Nonlinearity/Nonlinear-Filter-Parameters/Nonlinearity Nonlinearity -2 -6 0 10 -262144 -1 -1 0 1;
#X obj 160 150 nbx 5 14 0 1 0 0 \$0-modalBar/Physical-and-Nonlinearity/Nonlinear-Filter-Parameters/Nonlinearity \$0-modalBar/Physical-and-Nonlinearity/Nonlinear-Filter-Parameters/Nonlinearity empty 0 -6 0 10 -262144 -1 -1 256;
#X obj 235 90 nbx 5 14 0 8 0 0 \$0-modalBar/Physical-and-Nonlinearity/Physical-Parameters/Preset \$0-modalBar/Physical-and-Nonlinearity/Physical-Parameters/Preset Preset 0 -6 0 10 -262144 -1 -1 256;
#X obj 235 120 nbx 5 14 0 1 0 0 \$0-modalBar/Physical-and-Nonlinearity/Physical-Parameters/Resonance \$0-modalBar/Physical-and-Nonlinearity/Physical-Parameters/Resonance Resonance 0 -6 0 10 -262144 -1 -1 256;
#X obj 235 150 hsl 128 15 0 1 0 0 \$0-modalBar/Physical-and-Nonlinearity/Physical-Parameters/Stick-Hardness \$0-modalBar/Physical-and-Nonlinearity/Physical-Parameters/Stick-Hardness Stick-Hardness -2 -6 0 10 -262144 -1 -1 0 1;
#X obj 385 150 nbx 5 14 0 1 0 0 \$0-modalBar/Physical-and-Nonlinearity/Physical-Parameters/Stick-Hardness \$0-modalBar/Physical-and-Nonlinearity/Physical-Parameters/Stick-Hardness empty 0 -6 0 10 -262144 -1 -1 256;
#X obj 10 180 hsl 128 15 0 1 0 0 \$0-modalBar/Reverb/reverbGain \$0-modalBar/Reverb/reverbGain reverbGain -2 -6 0 10 -262144 -1 -1 0 1;
#X obj 160 180 nbx 5 14 0 1 0 0 \$0-modalBar/Reverb/reverbGain \$0-modalBar/Reverb/reverbGain empty 0 -6 0 10 -262144 -1 -1 256;
#X obj 10 210 hsl 128 15 0.01 2 0 0 \$0-modalBar/Reverb/roomSize \$0-modalBar/Reverb/roomSize roomSize -2 -6 0 10 -262144 -1 -1 0 1;
#X obj 160 210 nbx 5 14 0.01 2 0 0 \$0-modalBar/Reverb/roomSize \$0-modalBar/Reverb/roomSize empty 0 -6 0 10 -262144 -1 -1 256;
#X obj 10 240 hsl 128 15 0 1 0 0 \$0-modalBar/Spat/pan-angle \$0-modalBar/Spat/pan-angle pan-angle -2 -6 0 10 -262144 -1 -1 0 1;
#X obj 160 240 nbx 5 14 0 1 0 0 \$0-modalBar/Spat/pan-angle \$0-modalBar/Spat/pan-angle empty 0 -6 0 10 -262144 -1 -1 256;
#X obj 10 270 hsl 128 15 0 1 0 0 \$0-modalBar/Spat/spatial-width \$0-modalBar/Spat/spatial-width spatial-width -2 -6 0 10 -262144 -1 -1 0 1;
#X obj 160 270 nbx 5 14 0 1 0 0 \$0-modalBar/Spat/spatial-width \$0-modalBar/Spat/spatial-width empty 0 -6 0 10 -262144 -1 -1 256;
#X obj 422 3 bng 15 250 50 1 \$0-init \$0-ignore empty 0 -6 0 10 -262144 -1 -1;
#X obj 442 3 tgl 15 1 \$0-active \$0-active empty 0 -6 0 10 -262144 -1 -1 1 1;
#X obj 490 10 r \$0-init;
#X obj 1218 10 s \$0-all;
#X obj 1582 10 s \$0-read;
#X obj 1946 10 r \$0-write;
#X msg 490 30 1;
#X obj 490 50 s \$0-active;
#X connect 54 0 55 0;
#X obj 1218 30 r \$0-active;
#X msg 1218 50 active \$1;
#X connect 56 0 57 0;
#X connect 57 0 51 0;
#X obj 1946 30 route active;
#X obj 1946 50 s \$0-active;
#X connect 53 0 58 0;
#X connect 58 0 59 0;
#X msg 490 70 6;
#X obj 490 90 s \$0-modalBar/Envelopes-and-Vibrato/Vibrato-Parameters/Vibrato-Freq;
#X connect 50 0 60 0;
#X connect 60 0 61 0;
#X obj 1218 70 r \$0-modalBar/Envelopes-and-Vibrato/Vibrato-Parameters/Vibrato-Freq;
#X msg 1218 90 /modalBar/Envelopes-and-Vibrato/Vibrato-Parameters/Vibrato-Freq \$1;
#X connect 62 0 63 0;
#X connect 63 0 51 0;
#X obj 1946 70 route /modalBar/Envelopes-and-Vibrato/Vibrato-Parameters/Vibrato-Freq;
#X obj 1946 90 s \$0-modalBar/Envelopes-and-Vibrato/Vibrato-Parameters/Vibrato-Freq;
#X connect 58 1 64 0;
#X connect 64 0 65 0;
#X msg 490 110 0.1;
#X obj 490 130 s \$0-modalBar/Envelopes-and-Vibrato/Vibrato-Parameters/Vibrato-Gain;
#X connect 50 0 66 0;
#X connect 66 0 67 0;
#X obj 1218 110 r \$0-modalBar/Envelopes-and-Vibrato/Vibrato-Parameters/Vibrato-Gain;
#X msg 1218 130 /modalBar/Envelopes-and-Vibrato/Vibrato-Parameters/Vibrato-Gain \$1;
#X connect 68 0 69 0;
#X connect 69 0 51 0;
#X obj 1946 110 route /modalBar/Envelopes-and-Vibrato/Vibrato-Parameters/Vibrato-Gain;
#X obj 1946 130 s \$0-modalBar/Envelopes-and-Vibrato/Vibrato-Parameters/Vibrato-Gain;
#X connect 64 1 70 0;
#X connect 70 0 71 0;
#X msg 490 150 220;
#X obj 490 170 s \$0-modalBar/Physical-and-Nonlinearity/Nonlinear-Filter-Parameters/Modulation-Frequency;
#X connect 50 0 72 0;
#X connect 72 0 73 0;
#X obj 1218 150 r \$0-modalBar/Physical-and-Nonlinearity/Nonlinear-Filter-Parameters/Modulation-Frequency;
#X msg 1218 170 /modalBar/Physical-and-Nonlinearity/Nonlinear-Filter-Parameters/Modulation-Frequency \$1;
#X connect 74 0 75 0;
#X connect 75 0 51 0;
#X obj 1946 150 route /modalBar/Physical-and-Nonlinearity/Nonlinear-Filter-Parameters/Modulation-Frequency;
#X obj 1946 170 s \$0-modalBar/Physical-and-Nonlinearity/Nonlinear-Filter-Parameters/Modulation-Frequency;
#X connect 70 1 76 0;
#X connect 76 0 77 0;
#X msg 490 190 0;
#X obj 490 210 s \$0-modalBar/Physical-and-Nonlinearity/Nonlinear-Filter-Parameters/Modulation-Type;
#X connect 50 0 78 0;
#X connect 78 0 79 0;
#X obj 1218 190 r \$0-modalBar/Physical-and-Nonlinearity/Nonlinear-Filter-Parameters/Modulation-Type;
#X msg 1218 210 /modalBar/Physical-and-Nonlinearity/Nonlinear-Filter-Parameters/Modulation-Type \$1;
#X connect 80 0 81 0;
#X connect 81 0 51 0;
#X obj 1946 190 route /modalBar/Physical-and-Nonlinearity/Nonlinear-Filter-Parameters/Modulation-Type;
#X obj 1946 210 s \$0-modalBar/Physical-and-Nonlinearity/Nonlinear-Filter-Parameters/Modulation-Type;
#X connect 76 1 82 0;
#X connect 82 0 83 0;
#X msg 490 230 0;
#X obj 490 250 s \$0-modalBar/Physical-and-Nonlinearity/Nonlinear-Filter-Parameters/Nonlinearity;
#X connect 50 0 84 0;
#X connect 84 0 85 0;
#X obj 1218 230 r \$0-modalBar/Physical-and-Nonlinearity/Nonlinear-Filter-Parameters/Nonlinearity;
#X msg 1218 250 /modalBar/Physical-and-Nonlinearity/Nonlinear-Filter-Parameters/Nonlinearity \$1;
#X connect 86 0 87 0;
#X connect 87 0 51 0;
#X obj 1946 230 route /modalBar/Physical-and-Nonlinearity/Nonlinear-Filter-Parameters/Nonlinearity;
#X obj 1946 250 s \$0-modalBar/Physical-and-Nonlinearity/Nonlinear-Filter-Parameters/Nonlinearity;
#X connect 82 1 88 0;
#X connect 88 0 89 0;
#X msg 490 270 1;
#X obj 490 290 s \$0-modalBar/Physical-and-Nonlinearity/Physical-Parameters/Preset;
#X connect 50 0 90 0;
#X connect 90 0 91 0;
#X obj 1218 270 r \$0-modalBar/Physical-and-Nonlinearity/Physical-Parameters/Preset;
#X msg 1218 290 /modalBar/Physical-and-Nonlinearity/Physical-Parameters/Preset \$1;
#X connect 92 0 93 0;
#X connect 93 0 51 0;
#X obj 1946 270 route /modalBar/Physical-and-Nonlinearity/Physical-Parameters/Preset;
#X obj 1946 290 s \$0-modalBar/Physical-and-Nonlinearity/Physical-Parameters/Preset;
#X connect 88 1 94 0;
#X connect 94 0 95 0;
#X msg 490 310 1;
#X obj 490 330 s \$0-modalBar/Physical-and-Nonlinearity/Physical-Parameters/Resonance;
#X connect 50 0 96 0;
#X connect 96 0 97 0;
#X obj 1218 310 r \$0-modalBar/Physical-and-Nonlinearity/Physical-Parameters/Resonance;
#X msg 1218 330 /modalBar/Physical-and-Nonlinearity/Physical-Parameters/Resonance \$1;
#X connect 98 0 99 0;
#X connect 99 0 51 0;
#X obj 1946 310 route /modalBar/Physical-and-Nonlinearity/Physical-Parameters/Resonance;
#X obj 1946 330 s \$0-modalBar/Physical-and-Nonlinearity/Physical-Parameters/Resonance;
#X connect 94 1 100 0;
#X connect 100 0 101 0;
#X msg 490 350 0.25;
#X obj 490 370 s \$0-modalBar/Physical-and-Nonlinearity/Physical-Parameters/Stick-Hardness;
#X connect 50 0 102 0;
#X connect 102 0 103 0;
#X obj 1218 350 r \$0-modalBar/Physical-and-Nonlinearity/Physical-Parameters/Stick-Hardness;
#X msg 1218 370 /modalBar/Physical-and-Nonlinearity/Physical-Parameters/Stick-Hardness \$1;
#X connect 104 0 105 0;
#X connect 105 0 51 0;
#X obj 1946 350 route /modalBar/Physical-and-Nonlinearity/Physical-Parameters/Stick-Hardness;
#X obj 1946 370 s \$0-modalBar/Physical-and-Nonlinearity/Physical-Parameters/Stick-Hardness;
#X connect 100 1 106 0;
#X connect 106 0 107 0;
#X msg 490 390 0.137;
#X obj 490 410 s \$0-modalBar/Reverb/reverbGain;
#X connect 50 0 108 0;
#X connect 108 0 109 0;
#X obj 1218 390 r \$0-modalBar/Reverb/reverbGain;
#X msg 1218 410 /modalBar/Reverb/reverbGain \$1;
#X connect 110 0 111 0;
#X connect 111 0 51 0;
#X obj 1946 390 route /modalBar/Reverb/reverbGain;
#X obj 1946 410 s \$0-modalBar/Reverb/reverbGain;
#X connect 106 1 112 0;
#X connect 112 0 113 0;
#X msg 490 430 0.72;
#X obj 490 450 s \$0-modalBar/Reverb/roomSize;
#X connect 50 0 114 0;
#X connect 114 0 115 0;
#X obj 1218 430 r \$0-modalBar/Reverb/roomSize;
#X msg 1218 450 /modalBar/Reverb/roomSize \$1;
#X connect 116 0 117 0;
#X connect 117 0 51 0;
#X obj 1946 430 route /modalBar/Reverb/roomSize;
#X obj 1946 450 s \$0-modalBar/Reverb/roomSize;
#X connect 112 1 118 0;
#X connect 118 0 119 0;
#X msg 490 470 0.6;
#X obj 490 490 s \$0-modalBar/Spat/pan-angle;
#X connect 50 0 120 0;
#X connect 120 0 121 0;
#X obj 1218 470 r \$0-modalBar/Spat/pan-angle;
#X msg 1218 490 /modalBar/Spat/pan-angle \$1;
#X connect 122 0 123 0;
#X connect 123 0 51 0;
#X obj 1946 470 route /modalBar/Spat/pan-angle;
#X obj 1946 490 s \$0-modalBar/Spat/pan-angle;
#X connect 118 1 124 0;
#X connect 124 0 125 0;
#X msg 490 510 0.5;
#X obj 490 530 s \$0-modalBar/Spat/spatial-width;
#X connect 50 0 126 0;
#X connect 126 0 127 0;
#X obj 1218 510 r \$0-modalBar/Spat/spatial-width;
#X msg 1218 530 /modalBar/Spat/spatial-width \$1;
#X connect 128 0 129 0;
#X connect 129 0 51 0;
#X obj 1946 510 route /modalBar/Spat/spatial-width;
#X obj 1946 530 s \$0-modalBar/Spat/spatial-width;
#X connect 124 1 130 0;
#X connect 130 0 131 0;
#X coords 0 -1 1 1 460 290 1 0 0;
#X text 0 310 Generated Fri Sep 16 14:41:42 2011 by faust2pd v2.2. See http://faust.grame.fr and http://pure-lang.googlecode.com.;
