#N canvas 0 0 450 300 10;
#X obj 10 240 inlet;
#X obj 130 240 r \$0-read;
#X obj 130 270 faust-control \$0;
#X obj 130 300 s \$0-write;
#X obj 10 300 r \$0-in;
#X obj 10 330 karplus~;
#X obj 10 360 s \$0-out;
#X obj 70 390 outlet~;
#X obj 10 390 outlet;
#X connect 0 0 2 0;
#X connect 1 0 2 0;
#X connect 2 0 3 0;
#X connect 5 0 6 0;
#X connect 0 0 8 0;
#X connect 4 0 5 0;
#X connect 5 1 7 0;
#X obj 10 30 hsl 128 15 2 512 0 0 \$0-faust/excitator/excitation-samples \$0-faust/excitator/excitation-samples excitation-samples -2 -6 0 8 -262144 -1 -1 0 1;
#X obj 160 30 nbx 5 14 2 512 0 0 \$0-faust/excitator/excitation-samples \$0-faust/excitator/excitation-samples empty 0 -6 0 10 -262144 -1 -1 256;
#X obj 10 60 bng 15 250 50 0 \$0-faust/excitator/play \$0-faust/excitator/play play 0 -6 0 8 -262144 -1 -1;
#X obj 10 90 hsl 128 15 0 1 0 0 \$0-faust/level \$0-faust/level level -2 -6 0 8 -262144 -1 -1 0 1;
#X obj 160 90 nbx 5 14 0 1 0 0 \$0-faust/level \$0-faust/level empty 0 -6 0 10 -262144 -1 -1 256;
#X obj 10 120 hsl 128 15 0 1 0 0 \$0-faust/resonator/attenuation \$0-faust/resonator/attenuation attenuation -2 -6 0 8 -262144 -1 -1 0 1;
#X obj 160 120 nbx 5 14 0 1 0 0 \$0-faust/resonator/attenuation \$0-faust/resonator/attenuation empty 0 -6 0 10 -262144 -1 -1 256;
#X obj 10 150 hsl 128 15 2 512 0 0 \$0-faust/resonator/duration-samples \$0-faust/resonator/duration-samples duration-samples -2 -6 0 8 -262144 -1 -1 0 1;
#X obj 160 150 nbx 5 14 2 512 0 0 \$0-faust/resonator/duration-samples \$0-faust/resonator/duration-samples empty 0 -6 0 10 -262144 -1 -1 256;
#X obj 197 3 bng 15 250 50 1 \$0-init \$0-ignore empty 0 -6 0 8 -262144 -1 -1;
#X obj 217 3 tgl 15 1 \$0-active \$0-active empty 0 -6 0 8 -262144 -1 -1 1 1;
#X obj 450 10 r \$0-init;
#X obj 786 10 s \$0-in;
#X obj 954 10 s \$0-read;
#X obj 1122 10 r \$0-write;
#X msg 450 30 1;
#X obj 450 50 s \$0-active;
#X connect 24 0 25 0;
#X obj 786 30 r \$0-active;
#X msg 786 50 active \$1;
#X connect 26 0 27 0;
#X connect 27 0 21 0;
#X obj 1122 30 route active;
#X obj 1122 50 s \$0-active;
#X connect 23 0 28 0;
#X connect 28 0 29 0;
#X msg 450 70 128;
#X obj 450 90 s \$0-faust/excitator/excitation-samples;
#X connect 20 0 30 0;
#X connect 30 0 31 0;
#X obj 786 70 r \$0-faust/excitator/excitation-samples;
#X msg 786 90 /faust/excitator/excitation-samples \$1;
#X connect 32 0 33 0;
#X connect 33 0 21 0;
#X obj 1122 70 route /faust/excitator/excitation-samples;
#X obj 1122 90 s \$0-faust/excitator/excitation-samples;
#X connect 28 1 34 0;
#X connect 34 0 35 0;
#X msg 450 110 0;
#X obj 450 130 faust-s \$0-faust/excitator/play;
#X connect 20 0 36 0;
#X connect 36 0 37 0;
#X obj 786 110 r \$0-faust/excitator/play;
#X obj 786 130 faust-r /faust/excitator/play;
#X connect 38 0 39 0;
#X connect 39 0 21 0;
#X obj 1122 110 route /faust/excitator/play;
#X obj 1122 130 faust-s \$0-faust/excitator/play;
#X connect 34 1 40 0;
#X connect 40 0 41 0;
#X msg 450 150 0.5;
#X obj 450 170 s \$0-faust/level;
#X connect 20 0 42 0;
#X connect 42 0 43 0;
#X obj 786 150 r \$0-faust/level;
#X msg 786 170 /faust/level \$1;
#X connect 44 0 45 0;
#X connect 45 0 21 0;
#X obj 1122 150 route /faust/level;
#X obj 1122 170 s \$0-faust/level;
#X connect 40 1 46 0;
#X connect 46 0 47 0;
#X msg 450 190 0.1;
#X obj 450 210 s \$0-faust/resonator/attenuation;
#X connect 20 0 48 0;
#X connect 48 0 49 0;
#X obj 786 190 r \$0-faust/resonator/attenuation;
#X msg 786 210 /faust/resonator/attenuation \$1;
#X connect 50 0 51 0;
#X connect 51 0 21 0;
#X obj 1122 190 route /faust/resonator/attenuation;
#X obj 1122 210 s \$0-faust/resonator/attenuation;
#X connect 46 1 52 0;
#X connect 52 0 53 0;
#X msg 450 230 128;
#X obj 450 250 s \$0-faust/resonator/duration-samples;
#X connect 20 0 54 0;
#X connect 54 0 55 0;
#X obj 786 230 r \$0-faust/resonator/duration-samples;
#X msg 786 250 /faust/resonator/duration-samples \$1;
#X connect 56 0 57 0;
#X connect 57 0 21 0;
#X obj 1122 230 route /faust/resonator/duration-samples;
#X obj 1122 250 s \$0-faust/resonator/duration-samples;
#X connect 52 1 58 0;
#X connect 58 0 59 0;
#X coords 0 -1 1 1 235 170 1 0 0;
#X text 0 190 Generated Mon 16 Oct 2006 01:15:52 PM CEST by faust2pd v1.0. See http://faudiostream.sf.net and http://q-lang.sf.net.;
