#N canvas 0 0 450 300 10;
#X obj 70 60 inlet~;
#X obj 130 60 inlet~;
#X obj 190 60 inlet~;
#X obj 250 60 inlet~;
#X obj 310 60 inlet~;
#X obj 370 60 inlet~;
#X obj 430 60 inlet~;
#X obj 490 60 inlet~;
#X obj 10 60 inlet;
#X obj 550 60 r \$0-read;
#X obj 550 90 faust-control \$0;
#X obj 550 120 s \$0-write;
#X obj 10 120 r \$0-in;
#X obj 10 150 matrix~;
#X obj 10 180 s \$0-out;
#X obj 70 210 outlet~;
#X obj 130 210 outlet~;
#X obj 190 210 outlet~;
#X obj 250 210 outlet~;
#X obj 310 210 outlet~;
#X obj 370 210 outlet~;
#X obj 430 210 outlet~;
#X obj 490 210 outlet~;
#X obj 10 210 outlet;
#X connect 8 0 10 0;
#X connect 9 0 10 0;
#X connect 10 0 11 0;
#X connect 13 0 14 0;
#X connect 8 0 23 0;
#X connect 12 0 13 0;
#X connect 0 0 13 1;
#X connect 1 0 13 2;
#X connect 2 0 13 3;
#X connect 3 0 13 4;
#X connect 4 0 13 5;
#X connect 5 0 13 6;
#X connect 6 0 13 7;
#X connect 7 0 13 8;
#X connect 13 1 15 0;
#X connect 13 2 16 0;
#X connect 13 3 17 0;
#X connect 13 4 18 0;
#X connect 13 5 19 0;
#X connect 13 6 20 0;
#X connect 13 7 21 0;
#X connect 13 8 22 0;
#X text 0 10 Generated Mon 16 Oct 2006 01:15:54 PM CEST by faust2pd v1.0. See http://faudiostream.sf.net and http://q-lang.sf.net.;
