#N canvas 0 0 450 300 10;
#X obj 70 450 inlet~;
#X obj 130 450 inlet~;
#X obj 10 450 inlet;
#X obj 190 450 r \$0-read;
#X obj 190 480 faust-control \$0;
#X obj 190 510 s \$0-write;
#X obj 10 510 r \$0-in;
#X obj 10 540 tapiir~;
#X obj 10 570 s \$0-out;
#X obj 70 600 outlet~;
#X obj 130 600 outlet~;
#X obj 10 600 outlet;
#X connect 2 0 4 0;
#X connect 3 0 4 0;
#X connect 4 0 5 0;
#X connect 7 0 8 0;
#X connect 2 0 11 0;
#X connect 6 0 7 0;
#X connect 0 0 7 1;
#X connect 1 0 7 2;
#X connect 7 1 9 0;
#X connect 7 2 10 0;
#X obj 10 30 vsl 15 128 0 1 0 0 \$0-Tapiir/outputs/output-0/gain \$0-Tapiir/outputs/output-0/gain gain 0 -8 0 8 -262144 -1 -1 0 1;
#X obj 10 170 nbx 5 14 0 1 0 0 \$0-Tapiir/outputs/output-0/gain \$0-Tapiir/outputs/output-0/gain empty 0 -6 0 10 -262144 -1 -1 256;
#X obj 85 30 vsl 15 128 0 1 0 0 \$0-Tapiir/outputs/output-0/input-0 \$0-Tapiir/outputs/output-0/input-0 input-0 0 -8 0 8 -262144 -1 -1 0 1;
#X obj 85 170 nbx 5 14 0 1 0 0 \$0-Tapiir/outputs/output-0/input-0 \$0-Tapiir/outputs/output-0/input-0 empty 0 -6 0 10 -262144 -1 -1 256;
#X obj 160 30 vsl 15 128 0 1 0 0 \$0-Tapiir/outputs/output-0/input-1 \$0-Tapiir/outputs/output-0/input-1 input-1 0 -8 0 8 -262144 -1 -1 0 1;
#X obj 160 170 nbx 5 14 0 1 0 0 \$0-Tapiir/outputs/output-0/input-1 \$0-Tapiir/outputs/output-0/input-1 empty 0 -6 0 10 -262144 -1 -1 256;
#X obj 235 30 vsl 15 128 0 1 0 0 \$0-Tapiir/outputs/output-0/tap-0 \$0-Tapiir/outputs/output-0/tap-0 tap-0 0 -8 0 8 -262144 -1 -1 0 1;
#X obj 235 170 nbx 5 14 0 1 0 0 \$0-Tapiir/outputs/output-0/tap-0 \$0-Tapiir/outputs/output-0/tap-0 empty 0 -6 0 10 -262144 -1 -1 256;
#X obj 310 30 vsl 15 128 0 1 0 0 \$0-Tapiir/outputs/output-0/tap-1 \$0-Tapiir/outputs/output-0/tap-1 tap-1 0 -8 0 8 -262144 -1 -1 0 1;
#X obj 310 170 nbx 5 14 0 1 0 0 \$0-Tapiir/outputs/output-0/tap-1 \$0-Tapiir/outputs/output-0/tap-1 empty 0 -6 0 10 -262144 -1 -1 256;
#X obj 385 30 vsl 15 128 0 1 0 0 \$0-Tapiir/outputs/output-0/tap-2 \$0-Tapiir/outputs/output-0/tap-2 tap-2 0 -8 0 8 -262144 -1 -1 0 1;
#X obj 385 170 nbx 5 14 0 1 0 0 \$0-Tapiir/outputs/output-0/tap-2 \$0-Tapiir/outputs/output-0/tap-2 empty 0 -6 0 10 -262144 -1 -1 256;
#X obj 460 30 vsl 15 128 0 1 0 0 \$0-Tapiir/outputs/output-0/tap-3 \$0-Tapiir/outputs/output-0/tap-3 tap-3 0 -8 0 8 -262144 -1 -1 0 1;
#X obj 460 170 nbx 5 14 0 1 0 0 \$0-Tapiir/outputs/output-0/tap-3 \$0-Tapiir/outputs/output-0/tap-3 empty 0 -6 0 10 -262144 -1 -1 256;
#X obj 535 30 vsl 15 128 0 1 0 0 \$0-Tapiir/outputs/output-0/tap-4 \$0-Tapiir/outputs/output-0/tap-4 tap-4 0 -8 0 8 -262144 -1 -1 0 1;
#X obj 535 170 nbx 5 14 0 1 0 0 \$0-Tapiir/outputs/output-0/tap-4 \$0-Tapiir/outputs/output-0/tap-4 empty 0 -6 0 10 -262144 -1 -1 256;
#X obj 610 30 vsl 15 128 0 1 0 0 \$0-Tapiir/outputs/output-0/tap-5 \$0-Tapiir/outputs/output-0/tap-5 tap-5 0 -8 0 8 -262144 -1 -1 0 1;
#X obj 610 170 nbx 5 14 0 1 0 0 \$0-Tapiir/outputs/output-0/tap-5 \$0-Tapiir/outputs/output-0/tap-5 empty 0 -6 0 10 -262144 -1 -1 256;
#X obj 10 210 vsl 15 128 0 1 0 0 \$0-Tapiir/outputs/output-1/gain \$0-Tapiir/outputs/output-1/gain gain 0 -8 0 8 -262144 -1 -1 0 1;
#X obj 10 350 nbx 5 14 0 1 0 0 \$0-Tapiir/outputs/output-1/gain \$0-Tapiir/outputs/output-1/gain empty 0 -6 0 10 -262144 -1 -1 256;
#X obj 85 210 vsl 15 128 0 1 0 0 \$0-Tapiir/outputs/output-1/input-0 \$0-Tapiir/outputs/output-1/input-0 input-0 0 -8 0 8 -262144 -1 -1 0 1;
#X obj 85 350 nbx 5 14 0 1 0 0 \$0-Tapiir/outputs/output-1/input-0 \$0-Tapiir/outputs/output-1/input-0 empty 0 -6 0 10 -262144 -1 -1 256;
#X obj 160 210 vsl 15 128 0 1 0 0 \$0-Tapiir/outputs/output-1/input-1 \$0-Tapiir/outputs/output-1/input-1 input-1 0 -8 0 8 -262144 -1 -1 0 1;
#X obj 160 350 nbx 5 14 0 1 0 0 \$0-Tapiir/outputs/output-1/input-1 \$0-Tapiir/outputs/output-1/input-1 empty 0 -6 0 10 -262144 -1 -1 256;
#X obj 235 210 vsl 15 128 0 1 0 0 \$0-Tapiir/outputs/output-1/tap-0 \$0-Tapiir/outputs/output-1/tap-0 tap-0 0 -8 0 8 -262144 -1 -1 0 1;
#X obj 235 350 nbx 5 14 0 1 0 0 \$0-Tapiir/outputs/output-1/tap-0 \$0-Tapiir/outputs/output-1/tap-0 empty 0 -6 0 10 -262144 -1 -1 256;
#X obj 310 210 vsl 15 128 0 1 0 0 \$0-Tapiir/outputs/output-1/tap-1 \$0-Tapiir/outputs/output-1/tap-1 tap-1 0 -8 0 8 -262144 -1 -1 0 1;
#X obj 310 350 nbx 5 14 0 1 0 0 \$0-Tapiir/outputs/output-1/tap-1 \$0-Tapiir/outputs/output-1/tap-1 empty 0 -6 0 10 -262144 -1 -1 256;
#X obj 385 210 vsl 15 128 0 1 0 0 \$0-Tapiir/outputs/output-1/tap-2 \$0-Tapiir/outputs/output-1/tap-2 tap-2 0 -8 0 8 -262144 -1 -1 0 1;
#X obj 385 350 nbx 5 14 0 1 0 0 \$0-Tapiir/outputs/output-1/tap-2 \$0-Tapiir/outputs/output-1/tap-2 empty 0 -6 0 10 -262144 -1 -1 256;
#X obj 460 210 vsl 15 128 0 1 0 0 \$0-Tapiir/outputs/output-1/tap-3 \$0-Tapiir/outputs/output-1/tap-3 tap-3 0 -8 0 8 -262144 -1 -1 0 1;
#X obj 460 350 nbx 5 14 0 1 0 0 \$0-Tapiir/outputs/output-1/tap-3 \$0-Tapiir/outputs/output-1/tap-3 empty 0 -6 0 10 -262144 -1 -1 256;
#X obj 535 210 vsl 15 128 0 1 0 0 \$0-Tapiir/outputs/output-1/tap-4 \$0-Tapiir/outputs/output-1/tap-4 tap-4 0 -8 0 8 -262144 -1 -1 0 1;
#X obj 535 350 nbx 5 14 0 1 0 0 \$0-Tapiir/outputs/output-1/tap-4 \$0-Tapiir/outputs/output-1/tap-4 empty 0 -6 0 10 -262144 -1 -1 256;
#X obj 610 210 vsl 15 128 0 1 0 0 \$0-Tapiir/outputs/output-1/tap-5 \$0-Tapiir/outputs/output-1/tap-5 tap-5 0 -8 0 8 -262144 -1 -1 0 1;
#X obj 610 350 nbx 5 14 0 1 0 0 \$0-Tapiir/outputs/output-1/tap-5 \$0-Tapiir/outputs/output-1/tap-5 empty 0 -6 0 10 -262144 -1 -1 256;
#X obj 647 3 bng 15 250 50 1 \$0-init \$0-ignore empty 0 -6 0 8 -262144 -1 -1;
#X obj 667 3 tgl 15 1 \$0-active \$0-active empty 0 -6 0 8 -262144 -1 -1 1 1;
#X obj 715 10 r \$0-init;
#X obj 1027 10 s \$0-in;
#X obj 1183 10 s \$0-read;
#X obj 1339 10 r \$0-write;
#X msg 715 30 1;
#X obj 715 50 s \$0-active;
#X connect 54 0 55 0;
#X obj 1027 30 r \$0-active;
#X msg 1027 50 active \$1;
#X connect 56 0 57 0;
#X connect 57 0 51 0;
#X obj 1339 30 route active;
#X obj 1339 50 s \$0-active;
#X connect 53 0 58 0;
#X connect 58 0 59 0;
#X msg 715 70 0;
#X obj 715 90 s \$0-Tapiir/Tap-0/delay-sec;
#X connect 50 0 60 0;
#X connect 60 0 61 0;
#X obj 1027 70 r \$0-Tapiir/Tap-0/delay-sec;
#X msg 1027 90 /Tapiir/Tap-0/delay-sec \$1;
#X connect 62 0 63 0;
#X connect 63 0 51 0;
#X obj 1339 70 route /Tapiir/Tap-0/delay-sec;
#X obj 1339 90 s \$0-Tapiir/Tap-0/delay-sec;
#X connect 58 1 64 0;
#X connect 64 0 65 0;
#X msg 715 110 1;
#X obj 715 130 s \$0-Tapiir/Tap-0/gain;
#X connect 50 0 66 0;
#X connect 66 0 67 0;
#X obj 1027 110 r \$0-Tapiir/Tap-0/gain;
#X msg 1027 130 /Tapiir/Tap-0/gain \$1;
#X connect 68 0 69 0;
#X connect 69 0 51 0;
#X obj 1339 110 route /Tapiir/Tap-0/gain;
#X obj 1339 130 s \$0-Tapiir/Tap-0/gain;
#X connect 64 1 70 0;
#X connect 70 0 71 0;
#X msg 715 150 1;
#X obj 715 170 s \$0-Tapiir/Tap-0/input-0;
#X connect 50 0 72 0;
#X connect 72 0 73 0;
#X obj 1027 150 r \$0-Tapiir/Tap-0/input-0;
#X msg 1027 170 /Tapiir/Tap-0/input-0 \$1;
#X connect 74 0 75 0;
#X connect 75 0 51 0;
#X obj 1339 150 route /Tapiir/Tap-0/input-0;
#X obj 1339 170 s \$0-Tapiir/Tap-0/input-0;
#X connect 70 1 76 0;
#X connect 76 0 77 0;
#X msg 715 190 1;
#X obj 715 210 s \$0-Tapiir/Tap-0/input-1;
#X connect 50 0 78 0;
#X connect 78 0 79 0;
#X obj 1027 190 r \$0-Tapiir/Tap-0/input-1;
#X msg 1027 210 /Tapiir/Tap-0/input-1 \$1;
#X connect 80 0 81 0;
#X connect 81 0 51 0;
#X obj 1339 190 route /Tapiir/Tap-0/input-1;
#X obj 1339 210 s \$0-Tapiir/Tap-0/input-1;
#X connect 76 1 82 0;
#X connect 82 0 83 0;
#X msg 715 230 0;
#X obj 715 250 s \$0-Tapiir/Tap-0/tap-0;
#X connect 50 0 84 0;
#X connect 84 0 85 0;
#X obj 1027 230 r \$0-Tapiir/Tap-0/tap-0;
#X msg 1027 250 /Tapiir/Tap-0/tap-0 \$1;
#X connect 86 0 87 0;
#X connect 87 0 51 0;
#X obj 1339 230 route /Tapiir/Tap-0/tap-0;
#X obj 1339 250 s \$0-Tapiir/Tap-0/tap-0;
#X connect 82 1 88 0;
#X connect 88 0 89 0;
#X msg 715 270 0;
#X obj 715 290 s \$0-Tapiir/Tap-0/tap-1;
#X connect 50 0 90 0;
#X connect 90 0 91 0;
#X obj 1027 270 r \$0-Tapiir/Tap-0/tap-1;
#X msg 1027 290 /Tapiir/Tap-0/tap-1 \$1;
#X connect 92 0 93 0;
#X connect 93 0 51 0;
#X obj 1339 270 route /Tapiir/Tap-0/tap-1;
#X obj 1339 290 s \$0-Tapiir/Tap-0/tap-1;
#X connect 88 1 94 0;
#X connect 94 0 95 0;
#X msg 715 310 0;
#X obj 715 330 s \$0-Tapiir/Tap-0/tap-2;
#X connect 50 0 96 0;
#X connect 96 0 97 0;
#X obj 1027 310 r \$0-Tapiir/Tap-0/tap-2;
#X msg 1027 330 /Tapiir/Tap-0/tap-2 \$1;
#X connect 98 0 99 0;
#X connect 99 0 51 0;
#X obj 1339 310 route /Tapiir/Tap-0/tap-2;
#X obj 1339 330 s \$0-Tapiir/Tap-0/tap-2;
#X connect 94 1 100 0;
#X connect 100 0 101 0;
#X msg 715 350 0;
#X obj 715 370 s \$0-Tapiir/Tap-0/tap-3;
#X connect 50 0 102 0;
#X connect 102 0 103 0;
#X obj 1027 350 r \$0-Tapiir/Tap-0/tap-3;
#X msg 1027 370 /Tapiir/Tap-0/tap-3 \$1;
#X connect 104 0 105 0;
#X connect 105 0 51 0;
#X obj 1339 350 route /Tapiir/Tap-0/tap-3;
#X obj 1339 370 s \$0-Tapiir/Tap-0/tap-3;
#X connect 100 1 106 0;
#X connect 106 0 107 0;
#X msg 715 390 0;
#X obj 715 410 s \$0-Tapiir/Tap-0/tap-4;
#X connect 50 0 108 0;
#X connect 108 0 109 0;
#X obj 1027 390 r \$0-Tapiir/Tap-0/tap-4;
#X msg 1027 410 /Tapiir/Tap-0/tap-4 \$1;
#X connect 110 0 111 0;
#X connect 111 0 51 0;
#X obj 1339 390 route /Tapiir/Tap-0/tap-4;
#X obj 1339 410 s \$0-Tapiir/Tap-0/tap-4;
#X connect 106 1 112 0;
#X connect 112 0 113 0;
#X msg 715 430 0;
#X obj 715 450 s \$0-Tapiir/Tap-0/tap-5;
#X connect 50 0 114 0;
#X connect 114 0 115 0;
#X obj 1027 430 r \$0-Tapiir/Tap-0/tap-5;
#X msg 1027 450 /Tapiir/Tap-0/tap-5 \$1;
#X connect 116 0 117 0;
#X connect 117 0 51 0;
#X obj 1339 430 route /Tapiir/Tap-0/tap-5;
#X obj 1339 450 s \$0-Tapiir/Tap-0/tap-5;
#X connect 112 1 118 0;
#X connect 118 0 119 0;
#X msg 715 470 0;
#X obj 715 490 s \$0-Tapiir/Tap-1/delay-sec;
#X connect 50 0 120 0;
#X connect 120 0 121 0;
#X obj 1027 470 r \$0-Tapiir/Tap-1/delay-sec;
#X msg 1027 490 /Tapiir/Tap-1/delay-sec \$1;
#X connect 122 0 123 0;
#X connect 123 0 51 0;
#X obj 1339 470 route /Tapiir/Tap-1/delay-sec;
#X obj 1339 490 s \$0-Tapiir/Tap-1/delay-sec;
#X connect 118 1 124 0;
#X connect 124 0 125 0;
#X msg 715 510 1;
#X obj 715 530 s \$0-Tapiir/Tap-1/gain;
#X connect 50 0 126 0;
#X connect 126 0 127 0;
#X obj 1027 510 r \$0-Tapiir/Tap-1/gain;
#X msg 1027 530 /Tapiir/Tap-1/gain \$1;
#X connect 128 0 129 0;
#X connect 129 0 51 0;
#X obj 1339 510 route /Tapiir/Tap-1/gain;
#X obj 1339 530 s \$0-Tapiir/Tap-1/gain;
#X connect 124 1 130 0;
#X connect 130 0 131 0;
#X msg 715 550 1;
#X obj 715 570 s \$0-Tapiir/Tap-1/input-0;
#X connect 50 0 132 0;
#X connect 132 0 133 0;
#X obj 1027 550 r \$0-Tapiir/Tap-1/input-0;
#X msg 1027 570 /Tapiir/Tap-1/input-0 \$1;
#X connect 134 0 135 0;
#X connect 135 0 51 0;
#X obj 1339 550 route /Tapiir/Tap-1/input-0;
#X obj 1339 570 s \$0-Tapiir/Tap-1/input-0;
#X connect 130 1 136 0;
#X connect 136 0 137 0;
#X msg 715 590 1;
#X obj 715 610 s \$0-Tapiir/Tap-1/input-1;
#X connect 50 0 138 0;
#X connect 138 0 139 0;
#X obj 1027 590 r \$0-Tapiir/Tap-1/input-1;
#X msg 1027 610 /Tapiir/Tap-1/input-1 \$1;
#X connect 140 0 141 0;
#X connect 141 0 51 0;
#X obj 1339 590 route /Tapiir/Tap-1/input-1;
#X obj 1339 610 s \$0-Tapiir/Tap-1/input-1;
#X connect 136 1 142 0;
#X connect 142 0 143 0;
#X msg 715 630 0;
#X obj 715 650 s \$0-Tapiir/Tap-1/tap-0;
#X connect 50 0 144 0;
#X connect 144 0 145 0;
#X obj 1027 630 r \$0-Tapiir/Tap-1/tap-0;
#X msg 1027 650 /Tapiir/Tap-1/tap-0 \$1;
#X connect 146 0 147 0;
#X connect 147 0 51 0;
#X obj 1339 630 route /Tapiir/Tap-1/tap-0;
#X obj 1339 650 s \$0-Tapiir/Tap-1/tap-0;
#X connect 142 1 148 0;
#X connect 148 0 149 0;
#X msg 715 670 0;
#X obj 715 690 s \$0-Tapiir/Tap-1/tap-1;
#X connect 50 0 150 0;
#X connect 150 0 151 0;
#X obj 1027 670 r \$0-Tapiir/Tap-1/tap-1;
#X msg 1027 690 /Tapiir/Tap-1/tap-1 \$1;
#X connect 152 0 153 0;
#X connect 153 0 51 0;
#X obj 1339 670 route /Tapiir/Tap-1/tap-1;
#X obj 1339 690 s \$0-Tapiir/Tap-1/tap-1;
#X connect 148 1 154 0;
#X connect 154 0 155 0;
#X msg 715 710 0;
#X obj 715 730 s \$0-Tapiir/Tap-1/tap-2;
#X connect 50 0 156 0;
#X connect 156 0 157 0;
#X obj 1027 710 r \$0-Tapiir/Tap-1/tap-2;
#X msg 1027 730 /Tapiir/Tap-1/tap-2 \$1;
#X connect 158 0 159 0;
#X connect 159 0 51 0;
#X obj 1339 710 route /Tapiir/Tap-1/tap-2;
#X obj 1339 730 s \$0-Tapiir/Tap-1/tap-2;
#X connect 154 1 160 0;
#X connect 160 0 161 0;
#X msg 715 750 0;
#X obj 715 770 s \$0-Tapiir/Tap-1/tap-3;
#X connect 50 0 162 0;
#X connect 162 0 163 0;
#X obj 1027 750 r \$0-Tapiir/Tap-1/tap-3;
#X msg 1027 770 /Tapiir/Tap-1/tap-3 \$1;
#X connect 164 0 165 0;
#X connect 165 0 51 0;
#X obj 1339 750 route /Tapiir/Tap-1/tap-3;
#X obj 1339 770 s \$0-Tapiir/Tap-1/tap-3;
#X connect 160 1 166 0;
#X connect 166 0 167 0;
#X msg 715 790 0;
#X obj 715 810 s \$0-Tapiir/Tap-1/tap-4;
#X connect 50 0 168 0;
#X connect 168 0 169 0;
#X obj 1027 790 r \$0-Tapiir/Tap-1/tap-4;
#X msg 1027 810 /Tapiir/Tap-1/tap-4 \$1;
#X connect 170 0 171 0;
#X connect 171 0 51 0;
#X obj 1339 790 route /Tapiir/Tap-1/tap-4;
#X obj 1339 810 s \$0-Tapiir/Tap-1/tap-4;
#X connect 166 1 172 0;
#X connect 172 0 173 0;
#X msg 715 830 0;
#X obj 715 850 s \$0-Tapiir/Tap-1/tap-5;
#X connect 50 0 174 0;
#X connect 174 0 175 0;
#X obj 1027 830 r \$0-Tapiir/Tap-1/tap-5;
#X msg 1027 850 /Tapiir/Tap-1/tap-5 \$1;
#X connect 176 0 177 0;
#X connect 177 0 51 0;
#X obj 1339 830 route /Tapiir/Tap-1/tap-5;
#X obj 1339 850 s \$0-Tapiir/Tap-1/tap-5;
#X connect 172 1 178 0;
#X connect 178 0 179 0;
#X msg 715 870 0;
#X obj 715 890 s \$0-Tapiir/Tap-2/delay-sec;
#X connect 50 0 180 0;
#X connect 180 0 181 0;
#X obj 1027 870 r \$0-Tapiir/Tap-2/delay-sec;
#X msg 1027 890 /Tapiir/Tap-2/delay-sec \$1;
#X connect 182 0 183 0;
#X connect 183 0 51 0;
#X obj 1339 870 route /Tapiir/Tap-2/delay-sec;
#X obj 1339 890 s \$0-Tapiir/Tap-2/delay-sec;
#X connect 178 1 184 0;
#X connect 184 0 185 0;
#X msg 715 910 1;
#X obj 715 930 s \$0-Tapiir/Tap-2/gain;
#X connect 50 0 186 0;
#X connect 186 0 187 0;
#X obj 1027 910 r \$0-Tapiir/Tap-2/gain;
#X msg 1027 930 /Tapiir/Tap-2/gain \$1;
#X connect 188 0 189 0;
#X connect 189 0 51 0;
#X obj 1339 910 route /Tapiir/Tap-2/gain;
#X obj 1339 930 s \$0-Tapiir/Tap-2/gain;
#X connect 184 1 190 0;
#X connect 190 0 191 0;
#X msg 715 950 1;
#X obj 715 970 s \$0-Tapiir/Tap-2/input-0;
#X connect 50 0 192 0;
#X connect 192 0 193 0;
#X obj 1027 950 r \$0-Tapiir/Tap-2/input-0;
#X msg 1027 970 /Tapiir/Tap-2/input-0 \$1;
#X connect 194 0 195 0;
#X connect 195 0 51 0;
#X obj 1339 950 route /Tapiir/Tap-2/input-0;
#X obj 1339 970 s \$0-Tapiir/Tap-2/input-0;
#X connect 190 1 196 0;
#X connect 196 0 197 0;
#X msg 715 990 1;
#X obj 715 1010 s \$0-Tapiir/Tap-2/input-1;
#X connect 50 0 198 0;
#X connect 198 0 199 0;
#X obj 1027 990 r \$0-Tapiir/Tap-2/input-1;
#X msg 1027 1010 /Tapiir/Tap-2/input-1 \$1;
#X connect 200 0 201 0;
#X connect 201 0 51 0;
#X obj 1339 990 route /Tapiir/Tap-2/input-1;
#X obj 1339 1010 s \$0-Tapiir/Tap-2/input-1;
#X connect 196 1 202 0;
#X connect 202 0 203 0;
#X msg 715 1030 0;
#X obj 715 1050 s \$0-Tapiir/Tap-2/tap-0;
#X connect 50 0 204 0;
#X connect 204 0 205 0;
#X obj 1027 1030 r \$0-Tapiir/Tap-2/tap-0;
#X msg 1027 1050 /Tapiir/Tap-2/tap-0 \$1;
#X connect 206 0 207 0;
#X connect 207 0 51 0;
#X obj 1339 1030 route /Tapiir/Tap-2/tap-0;
#X obj 1339 1050 s \$0-Tapiir/Tap-2/tap-0;
#X connect 202 1 208 0;
#X connect 208 0 209 0;
#X msg 715 1070 0;
#X obj 715 1090 s \$0-Tapiir/Tap-2/tap-1;
#X connect 50 0 210 0;
#X connect 210 0 211 0;
#X obj 1027 1070 r \$0-Tapiir/Tap-2/tap-1;
#X msg 1027 1090 /Tapiir/Tap-2/tap-1 \$1;
#X connect 212 0 213 0;
#X connect 213 0 51 0;
#X obj 1339 1070 route /Tapiir/Tap-2/tap-1;
#X obj 1339 1090 s \$0-Tapiir/Tap-2/tap-1;
#X connect 208 1 214 0;
#X connect 214 0 215 0;
#X msg 715 1110 0;
#X obj 715 1130 s \$0-Tapiir/Tap-2/tap-2;
#X connect 50 0 216 0;
#X connect 216 0 217 0;
#X obj 1027 1110 r \$0-Tapiir/Tap-2/tap-2;
#X msg 1027 1130 /Tapiir/Tap-2/tap-2 \$1;
#X connect 218 0 219 0;
#X connect 219 0 51 0;
#X obj 1339 1110 route /Tapiir/Tap-2/tap-2;
#X obj 1339 1130 s \$0-Tapiir/Tap-2/tap-2;
#X connect 214 1 220 0;
#X connect 220 0 221 0;
#X msg 715 1150 0;
#X obj 715 1170 s \$0-Tapiir/Tap-2/tap-3;
#X connect 50 0 222 0;
#X connect 222 0 223 0;
#X obj 1027 1150 r \$0-Tapiir/Tap-2/tap-3;
#X msg 1027 1170 /Tapiir/Tap-2/tap-3 \$1;
#X connect 224 0 225 0;
#X connect 225 0 51 0;
#X obj 1339 1150 route /Tapiir/Tap-2/tap-3;
#X obj 1339 1170 s \$0-Tapiir/Tap-2/tap-3;
#X connect 220 1 226 0;
#X connect 226 0 227 0;
#X msg 715 1190 0;
#X obj 715 1210 s \$0-Tapiir/Tap-2/tap-4;
#X connect 50 0 228 0;
#X connect 228 0 229 0;
#X obj 1027 1190 r \$0-Tapiir/Tap-2/tap-4;
#X msg 1027 1210 /Tapiir/Tap-2/tap-4 \$1;
#X connect 230 0 231 0;
#X connect 231 0 51 0;
#X obj 1339 1190 route /Tapiir/Tap-2/tap-4;
#X obj 1339 1210 s \$0-Tapiir/Tap-2/tap-4;
#X connect 226 1 232 0;
#X connect 232 0 233 0;
#X msg 715 1230 0;
#X obj 715 1250 s \$0-Tapiir/Tap-2/tap-5;
#X connect 50 0 234 0;
#X connect 234 0 235 0;
#X obj 1027 1230 r \$0-Tapiir/Tap-2/tap-5;
#X msg 1027 1250 /Tapiir/Tap-2/tap-5 \$1;
#X connect 236 0 237 0;
#X connect 237 0 51 0;
#X obj 1339 1230 route /Tapiir/Tap-2/tap-5;
#X obj 1339 1250 s \$0-Tapiir/Tap-2/tap-5;
#X connect 232 1 238 0;
#X connect 238 0 239 0;
#X msg 715 1270 0;
#X obj 715 1290 s \$0-Tapiir/Tap-3/delay-sec;
#X connect 50 0 240 0;
#X connect 240 0 241 0;
#X obj 1027 1270 r \$0-Tapiir/Tap-3/delay-sec;
#X msg 1027 1290 /Tapiir/Tap-3/delay-sec \$1;
#X connect 242 0 243 0;
#X connect 243 0 51 0;
#X obj 1339 1270 route /Tapiir/Tap-3/delay-sec;
#X obj 1339 1290 s \$0-Tapiir/Tap-3/delay-sec;
#X connect 238 1 244 0;
#X connect 244 0 245 0;
#X msg 715 1310 1;
#X obj 715 1330 s \$0-Tapiir/Tap-3/gain;
#X connect 50 0 246 0;
#X connect 246 0 247 0;
#X obj 1027 1310 r \$0-Tapiir/Tap-3/gain;
#X msg 1027 1330 /Tapiir/Tap-3/gain \$1;
#X connect 248 0 249 0;
#X connect 249 0 51 0;
#X obj 1339 1310 route /Tapiir/Tap-3/gain;
#X obj 1339 1330 s \$0-Tapiir/Tap-3/gain;
#X connect 244 1 250 0;
#X connect 250 0 251 0;
#X msg 715 1350 1;
#X obj 715 1370 s \$0-Tapiir/Tap-3/input-0;
#X connect 50 0 252 0;
#X connect 252 0 253 0;
#X obj 1027 1350 r \$0-Tapiir/Tap-3/input-0;
#X msg 1027 1370 /Tapiir/Tap-3/input-0 \$1;
#X connect 254 0 255 0;
#X connect 255 0 51 0;
#X obj 1339 1350 route /Tapiir/Tap-3/input-0;
#X obj 1339 1370 s \$0-Tapiir/Tap-3/input-0;
#X connect 250 1 256 0;
#X connect 256 0 257 0;
#X msg 715 1390 1;
#X obj 715 1410 s \$0-Tapiir/Tap-3/input-1;
#X connect 50 0 258 0;
#X connect 258 0 259 0;
#X obj 1027 1390 r \$0-Tapiir/Tap-3/input-1;
#X msg 1027 1410 /Tapiir/Tap-3/input-1 \$1;
#X connect 260 0 261 0;
#X connect 261 0 51 0;
#X obj 1339 1390 route /Tapiir/Tap-3/input-1;
#X obj 1339 1410 s \$0-Tapiir/Tap-3/input-1;
#X connect 256 1 262 0;
#X connect 262 0 263 0;
#X msg 715 1430 0;
#X obj 715 1450 s \$0-Tapiir/Tap-3/tap-0;
#X connect 50 0 264 0;
#X connect 264 0 265 0;
#X obj 1027 1430 r \$0-Tapiir/Tap-3/tap-0;
#X msg 1027 1450 /Tapiir/Tap-3/tap-0 \$1;
#X connect 266 0 267 0;
#X connect 267 0 51 0;
#X obj 1339 1430 route /Tapiir/Tap-3/tap-0;
#X obj 1339 1450 s \$0-Tapiir/Tap-3/tap-0;
#X connect 262 1 268 0;
#X connect 268 0 269 0;
#X msg 715 1470 0;
#X obj 715 1490 s \$0-Tapiir/Tap-3/tap-1;
#X connect 50 0 270 0;
#X connect 270 0 271 0;
#X obj 1027 1470 r \$0-Tapiir/Tap-3/tap-1;
#X msg 1027 1490 /Tapiir/Tap-3/tap-1 \$1;
#X connect 272 0 273 0;
#X connect 273 0 51 0;
#X obj 1339 1470 route /Tapiir/Tap-3/tap-1;
#X obj 1339 1490 s \$0-Tapiir/Tap-3/tap-1;
#X connect 268 1 274 0;
#X connect 274 0 275 0;
#X msg 715 1510 0;
#X obj 715 1530 s \$0-Tapiir/Tap-3/tap-2;
#X connect 50 0 276 0;
#X connect 276 0 277 0;
#X obj 1027 1510 r \$0-Tapiir/Tap-3/tap-2;
#X msg 1027 1530 /Tapiir/Tap-3/tap-2 \$1;
#X connect 278 0 279 0;
#X connect 279 0 51 0;
#X obj 1339 1510 route /Tapiir/Tap-3/tap-2;
#X obj 1339 1530 s \$0-Tapiir/Tap-3/tap-2;
#X connect 274 1 280 0;
#X connect 280 0 281 0;
#X msg 715 1550 0;
#X obj 715 1570 s \$0-Tapiir/Tap-3/tap-3;
#X connect 50 0 282 0;
#X connect 282 0 283 0;
#X obj 1027 1550 r \$0-Tapiir/Tap-3/tap-3;
#X msg 1027 1570 /Tapiir/Tap-3/tap-3 \$1;
#X connect 284 0 285 0;
#X connect 285 0 51 0;
#X obj 1339 1550 route /Tapiir/Tap-3/tap-3;
#X obj 1339 1570 s \$0-Tapiir/Tap-3/tap-3;
#X connect 280 1 286 0;
#X connect 286 0 287 0;
#X msg 715 1590 0;
#X obj 715 1610 s \$0-Tapiir/Tap-3/tap-4;
#X connect 50 0 288 0;
#X connect 288 0 289 0;
#X obj 1027 1590 r \$0-Tapiir/Tap-3/tap-4;
#X msg 1027 1610 /Tapiir/Tap-3/tap-4 \$1;
#X connect 290 0 291 0;
#X connect 291 0 51 0;
#X obj 1339 1590 route /Tapiir/Tap-3/tap-4;
#X obj 1339 1610 s \$0-Tapiir/Tap-3/tap-4;
#X connect 286 1 292 0;
#X connect 292 0 293 0;
#X msg 715 1630 0;
#X obj 715 1650 s \$0-Tapiir/Tap-3/tap-5;
#X connect 50 0 294 0;
#X connect 294 0 295 0;
#X obj 1027 1630 r \$0-Tapiir/Tap-3/tap-5;
#X msg 1027 1650 /Tapiir/Tap-3/tap-5 \$1;
#X connect 296 0 297 0;
#X connect 297 0 51 0;
#X obj 1339 1630 route /Tapiir/Tap-3/tap-5;
#X obj 1339 1650 s \$0-Tapiir/Tap-3/tap-5;
#X connect 292 1 298 0;
#X connect 298 0 299 0;
#X msg 715 1670 0;
#X obj 715 1690 s \$0-Tapiir/Tap-4/delay-sec;
#X connect 50 0 300 0;
#X connect 300 0 301 0;
#X obj 1027 1670 r \$0-Tapiir/Tap-4/delay-sec;
#X msg 1027 1690 /Tapiir/Tap-4/delay-sec \$1;
#X connect 302 0 303 0;
#X connect 303 0 51 0;
#X obj 1339 1670 route /Tapiir/Tap-4/delay-sec;
#X obj 1339 1690 s \$0-Tapiir/Tap-4/delay-sec;
#X connect 298 1 304 0;
#X connect 304 0 305 0;
#X msg 715 1710 1;
#X obj 715 1730 s \$0-Tapiir/Tap-4/gain;
#X connect 50 0 306 0;
#X connect 306 0 307 0;
#X obj 1027 1710 r \$0-Tapiir/Tap-4/gain;
#X msg 1027 1730 /Tapiir/Tap-4/gain \$1;
#X connect 308 0 309 0;
#X connect 309 0 51 0;
#X obj 1339 1710 route /Tapiir/Tap-4/gain;
#X obj 1339 1730 s \$0-Tapiir/Tap-4/gain;
#X connect 304 1 310 0;
#X connect 310 0 311 0;
#X msg 715 1750 1;
#X obj 715 1770 s \$0-Tapiir/Tap-4/input-0;
#X connect 50 0 312 0;
#X connect 312 0 313 0;
#X obj 1027 1750 r \$0-Tapiir/Tap-4/input-0;
#X msg 1027 1770 /Tapiir/Tap-4/input-0 \$1;
#X connect 314 0 315 0;
#X connect 315 0 51 0;
#X obj 1339 1750 route /Tapiir/Tap-4/input-0;
#X obj 1339 1770 s \$0-Tapiir/Tap-4/input-0;
#X connect 310 1 316 0;
#X connect 316 0 317 0;
#X msg 715 1790 1;
#X obj 715 1810 s \$0-Tapiir/Tap-4/input-1;
#X connect 50 0 318 0;
#X connect 318 0 319 0;
#X obj 1027 1790 r \$0-Tapiir/Tap-4/input-1;
#X msg 1027 1810 /Tapiir/Tap-4/input-1 \$1;
#X connect 320 0 321 0;
#X connect 321 0 51 0;
#X obj 1339 1790 route /Tapiir/Tap-4/input-1;
#X obj 1339 1810 s \$0-Tapiir/Tap-4/input-1;
#X connect 316 1 322 0;
#X connect 322 0 323 0;
#X msg 715 1830 0;
#X obj 715 1850 s \$0-Tapiir/Tap-4/tap-0;
#X connect 50 0 324 0;
#X connect 324 0 325 0;
#X obj 1027 1830 r \$0-Tapiir/Tap-4/tap-0;
#X msg 1027 1850 /Tapiir/Tap-4/tap-0 \$1;
#X connect 326 0 327 0;
#X connect 327 0 51 0;
#X obj 1339 1830 route /Tapiir/Tap-4/tap-0;
#X obj 1339 1850 s \$0-Tapiir/Tap-4/tap-0;
#X connect 322 1 328 0;
#X connect 328 0 329 0;
#X msg 715 1870 0;
#X obj 715 1890 s \$0-Tapiir/Tap-4/tap-1;
#X connect 50 0 330 0;
#X connect 330 0 331 0;
#X obj 1027 1870 r \$0-Tapiir/Tap-4/tap-1;
#X msg 1027 1890 /Tapiir/Tap-4/tap-1 \$1;
#X connect 332 0 333 0;
#X connect 333 0 51 0;
#X obj 1339 1870 route /Tapiir/Tap-4/tap-1;
#X obj 1339 1890 s \$0-Tapiir/Tap-4/tap-1;
#X connect 328 1 334 0;
#X connect 334 0 335 0;
#X msg 715 1910 0;
#X obj 715 1930 s \$0-Tapiir/Tap-4/tap-2;
#X connect 50 0 336 0;
#X connect 336 0 337 0;
#X obj 1027 1910 r \$0-Tapiir/Tap-4/tap-2;
#X msg 1027 1930 /Tapiir/Tap-4/tap-2 \$1;
#X connect 338 0 339 0;
#X connect 339 0 51 0;
#X obj 1339 1910 route /Tapiir/Tap-4/tap-2;
#X obj 1339 1930 s \$0-Tapiir/Tap-4/tap-2;
#X connect 334 1 340 0;
#X connect 340 0 341 0;
#X msg 715 1950 0;
#X obj 715 1970 s \$0-Tapiir/Tap-4/tap-3;
#X connect 50 0 342 0;
#X connect 342 0 343 0;
#X obj 1027 1950 r \$0-Tapiir/Tap-4/tap-3;
#X msg 1027 1970 /Tapiir/Tap-4/tap-3 \$1;
#X connect 344 0 345 0;
#X connect 345 0 51 0;
#X obj 1339 1950 route /Tapiir/Tap-4/tap-3;
#X obj 1339 1970 s \$0-Tapiir/Tap-4/tap-3;
#X connect 340 1 346 0;
#X connect 346 0 347 0;
#X msg 715 1990 0;
#X obj 715 2010 s \$0-Tapiir/Tap-4/tap-4;
#X connect 50 0 348 0;
#X connect 348 0 349 0;
#X obj 1027 1990 r \$0-Tapiir/Tap-4/tap-4;
#X msg 1027 2010 /Tapiir/Tap-4/tap-4 \$1;
#X connect 350 0 351 0;
#X connect 351 0 51 0;
#X obj 1339 1990 route /Tapiir/Tap-4/tap-4;
#X obj 1339 2010 s \$0-Tapiir/Tap-4/tap-4;
#X connect 346 1 352 0;
#X connect 352 0 353 0;
#X msg 715 2030 0;
#X obj 715 2050 s \$0-Tapiir/Tap-4/tap-5;
#X connect 50 0 354 0;
#X connect 354 0 355 0;
#X obj 1027 2030 r \$0-Tapiir/Tap-4/tap-5;
#X msg 1027 2050 /Tapiir/Tap-4/tap-5 \$1;
#X connect 356 0 357 0;
#X connect 357 0 51 0;
#X obj 1339 2030 route /Tapiir/Tap-4/tap-5;
#X obj 1339 2050 s \$0-Tapiir/Tap-4/tap-5;
#X connect 352 1 358 0;
#X connect 358 0 359 0;
#X msg 715 2070 0;
#X obj 715 2090 s \$0-Tapiir/Tap-5/delay-sec;
#X connect 50 0 360 0;
#X connect 360 0 361 0;
#X obj 1027 2070 r \$0-Tapiir/Tap-5/delay-sec;
#X msg 1027 2090 /Tapiir/Tap-5/delay-sec \$1;
#X connect 362 0 363 0;
#X connect 363 0 51 0;
#X obj 1339 2070 route /Tapiir/Tap-5/delay-sec;
#X obj 1339 2090 s \$0-Tapiir/Tap-5/delay-sec;
#X connect 358 1 364 0;
#X connect 364 0 365 0;
#X msg 715 2110 1;
#X obj 715 2130 s \$0-Tapiir/Tap-5/gain;
#X connect 50 0 366 0;
#X connect 366 0 367 0;
#X obj 1027 2110 r \$0-Tapiir/Tap-5/gain;
#X msg 1027 2130 /Tapiir/Tap-5/gain \$1;
#X connect 368 0 369 0;
#X connect 369 0 51 0;
#X obj 1339 2110 route /Tapiir/Tap-5/gain;
#X obj 1339 2130 s \$0-Tapiir/Tap-5/gain;
#X connect 364 1 370 0;
#X connect 370 0 371 0;
#X msg 715 2150 1;
#X obj 715 2170 s \$0-Tapiir/Tap-5/input-0;
#X connect 50 0 372 0;
#X connect 372 0 373 0;
#X obj 1027 2150 r \$0-Tapiir/Tap-5/input-0;
#X msg 1027 2170 /Tapiir/Tap-5/input-0 \$1;
#X connect 374 0 375 0;
#X connect 375 0 51 0;
#X obj 1339 2150 route /Tapiir/Tap-5/input-0;
#X obj 1339 2170 s \$0-Tapiir/Tap-5/input-0;
#X connect 370 1 376 0;
#X connect 376 0 377 0;
#X msg 715 2190 1;
#X obj 715 2210 s \$0-Tapiir/Tap-5/input-1;
#X connect 50 0 378 0;
#X connect 378 0 379 0;
#X obj 1027 2190 r \$0-Tapiir/Tap-5/input-1;
#X msg 1027 2210 /Tapiir/Tap-5/input-1 \$1;
#X connect 380 0 381 0;
#X connect 381 0 51 0;
#X obj 1339 2190 route /Tapiir/Tap-5/input-1;
#X obj 1339 2210 s \$0-Tapiir/Tap-5/input-1;
#X connect 376 1 382 0;
#X connect 382 0 383 0;
#X msg 715 2230 0;
#X obj 715 2250 s \$0-Tapiir/Tap-5/tap-0;
#X connect 50 0 384 0;
#X connect 384 0 385 0;
#X obj 1027 2230 r \$0-Tapiir/Tap-5/tap-0;
#X msg 1027 2250 /Tapiir/Tap-5/tap-0 \$1;
#X connect 386 0 387 0;
#X connect 387 0 51 0;
#X obj 1339 2230 route /Tapiir/Tap-5/tap-0;
#X obj 1339 2250 s \$0-Tapiir/Tap-5/tap-0;
#X connect 382 1 388 0;
#X connect 388 0 389 0;
#X msg 715 2270 0;
#X obj 715 2290 s \$0-Tapiir/Tap-5/tap-1;
#X connect 50 0 390 0;
#X connect 390 0 391 0;
#X obj 1027 2270 r \$0-Tapiir/Tap-5/tap-1;
#X msg 1027 2290 /Tapiir/Tap-5/tap-1 \$1;
#X connect 392 0 393 0;
#X connect 393 0 51 0;
#X obj 1339 2270 route /Tapiir/Tap-5/tap-1;
#X obj 1339 2290 s \$0-Tapiir/Tap-5/tap-1;
#X connect 388 1 394 0;
#X connect 394 0 395 0;
#X msg 715 2310 0;
#X obj 715 2330 s \$0-Tapiir/Tap-5/tap-2;
#X connect 50 0 396 0;
#X connect 396 0 397 0;
#X obj 1027 2310 r \$0-Tapiir/Tap-5/tap-2;
#X msg 1027 2330 /Tapiir/Tap-5/tap-2 \$1;
#X connect 398 0 399 0;
#X connect 399 0 51 0;
#X obj 1339 2310 route /Tapiir/Tap-5/tap-2;
#X obj 1339 2330 s \$0-Tapiir/Tap-5/tap-2;
#X connect 394 1 400 0;
#X connect 400 0 401 0;
#X msg 715 2350 0;
#X obj 715 2370 s \$0-Tapiir/Tap-5/tap-3;
#X connect 50 0 402 0;
#X connect 402 0 403 0;
#X obj 1027 2350 r \$0-Tapiir/Tap-5/tap-3;
#X msg 1027 2370 /Tapiir/Tap-5/tap-3 \$1;
#X connect 404 0 405 0;
#X connect 405 0 51 0;
#X obj 1339 2350 route /Tapiir/Tap-5/tap-3;
#X obj 1339 2370 s \$0-Tapiir/Tap-5/tap-3;
#X connect 400 1 406 0;
#X connect 406 0 407 0;
#X msg 715 2390 0;
#X obj 715 2410 s \$0-Tapiir/Tap-5/tap-4;
#X connect 50 0 408 0;
#X connect 408 0 409 0;
#X obj 1027 2390 r \$0-Tapiir/Tap-5/tap-4;
#X msg 1027 2410 /Tapiir/Tap-5/tap-4 \$1;
#X connect 410 0 411 0;
#X connect 411 0 51 0;
#X obj 1339 2390 route /Tapiir/Tap-5/tap-4;
#X obj 1339 2410 s \$0-Tapiir/Tap-5/tap-4;
#X connect 406 1 412 0;
#X connect 412 0 413 0;
#X msg 715 2430 0;
#X obj 715 2450 s \$0-Tapiir/Tap-5/tap-5;
#X connect 50 0 414 0;
#X connect 414 0 415 0;
#X obj 1027 2430 r \$0-Tapiir/Tap-5/tap-5;
#X msg 1027 2450 /Tapiir/Tap-5/tap-5 \$1;
#X connect 416 0 417 0;
#X connect 417 0 51 0;
#X obj 1339 2430 route /Tapiir/Tap-5/tap-5;
#X obj 1339 2450 s \$0-Tapiir/Tap-5/tap-5;
#X connect 412 1 418 0;
#X connect 418 0 419 0;
#X msg 715 2470 1;
#X obj 715 2490 s \$0-Tapiir/outputs/output-0/gain;
#X connect 50 0 420 0;
#X connect 420 0 421 0;
#X obj 1027 2470 r \$0-Tapiir/outputs/output-0/gain;
#X msg 1027 2490 /Tapiir/outputs/output-0/gain \$1;
#X connect 422 0 423 0;
#X connect 423 0 51 0;
#X obj 1339 2470 route /Tapiir/outputs/output-0/gain;
#X obj 1339 2490 s \$0-Tapiir/outputs/output-0/gain;
#X connect 418 1 424 0;
#X connect 424 0 425 0;
#X msg 715 2510 1;
#X obj 715 2530 s \$0-Tapiir/outputs/output-0/input-0;
#X connect 50 0 426 0;
#X connect 426 0 427 0;
#X obj 1027 2510 r \$0-Tapiir/outputs/output-0/input-0;
#X msg 1027 2530 /Tapiir/outputs/output-0/input-0 \$1;
#X connect 428 0 429 0;
#X connect 429 0 51 0;
#X obj 1339 2510 route /Tapiir/outputs/output-0/input-0;
#X obj 1339 2530 s \$0-Tapiir/outputs/output-0/input-0;
#X connect 424 1 430 0;
#X connect 430 0 431 0;
#X msg 715 2550 1;
#X obj 715 2570 s \$0-Tapiir/outputs/output-0/input-1;
#X connect 50 0 432 0;
#X connect 432 0 433 0;
#X obj 1027 2550 r \$0-Tapiir/outputs/output-0/input-1;
#X msg 1027 2570 /Tapiir/outputs/output-0/input-1 \$1;
#X connect 434 0 435 0;
#X connect 435 0 51 0;
#X obj 1339 2550 route /Tapiir/outputs/output-0/input-1;
#X obj 1339 2570 s \$0-Tapiir/outputs/output-0/input-1;
#X connect 430 1 436 0;
#X connect 436 0 437 0;
#X msg 715 2590 0;
#X obj 715 2610 s \$0-Tapiir/outputs/output-0/tap-0;
#X connect 50 0 438 0;
#X connect 438 0 439 0;
#X obj 1027 2590 r \$0-Tapiir/outputs/output-0/tap-0;
#X msg 1027 2610 /Tapiir/outputs/output-0/tap-0 \$1;
#X connect 440 0 441 0;
#X connect 441 0 51 0;
#X obj 1339 2590 route /Tapiir/outputs/output-0/tap-0;
#X obj 1339 2610 s \$0-Tapiir/outputs/output-0/tap-0;
#X connect 436 1 442 0;
#X connect 442 0 443 0;
#X msg 715 2630 0;
#X obj 715 2650 s \$0-Tapiir/outputs/output-0/tap-1;
#X connect 50 0 444 0;
#X connect 444 0 445 0;
#X obj 1027 2630 r \$0-Tapiir/outputs/output-0/tap-1;
#X msg 1027 2650 /Tapiir/outputs/output-0/tap-1 \$1;
#X connect 446 0 447 0;
#X connect 447 0 51 0;
#X obj 1339 2630 route /Tapiir/outputs/output-0/tap-1;
#X obj 1339 2650 s \$0-Tapiir/outputs/output-0/tap-1;
#X connect 442 1 448 0;
#X connect 448 0 449 0;
#X msg 715 2670 0;
#X obj 715 2690 s \$0-Tapiir/outputs/output-0/tap-2;
#X connect 50 0 450 0;
#X connect 450 0 451 0;
#X obj 1027 2670 r \$0-Tapiir/outputs/output-0/tap-2;
#X msg 1027 2690 /Tapiir/outputs/output-0/tap-2 \$1;
#X connect 452 0 453 0;
#X connect 453 0 51 0;
#X obj 1339 2670 route /Tapiir/outputs/output-0/tap-2;
#X obj 1339 2690 s \$0-Tapiir/outputs/output-0/tap-2;
#X connect 448 1 454 0;
#X connect 454 0 455 0;
#X msg 715 2710 0;
#X obj 715 2730 s \$0-Tapiir/outputs/output-0/tap-3;
#X connect 50 0 456 0;
#X connect 456 0 457 0;
#X obj 1027 2710 r \$0-Tapiir/outputs/output-0/tap-3;
#X msg 1027 2730 /Tapiir/outputs/output-0/tap-3 \$1;
#X connect 458 0 459 0;
#X connect 459 0 51 0;
#X obj 1339 2710 route /Tapiir/outputs/output-0/tap-3;
#X obj 1339 2730 s \$0-Tapiir/outputs/output-0/tap-3;
#X connect 454 1 460 0;
#X connect 460 0 461 0;
#X msg 715 2750 0;
#X obj 715 2770 s \$0-Tapiir/outputs/output-0/tap-4;
#X connect 50 0 462 0;
#X connect 462 0 463 0;
#X obj 1027 2750 r \$0-Tapiir/outputs/output-0/tap-4;
#X msg 1027 2770 /Tapiir/outputs/output-0/tap-4 \$1;
#X connect 464 0 465 0;
#X connect 465 0 51 0;
#X obj 1339 2750 route /Tapiir/outputs/output-0/tap-4;
#X obj 1339 2770 s \$0-Tapiir/outputs/output-0/tap-4;
#X connect 460 1 466 0;
#X connect 466 0 467 0;
#X msg 715 2790 0;
#X obj 715 2810 s \$0-Tapiir/outputs/output-0/tap-5;
#X connect 50 0 468 0;
#X connect 468 0 469 0;
#X obj 1027 2790 r \$0-Tapiir/outputs/output-0/tap-5;
#X msg 1027 2810 /Tapiir/outputs/output-0/tap-5 \$1;
#X connect 470 0 471 0;
#X connect 471 0 51 0;
#X obj 1339 2790 route /Tapiir/outputs/output-0/tap-5;
#X obj 1339 2810 s \$0-Tapiir/outputs/output-0/tap-5;
#X connect 466 1 472 0;
#X connect 472 0 473 0;
#X msg 715 2830 1;
#X obj 715 2850 s \$0-Tapiir/outputs/output-1/gain;
#X connect 50 0 474 0;
#X connect 474 0 475 0;
#X obj 1027 2830 r \$0-Tapiir/outputs/output-1/gain;
#X msg 1027 2850 /Tapiir/outputs/output-1/gain \$1;
#X connect 476 0 477 0;
#X connect 477 0 51 0;
#X obj 1339 2830 route /Tapiir/outputs/output-1/gain;
#X obj 1339 2850 s \$0-Tapiir/outputs/output-1/gain;
#X connect 472 1 478 0;
#X connect 478 0 479 0;
#X msg 715 2870 1;
#X obj 715 2890 s \$0-Tapiir/outputs/output-1/input-0;
#X connect 50 0 480 0;
#X connect 480 0 481 0;
#X obj 1027 2870 r \$0-Tapiir/outputs/output-1/input-0;
#X msg 1027 2890 /Tapiir/outputs/output-1/input-0 \$1;
#X connect 482 0 483 0;
#X connect 483 0 51 0;
#X obj 1339 2870 route /Tapiir/outputs/output-1/input-0;
#X obj 1339 2890 s \$0-Tapiir/outputs/output-1/input-0;
#X connect 478 1 484 0;
#X connect 484 0 485 0;
#X msg 715 2910 1;
#X obj 715 2930 s \$0-Tapiir/outputs/output-1/input-1;
#X connect 50 0 486 0;
#X connect 486 0 487 0;
#X obj 1027 2910 r \$0-Tapiir/outputs/output-1/input-1;
#X msg 1027 2930 /Tapiir/outputs/output-1/input-1 \$1;
#X connect 488 0 489 0;
#X connect 489 0 51 0;
#X obj 1339 2910 route /Tapiir/outputs/output-1/input-1;
#X obj 1339 2930 s \$0-Tapiir/outputs/output-1/input-1;
#X connect 484 1 490 0;
#X connect 490 0 491 0;
#X msg 715 2950 0;
#X obj 715 2970 s \$0-Tapiir/outputs/output-1/tap-0;
#X connect 50 0 492 0;
#X connect 492 0 493 0;
#X obj 1027 2950 r \$0-Tapiir/outputs/output-1/tap-0;
#X msg 1027 2970 /Tapiir/outputs/output-1/tap-0 \$1;
#X connect 494 0 495 0;
#X connect 495 0 51 0;
#X obj 1339 2950 route /Tapiir/outputs/output-1/tap-0;
#X obj 1339 2970 s \$0-Tapiir/outputs/output-1/tap-0;
#X connect 490 1 496 0;
#X connect 496 0 497 0;
#X msg 715 2990 0;
#X obj 715 3010 s \$0-Tapiir/outputs/output-1/tap-1;
#X connect 50 0 498 0;
#X connect 498 0 499 0;
#X obj 1027 2990 r \$0-Tapiir/outputs/output-1/tap-1;
#X msg 1027 3010 /Tapiir/outputs/output-1/tap-1 \$1;
#X connect 500 0 501 0;
#X connect 501 0 51 0;
#X obj 1339 2990 route /Tapiir/outputs/output-1/tap-1;
#X obj 1339 3010 s \$0-Tapiir/outputs/output-1/tap-1;
#X connect 496 1 502 0;
#X connect 502 0 503 0;
#X msg 715 3030 0;
#X obj 715 3050 s \$0-Tapiir/outputs/output-1/tap-2;
#X connect 50 0 504 0;
#X connect 504 0 505 0;
#X obj 1027 3030 r \$0-Tapiir/outputs/output-1/tap-2;
#X msg 1027 3050 /Tapiir/outputs/output-1/tap-2 \$1;
#X connect 506 0 507 0;
#X connect 507 0 51 0;
#X obj 1339 3030 route /Tapiir/outputs/output-1/tap-2;
#X obj 1339 3050 s \$0-Tapiir/outputs/output-1/tap-2;
#X connect 502 1 508 0;
#X connect 508 0 509 0;
#X msg 715 3070 0;
#X obj 715 3090 s \$0-Tapiir/outputs/output-1/tap-3;
#X connect 50 0 510 0;
#X connect 510 0 511 0;
#X obj 1027 3070 r \$0-Tapiir/outputs/output-1/tap-3;
#X msg 1027 3090 /Tapiir/outputs/output-1/tap-3 \$1;
#X connect 512 0 513 0;
#X connect 513 0 51 0;
#X obj 1339 3070 route /Tapiir/outputs/output-1/tap-3;
#X obj 1339 3090 s \$0-Tapiir/outputs/output-1/tap-3;
#X connect 508 1 514 0;
#X connect 514 0 515 0;
#X msg 715 3110 0;
#X obj 715 3130 s \$0-Tapiir/outputs/output-1/tap-4;
#X connect 50 0 516 0;
#X connect 516 0 517 0;
#X obj 1027 3110 r \$0-Tapiir/outputs/output-1/tap-4;
#X msg 1027 3130 /Tapiir/outputs/output-1/tap-4 \$1;
#X connect 518 0 519 0;
#X connect 519 0 51 0;
#X obj 1339 3110 route /Tapiir/outputs/output-1/tap-4;
#X obj 1339 3130 s \$0-Tapiir/outputs/output-1/tap-4;
#X connect 514 1 520 0;
#X connect 520 0 521 0;
#X msg 715 3150 0;
#X obj 715 3170 s \$0-Tapiir/outputs/output-1/tap-5;
#X connect 50 0 522 0;
#X connect 522 0 523 0;
#X obj 1027 3150 r \$0-Tapiir/outputs/output-1/tap-5;
#X msg 1027 3170 /Tapiir/outputs/output-1/tap-5 \$1;
#X connect 524 0 525 0;
#X connect 525 0 51 0;
#X obj 1339 3150 route /Tapiir/outputs/output-1/tap-5;
#X obj 1339 3170 s \$0-Tapiir/outputs/output-1/tap-5;
#X connect 520 1 526 0;
#X connect 526 0 527 0;
#X coords 0 -1 1 1 685 380 1 0 0;
#X text 0 400 Generated Mon 16 Oct 2006 01:15:59 PM CEST by faust2pd v1.0. See http://faudiostream.sf.net and http://q-lang.sf.net.;
