#N canvas 364 81 761 668 10;
#X msg 284 576 \; pd dsp 1;
#X msg 284 614 \; pd dsp 0;
#X obj 13 447 audio-out;
#X obj 531 518 seq;
#X msg 563 448 bang;
#X msg 563 475 stop;
#X msg 613 474 pause;
#X msg 673 474 continue;
#X text 601 447 play;
#X obj 531 545 midiout;
#X text 71 5 MIDI channel must be set to 1;
#X obj 13 78 piano;
#X obj 442 452 loadbang;
#X obj 13 27 midi-in 8;
#X obj 360 25 midi-in 2;
#X obj 127 382 *~ 0.8;
#X obj 241 405 *~ 0.8;
#X obj 327 410 *~ 10;
#X obj 469 414 *~ 10;
#X obj 268 78 voiceForm;
#X msg 442 476 read daisy.mid;
#X text 385 4 MIDI channel must be set to 2;
#X text 352 582 In order to have this example work \, input device
and output device in MIDI settings must be set to the same internal
driver.;
#X connect 3 0 9 0;
#X connect 4 0 3 0;
#X connect 5 0 3 0;
#X connect 6 0 3 0;
#X connect 7 0 3 0;
#X connect 11 1 15 0;
#X connect 11 2 16 0;
#X connect 12 0 20 0;
#X connect 13 0 11 0;
#X connect 13 1 11 1;
#X connect 14 0 19 0;
#X connect 14 1 19 1;
#X connect 15 0 2 1;
#X connect 16 0 2 2;
#X connect 17 0 2 1;
#X connect 18 0 2 2;
#X connect 19 1 17 0;
#X connect 19 2 18 0;
#X connect 20 0 3 0;
